<svg xmlns="http://www.w3.org/2000/svg" viewBox="0 0 190.23 95.7"><defs><style>.cls-1{fill:#fff;}</style></defs><title>Ativo 1</title><g id="Camada_2" data-name="Camada 2"><g id="Capa"><path class="cls-1" d="M42.27,17.46a6.41,6.41,0,0,1,2.22-.15,18.81,18.81,0,0,1,2.17.33,10.72,10.72,0,0,1,5.58,3.16,11.11,11.11,0,0,1,3.14,5.73,13,13,0,0,1-3.65,12,19.25,19.25,0,0,1-5.33,3.64,19,19,0,0,1-5.33,1.67,43.33,43.33,0,0,1-5.56.49q-2.52,0-5-.2t-5-.62q-.3,4.49-.85,8.88t-1.34,8.84q-.78,4.1-1.9,8.2a62,62,0,0,1-2.77,8A34.34,34.34,0,0,1,16.87,81a20.39,20.39,0,0,1-2.28,3.2,16.6,16.6,0,0,1-3,2.92,9,9,0,0,1-3.83,1.72,1.69,1.69,0,0,1-1.12-.16,2.38,2.38,0,0,1-.85-.72,2,2,0,0,1-.37-1.05,1.87,1.87,0,0,1,1.15-1.82q.51-.2,1-.43a7.12,7.12,0,0,0,1-.44,6.82,6.82,0,0,0,1-.63,14.55,14.55,0,0,0,3.66-4.34,36.17,36.17,0,0,0,2.36-5.12,63.79,63.79,0,0,0,3.56-12.36Q20.38,55.36,21,48.9q.34-2.86.55-6a29.88,29.88,0,0,0-5.93-.19,21.11,21.11,0,0,0-5.8,1.21,12,12,0,0,0-2.81,1.35,6.8,6.8,0,0,0-2.16,2.25A5.81,5.81,0,0,0,4,50.43a7,7,0,0,0,.55,3.06A8.86,8.86,0,0,0,6.2,55.86,3.87,3.87,0,0,0,8.79,57.1a2,2,0,0,0,.75,0l.72-.14.66-.26a1.89,1.89,0,0,1,.69-.13,2.29,2.29,0,0,1,1.16.36,1.69,1.69,0,0,1,.73,1,2,2,0,0,1,0,1.29,2.26,2.26,0,0,1-.71.92,3.28,3.28,0,0,1-1.11.59,11.74,11.74,0,0,1-1.2.3,7.13,7.13,0,0,1-3.26-.13,9.75,9.75,0,0,1-2.95-1.34,10.65,10.65,0,0,1-3.7-5.28,10.83,10.83,0,0,1-.18-6.44,10.43,10.43,0,0,1,3.45-5.12A14.41,14.41,0,0,1,9.38,39.9a23.2,23.2,0,0,1,6.43-.72q3.25.09,6.45.43l.69.07.53-.1a1.77,1.77,0,0,1,1.15.32q2.23.26,4.4.42a38.78,38.78,0,0,0,4.41.08A22.58,22.58,0,0,0,36.88,40a11,11,0,0,0,3.22-1.16,12.91,12.91,0,0,0,3.24-2.66,14.09,14.09,0,0,0,1.72-2.41,8.48,8.48,0,0,0,1-2.88A5.41,5.41,0,0,0,45.65,28,8.78,8.78,0,0,0,44,25.57a7.7,7.7,0,0,0-1.5-1.28A17.28,17.28,0,0,1,40.9,23.1a3.44,3.44,0,0,1-1-2.22,3,3,0,0,1,.72-2.28A3.56,3.56,0,0,1,42.27,17.46Z"/><path class="cls-1" d="M39.32,77.51a18.76,18.76,0,0,1-3.77-.59,16,16,0,0,1-4.3-1.81,13.33,13.33,0,0,1-1.58-1.16,9.54,9.54,0,0,1-1.29-1.35,9.58,9.58,0,0,1-1.23-2.55A6.35,6.35,0,0,1,27,67.16a10,10,0,0,1,1.43-3.74,13,13,0,0,1,3-3.35,16.44,16.44,0,0,1,5.24-2.8,18.64,18.64,0,0,1,6.31-.9,2.9,2.9,0,0,1,1.87.59,1.81,1.81,0,0,1,.79,1.36,1.61,1.61,0,0,1-.89,1.26,3.25,3.25,0,0,1-1.94.41,9.38,9.38,0,0,0-4.29.66,10.72,10.72,0,0,0-2.79,1.66,10.28,10.28,0,0,0-2.29,2.65,7.38,7.38,0,0,0-1.06,3,3.82,3.82,0,0,0-.08,1.08,4.8,4.8,0,0,0,.37,1.68,5.11,5.11,0,0,0,1.17,1.71,5,5,0,0,0,2.43,1.21,7.6,7.6,0,0,0,5.64-.77l1-.68a14,14,0,0,1-3.8-2.41c-1.92-1.74-2.65-3.5-2.19-5.41a4.72,4.72,0,0,1,2.42-2.9,7.88,7.88,0,0,1,2-.77,9.27,9.27,0,0,1,2.34-.27,7.57,7.57,0,0,1,4.11,1,5.6,5.6,0,0,1,2.58,2.83,9.18,9.18,0,0,1,.06,5.35,3.77,3.77,0,0,0,1.34-.91,5,5,0,0,0,1-1.77A1.9,1.9,0,0,1,54,65.87a3.42,3.42,0,0,1,2.06-.11,2.72,2.72,0,0,1,1.62,1.05,1.69,1.69,0,0,1,.3,1.56,6.73,6.73,0,0,1-2.12,3.37,8.68,8.68,0,0,1-2.74,1.54,12.22,12.22,0,0,1-4.78.5q-.56.58-1.13,1.12a8.05,8.05,0,0,1-1.25,1,8.86,8.86,0,0,1-4.44,1.55A12.26,12.26,0,0,1,39.32,77.51Zm4.57-13.4a2.66,2.66,0,0,0-1,.28,1.09,1.09,0,0,0-.6.93,2,2,0,0,0,.41,2.11A6.11,6.11,0,0,0,45,69.06l0-.12a6.27,6.27,0,0,0,.44-2.16A4.68,4.68,0,0,0,45.12,65a1.1,1.1,0,0,0-1.06-.87Z"/><path class="cls-1" d="M66,77.52A17.73,17.73,0,0,1,61.78,77a11.67,11.67,0,0,1-6-3.43,9.22,9.22,0,0,1-2.35-5.87,8.41,8.41,0,0,1,.09-2.28,13.81,13.81,0,0,1,.62-2.32,14,14,0,0,1,2.34-4.36,15,15,0,0,1,4.07-4.07,12.7,12.7,0,0,1,4.92-2,7.52,7.52,0,0,1,3.77.25,5.31,5.31,0,0,1,2.86,1.92,4.93,4.93,0,0,1,1,4.08,8.44,8.44,0,0,1-2.32,4.57,2.79,2.79,0,0,1-1.78.78,3,3,0,0,1-2-.47A2.14,2.14,0,0,1,66,62.39a1.63,1.63,0,0,1,.5-1.54,4.82,4.82,0,0,0,1.29-2.24,1.72,1.72,0,0,0-.24-1.4.93.93,0,0,0-1-.37,5.81,5.81,0,0,0-2.69,1.23,11.56,11.56,0,0,0-2.49,2.71,12.74,12.74,0,0,0-2.45,7.33,5.69,5.69,0,0,0,.18,1.45A5.48,5.48,0,0,0,59.63,71a4,4,0,0,0,1.11,1.22A4.7,4.7,0,0,0,62.5,73a9.49,9.49,0,0,0,9.36-3.1,14.21,14.21,0,0,0,2.54-3.54c.53-1.12.82-1.72.87-1.77a2.08,2.08,0,0,1,1.32-1.22,3.15,3.15,0,0,1,2.05,0,2.73,2.73,0,0,1,1.59,1.2,2.16,2.16,0,0,1,.25,1.76,5.05,5.05,0,0,0-.34.71c-.18.41-.45.94-.79,1.57s-.76,1.34-1.26,2.1a12.36,12.36,0,0,1-1.85,2.22,14.52,14.52,0,0,1-2.62,2.35,12.66,12.66,0,0,1-3,1.52A15.6,15.6,0,0,1,66,77.52Z"/><path class="cls-1" d="M84.23,76.95a9,9,0,0,1-3.75-.72A8.1,8.1,0,0,1,76,71.85a9.88,9.88,0,0,1-.68-5.42A21.12,21.12,0,0,1,76.87,61a29,29,0,0,1,3-5.49A24.46,24.46,0,0,1,84,50.91a12.88,12.88,0,0,1,5.45-2.75,12,12,0,0,1,8.27,1.31,7.78,7.78,0,0,1,1.76,1.34q.48.56,1.07,1.15a2.24,2.24,0,0,1,.49,2,2.8,2.8,0,0,1-1.07,1.57A2.88,2.88,0,0,1,98,56a2.72,2.72,0,0,1-2-1.2l-.21-.13-.09,0a9.25,9.25,0,0,0-1.23-1.06,5.7,5.7,0,0,0-7,.94,17.53,17.53,0,0,0-3,3.39,27.79,27.79,0,0,0-2.47,4.45,16.73,16.73,0,0,0-1.36,4.81,6.76,6.76,0,0,0-.06,1.16,7.2,7.2,0,0,0,.17,1.41,4.55,4.55,0,0,0,.52,1.35,2,2,0,0,0,1.05.88,1.15,1.15,0,0,0,.62.16A2.28,2.28,0,0,0,83.9,72a7.85,7.85,0,0,0,2.48-1.74A20.56,20.56,0,0,0,90,64.77q.49-1.15,1-2.18a16.21,16.21,0,0,0,.75-1.92l.41-1.33a8.18,8.18,0,0,1,.52-1.27,2.56,2.56,0,0,1,1.88-1.59l.36-.06a1.07,1.07,0,0,0,.46,0,.65.65,0,0,1,.48.09l.09,0c0,.06.08.07.2.05a2.85,2.85,0,0,1,1.45,1.23,2.55,2.55,0,0,1,.3,2l-1,2.76a19.53,19.53,0,0,0-.65,4.94A7.41,7.41,0,0,0,96.91,71a1.15,1.15,0,0,0,.26.41l.21.15a1.74,1.74,0,0,0,.43.09,1.25,1.25,0,0,0,.64-.19,6.92,6.92,0,0,0,1.93-2,19.51,19.51,0,0,0,2-3.62c.52-1.38.92-2.49,1.18-3.31l.44-1.51a2.51,2.51,0,0,1,1.25-1.61,2.64,2.64,0,0,1,2.06-.3A2.69,2.69,0,0,1,109,60.41a2.8,2.8,0,0,1,.36,2.12,15.58,15.58,0,0,1-.49,1.74c-.34,1.1-.8,2.39-1.37,3.87-1.8,4.27-3.86,6.88-6.19,7.94a5.62,5.62,0,0,1-2.3.7,6.18,6.18,0,0,1-2.79-.42A7.1,7.1,0,0,1,92,72.9a1.45,1.45,0,0,1-.3-.57l-.22.27a12.25,12.25,0,0,1-5.05,3.91A7.21,7.21,0,0,1,84.23,76.95ZM95.81,54.7c0,.11.06.16.12.15S95.83,54.82,95.81,54.7Z"/><path class="cls-1" d="M102.68,84.39a3,3,0,0,1-1.93-.69,2.87,2.87,0,0,1-1.15-1.77,2.06,2.06,0,0,1,.3-1.91,2.48,2.48,0,0,1,1.66-.94q5.82-.63,11.65-1.41,1-2.82,1.95-5.7a8,8,0,0,1-5.69-.29A8.21,8.21,0,0,1,104.95,67a12.58,12.58,0,0,1-.7-6,23.61,23.61,0,0,1,1.48-5.88,32.43,32.43,0,0,1,3-5.93,23.69,23.69,0,0,1,4.52-5.32,11.72,11.72,0,0,1,4.87-2.65,10.66,10.66,0,0,1,4.8-.07A10.31,10.31,0,0,1,126,42.49a7.1,7.1,0,0,1,1.76,1.8c.39.61.62,1,.7,1.08a2.93,2.93,0,0,1,.53,2.51,2.79,2.79,0,0,1-1.34,1.64,3,3,0,0,1-2.13.3,2.73,2.73,0,0,1-1.85-1.56,1.47,1.47,0,0,0-.31-.42,3.61,3.61,0,0,0-.81-.64,4.32,4.32,0,0,0-1.44-.49,5.25,5.25,0,0,0-2.16.14,5.56,5.56,0,0,0-2.76,1.67,21.48,21.48,0,0,0-2.94,3.65A26.46,26.46,0,0,0,110.88,57a19.65,19.65,0,0,0-1.18,4.72,9.07,9.07,0,0,0,.09,2.91,2.46,2.46,0,0,0,1.47,2,2.05,2.05,0,0,0,2.08-.1,7.2,7.2,0,0,0,2.76-2.41,25.35,25.35,0,0,0,2.78-4.91c.77-1.82,1.4-3.45,1.89-4.85l.46-1.57a3.23,3.23,0,0,1,1.4-1.74,2.41,2.41,0,0,1,2-.22,2.3,2.3,0,0,1,1.58,1.35,3.42,3.42,0,0,1,.26,2.26c-.12,0-.32.64-.6,1.83q-2.07,6.84-4.14,13.42,1.08-1.13,2.11-2.28a14.71,14.71,0,0,0,1.87-2.64,23.89,23.89,0,0,0,1.56-3.44,31,31,0,0,0,1.25-4.7,2.94,2.94,0,0,1,1.16-1.82,2.43,2.43,0,0,1,2.06-.39,2.65,2.65,0,0,1,1.66,1.35,3.15,3.15,0,0,1,.34,2.27A38.51,38.51,0,0,1,132.21,64a27.5,27.5,0,0,1-2.29,4.84,28.39,28.39,0,0,1-2.52,3.4A30.71,30.71,0,0,1,124.7,75l-1.4,1.35,4.51-.71a2.7,2.7,0,0,1,2,.58,3.41,3.41,0,0,1,1.25,2,2.78,2.78,0,0,1-.31,2.19A2.48,2.48,0,0,1,129,81.56q-5.4.7-10.79,1.27a34.91,34.91,0,0,0-2.37,4.85q-.81,2.47-1.62,4.91l-.51,1.62a1.92,1.92,0,0,1-2,1.51,3.3,3.3,0,0,1-3.08-4.18l.42-1.11a1.31,1.31,0,0,1,.08-.56l.89-2.71q.43-1.32.92-2.55l.36-1q-4.19.41-8.39.75Z"/><path class="cls-1" d="M137.53,71.72a4.54,4.54,0,0,1-1,0,4.37,4.37,0,0,1-1-.17,7.24,7.24,0,0,1-5.25-4.07c-2-3.65-2.09-9.42-.2-17.76q.9-4.41,1.89-7.62c.66-2.14,1-3.31,1.13-3.47a2.84,2.84,0,0,1,1.37-1.81,2.45,2.45,0,0,1,2.12-.17,2.5,2.5,0,0,1,1.53,1.55,3.57,3.57,0,0,1,0,2.44,27.38,27.38,0,0,0-1,3.14q-.92,3.1-1.79,7.28c-.47,2.35-.78,4.31-.94,5.9a33.57,33.57,0,0,0-.21,3.95,10.24,10.24,0,0,0,.27,2.4,4.49,4.49,0,0,0,.48,1.22,1.5,1.5,0,0,0,1.26.93,2,2,0,0,0,1.53-.69,10.9,10.9,0,0,0,1.88-2.47A48.69,48.69,0,0,0,144,51.6q.81-3,1.62-6,.09-.57.2-1t.29-1.07q.46-2.32,1-4.62t.88-4.63a3.88,3.88,0,0,1,1.2-2.16,2.24,2.24,0,0,1,2-.66,2.52,2.52,0,0,1,1.71,1.29,3.35,3.35,0,0,1,.38,2.42c0,.16-.26,1.4-.67,3.71s-1,5.1-1.79,8.37l-1,4.94q-.46,2.34-.71,4.28a19.5,19.5,0,0,0-.28,4.33,3.74,3.74,0,0,0,.38,1.53c0,.22.2.33.51.34s.79-.23,1.41-1a15.69,15.69,0,0,0,2.13-4.06A30.62,30.62,0,0,0,155,52.69c.38-1.53.56-2.34.55-2.42a3.58,3.58,0,0,1,1.3-2.06,2,2,0,0,1,2-.32,2.34,2.34,0,0,1,1.67,1.52,4.52,4.52,0,0,1,.26,2.61c0,.09-.29,1-.73,2.8a44.68,44.68,0,0,1-1.92,5.82A35.78,35.78,0,0,1,156.48,64a19.4,19.4,0,0,1-1.67,2.55,6.48,6.48,0,0,1-3.37,2.48,5,5,0,0,1-2.66,0,6.58,6.58,0,0,1-4.21-3.43l0-.21-.45.63a15.32,15.32,0,0,1-1.65,2.51,10.72,10.72,0,0,1-1.77,1.74A7,7,0,0,1,137.53,71.72Z"/><path class="cls-1" d="M165.76,67.49a4.07,4.07,0,0,1-2.12-.05,7.52,7.52,0,0,1-4.46-1.92,10.36,10.36,0,0,1-2.26-3.11c-1.46-3.14-1.72-7.33-.77-12.76a55.67,55.67,0,0,1,1.73-7.71q1.14-3.79,2.2-6.57a3.24,3.24,0,0,1,1.47-2,2,2,0,0,1,2.06,0,2.86,2.86,0,0,1,1.44,1.77,4.14,4.14,0,0,1-.1,2.76c-.88,2.41-1.61,4.68-2.18,6.84s-1,4.17-1.35,6a20.73,20.73,0,0,0-.34,5.69,12.94,12.94,0,0,0,.57,2.55,3.11,3.11,0,0,0,.74.94,3.45,3.45,0,0,0,1.61.64,1.83,1.83,0,0,0,.73,0,4.5,4.5,0,0,0,2.72-2.47,30.12,30.12,0,0,0,1.87-3.88q.52-1.46,1-3c.31-1,.57-1.91.76-2.69q.35-1.43.64-2.61a3.77,3.77,0,0,1,1.2-2.24,2.08,2.08,0,0,1,2-.54,2.65,2.65,0,0,1,1.66,1.54,4.32,4.32,0,0,1,.34,2.69,6.46,6.46,0,0,1-.18,1q-.19.92-.5,2.31c-.21.92-.49,2-.85,3.13s-.76,2.33-1.2,3.5c-1.39,3.61-2.81,6.12-4.29,7.56A8.68,8.68,0,0,1,165.76,67.49ZM169,25.7a2,2,0,0,1-1.72-.21,3,3,0,0,1-1.4-1.81,4.33,4.33,0,0,1,.15-2.73l1-2.54a4.07,4.07,0,0,1,1.58-2.06,1.72,1.72,0,0,1,2-.07,2.63,2.63,0,0,1,1.45,1.85,4.49,4.49,0,0,1-.2,2.76l-.92,2.66A3.48,3.48,0,0,1,169,25.7Z"/><path class="cls-1" d="M180.41,68a1.88,1.88,0,0,1-.5,0,3.45,3.45,0,0,1-.52-.08,3.38,3.38,0,0,1-1.75-1.68,4,4,0,0,1-.43-2.7l.32-2.31a3.55,3.55,0,0,1,1.09-2.38,2.14,2.14,0,0,1,2-.62,3.2,3.2,0,0,1,1.74,1.59,4.7,4.7,0,0,1,.53,2.78L182.56,65Q182.19,67.63,180.41,68ZM183,48.43a1.83,1.83,0,0,1-.5.08,2.9,2.9,0,0,1-.52,0A3,3,0,0,1,180.26,47a4.12,4.12,0,0,1-.44-2.75q2.52-19.87,5-40.47a5,5,0,0,1,1-2.71,2.28,2.28,0,0,1,2-1,2.42,2.42,0,0,1,1.74,1.26,4.08,4.08,0,0,1,.51,2.63q-2.51,21-5,41.35Q184.79,47.92,183,48.43Z"/></g></g></svg>