<svg xmlns="http://www.w3.org/2000/svg" viewBox="0 0 451.16 211.39"><defs><style>.cls-1{fill:#606060;}.cls-2{fill:red;}.cls-3,.cls-4,.cls-5{fill:none;stroke:red;stroke-miterlimit:10;}.cls-4{stroke-dasharray:3.01 3.01;}.cls-5{stroke-dasharray:3.01 3.01;}</style></defs><title>areaprotecao</title><g id="Camada_2" data-name="Camada 2"><g id="Marca_-_área_de_proteção" data-name="Marca - área de proteção"><path class="cls-1" d="M10,143.73l1,.53a27.09,27.09,0,0,0,8.71,3,22.4,22.4,0,0,0,10.13-.83,29.1,29.1,0,0,0,8.45-4.3,21.12,21.12,0,0,1,7.54-3.29c1.58-.4,3.15-.85,4.72-1.28a3.23,3.23,0,0,0,.59-.25,1.47,1.47,0,0,0,.83-1.74,1.58,1.58,0,0,0-1.66-1.1c-.74.08-1.48.19-2.3.3,1.09-.43,2.12-.81,3.12-1.25a20.12,20.12,0,0,0,2.13-1.05c.86-.5,1-1.06.69-1.82a1.58,1.58,0,0,0-2-.93c-1.25.44-2.48.94-3.72,1.41a9,9,0,0,1-1.57.47l3.76-2.35c.58-.36,1.17-.72,1.75-1.1a1.56,1.56,0,0,0,.11-2.75,1.29,1.29,0,0,0-1.57-.12c-1.17.7-2.32,1.41-3.47,2.13-.83.52-1.66,1.06-2.54,1.52,1-.95,2-1.88,3-2.84a20,20,0,0,0,1.41-1.5,1.34,1.34,0,0,0,0-1.84,1.25,1.25,0,0,0-1.81-.39,27.94,27.94,0,0,0-2.69,2c-1.69,1.37-3.34,2.77-5,4.16a1.19,1.19,0,0,1-.39.23c.5-.79,1-1.57,1.51-2.38a1.67,1.67,0,0,0-.65-2.47,1,1,0,0,0-1.28,0,9.5,9.5,0,0,0-1.4,1.37C35.9,127.12,34.51,129.1,33,131a7.63,7.63,0,0,1-4.86,3,19.23,19.23,0,0,1-2.6.22,41,41,0,0,1-4.94,0c-3-.3-5.64-1.31-7.13-4.13a29.28,29.28,0,0,1-1.87-4.41,18.59,18.59,0,0,1-.65-7.69c.67-7.33,4.16-13.28,9-18.58a31.4,31.4,0,0,1,10.61-7.75l.16-.09s0,0,.09-.13c-.9.06-1.75.09-2.61.18A40.46,40.46,0,0,0,20.38,93a28.4,28.4,0,0,0-18.87,17.4L.89,112s0,0-.09.09a2.18,2.18,0,0,1-.8-1.53c0-3.62,0-7.25.13-10.86A32.75,32.75,0,0,1,1,94.53C1.74,91,2.39,87.5,3.3,84a75.14,75.14,0,0,1,13.61-27.3A78.13,78.13,0,0,1,63.24,27.92a69.14,69.14,0,0,1,10.14-1.38c3-.15,6-.32,9-.25a73.65,73.65,0,0,1,31,7.47,82.34,82.34,0,0,1,20.79,14.63c1.09,1,2.08,2.2,3.11,3.3a3.13,3.13,0,0,1,.22.34,5,5,0,0,1-.49-.17,17.54,17.54,0,0,0-6.44-1.61c-1.49-.11-3-.2-4.48-.17a26,26,0,0,0-8,1.61,67.55,67.55,0,0,0-9.89,3.82,30.45,30.45,0,0,1-6.21,2c-1.86.52-3.73,1-5.59,1.57a5.82,5.82,0,0,0-1.37.63,1.53,1.53,0,0,0-.74,1.92,1.81,1.81,0,0,0,1.78,1.5c1-.1,2.08-.32,3.11-.49a3.68,3.68,0,0,1,1-.07l-.41.24c-3,1.63-6.09,3.24-9.12,4.89a6.48,6.48,0,0,0-1.53,1.15,1.84,1.84,0,0,0,.66,2.9,1.66,1.66,0,0,0,1.37-.12L97,69.13a3.88,3.88,0,0,1,1-.31l-3.16,2.26-3.17,2.27a5.56,5.56,0,0,0-.47.36,2,2,0,0,0,.2,3.26,1.61,1.61,0,0,0,2-.07c.85-.57,1.67-1.18,2.5-1.78l3.84-2.75a.84.84,0,0,1,.42-.18L99,73.41c-1.12,1.2-2.24,2.38-3.35,3.58a2,2,0,0,0-.11,2.89,1.4,1.4,0,0,0,2.07.24,30.51,30.51,0,0,0,4.27-4c.31-.33.65-.62.93-.87-.39.62-.82,1.3-1.23,2a2,2,0,0,0-.14,2,1.6,1.6,0,0,0,2.59.69,9,9,0,0,0,1.51-1.58c.79-1.06,1.54-2.17,2.25-3.29a10.48,10.48,0,0,1,2.46-2.75c1.08-.83,2.15-1.66,3.24-2.48a8.53,8.53,0,0,1,6.28-1.59,28.53,28.53,0,0,1,3.44.44,7.25,7.25,0,0,1,4.9,4,25.52,25.52,0,0,1,2,5.87,51.28,51.28,0,0,1,1.21,7.07,45.11,45.11,0,0,1,0,7.87,34.41,34.41,0,0,1-2.21,9.78,24.86,24.86,0,0,1-7.6,10.43c-.1.08-.19.18-.35.33.54,0,1,.09,1.44.11a36,36,0,0,0,12.34-1.53,23.84,23.84,0,0,0,5.77-3,35.87,35.87,0,0,0,14.38-18.89c.33-1,.72-1.91,1.09-2.86a4.58,4.58,0,0,1,.28-.49c.22,1.13.42,2.14.61,3.15q.81,4.41,1.61,8.81a7.61,7.61,0,0,1,.13,1.32c0,3.24.05,6.48,0,9.72a27,27,0,0,1-.53,3.89c-.46,2.67-.93,5.34-1.45,8a74.31,74.31,0,0,1-9.34,24.25,80,80,0,0,1-11.71,15.22,77.3,77.3,0,0,1-35.35,20.76,60.6,60.6,0,0,1-9.07,1.71c-2.88.32-5.76.71-8.65.87-2.53.14-5.07.07-7.6,0a53.24,53.24,0,0,1-5.84-.51c-2.85-.42-5.7-.88-8.5-1.51A74.39,74.39,0,0,1,32.7,170.13,80.63,80.63,0,0,1,17.35,155a88.17,88.17,0,0,1-6.2-8.91c-.45-.75-.85-1.53-1.27-2.3ZM26.65,95.32l.07.18.34-.07a22.31,22.31,0,0,1,5.15-.73,32.13,32.13,0,0,1,8.65,1A64.92,64.92,0,0,1,53,100.26c5.76,2.74,11.48,5.55,17.24,8.28a65.17,65.17,0,0,0,7.18,3.09c3.71,1.24,7.49,2.27,11.28,3.26A89.8,89.8,0,0,0,108.65,118a55.17,55.17,0,0,0,9.09-.4,67,67,0,0,0,9.17-1.86c.2-.06.4-.14.67-.23l-.13-.05a44,44,0,0,1-9.91-.42,57,57,0,0,1-11.48-3c-6.53-2.46-13-5-19.56-7.49-4.53-1.71-9-3.71-13.62-5.07C68,98.12,63.19,96.6,58.31,95.31A130.24,130.24,0,0,0,38,91.56a9,9,0,0,0-2.23-.06,17.73,17.73,0,0,0-5.2,1.69C29.24,93.85,28,94.6,26.65,95.32Z"/><circle class="cls-2" cx="38.27" cy="134.65" r="6.44"/><path class="cls-1" d="M276,143.73l1,.53a27.09,27.09,0,0,0,8.71,3,22.4,22.4,0,0,0,10.13-.83,29.1,29.1,0,0,0,8.45-4.3,21.12,21.12,0,0,1,7.54-3.29c1.58-.4,3.15-.85,4.72-1.28a3.23,3.23,0,0,0,.59-.25,1.47,1.47,0,0,0,.83-1.74,1.58,1.58,0,0,0-1.66-1.1c-.74.08-1.48.19-2.3.3,1.09-.43,2.12-.81,3.12-1.25a20.12,20.12,0,0,0,2.13-1.05c.86-.5,1-1.06.69-1.82a1.58,1.58,0,0,0-2-.93c-1.25.44-2.48.94-3.72,1.41a9,9,0,0,1-1.57.47l3.76-2.35c.58-.36,1.17-.72,1.75-1.1a1.56,1.56,0,0,0,.11-2.75,1.29,1.29,0,0,0-1.57-.12c-1.17.7-2.32,1.41-3.47,2.13-.83.52-1.66,1.06-2.54,1.52,1-.95,2-1.88,3-2.84a20,20,0,0,0,1.41-1.5,1.34,1.34,0,0,0,0-1.84,1.25,1.25,0,0,0-1.81-.39,27.94,27.94,0,0,0-2.69,2c-1.69,1.37-3.34,2.77-5,4.16a1.19,1.19,0,0,1-.39.23c.5-.79,1-1.57,1.51-2.38a1.67,1.67,0,0,0-.65-2.47,1,1,0,0,0-1.28,0,9.5,9.5,0,0,0-1.4,1.37c-1.47,1.91-2.86,3.89-4.36,5.78a7.63,7.63,0,0,1-4.86,3,19.23,19.23,0,0,1-2.6.22,41,41,0,0,1-4.94,0c-3-.3-5.64-1.31-7.13-4.13a29.28,29.28,0,0,1-1.87-4.41,18.59,18.59,0,0,1-.65-7.69c.67-7.33,4.16-13.28,9-18.58a31.4,31.4,0,0,1,10.61-7.75l.16-.09s0,0,.09-.13c-.9.06-1.75.09-2.61.18a40.46,40.46,0,0,0-7.8,1.49,28.4,28.4,0,0,0-18.87,17.4l-.62,1.52s0,0-.09.09a2.18,2.18,0,0,1-.8-1.53c0-3.62,0-7.25.13-10.86a32.75,32.75,0,0,1,.88-5.13c.73-3.5,1.38-7,2.29-10.49A75.14,75.14,0,0,1,283,56.73,78.13,78.13,0,0,1,329.3,27.92a69.14,69.14,0,0,1,10.14-1.38c3-.15,6-.32,9-.25a73.65,73.65,0,0,1,31,7.47,82.34,82.34,0,0,1,20.79,14.63c1.09,1,2.08,2.2,3.11,3.3a3.13,3.13,0,0,1,.22.34,5,5,0,0,1-.49-.17,17.54,17.54,0,0,0-6.44-1.61c-1.49-.11-3-.2-4.48-.17a26,26,0,0,0-8,1.61,67.55,67.55,0,0,0-9.89,3.82,30.45,30.45,0,0,1-6.21,2c-1.86.52-3.73,1-5.59,1.57a5.82,5.82,0,0,0-1.37.63,1.53,1.53,0,0,0-.74,1.92,1.81,1.81,0,0,0,1.78,1.5c1-.1,2.08-.32,3.11-.49a3.68,3.68,0,0,1,1-.07l-.41.24c-3,1.63-6.09,3.24-9.12,4.89a6.48,6.48,0,0,0-1.53,1.15,1.84,1.84,0,0,0,.66,2.9,1.66,1.66,0,0,0,1.37-.12L363,69.13a3.88,3.88,0,0,1,1-.31l-3.16,2.26-3.17,2.27a5.56,5.56,0,0,0-.47.36,2,2,0,0,0,.2,3.26,1.61,1.61,0,0,0,2-.07c.85-.57,1.67-1.18,2.5-1.78l3.84-2.75a.84.84,0,0,1,.42-.18l-1.1,1.2c-1.12,1.2-2.24,2.38-3.35,3.58a2,2,0,0,0-.11,2.89,1.4,1.4,0,0,0,2.07.24,30.51,30.51,0,0,0,4.27-4c.31-.33.65-.62.93-.87-.39.62-.82,1.3-1.23,2a2,2,0,0,0-.14,2,1.6,1.6,0,0,0,2.59.69,9,9,0,0,0,1.51-1.58c.79-1.06,1.54-2.17,2.25-3.29a10.48,10.48,0,0,1,2.46-2.75c1.08-.83,2.15-1.66,3.24-2.48a8.53,8.53,0,0,1,6.28-1.59,28.53,28.53,0,0,1,3.44.44,7.25,7.25,0,0,1,4.9,4,25.52,25.52,0,0,1,2,5.87,51.28,51.28,0,0,1,1.21,7.07,45.11,45.11,0,0,1,0,7.87,34.41,34.41,0,0,1-2.21,9.78,24.86,24.86,0,0,1-7.6,10.43c-.1.08-.19.18-.35.33.54,0,1,.09,1.44.11A36,36,0,0,0,401,112.59a23.84,23.84,0,0,0,5.77-3,35.87,35.87,0,0,0,14.38-18.89c.33-1,.72-1.91,1.09-2.86a4.58,4.58,0,0,1,.28-.49c.22,1.13.42,2.14.61,3.15q.81,4.41,1.61,8.81a7.61,7.61,0,0,1,.13,1.32c0,3.24.05,6.48,0,9.72a27,27,0,0,1-.53,3.89c-.46,2.67-.93,5.34-1.45,8a74.31,74.31,0,0,1-9.34,24.25,80,80,0,0,1-11.71,15.22,77.3,77.3,0,0,1-35.35,20.76,60.6,60.6,0,0,1-9.07,1.71c-2.88.32-5.76.71-8.65.87-2.53.14-5.07.07-7.6,0a53.24,53.24,0,0,1-5.84-.51c-2.85-.42-5.7-.88-8.5-1.51a74.39,74.39,0,0,1-28.05-12.85A80.63,80.63,0,0,1,283.41,155a88.17,88.17,0,0,1-6.2-8.91c-.45-.75-.85-1.53-1.27-2.3Zm16.67-48.41.07.18.34-.07a22.31,22.31,0,0,1,5.15-.73,32.13,32.13,0,0,1,8.65,1,64.92,64.92,0,0,1,12.15,4.52c5.76,2.74,11.48,5.55,17.24,8.28a65.17,65.17,0,0,0,7.18,3.09c3.71,1.24,7.49,2.27,11.28,3.26A89.8,89.8,0,0,0,374.71,118a55.17,55.17,0,0,0,9.09-.4,67,67,0,0,0,9.17-1.86c.2-.06.4-.14.67-.23l-.13-.05a44,44,0,0,1-9.91-.42,57,57,0,0,1-11.48-3c-6.53-2.46-13-5-19.56-7.49-4.53-1.71-9-3.71-13.62-5.07-4.86-1.41-9.68-2.94-14.57-4.23a130.24,130.24,0,0,0-20.3-3.75,9,9,0,0,0-2.23-.06,17.73,17.73,0,0,0-5.2,1.69C295.3,93.85,294,94.6,292.71,95.32Z"/><circle class="cls-2" cx="345.47" cy="191.55" r="6.44"/><circle class="cls-2" cx="345.47" cy="204.44" r="6.44"/><circle class="cls-2" cx="259.62" cy="105.69" r="6.44"/><circle class="cls-2" cx="246.73" cy="105.69" r="6.44"/><circle class="cls-2" cx="444.21" cy="105.69" r="6.44"/><circle class="cls-2" cx="431.33" cy="105.69" r="6.44"/><circle class="cls-2" cx="345.47" cy="6.94" r="6.44"/><circle class="cls-2" cx="345.47" cy="19.83" r="6.44"/><polyline class="cls-3" points="450.66 209.39 450.66 210.89 449.16 210.89"/><line class="cls-4" x1="446.15" y1="210.89" x2="243.29" y2="210.89"/><polyline class="cls-3" points="241.78 210.89 240.28 210.89 240.28 209.39"/><line class="cls-5" x1="240.28" y1="206.38" x2="240.28" y2="3.5"/><polyline class="cls-3" points="240.28 2 240.28 0.5 241.78 0.5"/><line class="cls-4" x1="244.79" y1="0.5" x2="447.66" y2="0.5"/><polyline class="cls-3" points="449.16 0.5 450.66 0.5 450.66 2"/><line class="cls-5" x1="450.66" y1="5.01" x2="450.66" y2="207.88"/></g></g></svg>