<svg xmlns="http://www.w3.org/2000/svg" viewBox="0 0 673 85.93"><defs><style>.cls-1{fill:#795745;}.cls-2{font-size:42px;fill:#fff;font-family:Quicksand-Medium, Quicksand;}.cls-3{letter-spacing:-0.02em;}.cls-4{letter-spacing:0em;}.cls-5{letter-spacing:-0.02em;}.cls-6{letter-spacing:0em;}</style></defs><title>areaprotecao_1</title><g id="Camada_2" data-name="Camada 2"><g id="Elementos_básicos" data-name="Elementos básicos"><path class="cls-1" d="M673,79.09c-44.85,5.55-92.85,7.44-140.85,6.68-22-.38-43-1.14-65-2.65-41-3-76-7.95-116-12.11-21-1.89-40-3.41-61-4.92l-42-2.27h-10c-56-2.27-111-1.89-167,1.14-11,.76-20,1.14-31,1.89-14,1.14-26,3-40.15,4V36.86H673Z"/><polyline class="cls-1" points="0 36.86 0 0 673 0 673 36.86"/><text class="cls-2" transform="translate(160.98 44.94)"><tspan xml:space="preserve"> Á</tspan><tspan class="cls-3" x="38.6" y="0">r</tspan><tspan class="cls-4" x="55.02" y="0">e</tspan><tspan x="79.13" y="0">a de P</tspan><tspan class="cls-5" x="203.11" y="0">r</tspan><tspan x="219.53" y="0">o</tspan><tspan class="cls-6" x="244.98" y="0">t</tspan><tspan x="260.73" y="0">eção</tspan></text></g></g></svg>