<svg xmlns="http://www.w3.org/2000/svg" viewBox="0 0 565.2 172.01"><defs><style>.cls-1{fill:#606060;}.cls-2{fill:none;stroke:#ff226e;stroke-miterlimit:10;stroke-width:2px;}.cls-3{font-size:9px;font-family:Karla-Regular, Karla;}</style></defs><title>dimensaominima</title><g id="Camada_2" data-name="Camada 2"><g id="Marca_-_dimensão_mini" data-name="Marca - dimensão mini"><path class="cls-1" d="M469,150.48l.37.19a9.67,9.67,0,0,0,3.11,1.06,8,8,0,0,0,3.62-.3,10.39,10.39,0,0,0,3-1.53,7.54,7.54,0,0,1,2.69-1.18c.56-.14,1.12-.3,1.68-.46a1.15,1.15,0,0,0,.21-.09.52.52,0,0,0,.3-.62.56.56,0,0,0-.59-.39l-.82.11c.39-.15.76-.29,1.11-.44a7.18,7.18,0,0,0,.76-.38c.31-.18.37-.38.25-.65a.56.56,0,0,0-.71-.33c-.45.16-.89.34-1.33.5a3.22,3.22,0,0,1-.56.17l1.34-.84.62-.39a.56.56,0,0,0,0-1,.46.46,0,0,0-.56,0l-1.24.76c-.3.19-.59.38-.91.54l1.06-1a7.12,7.12,0,0,0,.5-.54.48.48,0,0,0,0-.66.45.45,0,0,0-.65-.14,10,10,0,0,0-1,.7c-.6.49-1.19,1-1.79,1.48a.42.42,0,0,1-.14.08c.18-.28.37-.56.54-.85a.6.6,0,0,0-.23-.88.37.37,0,0,0-.46,0,3.39,3.39,0,0,0-.5.49c-.53.68-1,1.39-1.56,2.06a2.72,2.72,0,0,1-1.73,1.05,6.86,6.86,0,0,1-.93.08,14.64,14.64,0,0,1-1.76,0,3,3,0,0,1-2.55-1.47,10.45,10.45,0,0,1-.67-1.58,6.64,6.64,0,0,1-.23-2.75,12.43,12.43,0,0,1,7-9.4l.06,0,0,0-.93.06a14.44,14.44,0,0,0-2.79.53A10.14,10.14,0,0,0,466,138.6l-.22.54,0,0a.78.78,0,0,1-.29-.55c0-1.29,0-2.59,0-3.88a11.69,11.69,0,0,1,.31-1.83c.26-1.25.49-2.51.82-3.74a26.82,26.82,0,0,1,4.86-9.75A27.89,27.89,0,0,1,488,109.14a24.68,24.68,0,0,1,3.62-.49c1.07-.05,2.15-.11,3.22-.09a26.29,26.29,0,0,1,11.07,2.67,29.39,29.39,0,0,1,7.42,5.22c.39.37.74.78,1.11,1.18a1.12,1.12,0,0,1,.08.12l-.18-.06a6.26,6.26,0,0,0-2.3-.58c-.53,0-1.07-.07-1.6-.06a9.3,9.3,0,0,0-2.85.57A24.11,24.11,0,0,0,504.1,119a10.87,10.87,0,0,1-2.22.71l-2,.56a2.08,2.08,0,0,0-.49.22.55.55,0,0,0-.26.68.64.64,0,0,0,.64.54c.37,0,.74-.11,1.11-.17a1.32,1.32,0,0,1,.35,0l-.14.09-3.26,1.74a2.31,2.31,0,0,0-.55.41.66.66,0,0,0,.24,1,.59.59,0,0,0,.49,0l2.05-.89a1.39,1.39,0,0,1,.35-.11l-1.13.81-1.13.81-.17.13a.72.72,0,0,0,.07,1.16.57.57,0,0,0,.7,0c.3-.2.6-.42.89-.63l1.37-1a.3.3,0,0,1,.15-.06l-.39.43-1.2,1.28a.73.73,0,0,0,0,1,.5.5,0,0,0,.74.09,10.89,10.89,0,0,0,1.52-1.43c.11-.12.23-.22.33-.31l-.44.71a.73.73,0,0,0-.05.7.57.57,0,0,0,.93.25,3.21,3.21,0,0,0,.54-.57c.28-.38.55-.77.8-1.17a3.74,3.74,0,0,1,.88-1l1.16-.88a3,3,0,0,1,2.24-.57,10.19,10.19,0,0,1,1.23.16,2.59,2.59,0,0,1,1.75,1.44,9.11,9.11,0,0,1,.71,2.1,18.3,18.3,0,0,1,.43,2.52,16.1,16.1,0,0,1,0,2.81,12.28,12.28,0,0,1-.79,3.49,8.87,8.87,0,0,1-2.71,3.72l-.12.12.51,0a12.86,12.86,0,0,0,4.4-.55,8.51,8.51,0,0,0,2.06-1.08,12.8,12.8,0,0,0,5.13-6.74c.12-.34.26-.68.39-1a1.63,1.63,0,0,1,.1-.18c.08.4.15.76.22,1.13q.29,1.57.57,3.15a2.72,2.72,0,0,1,0,.47c0,1.16,0,2.31,0,3.47a9.62,9.62,0,0,1-.19,1.39c-.16,1-.33,1.91-.52,2.86a26.52,26.52,0,0,1-3.33,8.66,28.54,28.54,0,0,1-4.18,5.43,27.59,27.59,0,0,1-12.62,7.41,21.63,21.63,0,0,1-3.24.61c-1,.11-2.06.25-3.09.31s-1.81,0-2.71,0a19,19,0,0,1-2.08-.18c-1-.15-2-.31-3-.54a26.56,26.56,0,0,1-10-4.59,28.78,28.78,0,0,1-5.48-5.39,31.47,31.47,0,0,1-2.21-3.18c-.16-.27-.3-.55-.45-.82Zm6-17.28,0,.07.12,0A8,8,0,0,1,477,133a11.47,11.47,0,0,1,3.09.37,23.18,23.18,0,0,1,4.34,1.61c2.06,1,4.1,2,6.15,3a23.27,23.27,0,0,0,2.56,1.1c1.32.44,2.68.81,4,1.16a32.06,32.06,0,0,0,7.11,1.12,19.7,19.7,0,0,0,3.25-.14,23.92,23.92,0,0,0,3.27-.66l.24-.08,0,0a15.72,15.72,0,0,1-3.54-.15,20.33,20.33,0,0,1-4.1-1.07c-2.33-.88-4.65-1.79-7-2.67-1.62-.61-3.2-1.32-4.86-1.81s-3.46-1-5.2-1.51a46.49,46.49,0,0,0-7.25-1.34,3.22,3.22,0,0,0-.8,0,6.33,6.33,0,0,0-1.86.6C475.9,132.68,475.44,132.95,475,133.2Z"/><line class="cls-2" x1="465" y1="90.01" x2="465" y2="118.01"/><line class="cls-2" x1="522" y1="90.01" x2="522" y2="118.01"/><line class="cls-2" x1="465" y1="101.39" x2="522" y2="101.39"/><text class="cls-3" transform="translate(486.37 83.14)">2cm<tspan x="-0.99" y="10.8">25px</tspan></text><line class="cls-2" x1="548" y1="108.01" x2="524.85" y2="108.01"/><line class="cls-2" x1="548" y1="165.01" x2="514" y2="165.01"/><line class="cls-2" x1="538.6" y1="108.01" x2="538.6" y2="165.01"/><text class="cls-3" transform="translate(557.87 127.38) rotate(90)">2cm<tspan x="-0.99" y="10.8">25px</tspan></text><path class="cls-1" d="M355.85,140.78l.61.31a15.86,15.86,0,0,0,5.1,1.73,13.12,13.12,0,0,0,5.93-.49,17,17,0,0,0,4.95-2.52,12.37,12.37,0,0,1,4.42-1.93c.93-.23,1.84-.5,2.76-.75A1.89,1.89,0,0,0,380,137a.86.86,0,0,0,.49-1,.92.92,0,0,0-1-.64c-.43,0-.87.11-1.35.17.64-.25,1.24-.48,1.83-.73a11.78,11.78,0,0,0,1.25-.62c.5-.29.61-.62.4-1.07a.92.92,0,0,0-1.17-.55c-.73.26-1.45.55-2.18.83a5.29,5.29,0,0,1-.92.27l2.2-1.38,1-.64a.91.91,0,0,0,.07-1.61.75.75,0,0,0-.92-.07c-.68.41-1.36.83-2,1.25-.49.3-1,.62-1.49.89.58-.55,1.16-1.1,1.74-1.66a11.68,11.68,0,0,0,.83-.88.78.78,0,0,0,0-1.08.73.73,0,0,0-1.06-.23,16.36,16.36,0,0,0-1.57,1.15c-1,.8-2,1.62-2.93,2.43a.7.7,0,0,1-.23.14c.3-.46.6-.92.88-1.39a1,1,0,0,0-.38-1.44.61.61,0,0,0-.75,0,5.56,5.56,0,0,0-.82.8c-.86,1.12-1.68,2.28-2.55,3.38a4.46,4.46,0,0,1-2.85,1.73,11.26,11.26,0,0,1-1.52.13,24,24,0,0,1-2.89,0,4.85,4.85,0,0,1-4.18-2.42,17.15,17.15,0,0,1-1.09-2.58,10.89,10.89,0,0,1-.38-4.5c.39-4.29,2.44-7.77,5.25-10.88a18.39,18.39,0,0,1,6.21-4.54l.09-.05s0,0,0-.08c-.53,0-1,.06-1.53.11a23.69,23.69,0,0,0-4.57.87,16.63,16.63,0,0,0-11,10.19l-.36.89-.05.05a1.28,1.28,0,0,1-.47-.9c0-2.12,0-4.24.08-6.36a19.18,19.18,0,0,1,.51-3c.43-2.05.81-4.12,1.34-6.14a44,44,0,0,1,8-16A45.75,45.75,0,0,1,387,73a40.48,40.48,0,0,1,5.94-.81c1.76-.09,3.52-.19,5.28-.14a43.12,43.12,0,0,1,18.16,4.38A48.21,48.21,0,0,1,428.59,85c.64.61,1.22,1.29,1.82,1.93a1.83,1.83,0,0,1,.13.2,2.91,2.91,0,0,1-.29-.1,10.27,10.27,0,0,0-3.77-.94c-.87-.07-1.75-.11-2.62-.1a15.25,15.25,0,0,0-4.68.94,39.55,39.55,0,0,0-5.79,2.24,17.83,17.83,0,0,1-3.63,1.16c-1.09.31-2.19.6-3.27.92a3.41,3.41,0,0,0-.8.37.9.9,0,0,0-.43,1.12,1.06,1.06,0,0,0,1,.88c.61-.06,1.22-.19,1.82-.29a2.16,2.16,0,0,1,.57,0l-.24.14c-1.78,1-3.57,1.9-5.34,2.86a3.79,3.79,0,0,0-.89.67,1.08,1.08,0,0,0,.39,1.7,1,1,0,0,0,.8-.07l3.37-1.46a2.27,2.27,0,0,1,.58-.18l-1.85,1.32-1.85,1.33a3.26,3.26,0,0,0-.28.21,1.18,1.18,0,0,0,.12,1.91.94.94,0,0,0,1.15,0c.5-.33,1-.69,1.47-1L408.35,99a.49.49,0,0,1,.25-.1l-.64.7-2,2.1a1.19,1.19,0,0,0-.07,1.69.82.82,0,0,0,1.21.14,17.87,17.87,0,0,0,2.5-2.35c.18-.19.38-.36.55-.51-.23.36-.48.76-.72,1.16a1.19,1.19,0,0,0-.08,1.15.94.94,0,0,0,1.52.41,5.26,5.26,0,0,0,.89-.93c.46-.62.9-1.27,1.32-1.92a6.14,6.14,0,0,1,1.44-1.61c.63-.48,1.26-1,1.9-1.45a5,5,0,0,1,3.68-.93,16.71,16.71,0,0,1,2,.26A4.24,4.24,0,0,1,425,99.17a14.94,14.94,0,0,1,1.17,3.44,30,30,0,0,1,.71,4.14,26.41,26.41,0,0,1,0,4.61,20.15,20.15,0,0,1-1.29,5.73,14.55,14.55,0,0,1-4.45,6.11l-.2.19.84.06a21.09,21.09,0,0,0,7.22-.9,14,14,0,0,0,3.38-1.78,21,21,0,0,0,8.42-11.06c.2-.56.42-1.12.64-1.67a2.68,2.68,0,0,1,.16-.29c.13.66.25,1.25.36,1.85q.47,2.58.94,5.16a4.46,4.46,0,0,1,.08.77c0,1.9,0,3.8,0,5.69a15.78,15.78,0,0,1-.31,2.28c-.27,1.57-.55,3.13-.85,4.69a43.51,43.51,0,0,1-5.47,14.2,46.82,46.82,0,0,1-6.86,8.91,45.26,45.26,0,0,1-20.7,12.16,35.48,35.48,0,0,1-5.31,1c-1.69.19-3.37.41-5.07.51-1.48.08-3,0-4.45,0a31.17,31.17,0,0,1-3.42-.3c-1.67-.25-3.34-.51-5-.89a43.56,43.56,0,0,1-16.42-7.52,47.21,47.21,0,0,1-9-8.84,51.63,51.63,0,0,1-3.63-5.22c-.26-.44-.5-.9-.75-1.34Zm9.76-28.35,0,.11.2,0a13.06,13.06,0,0,1,3-.43,18.81,18.81,0,0,1,5.07.61,38,38,0,0,1,7.12,2.65c3.37,1.6,6.72,3.25,10.1,4.85a38.16,38.16,0,0,0,4.2,1.81c2.17.72,4.39,1.33,6.61,1.91a52.58,52.58,0,0,0,11.67,1.84,32.3,32.3,0,0,0,5.32-.23,39.24,39.24,0,0,0,5.37-1.09l.39-.14-.08,0a25.79,25.79,0,0,1-5.8-.24,33.35,33.35,0,0,1-6.72-1.75c-3.83-1.44-7.63-2.94-11.46-4.38-2.65-1-5.25-2.17-8-3s-5.67-1.72-8.53-2.48a76.26,76.26,0,0,0-11.89-2.19,5.28,5.28,0,0,0-1.31,0,10.38,10.38,0,0,0-3,1C367.13,111.58,366.38,112,365.61,112.44Z"/><path class="cls-1" d="M196.54,128.58l.89.45a23.2,23.2,0,0,0,7.45,2.53,19.18,19.18,0,0,0,8.67-.71,24.92,24.92,0,0,0,7.24-3.68,18.09,18.09,0,0,1,6.46-2.82c1.35-.34,2.69-.72,4-1.1a2.76,2.76,0,0,0,.5-.22,1.26,1.26,0,0,0,.71-1.49,1.35,1.35,0,0,0-1.42-.94c-.63.06-1.27.16-2,.25.93-.37,1.81-.7,2.67-1.07a17.23,17.23,0,0,0,1.83-.9c.74-.43.89-.91.59-1.56a1.35,1.35,0,0,0-1.71-.8c-1.07.38-2.12.81-3.19,1.21a7.73,7.73,0,0,1-1.35.4l3.22-2c.5-.31,1-.62,1.49-.94a1.34,1.34,0,0,0,.1-2.36,1.1,1.1,0,0,0-1.35-.11c-1,.6-2,1.21-3,1.82-.71.45-1.42.91-2.17,1.3.85-.81,1.7-1.61,2.54-2.43a17.08,17.08,0,0,0,1.21-1.29,1.15,1.15,0,0,0,0-1.57,1.07,1.07,0,0,0-1.55-.34,23.92,23.92,0,0,0-2.3,1.69c-1.44,1.17-2.86,2.37-4.29,3.56a1,1,0,0,1-.33.2c.43-.68.88-1.35,1.29-2a1.43,1.43,0,0,0-.55-2.11.89.89,0,0,0-1.1,0,8.14,8.14,0,0,0-1.2,1.17c-1.26,1.64-2.45,3.33-3.73,4.95a6.53,6.53,0,0,1-4.16,2.53,16.47,16.47,0,0,1-2.23.19,35.12,35.12,0,0,1-4.23,0c-2.54-.25-4.83-1.12-6.11-3.54a25.07,25.07,0,0,1-1.6-3.78,15.92,15.92,0,0,1-.56-6.59c.58-6.27,3.56-11.37,7.68-15.91a26.89,26.89,0,0,1,9.09-6.64l.14-.07s0,0,.07-.11c-.77.05-1.5.08-2.23.15a34.64,34.64,0,0,0-6.68,1.28,24.32,24.32,0,0,0-16.16,14.9l-.53,1.31s0,0-.08.08a1.86,1.86,0,0,1-.69-1.31c0-3.1,0-6.2.11-9.3a28,28,0,0,1,.75-4.39c.62-3,1.18-6,2-9a64.34,64.34,0,0,1,11.65-23.38,66.9,66.9,0,0,1,39.67-24.67,59.21,59.21,0,0,1,8.69-1.18c2.57-.13,5.15-.27,7.72-.21a63.07,63.07,0,0,1,26.56,6.4,70.51,70.51,0,0,1,17.8,12.53c.93.89,1.78,1.88,2.66,2.83a2.68,2.68,0,0,1,.19.29,4.26,4.26,0,0,1-.42-.14,15,15,0,0,0-5.51-1.38c-1.28-.1-2.56-.17-3.84-.15a22.3,22.3,0,0,0-6.84,1.38A57.85,57.85,0,0,0,280.69,53a26.08,26.08,0,0,1-5.32,1.7c-1.6.45-3.2.88-4.79,1.35a5,5,0,0,0-1.17.54,1.31,1.31,0,0,0-.63,1.64,1.55,1.55,0,0,0,1.53,1.29c.89-.08,1.78-.28,2.67-.42a3.15,3.15,0,0,1,.84-.06l-.35.21c-2.61,1.39-5.22,2.77-7.81,4.18a5.55,5.55,0,0,0-1.31,1,1.57,1.57,0,0,0,.57,2.49,1.42,1.42,0,0,0,1.17-.1L271,64.7a3.33,3.33,0,0,1,.85-.27l-2.71,1.93-2.71,1.94a4.76,4.76,0,0,0-.4.31,1.73,1.73,0,0,0,.17,2.79,1.38,1.38,0,0,0,1.68-.06c.73-.49,1.43-1,2.14-1.52l3.29-2.35a.72.72,0,0,1,.36-.15l-.94,1-2.87,3.07a1.74,1.74,0,0,0-.1,2.47,1.2,1.2,0,0,0,1.77.21,26.13,26.13,0,0,0,3.66-3.43c.26-.28.56-.53.8-.75-.33.53-.7,1.11-1.06,1.7a1.75,1.75,0,0,0-.12,1.69,1.37,1.37,0,0,0,2.22.59,7.69,7.69,0,0,0,1.3-1.36c.68-.91,1.32-1.85,1.93-2.81a9,9,0,0,1,2.11-2.35c.92-.71,1.84-1.43,2.77-2.12a7.31,7.31,0,0,1,5.38-1.36,24.43,24.43,0,0,1,2.94.38,6.2,6.2,0,0,1,4.19,3.44,21.85,21.85,0,0,1,1.71,5,43.91,43.91,0,0,1,1,6.05,38.63,38.63,0,0,1,0,6.74,29.46,29.46,0,0,1-1.89,8.37,21.28,21.28,0,0,1-6.51,8.93c-.09.07-.16.15-.3.28.46,0,.85.08,1.23.09a30.85,30.85,0,0,0,10.57-1.31,20.42,20.42,0,0,0,4.94-2.6A30.72,30.72,0,0,0,320.8,83.14c.29-.82.62-1.63.93-2.45a3.92,3.92,0,0,1,.24-.42c.19,1,.36,1.83.52,2.7q.69,3.77,1.38,7.55a6.52,6.52,0,0,1,.11,1.13c0,2.77,0,5.55,0,8.32a23.08,23.08,0,0,1-.45,3.33c-.39,2.29-.8,4.58-1.24,6.86a63.63,63.63,0,0,1-8,20.77,68.48,68.48,0,0,1-10,13A66.19,66.19,0,0,1,274,161.74a51.89,51.89,0,0,1-7.76,1.46c-2.47.28-4.93.6-7.41.74-2.16.12-4.34.06-6.51,0a45.59,45.59,0,0,1-5-.44c-2.44-.36-4.88-.75-7.28-1.3a63.7,63.7,0,0,1-24-11,69,69,0,0,1-13.14-12.93,75.5,75.5,0,0,1-5.31-7.63c-.39-.64-.73-1.31-1.09-2Zm14.28-41.46.06.16.29-.06a19.1,19.1,0,0,1,4.41-.63,27.51,27.51,0,0,1,7.41.89,55.59,55.59,0,0,1,10.41,3.87c4.93,2.34,9.83,4.75,14.76,7.09a55.81,55.81,0,0,0,6.15,2.65c3.18,1.06,6.42,1.95,9.66,2.79A76.89,76.89,0,0,0,281,106.58a47.24,47.24,0,0,0,7.79-.34,57.39,57.39,0,0,0,7.86-1.59c.17,0,.34-.12.57-.2l-.11,0a37.72,37.72,0,0,1-8.48-.36,48.78,48.78,0,0,1-9.83-2.56c-5.59-2.11-11.16-4.3-16.75-6.41-3.88-1.47-7.67-3.18-11.66-4.34-4.16-1.21-8.29-2.51-12.48-3.62a111.52,111.52,0,0,0-17.38-3.21,7.72,7.72,0,0,0-1.91-.05,15.18,15.18,0,0,0-4.45,1.45C213,85.86,211.94,86.51,210.82,87.12Z"/><path class="cls-1" d="M10.3,121.29l1.07.54a28,28,0,0,0,9,3.06A23.13,23.13,0,0,0,30.82,124a30.05,30.05,0,0,0,8.73-4.44,21.81,21.81,0,0,1,7.79-3.4c1.63-.41,3.25-.87,4.87-1.32a3.33,3.33,0,0,0,.61-.26,1.52,1.52,0,0,0,.86-1.8A1.63,1.63,0,0,0,52,111.67c-.77.08-1.53.19-2.37.31,1.13-.45,2.18-.84,3.22-1.29A20.78,20.78,0,0,0,55,109.6c.89-.52,1.08-1.09.71-1.88a1.63,1.63,0,0,0-2.06-1c-1.29.45-2.56,1-3.84,1.46a9.33,9.33,0,0,1-1.62.48l3.88-2.43c.6-.38,1.21-.74,1.8-1.13a1.61,1.61,0,0,0,.12-2.84,1.33,1.33,0,0,0-1.63-.13c-1.2.72-2.4,1.46-3.59,2.2-.86.54-1.71,1.09-2.62,1.57,1-1,2.05-1.94,3.06-2.93a20.6,20.6,0,0,0,1.46-1.55,1.38,1.38,0,0,0,0-1.9,1.29,1.29,0,0,0-1.87-.41,28.85,28.85,0,0,0-2.78,2c-1.74,1.41-3.45,2.86-5.17,4.29a1.23,1.23,0,0,1-.4.24c.52-.82,1.06-1.63,1.56-2.45a1.72,1.72,0,0,0-.67-2.55,1.07,1.07,0,0,0-1.32,0,9.81,9.81,0,0,0-1.45,1.41c-1.52,2-3,4-4.5,6a7.87,7.87,0,0,1-5,3,19.86,19.86,0,0,1-2.68.22,42.35,42.35,0,0,1-5.1,0c-3.06-.31-5.82-1.35-7.36-4.27A30.24,30.24,0,0,1,12,102.56a19.2,19.2,0,0,1-.67-7.94c.7-7.57,4.3-13.71,9.26-19.18a32.42,32.42,0,0,1,11-8l.17-.09s0,0,.09-.14c-.93.06-1.81.1-2.69.19A41.78,41.78,0,0,0,21,68.93a29.33,29.33,0,0,0-19.48,18L.92,88.48s0,0-.09.1A2.25,2.25,0,0,1,0,87c0-3.74,0-7.48.14-11.22A33.82,33.82,0,0,1,1,70.48c.75-3.62,1.42-7.26,2.36-10.83A77.59,77.59,0,0,1,17.46,31.45,80.68,80.68,0,0,1,65.3,1.7,71.4,71.4,0,0,1,75.78.27C78.88.11,82-.06,85.09,0a76.05,76.05,0,0,1,32,7.72,85,85,0,0,1,21.47,15.11c1.13,1.08,2.14,2.27,3.21,3.41a3.23,3.23,0,0,1,.23.35,5.14,5.14,0,0,1-.51-.17,18.11,18.11,0,0,0-6.65-1.67c-1.54-.12-3.09-.2-4.63-.18A26.89,26.89,0,0,0,122,26.24a69.76,69.76,0,0,0-10.21,3.95,31.45,31.45,0,0,1-6.41,2c-1.92.54-3.85,1.06-5.77,1.62a6,6,0,0,0-1.41.65,1.58,1.58,0,0,0-.76,2A1.86,1.86,0,0,0,99.26,38c1.08-.1,2.14-.33,3.21-.51a3.8,3.8,0,0,1,1-.07l-.42.25c-3.14,1.68-6.29,3.34-9.42,5a6.69,6.69,0,0,0-1.58,1.19,1.9,1.9,0,0,0,.68,3,1.71,1.71,0,0,0,1.41-.12l5.94-2.57a4,4,0,0,1,1-.32l-3.26,2.33L94.6,48.61a5.74,5.74,0,0,0-.49.38,2.09,2.09,0,0,0,.21,3.37,1.66,1.66,0,0,0,2-.07c.88-.59,1.72-1.22,2.58-1.84l4-2.84a.87.87,0,0,1,.43-.18l-1.13,1.24c-1.15,1.23-2.31,2.46-3.46,3.7a2.1,2.1,0,0,0-.12,3,1.45,1.45,0,0,0,2.14.25,31.51,31.51,0,0,0,4.41-4.14c.32-.34.68-.64,1-.9-.4.64-.85,1.34-1.27,2.05a2.11,2.11,0,0,0-.15,2,1.66,1.66,0,0,0,2.68.71,9.28,9.28,0,0,0,1.56-1.64c.82-1.1,1.59-2.24,2.33-3.39a10.82,10.82,0,0,1,2.54-2.84c1.12-.85,2.22-1.72,3.35-2.56a8.81,8.81,0,0,1,6.48-1.64,29.46,29.46,0,0,1,3.55.45,7.48,7.48,0,0,1,5.06,4.15A26.35,26.35,0,0,1,134.31,54a53,53,0,0,1,1.25,7.3,46.58,46.58,0,0,1,0,8.13,35.53,35.53,0,0,1-2.28,10.1,25.67,25.67,0,0,1-7.85,10.77c-.1.08-.2.19-.36.34.55,0,1,.09,1.49.11a37.2,37.2,0,0,0,12.74-1.58,24.62,24.62,0,0,0,6-3.14,37,37,0,0,0,14.85-19.5c.35-1,.75-2,1.13-3a4.73,4.73,0,0,1,.29-.51c.23,1.17.43,2.21.63,3.26q.84,4.55,1.66,9.1a7.86,7.86,0,0,1,.14,1.36c0,3.35.05,6.69,0,10a27.84,27.84,0,0,1-.55,4c-.48,2.76-1,5.52-1.5,8.27a76.73,76.73,0,0,1-9.64,25,82.58,82.58,0,0,1-12.09,15.72,79.82,79.82,0,0,1-36.5,21.44A62.57,62.57,0,0,1,94.31,163c-3,.33-5.95.73-8.93.9-2.61.15-5.23.07-7.85,0a55,55,0,0,1-6-.53c-2.94-.43-5.88-.91-8.78-1.56a76.82,76.82,0,0,1-29-13.27A83.26,83.26,0,0,1,17.92,133a91,91,0,0,1-6.4-9.2c-.47-.77-.88-1.58-1.31-2.37Zm17.21-50,.08.19.36-.08a23,23,0,0,1,5.32-.75,33.17,33.17,0,0,1,8.93,1.08A67,67,0,0,1,54.75,76.4c5.95,2.83,11.85,5.73,17.8,8.55A67.3,67.3,0,0,0,80,88.14c3.83,1.28,7.74,2.35,11.65,3.36a92.72,92.72,0,0,0,20.57,3.25,57,57,0,0,0,9.39-.41,69.2,69.2,0,0,0,9.47-1.92c.21-.06.41-.14.69-.24l-.14-.05a45.48,45.48,0,0,1-10.23-.43,58.82,58.82,0,0,1-11.86-3.09c-6.75-2.55-13.46-5.18-20.2-7.73-4.68-1.77-9.25-3.83-14.07-5.23-5-1.46-10-3-15-4.37a134.48,134.48,0,0,0-21-3.87,9.31,9.31,0,0,0-2.31-.07,18.31,18.31,0,0,0-5.37,1.75C30.2,69.78,28.87,70.56,27.52,71.29Z"/></g></g></svg>