<svg xmlns="http://www.w3.org/2000/svg" viewBox="0 0 257.48 120.22"><defs><style>.cls-1{fill:#ffad1b;}</style></defs><title>marca movimento amarela</title><g id="Camada_2" data-name="Camada 2"><g id="Marca_-_marca" data-name="Marca - marca"><path class="cls-1" d="M3.57,41.28c.93.33,1.75.69,2.61.9a8,8,0,0,0,5.51-.68,10.44,10.44,0,0,0,1.48-.86A8.07,8.07,0,0,1,16,39.36q.69-.17,1.37-.38c.33-.1.7-.16.78-.59s-.2-.58-.57-.74l1-.53a.5.5,0,0,0,.27-.69.58.58,0,0,0-.72-.38,2.37,2.37,0,0,1-.81.14c.28-.19.57-.36.84-.56s.48-.57.27-.88-.5-.38-.91-.16a6.94,6.94,0,0,1-1.07.53l.62-.69a.57.57,0,0,0,0-.81.54.54,0,0,0-.8,0c-.48.35-.95.72-1.42,1.09l-.74.61c.08-.3.2-.49.16-.64A1.36,1.36,0,0,0,14,34c-.2-.19-.43-.07-.6.09a5.48,5.48,0,0,0-.55.6c-.41.53-.82,1.07-1.21,1.61a2.66,2.66,0,0,1-2.12,1.23,21.85,21.85,0,0,1-3-.09A2.47,2.47,0,0,1,4.59,36a7.4,7.4,0,0,1-.28-6.15,12.26,12.26,0,0,1,5.48-6.57l.73-.41c-1.16-.44-4.46.48-6.32,1.71a10.53,10.53,0,0,0-4,5.19l-.14,0A3.84,3.84,0,0,1,0,29.16c0-1.17,0-2.34,0-3.51a22.2,22.2,0,0,1,.43-2.5,27.7,27.7,0,0,1,2.69-8.27A27.15,27.15,0,0,1,22.57.49,28.53,28.53,0,0,1,30.45.11,26.06,26.06,0,0,1,45.9,6.86c.5.44,1,.93,1.46,1.39a3.93,3.93,0,0,1,.29.38c-.67-.12-1.24-.23-1.81-.32a8.22,8.22,0,0,0-4,.29c-1.41.49-2.78,1.08-4.19,1.56-1.12.39-2.28.69-3.42,1a6,6,0,0,0-1,.35.61.61,0,0,0-.37.8.75.75,0,0,0,.8.54,2.44,2.44,0,0,1,.77,0l-1.49.8c-.44.24-.88.46-1.31.71a2.63,2.63,0,0,0-.53.4.61.61,0,0,0-.11.81.6.6,0,0,0,.77.28,13.24,13.24,0,0,1,1.64-.57l-1.08.78a4.49,4.49,0,0,0-.64.52.67.67,0,0,0,0,.95.62.62,0,0,0,.92.14,12.38,12.38,0,0,1,1.5-.9l-.49.57a3.09,3.09,0,0,0-.42.52.7.7,0,0,0,.16.89.57.57,0,0,0,.81,0c.37-.29.71-.61,1.1-.95a1.61,1.61,0,0,1,0,.22.74.74,0,0,0,.43.8c.36.16.64-.06.85-.31a9.85,9.85,0,0,0,.94-1.25A6.12,6.12,0,0,1,40,15a4,4,0,0,1,3.73.15,2.15,2.15,0,0,1,1,1.33,26.57,26.57,0,0,1,.8,2.94,14,14,0,0,1-.22,6.36,8.9,8.9,0,0,1-2.61,4.36c-.13.12-.28.21-.52.4a2.93,2.93,0,0,0,.53.15,12.53,12.53,0,0,0,3.34-.24A11,11,0,0,0,52.46,26a12.94,12.94,0,0,0,1.77-3.44,2.12,2.12,0,0,1,.45-.81c.11.57.18,1.15.32,1.71a16.94,16.94,0,0,1,.37,6.16C54.19,40.23,49,48.21,39.32,53a23.12,23.12,0,0,1-7.86,2.2,33.08,33.08,0,0,1-4.76.26A26.58,26.58,0,0,1,9.33,48.5,30.12,30.12,0,0,1,4,42C3.86,41.79,3.74,41.57,3.57,41.28Zm40.66-9.95,0-.16-.06,0a2.09,2.09,0,0,0-.29,0,17.82,17.82,0,0,1-6.92-1.25c-2.3-.87-4.6-1.74-6.89-2.65A74.12,74.12,0,0,0,14.89,22.9a6.65,6.65,0,0,0-5.14.87,3.38,3.38,0,0,0-.36.36c.56-.06,1-.13,1.39-.16A13.08,13.08,0,0,1,17,25.25c1.91.84,3.77,1.78,5.67,2.66,1.53.71,3.05,1.47,4.64,2a42.23,42.23,0,0,0,7.43,1.86,22.3,22.3,0,0,0,8-.09C43.25,31.6,43.74,31.46,44.23,31.33Z"/><path class="cls-1" d="M257.4,90.58c0,.14,0,.28,0,.42,0,.42,0,.85,0,1.27a27.13,27.13,0,0,1-2.87,12.46,26.86,26.86,0,0,1-18.86,14.83,28.62,28.62,0,0,1-8.76.53,25.62,25.62,0,0,1-14-5.61c-.86-.68-1.66-1.43-2.48-2.16-.22-.19-.4-.43-.72-.77.69.13,1.2.23,1.72.31a8.54,8.54,0,0,0,4.27-.31c1.38-.5,2.73-1.06,4.11-1.54.93-.33,1.9-.58,2.85-.86.43-.13.87-.23,1.28-.39s.71-.5.59-.89-.47-.61-1-.53a1.09,1.09,0,0,1-.55,0l2.13-1.16a9.65,9.65,0,0,0,1-.56c.45-.32.54-.66.32-1s-.46-.4-1-.19a9,9,0,0,1-1.43.49l1.15-.84a3.8,3.8,0,0,0,.57-.47.68.68,0,0,0,0-.95.62.62,0,0,0-.92-.13,12,12,0,0,1-1.48.9l.49-.58a3.81,3.81,0,0,0,.38-.46.73.73,0,0,0-.14-.95.58.58,0,0,0-.81,0c-.36.3-.71.61-1.12,1a2.27,2.27,0,0,0,0-.48c-.15-.61-.67-.81-1.11-.38A6.55,6.55,0,0,0,220,102.9a7.25,7.25,0,0,1-2.51,2.29,2.33,2.33,0,0,1-1.05.32,8.28,8.28,0,0,1-1.64,0,2.4,2.4,0,0,1-2.07-1.61,20.75,20.75,0,0,1-.86-3.08,13.93,13.93,0,0,1,.22-6.36A9,9,0,0,1,214.71,90c.11-.1.21-.21.31-.32a.34.34,0,0,0,0-.09s-.1-.12-.15-.12a12.36,12.36,0,0,0-3.49.22,10.9,10.9,0,0,0-6.67,4.93,23.84,23.84,0,0,0-1.49,3,4.16,4.16,0,0,1-.45.88c-.19-1-.44-2.08-.57-3.13a21.2,21.2,0,0,1,.11-6.46,30.65,30.65,0,0,1,1.94-7.26C208,73.44,214.06,68,222.83,65.61a26,26,0,0,1,4.11-.66,27.17,27.17,0,0,1,3.95-.15,26.47,26.47,0,0,1,17.77,7.39,30.42,30.42,0,0,1,4.77,5.92c.15.24.29.5.52.89-.34-.13-.53-.19-.7-.27a8.18,8.18,0,0,0-8.44.56,13.55,13.55,0,0,1-4.28,1.84,4.73,4.73,0,0,0-.72.2c-.61.25-.66.67-.14,1.11l.18.16c-.33.17-.64.32-.94.49a.5.5,0,0,0-.27.69.58.58,0,0,0,.72.38,6.42,6.42,0,0,1,1-.27c-.37.24-.76.47-1.12.73s-.43.52-.24.82a.6.6,0,0,0,.9.2,7,7,0,0,1,1.1-.55c-.2.22-.41.43-.6.66s-.29.64-.05.87a.56.56,0,0,0,.81,0c.42-.31.83-.63,1.24-1l.82-.65c-.15.57-.17,1,.31,1.19s.74-.29,1-.6c.43-.52.83-1.06,1.21-1.61a2.85,2.85,0,0,1,2.35-1.38,22,22,0,0,1,2.82.11,2.44,2.44,0,0,1,1.89,1.42,7.64,7.64,0,0,1,0,7A12.2,12.2,0,0,1,247.52,97l-.45.26a.22.22,0,0,0,0,.05c1,.44,4.32-.44,6.2-1.67a10.4,10.4,0,0,0,4-5.17ZM248,96.26l-.05-.17c-.15,0-.29,0-.43,0a9.63,9.63,0,0,1-3.12,0,18.24,18.24,0,0,1-5-1.63c-2.27-1.07-4.52-2.17-6.79-3.24a19.46,19.46,0,0,0-2.41-1,46,46,0,0,0-8.62-2,21.48,21.48,0,0,0-7.91.5,3.07,3.07,0,0,0-.53.28,3.82,3.82,0,0,0,.44.05,18.31,18.31,0,0,1,7.34,1.38c2.9,1.12,5.77,2.29,8.69,3.35a65.7,65.7,0,0,0,14.26,3.64A6,6,0,0,0,248,96.26Z"/><path class="cls-1" d="M189.13,100c-.11-.29-.2-.49-.27-.7a8.32,8.32,0,0,0-6.48-5.58,11.6,11.6,0,0,1-3.93-1.53,7.75,7.75,0,0,0-.85-.47c-.69-.33-1-.1-1,.68a1.41,1.41,0,0,1,0,.18l-1-.3a.49.49,0,0,0-.67.29.55.55,0,0,0,.2.73,4.54,4.54,0,0,1,.77.52c-.38-.07-.76-.16-1.14-.2s-.7.16-.72.55a.55.55,0,0,0,.43.62,6.87,6.87,0,0,1,1.14.39c-.23,0-.46,0-.69.05-.52.06-.72.23-.73.58s.17.54.69.61c.81.11,1.63.2,2.44.29l.24,0-.46.18a.6.6,0,0,0-.43.69.53.53,0,0,0,.66.46l2.07-.22c.44,0,.89-.09,1.34-.11a2,2,0,0,1,1.45.49,24.78,24.78,0,0,1,2,1.92,2.82,2.82,0,0,1,.48,3,7.67,7.67,0,0,1-4.82,4.68,12.25,12.25,0,0,1-8,.36,1.52,1.52,0,0,0-.59-.08,11.2,11.2,0,0,0,5.7,3.19,10.38,10.38,0,0,0,6.49-.87c-.27,1.11-3.76,4-7.31,6.08a25.67,25.67,0,0,1-9,3.26,27.89,27.89,0,0,1-9.58,0c-12.82-2.34-23.29-13.89-22.57-27.82.07,0,.14.07.16.12a9.9,9.9,0,0,0,4.61,4.3c1.13.51,2.29,1,3.41,1.5.9.43,1.75.94,2.63,1.41a14.23,14.23,0,0,0,1.32.69.66.66,0,0,0,1-.41.61.61,0,0,0-.18-.74,3,3,0,0,1-.56-.58L150,99a5.44,5.44,0,0,0,.79.2.71.71,0,0,0,.82-.5c.11-.36,0-.63-.45-.82a16,16,0,0,1-1.56-.72c.45.08.89.16,1.34.23a5,5,0,0,0,.89.07.67.67,0,0,0,.69-.65.64.64,0,0,0-.57-.75c-.67-.14-1.35-.24-2-.44.4,0,.8,0,1.19,0a2,2,0,0,0,.72-.18.66.66,0,0,0,.34-.76.54.54,0,0,0-.52-.45l-1.39-.16a4,4,0,0,0,.25-.39c.25-.51.07-.92-.5-1a4.52,4.52,0,0,0-1.47.13,7.72,7.72,0,0,1-3.54-.06,2.75,2.75,0,0,1-1.47-.84c-1.51-1.56-1.68-2.65-.64-4.56A15.73,15.73,0,0,1,147.67,82a9.12,9.12,0,0,1,5.94-1.83H154s.08,0,.19-.1a3.79,3.79,0,0,0-.31-.46,10.47,10.47,0,0,0-9.64-3.41,13.56,13.56,0,0,0-4.05,1.22l-1,.44c.18-.3.26-.47.36-.62a24.25,24.25,0,0,1,4.15-5.06A34.42,34.42,0,0,1,149,68.37a27.63,27.63,0,0,1,26.89-.19,27.62,27.62,0,0,1,13.78,18.46,24.19,24.19,0,0,1,.4,8.09c-.19,1.6-.51,3.19-.78,4.78A4,4,0,0,1,189.13,100Zm-16.3,8.08.07-.13a1.64,1.64,0,0,0-.21-.19,9.14,9.14,0,0,1-3.12-3.46,33.73,33.73,0,0,1-1.71-3.72c-.76-2-1.44-4-2.11-6a38.49,38.49,0,0,0-5.65-10.38,20.6,20.6,0,0,0-6-5.54c-.22-.13-.45-.25-.68-.38a.55.55,0,0,0,.16.43,19,19,0,0,1,4.09,6.1c.83,1.89,1.71,3.76,2.51,5.66a77.41,77.41,0,0,0,5.59,10.87c1,1.58,2.13,3.06,3.2,4.59C169.93,107.32,171.37,107.72,172.84,108.09Z"/><path class="cls-1" d="M104.85,102.53c-.18-.33-.33-.64-.51-.94a.49.49,0,0,0-.7-.22.57.57,0,0,0-.36.67,2.73,2.73,0,0,1,.14.81c-.19-.28-.36-.56-.56-.83s-.57-.46-.88-.24-.37.5-.14.91a5.38,5.38,0,0,1,.5,1c-.2-.19-.39-.38-.6-.56s-.61-.31-.87-.1-.28.47,0,.86.7.91,1.05,1.36l.59.73c-.29-.06-.48-.17-.64-.12a1.32,1.32,0,0,0-.6.36c-.18.2,0,.43.12.59a6.94,6.94,0,0,0,.67.6c.55.43,1.11.84,1.67,1.26a2.41,2.41,0,0,1,1.06,1.81,23.17,23.17,0,0,1,0,3,2.56,2.56,0,0,1-1.61,2.09,7.48,7.48,0,0,1-6.16.2,12.27,12.27,0,0,1-6.49-5.47,3,3,0,0,0-.47-.67,10.11,10.11,0,0,0,.76,4.3,9.73,9.73,0,0,0,2.42,3.64A11.73,11.73,0,0,0,97,120l0,.15a2.9,2.9,0,0,1-.48.08c-1.29,0-2.59,0-3.88-.06a20.09,20.09,0,0,1-2.34-.43,27.35,27.35,0,0,1-8.58-2.91c-7.6-4.3-12.39-10.68-13.93-19.3a26.58,26.58,0,0,1,7.18-24.07c.22-.23.46-.45.7-.67a1.2,1.2,0,0,1,.23-.12c-.11.61-.21,1.19-.3,1.76A8.72,8.72,0,0,0,76,78.79c.47,1.28,1,2.54,1.47,3.83.32.91.56,1.86.83,2.78.13.45.25.91.42,1.35s.51.68.91.54a.77.77,0,0,0,.5-1,1.59,1.59,0,0,1,0-.62c.44.83.88,1.66,1.34,2.48A5.4,5.4,0,0,0,82,89a.64.64,0,0,0,.87.17.62.62,0,0,0,.27-.84,12.88,12.88,0,0,1-.55-1.57l.83,1.14a3.88,3.88,0,0,0,.47.58.7.7,0,0,0,1,0,.62.62,0,0,0,.13-.92,11.28,11.28,0,0,1-.9-1.51l.54.47a2.94,2.94,0,0,0,.59.45.7.7,0,0,0,.88-.19A.58.58,0,0,0,86,86c-.3-.36-.61-.71-.94-1.08a2.43,2.43,0,0,0,.52,0,.62.62,0,0,0,.34-1.09,5,5,0,0,0-1.15-.93,7.73,7.73,0,0,1-2.38-2.43,2.92,2.92,0,0,1-.47-1.85c.05-2.11.63-2.9,2.65-3.51a15.2,15.2,0,0,1,8.39-.29,8.92,8.92,0,0,1,4.43,2.62,5.21,5.21,0,0,1,.31.42l.18-.05c0-.2.07-.39.08-.59.23-4.71-2.12-7.93-6-10.22a20.73,20.73,0,0,0-2.31-1,2.79,2.79,0,0,1-.75-.4c1.08-.2,2.15-.45,3.24-.6a20.43,20.43,0,0,1,6.53.15,30.89,30.89,0,0,1,6.41,1.64c8.8,3.67,14.69,10,16.85,19.35a27.08,27.08,0,0,1-3.58,21.42,28.37,28.37,0,0,1-9.29,8.82c-.14.08-.29.14-.56.27.13-.33.21-.53.29-.72a8.17,8.17,0,0,0-.57-8.25,13.83,13.83,0,0,1-1.92-4.49,3.54,3.54,0,0,0-.17-.57c-.25-.61-.66-.67-1.12-.18Zm-13.54,8.14a3,3,0,0,0,0-.5,9.2,9.2,0,0,1,0-3,16,16,0,0,1,1.29-4.27c.86-1.9,1.8-3.77,2.67-5.67a48.16,48.16,0,0,0,2-4.66,41.24,41.24,0,0,0,1.93-8.27,21.11,21.11,0,0,0-.53-8,2.37,2.37,0,0,0-.16-.36c-.07,0-.11,0-.11,0a2.16,2.16,0,0,0,0,.36A17.65,17.65,0,0,1,97.18,83q-1.45,3.88-3,7.74A67.34,67.34,0,0,0,90,106.5a5.9,5.9,0,0,0,1.15,4.13S91.23,110.65,91.31,110.67Z"/><path class="cls-1" d="M80.87,27.61c.34.1.65.19.95.29a.51.51,0,0,0,.7-.24.61.61,0,0,0-.26-.83,3.34,3.34,0,0,1-.7-.47c.38.07.77.17,1.15.22s.87-.32.7-.76a.85.85,0,0,0-.46-.42A11.33,11.33,0,0,1,81.75,25c.27,0,.54,0,.8,0,.5,0,.72-.23.74-.57s-.17-.56-.68-.63c-.81-.11-1.63-.2-2.44-.29l-.22,0a4.31,4.31,0,0,0,.56-.24.58.58,0,0,0,.28-.7.49.49,0,0,0-.56-.39l-2,.2c-.4,0-.79.1-1.18.13a2.48,2.48,0,0,1-2-.67c-.58-.55-1.17-1.09-1.69-1.68A2.89,2.89,0,0,1,72.84,17a7.71,7.71,0,0,1,4.89-4.7,12.38,12.38,0,0,1,8-.33l.51.12s0,0,.17-.08a12.23,12.23,0,0,0-5.81-3.16,10.42,10.42,0,0,0-6.46.87L74,9.6a3.18,3.18,0,0,1,.3-.44A29.24,29.24,0,0,1,89.49.56,26.83,26.83,0,0,1,98.1.18,27.18,27.18,0,0,1,114.42,8a25.74,25.74,0,0,1,7.81,14.94c.24,1.52.29,3.07.41,4.6a5.13,5.13,0,0,1,0,.73c-.61-.78-1.14-1.56-1.78-2.24A8,8,0,0,0,119,24.51c-1.28-.72-2.62-1.3-3.95-1.94-.71-.34-1.45-.65-2.15-1s-1.21-.69-1.82-1a4.63,4.63,0,0,0-.67-.32.65.65,0,0,0-.84.27.66.66,0,0,0,.13.93,2.77,2.77,0,0,1,.53.55l-2.26-.67c-.38-.11-.76-.23-1.15-.3a.72.72,0,0,0-.89.48c-.12.38,0,.64.52.85a10.66,10.66,0,0,1,1.41.67l-1.29-.21a5.15,5.15,0,0,0-.74-.08c-.5,0-.78.24-.82.68s.15.64.66.74,1.21.22,1.81.38c-.37,0-.75,0-1.12.06a2,2,0,0,0-.65.15.68.68,0,0,0-.38.75.51.51,0,0,0,.49.48l1.48.17s0,.07,0,.09c-.28.24-.5.5-.34.9a.85.85,0,0,0,1,.42c.59-.07,1.18-.18,1.76-.3a6.25,6.25,0,0,1,3.3.33,3.67,3.67,0,0,1,2.26,3.74,4.23,4.23,0,0,1-.37,1.05,15.54,15.54,0,0,1-5.38,6.18,9,9,0,0,1-5.57,1.57,5.67,5.67,0,0,0-.62,0c.2.26.32.44.46.59A10.46,10.46,0,0,0,113.36,44a13.37,13.37,0,0,0,4-1.21,2.76,2.76,0,0,1,.94-.28c-.24.36-.49.72-.72,1.09a21.28,21.28,0,0,1-3.85,4.54c-.18.17-.35.36-.55.51a30.12,30.12,0,0,1-12.83,6.22,29.82,29.82,0,0,1-8.24.41,25,25,0,0,1-10.92-3.49C74.25,47.59,69.6,41.65,67.81,33.63a24.65,24.65,0,0,1-.4-8.24c.18-1.55.5-3.09.76-4.63a4.3,4.3,0,0,1,.19-.56c.16.42.27.74.4,1.06A8.23,8.23,0,0,0,75,26.46a12.36,12.36,0,0,1,4.13,1.63,6.31,6.31,0,0,0,.72.39c.65.3,1,.08,1-.63C80.87,27.77,80.87,27.7,80.87,27.61ZM104.16,42a1.51,1.51,0,0,0-.1-.3,3.35,3.35,0,0,0-.25-.27A18.3,18.3,0,0,1,100,35.89c-.53-1.15-1-2.32-1.55-3.47-1.61-3.55-3.08-7.18-5-10.58A60.75,60.75,0,0,0,88.4,14.1a6.53,6.53,0,0,0-3.83-2c0,.13,0,.19.08.22a2.56,2.56,0,0,0,.29.23,9.36,9.36,0,0,1,2.52,2.62,17.37,17.37,0,0,1,1.89,3.72C90.1,21,90.87,23,91.56,25.14a38.84,38.84,0,0,0,6,11,20.48,20.48,0,0,0,5.86,5.36C103.59,41.67,103.81,41.78,104.16,42Z"/><path class="cls-1" d="M168.61,54.58a26.22,26.22,0,0,1-5.43.87,28.37,28.37,0,0,1-12.84-2.87c-7.73-3.88-12.89-10-14.8-18.46A27.29,27.29,0,0,1,139,12.94a28.45,28.45,0,0,1,9.46-9.07c.12-.08.26-.13.5-.25a4.4,4.4,0,0,1-.17.55,8.45,8.45,0,0,0,.8,9A8.88,8.88,0,0,1,150.9,16c.12.48.26,1,.39,1.44.08.29.18.59.52.67s.6-.14.78-.53c.2.37.35.68.53,1s.48.42.75.26a.58.58,0,0,0,.31-.75,1.69,1.69,0,0,1-.12-.73c.19.29.36.58.57.85s.57.45.88.23.36-.49.13-.91a6.73,6.73,0,0,1-.51-1l.44.38a2.7,2.7,0,0,0,.4.33.54.54,0,0,0,.68-.1.49.49,0,0,0,.06-.68c-.3-.43-.62-.84-.94-1.25s-.47-.58-.79-1c.28.07.47.17.62.13a1.38,1.38,0,0,0,.61-.35c.19-.19.08-.43-.09-.6a5.87,5.87,0,0,0-.6-.55c-.57-.44-1.15-.87-1.73-1.31a2.45,2.45,0,0,1-1.09-1.88,23.42,23.42,0,0,1,.07-3.12,2.44,2.44,0,0,1,1.49-1.92,7.55,7.55,0,0,1,6.64-.1,12.18,12.18,0,0,1,6.22,5.56c.08.15.18.29.28.45.47-1-.47-4.42-1.7-6.29a11.78,11.78,0,0,0-5.15-4.1,3.72,3.72,0,0,1,.55-.08c1.22,0,2.44,0,3.66,0a20.65,20.65,0,0,1,2.42.43,27.47,27.47,0,0,1,7.39,2.27C182.85,7,188,13.55,189.76,22.71a26.88,26.88,0,0,1-1.06,14.35,27.82,27.82,0,0,1-6.37,10c-.19.19-.4.36-.7.62.13-.75.25-1.36.33-2a8.15,8.15,0,0,0-.34-3.91c-.49-1.38-1.06-2.73-1.54-4.12-.33-.94-.58-1.9-.87-2.85-.14-.45-.25-.91-.42-1.35s-.48-.66-.84-.57a.78.78,0,0,0-.58,1,1.66,1.66,0,0,1,0,.61c-.44-.83-.88-1.66-1.34-2.48a5.38,5.38,0,0,0-.53-.81.66.66,0,0,0-1.14.66,12.45,12.45,0,0,1,.55,1.57l-.74-1a5.72,5.72,0,0,0-.46-.59.72.72,0,0,0-1.06-.11c-.32.27-.36.57-.08,1a6.7,6.7,0,0,1,.74,1.31l-.53-.44a2.33,2.33,0,0,0-.47-.36.72.72,0,0,0-.89.18.57.57,0,0,0,0,.81c.3.36.61.71.95,1.09a2.62,2.62,0,0,0-.36,0,.76.76,0,0,0-.68.49.65.65,0,0,0,.26.73,10.83,10.83,0,0,0,1.3,1A6.17,6.17,0,0,1,175.23,40a4,4,0,0,1-.17,3.79,2.1,2.1,0,0,1-1.28,1,26,26,0,0,1-3.08.84,14,14,0,0,1-6.14-.22,9,9,0,0,1-4.44-2.61,3.3,3.3,0,0,0-.32-.31s-.09,0-.2,0a8.72,8.72,0,0,0,.06,2.87c.61,3.75,2.92,6.22,6.1,8a21.15,21.15,0,0,0,2.12.92ZM166.28,9.42l-.17,0c0,.19,0,.39.07.58a8.7,8.7,0,0,1,0,2.9,18.28,18.28,0,0,1-1.66,5.17c-.91,1.94-1.86,3.85-2.76,5.79a32.79,32.79,0,0,0-1.46,3.43,43.84,43.84,0,0,0-2,8.55,21.06,21.06,0,0,0,.53,8.07,2,2,0,0,0,.27.41c0-.24,0-.33,0-.43a15.41,15.41,0,0,1,.7-5.23c.6-1.84,1.32-3.65,2-5.46,1-2.84,2.18-5.66,3.13-8.54a57.73,57.73,0,0,0,2.54-10.88A6.58,6.58,0,0,0,166.28,9.42Z"/><path class="cls-1" d="M40.09,84.19a4.44,4.44,0,0,0,.47-.31,10.22,10.22,0,0,0,3.59-7.6,13.31,13.31,0,0,0-1.25-6l-.54-1.17c.31.17.47.24.62.34a27.27,27.27,0,0,1,2.57,1.8,24,24,0,0,1,3.13,3.09,33.74,33.74,0,0,1,4,6.19,27.19,27.19,0,0,1,2.62,9.36,26.18,26.18,0,0,1-3.59,16.56,27.74,27.74,0,0,1-17.25,13,25.49,25.49,0,0,1-9.33.56c-1.53-.18-3-.51-4.55-.77a3.57,3.57,0,0,1-.4-.13c.21-.1.33-.16.44-.2A8.42,8.42,0,0,0,26.53,112a9.43,9.43,0,0,1,1.25-3.25c.24-.38.45-.78.66-1.17a.74.74,0,0,0,.06-.84c-.23-.33-.55-.25-.93-.1l.34-1.07a.49.49,0,0,0-.28-.68.57.57,0,0,0-.74.17,6.48,6.48,0,0,1-.55.8c.08-.36.16-.71.22-1.07s-.09-.73-.44-.82-.62.08-.76.53a10.33,10.33,0,0,1-.36,1.12c0-.31,0-.63-.06-.94s-.2-.56-.57-.58-.53.25-.59.56c-.09.51-.14,1-.2,1.55,0,.36-.08.73-.12,1.17-.37-.71-.63-.9-1-.75s-.37.66-.34,1c.07.82.2,1.63.31,2.44a2.73,2.73,0,0,1-.78,2.39c-.52.53-1,1.09-1.59,1.57a2.86,2.86,0,0,1-3,.51,7.44,7.44,0,0,1-3.82-3.08,10.85,10.85,0,0,1-1.67-5.13,11.73,11.73,0,0,1,.52-5,.9.9,0,0,0,0-.22c-1.07.5-2.76,3.47-3.24,5.67a11.66,11.66,0,0,0,.74,6.53,2.1,2.1,0,0,1-.39-.24A28.32,28.32,0,0,1,.4,97,26.89,26.89,0,0,1,7.18,73.9a26.15,26.15,0,0,1,13.77-8.31,33.92,33.92,0,0,1,6.28-.79c.32,0,.64,0,1.07.06-.14.14-.18.22-.25.26a9.71,9.71,0,0,0-4.2,4.51c-.52,1.15-1,2.32-1.53,3.48-.18.41-.39.81-.6,1.2-.48.87-1,1.73-1.44,2.62-.25.5-.14.8.25,1s.63.14,1-.25a1.3,1.3,0,0,1,.41-.37c0,.17-.07.35-.12.52-.22.74-.45,1.47-.66,2.22a3.47,3.47,0,0,0-.15.88.66.66,0,0,0,.52.65.59.59,0,0,0,.73-.36c.13-.27.24-.55.35-.82a2.64,2.64,0,0,1,.39-.74c-.07.44-.14.88-.21,1.32a4.9,4.9,0,0,0-.08.67.76.76,0,0,0,.67.84c.39,0,.65-.16.76-.65s.21-1.12.38-1.69c0,.37,0,.74.09,1.11,0,.19,0,.45.16.56a1.3,1.3,0,0,0,.7.32c.32,0,.48-.24.51-.53.06-.47.09-.94.13-1.45a3,3,0,0,0,.33.29c.53.34,1,.13,1.06-.5a4.37,4.37,0,0,0-.16-1.47,6.76,6.76,0,0,1,.09-3.54,3.79,3.79,0,0,1,.75-1.34,5.5,5.5,0,0,1,1-.83,2.42,2.42,0,0,1,2.53-.36A15.19,15.19,0,0,1,34,73.59,14.47,14.47,0,0,1,38.47,78a9,9,0,0,1,1.59,5.72A4.39,4.39,0,0,0,40.09,84.19ZM42,83.32l-.14-.09c-.09.08-.18.16-.27.24a18.34,18.34,0,0,1-5.86,4c-1.72.78-3.44,1.57-5.18,2.3a89.36,89.36,0,0,0-11.06,5.55A54.57,54.57,0,0,0,14.16,99a6,6,0,0,0-2,3.85,1,1,0,0,0,.37-.32A8.06,8.06,0,0,1,15.09,100a28.24,28.24,0,0,1,3.43-1.79c1.48-.63,3-1.1,4.55-1.66,1.89-.69,3.82-1.3,5.65-2.13a40.7,40.7,0,0,0,6.37-3.73,22.21,22.21,0,0,0,6.44-6.66C41.68,83.83,41.81,83.57,42,83.32Z"/><path class="cls-1" d="M229.89,13.63l-.31,1a.49.49,0,0,0,.28.68.58.58,0,0,0,.79-.22,4,4,0,0,1,.5-.75c-.07.35-.15.69-.21,1s.07.75.41.83.65-.07.8-.56a7.67,7.67,0,0,1,.35-1.08c0,.3,0,.6,0,.9s.26.61.61.62.51-.28.56-.58c.09-.56.14-1.14.21-1.7,0-.3.06-.59.11-1,.12.24.18.37.25.5a.59.59,0,0,0,.69.31.52.52,0,0,0,.43-.6c-.05-.62-.12-1.24-.19-1.85a3,3,0,0,0-.06-.29,3.43,3.43,0,0,1,1.1-3.58c.51-.44,1-.94,1.5-1.34a2.66,2.66,0,0,1,2.55-.35,7.54,7.54,0,0,1,4.76,4.64,12.35,12.35,0,0,1,.47,8.26c0,.17-.09.34-.13.5s0,0,0,.07c1.05-.49,2.73-3.45,3.22-5.66a10.54,10.54,0,0,0-.86-6.47l.13-.08a3.25,3.25,0,0,1,.44.31,28.32,28.32,0,0,1,8.73,16A26.87,26.87,0,0,1,250.56,46a26.53,26.53,0,0,1-9.09,6.9,26,26,0,0,1-7.94,2.2c-1,.11-2.08.19-3.12.27-.37,0-.73,0-1.28,0a2.47,2.47,0,0,1,.31-.32,9.69,9.69,0,0,0,4.17-4.44c.54-1.17,1-2.38,1.57-3.55.46-1,1-1.88,1.52-2.82.18-.33.37-.65.52-1,.22-.52.14-.81-.25-1s-.63-.14-1,.25a1,1,0,0,1-.43.35l.43-1.44c.14-.48.3-.95.42-1.43a2.67,2.67,0,0,0,.08-.81.61.61,0,0,0-.53-.55.57.57,0,0,0-.68.32c-.15.29-.26.59-.38.89a2.67,2.67,0,0,1-.39.72c.08-.48.17-1,.24-1.45a3.11,3.11,0,0,0,0-.74.73.73,0,0,0-.71-.65.65.65,0,0,0-.69.56c-.13.59-.23,1.2-.4,1.79,0-.39-.05-.79-.1-1.18a1.4,1.4,0,0,0-.19-.55.58.58,0,0,0-.72-.24.75.75,0,0,0-.41.45c-.1.48-.12,1-.17,1.52l-.22-.2a.7.7,0,0,0-.81-.18.73.73,0,0,0-.38.76,8,8,0,0,0,.22,1.47,6.92,6.92,0,0,1-.16,3.54,3.48,3.48,0,0,1-.78,1.25,6.11,6.11,0,0,1-.91.77,2.61,2.61,0,0,1-2.4.42,2.8,2.8,0,0,1-.56-.21,14.94,14.94,0,0,1-7.05-6.63,8.5,8.5,0,0,1-.93-4.4c0-.17,0-.33,0-.6a3.14,3.14,0,0,0-.49.29,10.2,10.2,0,0,0-3.58,7.53,13.06,13.06,0,0,0,1.19,5.94l.46,1a.8.8,0,0,1,0,.19.59.59,0,0,1-.18,0,23.3,23.3,0,0,1-5.38-4.36,29.67,29.67,0,0,1-6-10.17c-2.49-7.85-2-15.48,2.27-22.61A27.44,27.44,0,0,1,223.11.74,25,25,0,0,1,229.32,0a30.45,30.45,0,0,1,7.53.92l.45.15a2.92,2.92,0,0,1-.35.18,8.52,8.52,0,0,0-6,7.11,8.4,8.4,0,0,1-1,2.77c-.27.45-.54.9-.78,1.36C228.67,13.33,228.9,13.68,229.89,13.63ZM215.53,36.9l.11.08a4.3,4.3,0,0,0,.37-.31,17.83,17.83,0,0,1,5.48-3.81c2.62-1.2,5.25-2.38,7.9-3.52a72.42,72.42,0,0,0,10.25-5.49C241,23,242.28,22,243.56,21s1.48-2.27,1.84-3.68c-.14.06-.2.06-.23.09a2.51,2.51,0,0,0-.23.29A7.76,7.76,0,0,1,242.57,20a23.12,23.12,0,0,1-3.2,1.74c-1.76.73-3.56,1.4-5.39,2a41.86,41.86,0,0,0-11.46,5.65A22.41,22.41,0,0,0,216,36.15C215.8,36.4,215.67,36.65,215.53,36.9Z"/></g></g></svg>