<svg xmlns="http://www.w3.org/2000/svg" viewBox="0 0 553.25 183.42"><defs><style>.cls-1{fill:#595959;}.cls-2{fill:#fff;}</style></defs><title>marcasemcores_1</title><g id="Camada_2" data-name="Camada 2"><g id="Marca-_marca_sem_cores" data-name="Marca- marca sem cores"><rect class="cls-1" width="190.66" height="183.42" rx="9.21" ry="9.21"/><path class="cls-2" d="M36.73,123.82l.87.44a22.87,22.87,0,0,0,7.35,2.5,18.91,18.91,0,0,0,8.55-.7,24.56,24.56,0,0,0,7.13-3.63A17.83,17.83,0,0,1,67,119.65c1.33-.33,2.66-.71,4-1.08a2.72,2.72,0,0,0,.5-.21,1.24,1.24,0,0,0,.7-1.47,1.33,1.33,0,0,0-1.4-.93c-.63.06-1.25.16-1.94.25.92-.37,1.79-.69,2.63-1.05a17,17,0,0,0,1.8-.89c.73-.42.88-.89.58-1.54a1.33,1.33,0,0,0-1.68-.79c-1.06.37-2.09.79-3.14,1.19a7.62,7.62,0,0,1-1.33.39l3.17-2c.49-.31,1-.61,1.47-.93a1.32,1.32,0,0,0,.1-2.32,1.08,1.08,0,0,0-1.33-.1c-1,.59-2,1.19-2.93,1.8-.7.44-1.4.89-2.14,1.28.84-.8,1.68-1.59,2.5-2.4a16.84,16.84,0,0,0,1.19-1.27,1.13,1.13,0,0,0,0-1.55,1.05,1.05,0,0,0-1.53-.33,23.58,23.58,0,0,0-2.27,1.66c-1.42,1.15-2.82,2.34-4.23,3.51a1,1,0,0,1-.33.2c.43-.67.86-1.33,1.27-2a1.41,1.41,0,0,0-.55-2.08A.88.88,0,0,0,61,107a8,8,0,0,0-1.18,1.15c-1.24,1.61-2.42,3.28-3.68,4.88a6.44,6.44,0,0,1-4.1,2.49,16.23,16.23,0,0,1-2.19.18,34.62,34.62,0,0,1-4.17,0c-2.5-.25-4.76-1.1-6-3.49a24.72,24.72,0,0,1-1.58-3.72,15.69,15.69,0,0,1-.55-6.49c.57-6.18,3.51-11.21,7.57-15.68a26.5,26.5,0,0,1,9-6.54l.14-.07s0,0,.07-.11c-.76.05-1.48.08-2.2.15A34.15,34.15,0,0,0,45.5,81,24,24,0,0,0,29.58,95.71L29.06,97s0,0-.07.08a1.84,1.84,0,0,1-.68-1.29c0-3.06,0-6.12.11-9.17a27.64,27.64,0,0,1,.74-4.33c.62-3,1.16-5.94,1.93-8.85a63.42,63.42,0,0,1,11.49-23,65.94,65.94,0,0,1,39.1-24.32,58.36,58.36,0,0,1,8.56-1.17c2.54-.13,5.08-.27,7.61-.21A62.16,62.16,0,0,1,124,31a69.5,69.5,0,0,1,17.55,12.35c.92.88,1.75,1.85,2.62,2.79a2.64,2.64,0,0,1,.19.29,4.2,4.2,0,0,1-.42-.14,14.8,14.8,0,0,0-5.43-1.36c-1.26-.1-2.52-.16-3.78-.15A22,22,0,0,0,128,46.13a57,57,0,0,0-8.35,3.23A25.7,25.7,0,0,1,114.43,51c-1.57.44-3.15.87-4.72,1.33a4.91,4.91,0,0,0-1.15.53,1.29,1.29,0,0,0-.62,1.62,1.52,1.52,0,0,0,1.5,1.27c.88-.08,1.75-.27,2.63-.41a3.11,3.11,0,0,1,.82-.06l-.34.2c-2.57,1.37-5.14,2.73-7.7,4.12a5.47,5.47,0,0,0-1.29,1,1.55,1.55,0,0,0,.56,2.45,1.4,1.4,0,0,0,1.16-.1l4.86-2.1a3.28,3.28,0,0,1,.83-.26l-2.67,1.9-2.67,1.92a4.69,4.69,0,0,0-.4.31,1.71,1.71,0,0,0,.17,2.75,1.36,1.36,0,0,0,1.66-.06c.72-.48,1.41-1,2.11-1.5l3.24-2.32a.71.71,0,0,1,.35-.15l-.93,1-2.83,3a1.72,1.72,0,0,0-.1,2.44,1.18,1.18,0,0,0,1.75.2,25.75,25.75,0,0,0,3.6-3.38c.26-.28.55-.52.79-.74-.33.52-.69,1.1-1,1.68a1.72,1.72,0,0,0-.12,1.66,1.35,1.35,0,0,0,2.19.58,7.58,7.58,0,0,0,1.28-1.34c.67-.9,1.3-1.83,1.9-2.77a8.84,8.84,0,0,1,2.08-2.32c.91-.7,1.81-1.4,2.73-2.09a7.2,7.2,0,0,1,5.3-1.34,24.08,24.08,0,0,1,2.9.37,6.11,6.11,0,0,1,4.13,3.39,21.54,21.54,0,0,1,1.68,5,43.28,43.28,0,0,1,1,6,38.07,38.07,0,0,1,0,6.64,29,29,0,0,1-1.87,8.25,21,21,0,0,1-6.42,8.81c-.09.07-.16.15-.29.28.45,0,.83.08,1.21.09a30.4,30.4,0,0,0,10.41-1.29A20.13,20.13,0,0,0,147.06,95,30.28,30.28,0,0,0,159.2,79c.28-.81.61-1.61.92-2.41a3.86,3.86,0,0,1,.24-.42c.18,1,.35,1.81.51,2.66q.68,3.72,1.36,7.44a6.43,6.43,0,0,1,.11,1.11c0,2.73,0,5.47,0,8.2a22.75,22.75,0,0,1-.45,3.28c-.39,2.26-.79,4.51-1.22,6.76a62.72,62.72,0,0,1-7.88,20.47A67.5,67.5,0,0,1,142.88,139,65.24,65.24,0,0,1,113,156.5a51.15,51.15,0,0,1-7.65,1.44c-2.43.27-4.86.6-7.3.73-2.13.12-4.28.06-6.41,0a44.93,44.93,0,0,1-4.93-.43c-2.4-.36-4.81-.74-7.18-1.28A62.79,62.79,0,0,1,55.9,146.1a68.05,68.05,0,0,1-13-12.74,74.42,74.42,0,0,1-5.23-7.52c-.38-.63-.72-1.29-1.07-1.94ZM50.8,83l.06.15.29-.06a18.83,18.83,0,0,1,4.35-.62,27.12,27.12,0,0,1,7.3.88,54.8,54.8,0,0,1,10.26,3.82c4.86,2.31,9.69,4.69,14.55,7a55,55,0,0,0,6.06,2.61c3.13,1,6.33,1.92,9.52,2.75A75.79,75.79,0,0,0,120,102.13a46.57,46.57,0,0,0,7.68-.33,56.56,56.56,0,0,0,7.74-1.57c.17,0,.34-.12.56-.2l-.11,0a37.17,37.17,0,0,1-8.36-.35,48.08,48.08,0,0,1-9.69-2.52c-5.51-2.08-11-4.24-16.51-6.32-3.82-1.45-7.56-3.13-11.5-4.28-4.1-1.19-8.17-2.48-12.3-3.57a109.92,109.92,0,0,0-17.13-3.16,7.61,7.61,0,0,0-1.88-.05,15,15,0,0,0-4.39,1.43C53,81.71,51.9,82.35,50.8,83Z"/><path d="M427.62,123.82l.87.44a22.87,22.87,0,0,0,7.35,2.5,18.91,18.91,0,0,0,8.55-.7,24.56,24.56,0,0,0,7.13-3.63,17.83,17.83,0,0,1,6.36-2.78c1.33-.33,2.66-.71,4-1.08a2.72,2.72,0,0,0,.5-.21,1.24,1.24,0,0,0,.7-1.47,1.33,1.33,0,0,0-1.4-.93c-.63.06-1.25.16-1.94.25.92-.37,1.79-.69,2.63-1.05a17,17,0,0,0,1.8-.89c.73-.42.88-.89.58-1.54a1.33,1.33,0,0,0-1.68-.79c-1.06.37-2.09.79-3.14,1.19a7.62,7.62,0,0,1-1.33.39l3.17-2c.49-.31,1-.61,1.47-.93a1.32,1.32,0,0,0,.1-2.32,1.08,1.08,0,0,0-1.33-.1c-1,.59-2,1.19-2.93,1.8-.7.44-1.4.89-2.14,1.28.84-.8,1.68-1.59,2.5-2.4a16.84,16.84,0,0,0,1.19-1.27,1.13,1.13,0,0,0,0-1.55,1.05,1.05,0,0,0-1.53-.33,23.58,23.58,0,0,0-2.27,1.66c-1.42,1.15-2.82,2.34-4.23,3.51a1,1,0,0,1-.33.2c.43-.67.86-1.33,1.27-2A1.41,1.41,0,0,0,453,107a.88.88,0,0,0-1.08,0,8,8,0,0,0-1.18,1.15c-1.24,1.61-2.42,3.28-3.68,4.88a6.44,6.44,0,0,1-4.1,2.49,16.23,16.23,0,0,1-2.19.18,34.62,34.62,0,0,1-4.17,0c-2.5-.25-4.76-1.1-6-3.49a24.72,24.72,0,0,1-1.58-3.72,15.69,15.69,0,0,1-.55-6.49C429,95.83,432,90.81,436,86.34a26.5,26.5,0,0,1,9-6.54l.14-.07s0,0,.07-.11c-.76.05-1.48.08-2.2.15A34.15,34.15,0,0,0,436.4,81a24,24,0,0,0-15.92,14.69L419.95,97s0,0-.07.08a1.84,1.84,0,0,1-.68-1.29c0-3.06,0-6.12.11-9.17a27.64,27.64,0,0,1,.74-4.33c.62-3,1.16-5.94,1.93-8.85a63.42,63.42,0,0,1,11.49-23,65.94,65.94,0,0,1,39.1-24.32,58.36,58.36,0,0,1,8.56-1.17c2.54-.13,5.08-.27,7.61-.21A62.16,62.16,0,0,1,514.93,31a69.5,69.5,0,0,1,17.55,12.35c.92.88,1.75,1.85,2.62,2.79a2.64,2.64,0,0,1,.19.29,4.2,4.2,0,0,1-.42-.14,14.8,14.8,0,0,0-5.43-1.36c-1.26-.1-2.52-.16-3.78-.15a22,22,0,0,0-6.75,1.36,57,57,0,0,0-8.35,3.23A25.7,25.7,0,0,1,505.32,51c-1.57.44-3.15.87-4.72,1.33a4.91,4.91,0,0,0-1.15.53,1.29,1.29,0,0,0-.62,1.62,1.52,1.52,0,0,0,1.5,1.27c.88-.08,1.75-.27,2.63-.41a3.11,3.11,0,0,1,.82-.06l-.34.2c-2.57,1.37-5.14,2.73-7.7,4.12a5.47,5.47,0,0,0-1.29,1,1.55,1.55,0,0,0,.56,2.45,1.4,1.4,0,0,0,1.16-.1l4.86-2.1a3.28,3.28,0,0,1,.83-.26l-2.67,1.9-2.67,1.92a4.69,4.69,0,0,0-.4.31,1.71,1.71,0,0,0,.17,2.75,1.36,1.36,0,0,0,1.66-.06c.72-.48,1.41-1,2.11-1.5l3.24-2.32a.71.71,0,0,1,.35-.15l-.93,1-2.83,3a1.72,1.72,0,0,0-.1,2.44,1.18,1.18,0,0,0,1.75.2,25.75,25.75,0,0,0,3.6-3.38c.26-.28.55-.52.79-.74-.33.52-.69,1.1-1,1.68a1.72,1.72,0,0,0-.12,1.66,1.35,1.35,0,0,0,2.19.58,7.58,7.58,0,0,0,1.28-1.34c.67-.9,1.3-1.83,1.9-2.77a8.84,8.84,0,0,1,2.08-2.32c.91-.7,1.81-1.4,2.73-2.09a7.2,7.2,0,0,1,5.3-1.34,24.08,24.08,0,0,1,2.9.37,6.11,6.11,0,0,1,4.13,3.39,21.54,21.54,0,0,1,1.68,5,43.28,43.28,0,0,1,1,6,38.07,38.07,0,0,1,0,6.64,29,29,0,0,1-1.87,8.25,21,21,0,0,1-6.42,8.81c-.09.07-.16.15-.29.28.45,0,.83.08,1.21.09a30.4,30.4,0,0,0,10.41-1.29A20.13,20.13,0,0,0,538,95,30.28,30.28,0,0,0,550.09,79c.28-.81.61-1.61.92-2.41a3.86,3.86,0,0,1,.24-.42c.18,1,.35,1.81.51,2.66q.68,3.72,1.36,7.44a6.43,6.43,0,0,1,.11,1.11c0,2.73,0,5.47,0,8.2a22.75,22.75,0,0,1-.45,3.28c-.39,2.26-.79,4.51-1.22,6.76a62.72,62.72,0,0,1-7.88,20.47A67.5,67.5,0,0,1,533.78,139a65.24,65.24,0,0,1-29.84,17.52,51.15,51.15,0,0,1-7.65,1.44c-2.43.27-4.86.6-7.3.73-2.13.12-4.28.06-6.41,0a44.93,44.93,0,0,1-4.93-.43c-2.4-.36-4.81-.74-7.18-1.28A62.79,62.79,0,0,1,446.8,146.1a68.05,68.05,0,0,1-13-12.74,74.42,74.42,0,0,1-5.23-7.52c-.38-.63-.72-1.29-1.07-1.94ZM441.69,83l.06.15L442,83a18.83,18.83,0,0,1,4.35-.62,27.12,27.12,0,0,1,7.3.88A54.8,54.8,0,0,1,464,87.13c4.86,2.31,9.69,4.69,14.55,7a55,55,0,0,0,6.06,2.61c3.13,1,6.33,1.92,9.52,2.75a75.79,75.79,0,0,0,16.82,2.65,46.57,46.57,0,0,0,7.68-.33,56.56,56.56,0,0,0,7.74-1.57c.17,0,.34-.12.56-.2l-.11,0a37.17,37.17,0,0,1-8.36-.35,48.08,48.08,0,0,1-9.69-2.52c-5.51-2.08-11-4.24-16.51-6.32-3.82-1.45-7.56-3.13-11.5-4.28-4.1-1.19-8.17-2.48-12.3-3.57a109.92,109.92,0,0,0-17.13-3.16,7.61,7.61,0,0,0-1.88-.05A15,15,0,0,0,445,81.15C443.88,81.71,442.79,82.35,441.69,83Z"/><path class="cls-1" d="M247.4,123.82l.87.44a22.87,22.87,0,0,0,7.35,2.5,18.91,18.91,0,0,0,8.55-.7,24.56,24.56,0,0,0,7.13-3.63,17.83,17.83,0,0,1,6.36-2.78c1.33-.33,2.66-.71,4-1.08a2.72,2.72,0,0,0,.5-.21,1.24,1.24,0,0,0,.7-1.47,1.33,1.33,0,0,0-1.4-.93c-.63.06-1.25.16-1.94.25.92-.37,1.79-.69,2.63-1.05a17,17,0,0,0,1.8-.89c.73-.42.88-.89.58-1.54a1.33,1.33,0,0,0-1.68-.79c-1.06.37-2.09.79-3.14,1.19a7.62,7.62,0,0,1-1.33.39l3.17-2c.49-.31,1-.61,1.47-.93a1.32,1.32,0,0,0,.1-2.32,1.08,1.08,0,0,0-1.33-.1c-1,.59-2,1.19-2.93,1.8-.7.44-1.4.89-2.14,1.28.84-.8,1.68-1.59,2.5-2.4a16.84,16.84,0,0,0,1.19-1.27,1.13,1.13,0,0,0,0-1.55,1.05,1.05,0,0,0-1.53-.33,23.58,23.58,0,0,0-2.27,1.66c-1.42,1.15-2.82,2.34-4.23,3.51a1,1,0,0,1-.33.2c.43-.67.86-1.33,1.27-2a1.41,1.41,0,0,0-.55-2.08.88.88,0,0,0-1.08,0,8,8,0,0,0-1.18,1.15c-1.24,1.61-2.42,3.28-3.68,4.88a6.44,6.44,0,0,1-4.1,2.49,16.23,16.23,0,0,1-2.19.18,34.62,34.62,0,0,1-4.17,0c-2.5-.25-4.76-1.1-6-3.49a24.72,24.72,0,0,1-1.58-3.72,15.69,15.69,0,0,1-.55-6.49c.57-6.18,3.51-11.21,7.57-15.68a26.5,26.5,0,0,1,9-6.54l.14-.07s0,0,.07-.11c-.76.05-1.48.08-2.2.15A34.15,34.15,0,0,0,256.18,81a24,24,0,0,0-15.92,14.69L239.73,97s0,0-.07.08a1.84,1.84,0,0,1-.68-1.29c0-3.06,0-6.12.11-9.17a27.64,27.64,0,0,1,.74-4.33c.62-3,1.16-5.94,1.93-8.85a63.42,63.42,0,0,1,11.49-23,65.94,65.94,0,0,1,39.1-24.32,58.36,58.36,0,0,1,8.56-1.17c2.54-.13,5.08-.27,7.61-.21A62.16,62.16,0,0,1,334.71,31a69.5,69.5,0,0,1,17.55,12.35c.92.88,1.75,1.85,2.62,2.79a2.64,2.64,0,0,1,.19.29,4.2,4.2,0,0,1-.42-.14,14.8,14.8,0,0,0-5.43-1.36c-1.26-.1-2.52-.16-3.78-.15a22,22,0,0,0-6.75,1.36,57,57,0,0,0-8.35,3.23A25.7,25.7,0,0,1,325.1,51c-1.57.44-3.15.87-4.72,1.33a4.91,4.91,0,0,0-1.15.53,1.29,1.29,0,0,0-.62,1.62,1.52,1.52,0,0,0,1.5,1.27c.88-.08,1.75-.27,2.63-.41a3.11,3.11,0,0,1,.82-.06l-.34.2c-2.57,1.37-5.14,2.73-7.7,4.12a5.47,5.47,0,0,0-1.29,1,1.55,1.55,0,0,0,.56,2.45A1.4,1.4,0,0,0,316,63l4.86-2.1a3.28,3.28,0,0,1,.83-.26L319,62.5l-2.67,1.92a4.69,4.69,0,0,0-.4.31,1.71,1.71,0,0,0,.17,2.75,1.36,1.36,0,0,0,1.66-.06c.72-.48,1.41-1,2.11-1.5l3.24-2.32a.71.71,0,0,1,.35-.15l-.93,1-2.83,3a1.72,1.72,0,0,0-.1,2.44,1.18,1.18,0,0,0,1.75.2,25.75,25.75,0,0,0,3.6-3.38c.26-.28.55-.52.79-.74-.33.52-.69,1.1-1,1.68a1.72,1.72,0,0,0-.12,1.66,1.35,1.35,0,0,0,2.19.58A7.58,7.58,0,0,0,328,68.59c.67-.9,1.3-1.83,1.9-2.77A8.84,8.84,0,0,1,332,63.5c.91-.7,1.81-1.4,2.73-2.09a7.2,7.2,0,0,1,5.3-1.34,24.08,24.08,0,0,1,2.9.37,6.11,6.11,0,0,1,4.13,3.39,21.54,21.54,0,0,1,1.68,5,43.28,43.28,0,0,1,1,6,38.07,38.07,0,0,1,0,6.64,29,29,0,0,1-1.87,8.25,21,21,0,0,1-6.42,8.81c-.09.07-.16.15-.29.28.45,0,.83.08,1.21.09a30.4,30.4,0,0,0,10.41-1.29A20.13,20.13,0,0,0,357.73,95,30.28,30.28,0,0,0,369.87,79c.28-.81.61-1.61.92-2.41a3.86,3.86,0,0,1,.24-.42c.18,1,.35,1.81.51,2.66q.68,3.72,1.36,7.44a6.43,6.43,0,0,1,.11,1.11c0,2.73,0,5.47,0,8.2a22.75,22.75,0,0,1-.45,3.28c-.39,2.26-.79,4.51-1.22,6.76a62.72,62.72,0,0,1-7.88,20.47A67.5,67.5,0,0,1,353.56,139a65.24,65.24,0,0,1-29.84,17.52,51.15,51.15,0,0,1-7.65,1.44c-2.43.27-4.86.6-7.3.73-2.13.12-4.28.06-6.41,0a44.93,44.93,0,0,1-4.93-.43c-2.4-.36-4.81-.74-7.18-1.28a62.79,62.79,0,0,1-23.68-10.85,68.05,68.05,0,0,1-13-12.74,74.42,74.42,0,0,1-5.23-7.52c-.38-.63-.72-1.29-1.07-1.94ZM261.47,83l.06.15.29-.06a18.83,18.83,0,0,1,4.35-.62,27.12,27.12,0,0,1,7.3.88,54.8,54.8,0,0,1,10.26,3.82c4.86,2.31,9.69,4.69,14.55,7a55,55,0,0,0,6.06,2.61c3.13,1,6.33,1.92,9.52,2.75a75.79,75.79,0,0,0,16.82,2.65,46.57,46.57,0,0,0,7.68-.33,56.56,56.56,0,0,0,7.74-1.57c.17,0,.34-.12.56-.2l-.11,0a37.17,37.17,0,0,1-8.36-.35,48.08,48.08,0,0,1-9.69-2.52C323,95,317.5,92.87,312,90.79c-3.82-1.45-7.56-3.13-11.5-4.28-4.1-1.19-8.17-2.48-12.3-3.57a109.92,109.92,0,0,0-17.13-3.16,7.61,7.61,0,0,0-1.88-.05,15,15,0,0,0-4.39,1.43C263.66,81.71,262.57,82.35,261.47,83Z"/></g></g></svg>