<svg xmlns="http://www.w3.org/2000/svg" viewBox="0 0 211.35 275.66"><defs><style>.cls-1{fill:#544544;}.cls-2{fill:#ff236f;}.cls-3{fill:#ffae00;}.cls-4{fill:#00dacc;}</style></defs><title>marcacores</title><g id="Camada_2" data-name="Camada 2"><g id="Marca-_marca_sem_cores_cópia" data-name="Marca- marca sem cores cópia"><path class="cls-1" d="M198.56,184.25v4.2a1.18,1.18,0,0,0-.05.2c0,.37,0,.74-.09,1.11-.14.87-.32,1.73-.48,2.6s-.31,1.76-.51,2.64a26.42,26.42,0,0,1-1.13,3.84c-.47,1.18-1,2.35-1.49,3.51a18.4,18.4,0,0,1-1,1.93q-.85,1.41-1.77,2.78a30.7,30.7,0,0,1-3.19,4c-.71.75-1.47,1.47-2.24,2.16s-1.5,1.27-2.27,1.87a29.5,29.5,0,0,1-3.88,2.54c-.84.46-1.7.9-2.57,1.3s-1.66.74-2.52,1a24,24,0,0,1-3.51,1c-1,.2-2,.4-3,.55-.83.13-1.66.2-2.5.29-.63.07-1.26.13-1.89.16s-1.21,0-1.82,0c-.82,0-1.64-.07-2.47-.12-.35,0-.7,0-1-.09-.63-.08-1.26-.17-1.88-.28s-1.5-.26-2.24-.43a30.66,30.66,0,0,1-4.09-1.21c-.81-.31-1.62-.63-2.41-1s-1.46-.71-2.18-1.09-1.39-.76-2-1.2c-1-.65-1.9-1.33-2.82-2s-1.53-1.28-2.25-2a28.15,28.15,0,0,1-2.53-2.69c-.45-.55-.94-1.08-1.35-1.66-.79-1.1-1.55-2.22-2.3-3.34-.28-.41-.5-.86-.74-1.29l0-.05.16.06c.74.33,1.46.71,2.22,1a9.51,9.51,0,0,0,4,.59,11.49,11.49,0,0,0,2-.33,12.49,12.49,0,0,0,3.56-1.59,11.09,11.09,0,0,1,2.22-1.32c.72-.25,1.46-.46,2.2-.68s1.27-.36,1.9-.56A.63.63,0,0,0,151,200a.73.73,0,0,0-.72-.56,4.47,4.47,0,0,0-.48.06l-.68.11c.3-.16.61-.26.92-.39.53-.23,1-.48,1.56-.73A.51.51,0,0,0,152,198a.72.72,0,0,0-1-.65c-.52.18-1,.4-1.53.59l-.89.31a.25.25,0,0,1,.11-.13l2.52-1.59a.61.61,0,0,0,.26-.68.74.74,0,0,0-1.21-.39l-2.08,1.34-.51.31c.23-.26.47-.51.71-.75l1.35-1.35a.53.53,0,0,0,0-.71c-.26-.34-.49-.41-.81-.23a5.27,5.27,0,0,0-.75.5c-.74.6-1.46,1.21-2.19,1.82l-.79.65,0-.11.66-1c.17-.26.29-.54.08-.83s-.55-.55-.91-.28a2.91,2.91,0,0,0-1,1.38,4.83,4.83,0,0,1-.31.72,6.19,6.19,0,0,1-1.51,2,7.74,7.74,0,0,1-1.06.76,5.13,5.13,0,0,1-3.23.62,5.3,5.3,0,0,1-1.54-.44,6,6,0,0,1-2.13-1.63,7,7,0,0,1-1.14-1.93,7.13,7.13,0,0,1-.51-3.49c.07-.63.17-1.26.29-1.88a13.11,13.11,0,0,1,1.59-4.05,17.49,17.49,0,0,1,2.56-3.33c.37-.38.78-.72,1.18-1.07a13,13,0,0,1,2.92-1.89l.32-.16a1.51,1.51,0,0,0-.45,0l-1.62.16a14.65,14.65,0,0,0-2.56.56,14.06,14.06,0,0,0-2.76,1.19,10.78,10.78,0,0,0-2.24,1.63,15.93,15.93,0,0,0-1.42,1.58,12.73,12.73,0,0,0-1.84,3.27c-.1.26-.22.52-.33.8a1.19,1.19,0,0,1-.41-.8c0-1.55,0-3.09,0-4.64a2.57,2.57,0,0,1,0-.44c.14-.77.29-1.55.44-2.32.2-1,.39-2.06.63-3.08a27.74,27.74,0,0,1,1.14-3.88c.43-1.1.89-2.18,1.37-3.26.25-.57.55-1.12.85-1.67s.76-1.34,1.18-2a27.88,27.88,0,0,1,2.43-3.33c.66-.76,1.31-1.53,2-2.24s1.47-1.42,2.22-2.11a19,19,0,0,1,1.48-1.22c.79-.59,1.6-1.16,2.42-1.69s1.53-.94,2.32-1.37,1.4-.72,2.11-1c1-.42,1.93-.82,2.92-1.18a23.41,23.41,0,0,1,2.28-.71q1.58-.4,3.18-.72c.69-.14,1.4-.21,2.11-.29s1.32-.15,2-.2,1,0,1.56,0a.73.73,0,0,0,.18-.05h1.51a.36.36,0,0,0,.11.05l2.4.13c.44,0,.89.06,1.32.13.73.11,1.45.23,2.17.36a28.65,28.65,0,0,1,3.87,1,26.13,26.13,0,0,1,3.65,1.46c1,.51,2,1,3,1.59s1.89,1.2,2.81,1.83c.61.42,1.19.89,1.77,1.36s.88.74,1.29,1.13c.68.64,1.34,1.3,2,2,.16.16.28.34.43.51a.26.26,0,0,1-.2,0,9,9,0,0,0-3.62-.8,17.63,17.63,0,0,0-1.95,0,5.77,5.77,0,0,0-1.25.19c-1,.3-2.08.64-3.11,1a25,25,0,0,0-3.37,1.39,4.49,4.49,0,0,1-.79.29l-2.44.65c-.64.18-1.29.35-1.91.58s-.77.55-.54,1.08a.75.75,0,0,0,.75.53l1.23-.18.65-.11a.31.31,0,0,1-.14.14c-.89.48-1.79.94-2.68,1.43a13.21,13.21,0,0,0-2,1.17.76.76,0,0,0-.23,1,.69.69,0,0,0,1,.32l2.47-1.07.65-.26c-1,.74-1.94,1.43-2.91,2.13a.94.94,0,0,0-.52.89,1,1,0,0,0,.5.75.67.67,0,0,0,.75-.1l2.58-1.85.58-.38a2,2,0,0,1-.26.35c-.6.65-1.21,1.3-1.82,1.94a.89.89,0,0,0-.09,1.27.63.63,0,0,0,.84.14c.19-.16.4-.29.58-.46.47-.45.92-.92,1.38-1.38l.55-.56c-.15.3-.33.56-.5.83a1.28,1.28,0,0,0-.29.86.82.82,0,0,0,.41.65.59.59,0,0,0,.73-.06,7.7,7.7,0,0,0,.9-1c.43-.57.76-1.22,1.22-1.76a8.61,8.61,0,0,1,2.51-2,7.47,7.47,0,0,1,3.26-.91,8.24,8.24,0,0,1,1.75.13,7.42,7.42,0,0,1,2.41.9,9.13,9.13,0,0,1,2.62,2.31,10.58,10.58,0,0,1,1.36,2.34A11.16,11.16,0,0,1,191,179a21,21,0,0,1-.07,2.43,9.35,9.35,0,0,1-.48,2.23,11.06,11.06,0,0,1-.92,2.09,10.13,10.13,0,0,1-1.34,1.86,8.4,8.4,0,0,1-1.89,1.57,7.57,7.57,0,0,1-2.56,1l-.56.11v.06l1.49-.1a10.82,10.82,0,0,0,2.29-.38,15.18,15.18,0,0,0,1.74-.59,8.43,8.43,0,0,0,1.07-.6,14.56,14.56,0,0,0,2.63-2c.57-.54,1.1-1.14,1.62-1.73a13.28,13.28,0,0,0,1.62-2.44,20.19,20.19,0,0,0,1.4-3.37,8.35,8.35,0,0,1,.36-.82h.06c.14.76.27,1.52.41,2.28l.57,3.07ZM139.84,182l0,0H140a19,19,0,0,1,1.88-.3,12.21,12.21,0,0,1,2.74.14,20.55,20.55,0,0,1,2.71.64,41,41,0,0,1,5.75,2.41c1.14.55,2.26,1.13,3.4,1.67,1.34.64,2.68,1.26,4,1.87.57.26,1.14.53,1.74.74s1.35.43,2,.62c.93.27,1.86.53,2.8.77s1.85.45,2.79.65,1.67.32,2.5.45c.56.09,1.13.15,1.69.21s1.3.14,1.95.16c.94,0,1.88,0,2.83,0a15.05,15.05,0,0,0,1.76-.17c.86-.14,1.72-.31,2.58-.49.44-.09.87-.22,1.31-.33V191c-.18,0-.37,0-.55,0-.54,0-1.08,0-1.62,0s-1.19-.07-1.78-.17a23.67,23.67,0,0,1-2.5-.48c-1.11-.3-2.22-.65-3.3-1-1.35-.48-2.69-1-4-1.52l-3.72-1.45-3.22-1.24c-.89-.34-1.78-.68-2.69-1q-2-.67-4.11-1.28-1.57-.47-3.17-.86c-1-.26-2.1-.5-3.16-.73-.6-.13-1.21-.23-1.81-.34s-1-.2-1.58-.28-1.12-.14-1.67-.21c-.33,0-.65-.09-1-.11a3,3,0,0,0-.7,0,9.79,9.79,0,0,0-3.2,1.19C140.37,181.66,140.11,181.84,139.84,182Z"/><path class="cls-1" d="M136.67,236.22a3.23,3.23,0,0,1,1.12-.08,9.48,9.48,0,0,1,1.1.17,5.41,5.41,0,0,1,2.81,1.59,5.6,5.6,0,0,1,1.58,2.89,6.54,6.54,0,0,1-1.84,6.07,9.71,9.71,0,0,1-2.69,1.84,9.6,9.6,0,0,1-2.69.84,21.84,21.84,0,0,1-2.8.24q-1.27,0-2.53-.1t-2.5-.31q-.15,2.26-.43,4.48t-.67,4.46q-.39,2.07-1,4.13a31.27,31.27,0,0,1-1.4,4,17.31,17.31,0,0,1-.91,1.8,10.28,10.28,0,0,1-1.15,1.61,8.37,8.37,0,0,1-1.5,1.47,4.55,4.55,0,0,1-1.93.87.85.85,0,0,1-.56-.08,1.2,1.2,0,0,1-.43-.36,1,1,0,0,1-.19-.53.94.94,0,0,1,.58-.92l.51-.22a3.59,3.59,0,0,0,.52-.22,3.44,3.44,0,0,0,.51-.32,7.33,7.33,0,0,0,1.85-2.19,18.23,18.23,0,0,0,1.19-2.58,32.16,32.16,0,0,0,1.79-6.23q.59-3.22.92-6.48.17-1.44.28-3a15.06,15.06,0,0,0-3-.1,10.64,10.64,0,0,0-2.92.61,6.06,6.06,0,0,0-1.41.68,3.43,3.43,0,0,0-1.09,1.14,2.93,2.93,0,0,0-.46,1.48,3.51,3.51,0,0,0,.28,1.54,4.47,4.47,0,0,0,.83,1.2,2,2,0,0,0,1.3.63,1,1,0,0,0,.38,0l.36-.07.34-.13a1,1,0,0,1,.35-.07,1.15,1.15,0,0,1,.58.18.85.85,0,0,1,.37.5,1,1,0,0,1,0,.65,1.14,1.14,0,0,1-.36.46,1.65,1.65,0,0,1-.56.3,5.92,5.92,0,0,1-.61.15,3.6,3.6,0,0,1-1.64-.06,4.91,4.91,0,0,1-1.49-.68,5.37,5.37,0,0,1-1.87-2.66,5.46,5.46,0,0,1-.09-3.24,5.26,5.26,0,0,1,1.74-2.58,7.26,7.26,0,0,1,2.79-1.41,11.69,11.69,0,0,1,3.24-.36q1.64,0,3.25.22l.35,0,.26-.05a.89.89,0,0,1,.58.16q1.12.13,2.22.21a19.55,19.55,0,0,0,2.22,0,11.38,11.38,0,0,0,1.73-.19,5.55,5.55,0,0,0,1.62-.59,6.51,6.51,0,0,0,1.63-1.34,7.1,7.1,0,0,0,.87-1.21,4.27,4.27,0,0,0,.51-1.45,2.73,2.73,0,0,0-.21-1.45,4.43,4.43,0,0,0-.82-1.23,3.88,3.88,0,0,0-.76-.64,8.71,8.71,0,0,1-.82-.6,1.73,1.73,0,0,1-.52-1.12,1.5,1.5,0,0,1,.36-1.15A1.79,1.79,0,0,1,136.67,236.22Z"/><path class="cls-1" d="M135.18,266.49a9.63,9.63,0,0,1-1.9-.3,8.07,8.07,0,0,1-2.17-.91,6.93,6.93,0,0,1-.8-.58,3.78,3.78,0,0,1-1.27-2,3.2,3.2,0,0,1-.1-1.46,5,5,0,0,1,.72-1.89,6.55,6.55,0,0,1,1.53-1.69,8.32,8.32,0,0,1,2.64-1.41,9.36,9.36,0,0,1,3.18-.46,1.47,1.47,0,0,1,.94.3.91.91,0,0,1,.4.68.81.81,0,0,1-.45.63,1.65,1.65,0,0,1-1,.2,4.73,4.73,0,0,0-2.16.33,5.46,5.46,0,0,0-1.41.84,5.17,5.17,0,0,0-1.15,1.34,3.72,3.72,0,0,0-.54,1.53,1.92,1.92,0,0,0,0,.55,2.42,2.42,0,0,0,.19.85,2.57,2.57,0,0,0,.59.86,2.53,2.53,0,0,0,1.23.61,3.84,3.84,0,0,0,2.84-.39l.49-.34a7.07,7.07,0,0,1-1.91-1.21,2.71,2.71,0,0,1-1.1-2.73,2.38,2.38,0,0,1,1.22-1.46,4,4,0,0,1,1-.39,4.57,4.57,0,0,1,1.18-.14,3.82,3.82,0,0,1,2.07.51,2.82,2.82,0,0,1,1.3,1.43,4.63,4.63,0,0,1,0,2.7,1.88,1.88,0,0,0,.67-.46,2.52,2.52,0,0,0,.52-.89,1,1,0,0,1,.63-.56,1.73,1.73,0,0,1,1-.05,1.37,1.37,0,0,1,.82.53.85.85,0,0,1,.15.79,3.39,3.39,0,0,1-1.07,1.7,4.4,4.4,0,0,1-1.38.78,6.12,6.12,0,0,1-2.41.25l-.57.56a4,4,0,0,1-.63.49,4.45,4.45,0,0,1-2.24.78A6.1,6.1,0,0,1,135.18,266.49Zm2.3-6.76a1.32,1.32,0,0,0-.49.14.55.55,0,0,0-.3.47,1,1,0,0,0,.21,1.06,3.09,3.09,0,0,0,1.13.83l0-.06a3.16,3.16,0,0,0,.22-1.09,2.35,2.35,0,0,0-.14-.91.55.55,0,0,0-.53-.44Z"/><path class="cls-1" d="M148.63,266.5a9,9,0,0,1-2.12-.24,5.88,5.88,0,0,1-3-1.73,4.65,4.65,0,0,1-1.19-3,4.25,4.25,0,0,1,0-1.15,8.05,8.05,0,0,1,1.5-3.37A7.53,7.53,0,0,1,145.9,255a6.4,6.4,0,0,1,2.48-1,3.8,3.8,0,0,1,1.9.12,2.68,2.68,0,0,1,1.44,1,2.49,2.49,0,0,1,.53,2.06,4.25,4.25,0,0,1-1.17,2.31,1.41,1.41,0,0,1-.9.39,1.49,1.49,0,0,1-1-.24,1.08,1.08,0,0,1-.57-.73.82.82,0,0,1,.25-.78,2.42,2.42,0,0,0,.65-1.13.86.86,0,0,0-.12-.7.47.47,0,0,0-.51-.19,2.92,2.92,0,0,0-1.36.62,5.87,5.87,0,0,0-1.26,1.37,6.42,6.42,0,0,0-1.23,3.7,2.86,2.86,0,0,0,.09.73,2.76,2.76,0,0,0,.29.72,2,2,0,0,0,.56.61,2.37,2.37,0,0,0,.89.4,4.78,4.78,0,0,0,4.72-1.56,7.13,7.13,0,0,0,1.28-1.78c.27-.56.41-.86.44-.89a1,1,0,0,1,.67-.62,1.58,1.58,0,0,1,1,0,1.38,1.38,0,0,1,.8.6,1.09,1.09,0,0,1,.13.89,2.6,2.6,0,0,0-.17.36c-.09.21-.22.48-.4.79s-.38.67-.63,1.06a6.16,6.16,0,0,1-.93,1.12,7.38,7.38,0,0,1-1.32,1.18,6.44,6.44,0,0,1-1.5.77A7.86,7.86,0,0,1,148.63,266.5Z"/><path class="cls-1" d="M157.82,266.21a4.5,4.5,0,0,1-1.89-.36,4.08,4.08,0,0,1-2.26-2.21,5,5,0,0,1-.34-2.73,10.65,10.65,0,0,1,.78-2.75,14.66,14.66,0,0,1,1.53-2.77,12.36,12.36,0,0,1,2.06-2.3,6.52,6.52,0,0,1,2.75-1.39,6.06,6.06,0,0,1,4.17.66,3.87,3.87,0,0,1,.89.68q.24.28.54.58a1.13,1.13,0,0,1,.25,1,1.41,1.41,0,0,1-.54.79,1.45,1.45,0,0,1-1,.26,1.38,1.38,0,0,1-1-.61l-.11-.07h0a4.51,4.51,0,0,0-.62-.54,2.87,2.87,0,0,0-3.53.47,8.86,8.86,0,0,0-1.49,1.71,14,14,0,0,0-1.24,2.24,8.45,8.45,0,0,0-.69,2.43,3.42,3.42,0,0,0,0,.58,3.62,3.62,0,0,0,.09.71,2.3,2.3,0,0,0,.26.68,1,1,0,0,0,.53.45.58.58,0,0,0,.31.08,1.19,1.19,0,0,0,.46-.09,4,4,0,0,0,1.25-.88,10.39,10.39,0,0,0,1.82-2.78q.25-.58.49-1.1a8,8,0,0,0,.38-1l.21-.67a4.06,4.06,0,0,1,.26-.64,1.29,1.29,0,0,1,.95-.8l.18,0a.55.55,0,0,0,.23,0,.33.33,0,0,1,.24,0h0s0,0,.1,0a1.45,1.45,0,0,1,.73.62,1.29,1.29,0,0,1,.15,1l-.51,1.39a9.85,9.85,0,0,0-.33,2.49,3.74,3.74,0,0,0,.36,1.8.59.59,0,0,0,.13.21l.11.08a.84.84,0,0,0,.21,0,.63.63,0,0,0,.32-.1,3.5,3.5,0,0,0,1-1,9.8,9.8,0,0,0,1-1.82c.26-.69.46-1.25.6-1.67l.22-.76a1.26,1.26,0,0,1,.63-.81,1.33,1.33,0,0,1,1-.15,1.36,1.36,0,0,1,.84.62,1.41,1.41,0,0,1,.18,1.07,7.84,7.84,0,0,1-.25.88c-.17.55-.4,1.21-.69,2-.91,2.15-1.95,3.47-3.12,4a2.82,2.82,0,0,1-1.16.35,3.07,3.07,0,0,1-1.41-.21,3.58,3.58,0,0,1-2.08-1.75.71.71,0,0,1-.15-.29l-.11.14a6.18,6.18,0,0,1-2.55,2A3.61,3.61,0,0,1,157.82,266.21ZM163.66,255c0,.06,0,.08.06.08S163.67,255.05,163.66,255Z"/><path class="cls-1" d="M167.12,270a1.5,1.5,0,0,1-1-.35,1.44,1.44,0,0,1-.58-.89,1,1,0,0,1,.15-1,1.24,1.24,0,0,1,.84-.47q2.94-.32,5.87-.71l1-2.87a4,4,0,0,1-2.87-.15,4.14,4.14,0,0,1-2.28-2.36,6.34,6.34,0,0,1-.35-3,11.91,11.91,0,0,1,.75-3,16.36,16.36,0,0,1,1.5-3,12,12,0,0,1,2.28-2.68,5.87,5.87,0,0,1,2.46-1.34,5.38,5.38,0,0,1,2.42,0,5.28,5.28,0,0,1,1.55.66,3.61,3.61,0,0,1,.89.91l.35.55a1.47,1.47,0,0,1,.27,1.26,1.41,1.41,0,0,1-.67.83,1.52,1.52,0,0,1-1.07.15,1.38,1.38,0,0,1-.93-.78.75.75,0,0,0-.16-.21,1.77,1.77,0,0,0-.41-.32,2.19,2.19,0,0,0-.72-.25,2.67,2.67,0,0,0-1.09.07,2.79,2.79,0,0,0-1.39.84,10.91,10.91,0,0,0-1.48,1.84,13.32,13.32,0,0,0-1.19,2.44,9.92,9.92,0,0,0-.59,2.38,4.58,4.58,0,0,0,0,1.47,1.24,1.24,0,0,0,.74,1,1,1,0,0,0,1-.05,3.63,3.63,0,0,0,1.39-1.21,12.78,12.78,0,0,0,1.4-2.47c.39-.92.71-1.74,1-2.45l.23-.79a1.63,1.63,0,0,1,.71-.88,1.22,1.22,0,0,1,1-.11,1.17,1.17,0,0,1,.8.68,1.73,1.73,0,0,1,.13,1.14c-.06,0-.16.32-.3.92q-1,3.45-2.09,6.77c.36-.38.72-.76,1.06-1.15a7.41,7.41,0,0,0,.94-1.33,12,12,0,0,0,.78-1.73,15.62,15.62,0,0,0,.63-2.37,1.48,1.48,0,0,1,.58-.92,1.23,1.23,0,0,1,1-.2,1.33,1.33,0,0,1,.84.68,1.59,1.59,0,0,1,.17,1.14,19.47,19.47,0,0,1-.79,3,13.85,13.85,0,0,1-1.15,2.44,14.33,14.33,0,0,1-1.27,1.72,15.3,15.3,0,0,1-1.36,1.38l-.7.68,2.27-.36a1.37,1.37,0,0,1,1,.29,1.71,1.71,0,0,1,.63,1,1.4,1.4,0,0,1-.16,1.1,1.25,1.25,0,0,1-.88.6q-2.72.35-5.44.64a17.55,17.55,0,0,0-1.19,2.44l-.82,2.47-.26.81a1,1,0,0,1-1,.76,2,2,0,0,1-1.49-1,1.45,1.45,0,0,1-.06-1.07l.21-.56a.66.66,0,0,1,0-.28l.45-1.37c.14-.44.3-.87.46-1.29l.18-.48q-2.11.21-4.23.38Z"/><path class="cls-1" d="M184.69,263.57a2.21,2.21,0,0,1-.48,0,2,2,0,0,1-.5-.09,3.65,3.65,0,0,1-2.65-2.05c-1-1.84-1.05-4.75-.1-9,.3-1.48.62-2.77,1-3.84s.52-1.67.57-1.75a1.43,1.43,0,0,1,.69-.91,1.24,1.24,0,0,1,1.07-.08,1.26,1.26,0,0,1,.77.78,1.8,1.8,0,0,1,0,1.23,13.77,13.77,0,0,0-.51,1.58c-.31,1-.61,2.27-.9,3.67-.24,1.19-.39,2.17-.47,3a16.91,16.91,0,0,0-.1,2,5.17,5.17,0,0,0,.13,1.21,2.28,2.28,0,0,0,.24.61.76.76,0,0,0,.63.47,1,1,0,0,0,.77-.35,5.44,5.44,0,0,0,1-1.25,24.6,24.6,0,0,0,2.18-5.41l.82-3q0-.29.1-.52c0-.16.09-.34.15-.54.15-.78.32-1.56.49-2.33s.32-1.55.45-2.33a2,2,0,0,1,.6-1.09,1.13,1.13,0,0,1,1-.33,1.27,1.27,0,0,1,.86.65,1.69,1.69,0,0,1,.19,1.22c0,.08-.13.71-.34,1.87s-.51,2.57-.9,4.22l-.49,2.49c-.15.79-.27,1.51-.36,2.16a9.83,9.83,0,0,0-.14,2.18,1.87,1.87,0,0,0,.19.77c0,.11.1.17.26.17s.4-.12.71-.48a7.89,7.89,0,0,0,1.07-2,15.4,15.4,0,0,0,.87-2.49c.19-.77.28-1.18.28-1.22a1.81,1.81,0,0,1,.66-1,1,1,0,0,1,1-.16,1.18,1.18,0,0,1,.84.77,2.28,2.28,0,0,1,.13,1.32s-.15.52-.37,1.41a22.59,22.59,0,0,1-1,2.94,18,18,0,0,1-.83,1.71,9.79,9.79,0,0,1-.84,1.29,3.25,3.25,0,0,1-1.7,1.25,2.52,2.52,0,0,1-1.34,0,3.31,3.31,0,0,1-2.12-1.73l0-.11-.23.32a7.67,7.67,0,0,1-.83,1.26,5.41,5.41,0,0,1-.89.88A3.55,3.55,0,0,1,184.69,263.57Z"/><path class="cls-1" d="M198.92,261.44a2,2,0,0,1-1.07,0,3.8,3.8,0,0,1-2.25-1,5.23,5.23,0,0,1-1.14-1.57c-.74-1.58-.86-3.7-.39-6.43a28.09,28.09,0,0,1,.87-3.89q.57-1.91,1.11-3.31a1.63,1.63,0,0,1,.74-1,1,1,0,0,1,1,0,1.43,1.43,0,0,1,.72.89,2.09,2.09,0,0,1,0,1.39q-.67,1.82-1.1,3.45t-.68,3a10.45,10.45,0,0,0-.17,2.87,6.46,6.46,0,0,0,.29,1.29,1.53,1.53,0,0,0,.37.48,1.74,1.74,0,0,0,.81.32,1,1,0,0,0,.37,0,2.27,2.27,0,0,0,1.37-1.25,15.22,15.22,0,0,0,.94-2c.18-.49.34-1,.5-1.5s.29-1,.38-1.36l.32-1.32a1.91,1.91,0,0,1,.61-1.13,1.05,1.05,0,0,1,1-.27,1.34,1.34,0,0,1,.84.78,2.18,2.18,0,0,1,.17,1.36,3.25,3.25,0,0,1-.09.53c-.07.31-.15.7-.25,1.16s-.25,1-.43,1.58-.38,1.17-.61,1.77a10.89,10.89,0,0,1-2.16,3.81A4.37,4.37,0,0,1,198.92,261.44Zm1.64-21.07a1,1,0,0,1-.87-.11,1.5,1.5,0,0,1-.71-.91,2.18,2.18,0,0,1,.08-1.38l.52-1.28a2.05,2.05,0,0,1,.79-1,.87.87,0,0,1,1,0,1.33,1.33,0,0,1,.73.93,2.26,2.26,0,0,1-.1,1.39l-.47,1.34A1.76,1.76,0,0,1,200.56,240.37Z"/><path class="cls-1" d="M206.31,261.7a1,1,0,0,1-.25,0l-.26,0a1.7,1.7,0,0,1-.88-.85,2,2,0,0,1-.22-1.36l.16-1.16a1.8,1.8,0,0,1,.55-1.2,1.08,1.08,0,0,1,1-.31,1.62,1.62,0,0,1,.88.8,2.37,2.37,0,0,1,.26,1.4l-.16,1.19Q207.2,261.51,206.31,261.7Zm1.31-9.87a.91.91,0,0,1-.25,0l-.26,0a1.53,1.53,0,0,1-.88-.76,2.08,2.08,0,0,1-.22-1.39q1.27-10,2.54-20.4a2.52,2.52,0,0,1,.52-1.37,1.15,1.15,0,0,1,1-.51,1.21,1.21,0,0,1,.88.64,2.05,2.05,0,0,1,.26,1.32Q210,240,208.7,250.23,208.52,251.57,207.62,251.83Z"/><path class="cls-2" d="M83.2,38.7v4.2a1.18,1.18,0,0,0-.05.2c0,.37,0,.74-.09,1.11-.14.87-.32,1.73-.48,2.6s-.31,1.76-.51,2.64a26.42,26.42,0,0,1-1.13,3.84c-.47,1.18-1,2.35-1.49,3.51a18.4,18.4,0,0,1-1,1.93q-.85,1.41-1.77,2.78a30.7,30.7,0,0,1-3.19,4c-.71.75-1.47,1.47-2.24,2.16s-1.5,1.27-2.27,1.87A29.5,29.5,0,0,1,65.05,72c-.84.46-1.7.9-2.57,1.3s-1.66.74-2.52,1a24,24,0,0,1-3.51,1c-1,.2-2,.4-3,.55-.83.13-1.66.2-2.5.29-.63.07-1.26.13-1.89.16s-1.21,0-1.82,0c-.82,0-1.64-.07-2.47-.12-.35,0-.7,0-1-.09-.63-.08-1.26-.17-1.88-.28s-1.5-.26-2.24-.43a30.66,30.66,0,0,1-4.09-1.21c-.81-.31-1.62-.63-2.41-1s-1.46-.71-2.18-1.09-1.39-.76-2-1.2c-1-.65-1.9-1.33-2.82-2s-1.53-1.28-2.25-2a28.15,28.15,0,0,1-2.53-2.69c-.45-.55-.94-1.08-1.35-1.66-.79-1.1-1.55-2.22-2.3-3.34-.28-.41-.5-.86-.74-1.29l0-.05.16.06c.74.33,1.46.71,2.22,1a9.51,9.51,0,0,0,4,.59,11.49,11.49,0,0,0,2-.33,12.49,12.49,0,0,0,3.56-1.59,11.09,11.09,0,0,1,2.22-1.32c.72-.25,1.46-.46,2.2-.68s1.27-.36,1.9-.56a.63.63,0,0,0,.44-.69.73.73,0,0,0-.72-.56,4.47,4.47,0,0,0-.48.06l-.68.11c.3-.16.61-.26.92-.39.53-.23,1-.48,1.56-.73a.51.51,0,0,0,.33-.49.72.72,0,0,0-1-.65c-.52.18-1,.4-1.53.59l-.89.31a.25.25,0,0,1,.11-.13l2.52-1.59a.61.61,0,0,0,.26-.68.74.74,0,0,0-1.21-.39L32.8,51.22l-.51.31c.23-.26.47-.51.71-.75l1.35-1.35a.53.53,0,0,0,0-.71c-.26-.34-.49-.41-.81-.23a5.27,5.27,0,0,0-.75.5c-.74.6-1.46,1.21-2.19,1.82l-.79.65,0-.11.66-1c.17-.26.29-.54.08-.83s-.55-.55-.91-.28a2.91,2.91,0,0,0-1,1.38,4.83,4.83,0,0,1-.31.72,6.19,6.19,0,0,1-1.51,2,7.74,7.74,0,0,1-1.06.76,5.13,5.13,0,0,1-3.23.62,5.3,5.3,0,0,1-1.54-.44,6,6,0,0,1-2.13-1.63,7,7,0,0,1-1.14-1.93,7.13,7.13,0,0,1-.51-3.49c.07-.63.17-1.26.29-1.88a13.11,13.11,0,0,1,1.59-4.05,17.49,17.49,0,0,1,2.56-3.33c.37-.38.78-.72,1.18-1.07a13,13,0,0,1,2.92-1.89l.32-.16a1.51,1.51,0,0,0-.45,0l-1.62.16a14.65,14.65,0,0,0-2.56.56,14.06,14.06,0,0,0-2.76,1.19,10.78,10.78,0,0,0-2.24,1.63,15.93,15.93,0,0,0-1.42,1.58,12.73,12.73,0,0,0-1.84,3.27c-.1.26-.22.52-.33.8a1.19,1.19,0,0,1-.41-.8c0-1.55,0-3.09,0-4.64a2.57,2.57,0,0,1,0-.44c.14-.77.29-1.55.44-2.32.2-1,.39-2.06.63-3.08a27.74,27.74,0,0,1,1.14-3.88c.43-1.1.89-2.18,1.37-3.26.25-.57.55-1.12.85-1.67s.76-1.34,1.18-2a27.88,27.88,0,0,1,2.43-3.33c.66-.76,1.31-1.53,2-2.24s1.47-1.42,2.22-2.11A19,19,0,0,1,26.34,13c.79-.59,1.6-1.16,2.42-1.69s1.53-.94,2.32-1.37,1.4-.72,2.11-1c1-.42,1.93-.82,2.92-1.18A23.41,23.41,0,0,1,38.39,7q1.58-.4,3.18-.72c.69-.14,1.4-.21,2.11-.29s1.32-.15,2-.2,1,0,1.56,0a.73.73,0,0,0,.18-.05h1.51a.36.36,0,0,0,.11.05l2.4.13c.44,0,.89.06,1.32.13.73.11,1.45.23,2.17.36a28.65,28.65,0,0,1,3.87,1,26.13,26.13,0,0,1,3.65,1.46c1,.51,2,1,3,1.59s1.89,1.2,2.81,1.83c.61.42,1.19.89,1.77,1.36s.88.74,1.29,1.13c.68.64,1.34,1.3,2,2,.16.16.28.34.43.51a.26.26,0,0,1-.2,0,9,9,0,0,0-3.62-.8,17.63,17.63,0,0,0-1.95,0,5.77,5.77,0,0,0-1.25.19c-1,.3-2.08.64-3.11,1A25,25,0,0,0,60.23,19a4.49,4.49,0,0,1-.79.29L57,19.93c-.64.18-1.29.35-1.91.58s-.77.55-.54,1.08a.75.75,0,0,0,.75.53l1.23-.18.65-.11a.31.31,0,0,1-.14.14c-.89.48-1.79.94-2.68,1.43a13.21,13.21,0,0,0-2,1.17.76.76,0,0,0-.23,1,.69.69,0,0,0,1,.32l2.47-1.07.65-.26c-1,.74-1.94,1.43-2.91,2.13a.94.94,0,0,0-.52.89,1,1,0,0,0,.5.75.67.67,0,0,0,.75-.1l2.58-1.85.58-.38a2,2,0,0,1-.26.35c-.6.65-1.21,1.3-1.82,1.94A.89.89,0,0,0,55,29.58a.63.63,0,0,0,.84.14c.19-.16.4-.29.58-.46.47-.45.92-.92,1.38-1.38l.55-.56c-.15.3-.33.56-.5.83a1.28,1.28,0,0,0-.29.86.82.82,0,0,0,.41.65.59.59,0,0,0,.73-.06,7.7,7.7,0,0,0,.9-1c.43-.57.76-1.22,1.22-1.76a8.61,8.61,0,0,1,2.51-2,7.47,7.47,0,0,1,3.26-.91,8.24,8.24,0,0,1,1.75.13,7.42,7.42,0,0,1,2.41.9,9.13,9.13,0,0,1,2.62,2.31,10.58,10.58,0,0,1,1.36,2.34,11.16,11.16,0,0,1,.92,3.88,21,21,0,0,1-.07,2.43,9.35,9.35,0,0,1-.48,2.23,11.06,11.06,0,0,1-.92,2.09,10.13,10.13,0,0,1-1.34,1.86A8.4,8.4,0,0,1,71,43.67a7.57,7.57,0,0,1-2.56,1l-.56.11v.06l1.49-.1a10.82,10.82,0,0,0,2.29-.38,15.18,15.18,0,0,0,1.74-.59,8.43,8.43,0,0,0,1.07-.6,14.56,14.56,0,0,0,2.63-2c.57-.54,1.1-1.14,1.62-1.73a13.28,13.28,0,0,0,1.62-2.44,20.19,20.19,0,0,0,1.4-3.37,8.35,8.35,0,0,1,.36-.82h.06c.14.76.27,1.52.41,2.28l.57,3.07ZM24.48,36.47l0,0h.11a19,19,0,0,1,1.88-.3,12.21,12.21,0,0,1,2.74.14,20.55,20.55,0,0,1,2.71.64,41,41,0,0,1,5.75,2.41c1.14.55,2.26,1.13,3.4,1.67,1.34.64,2.68,1.26,4,1.87.57.26,1.14.53,1.74.74s1.35.43,2,.62c.93.27,1.86.53,2.8.77s1.85.45,2.79.65,1.67.32,2.5.45c.56.09,1.13.15,1.69.21s1.3.14,1.95.16c.94,0,1.88,0,2.83,0a15.05,15.05,0,0,0,1.76-.17c.86-.14,1.72-.31,2.58-.49.44-.09.87-.22,1.31-.33v-.06c-.18,0-.37,0-.55,0-.54,0-1.08,0-1.62,0s-1.19-.07-1.78-.17a23.67,23.67,0,0,1-2.5-.48c-1.11-.3-2.22-.65-3.3-1-1.35-.48-2.69-1-4-1.52l-3.72-1.45-3.22-1.24c-.89-.34-1.78-.68-2.69-1q-2-.67-4.11-1.28-1.57-.47-3.17-.86c-1-.26-2.1-.5-3.16-.73-.6-.13-1.21-.23-1.81-.34s-1-.2-1.58-.28-1.12-.14-1.67-.21c-.33,0-.65-.09-1-.11a3,3,0,0,0-.7,0A9.79,9.79,0,0,0,25.29,36C25,36.12,24.75,36.3,24.48,36.47Z"/><path class="cls-2" d="M21.31,90.68a3.23,3.23,0,0,1,1.12-.08,9.48,9.48,0,0,1,1.1.17,5.41,5.41,0,0,1,2.81,1.59,5.6,5.6,0,0,1,1.58,2.89,6.54,6.54,0,0,1-1.84,6.07,9.71,9.71,0,0,1-2.69,1.84,9.6,9.6,0,0,1-2.69.84,21.84,21.84,0,0,1-2.8.24q-1.27,0-2.53-.1t-2.5-.31q-.15,2.26-.43,4.48t-.67,4.46q-.39,2.07-1,4.13a31.27,31.27,0,0,1-1.4,4,17.31,17.31,0,0,1-.91,1.8,10.28,10.28,0,0,1-1.15,1.61,8.37,8.37,0,0,1-1.5,1.47,4.55,4.55,0,0,1-1.93.87.85.85,0,0,1-.56-.08,1.2,1.2,0,0,1-.43-.36,1,1,0,0,1-.19-.53.94.94,0,0,1,.58-.92l.51-.22a3.59,3.59,0,0,0,.52-.22,3.44,3.44,0,0,0,.51-.32,7.33,7.33,0,0,0,1.85-2.19,18.23,18.23,0,0,0,1.19-2.58A32.16,32.16,0,0,0,9.69,113q.59-3.22.92-6.48.17-1.44.28-3a15.06,15.06,0,0,0-3-.1A10.64,10.64,0,0,0,5,104a6.06,6.06,0,0,0-1.41.68,3.43,3.43,0,0,0-1.09,1.14A2.93,2.93,0,0,0,2,107.3a3.51,3.51,0,0,0,.28,1.54,4.47,4.47,0,0,0,.83,1.2,2,2,0,0,0,1.3.63,1,1,0,0,0,.38,0l.36-.07.34-.13a1,1,0,0,1,.35-.07,1.15,1.15,0,0,1,.58.18.85.85,0,0,1,.37.5,1,1,0,0,1,0,.65,1.14,1.14,0,0,1-.36.46,1.65,1.65,0,0,1-.56.3,5.92,5.92,0,0,1-.61.15,3.6,3.6,0,0,1-1.64-.06,4.91,4.91,0,0,1-1.49-.68,5.37,5.37,0,0,1-1.87-2.66A5.46,5.46,0,0,1,.2,106a5.26,5.26,0,0,1,1.74-2.58A7.26,7.26,0,0,1,4.73,102,11.69,11.69,0,0,1,8,101.63q1.64,0,3.25.22l.35,0,.26-.05a.89.89,0,0,1,.58.16q1.12.13,2.22.21a19.55,19.55,0,0,0,2.22,0,11.38,11.38,0,0,0,1.73-.19,5.55,5.55,0,0,0,1.62-.59,6.51,6.51,0,0,0,1.63-1.34,7.1,7.1,0,0,0,.87-1.21,4.27,4.27,0,0,0,.51-1.45A2.73,2.73,0,0,0,23,96a4.43,4.43,0,0,0-.82-1.23,3.88,3.88,0,0,0-.76-.64,8.71,8.71,0,0,1-.82-.6,1.73,1.73,0,0,1-.52-1.12,1.5,1.5,0,0,1,.36-1.15A1.79,1.79,0,0,1,21.31,90.68Z"/><path class="cls-2" d="M19.82,121a9.37,9.37,0,0,1-1.9-.3,8.05,8.05,0,0,1-2.17-.91,6.78,6.78,0,0,1-.8-.58,4.82,4.82,0,0,1-.65-.68,4.83,4.83,0,0,1-.62-1.28,3.2,3.2,0,0,1-.1-1.46,5,5,0,0,1,.72-1.89,6.55,6.55,0,0,1,1.53-1.69,8.27,8.27,0,0,1,2.64-1.41,9.3,9.3,0,0,1,3.18-.46,1.46,1.46,0,0,1,.94.3.91.91,0,0,1,.4.68.81.81,0,0,1-.45.63,1.64,1.64,0,0,1-1,.2,4.75,4.75,0,0,0-2.16.33,5.44,5.44,0,0,0-1.41.84,5.17,5.17,0,0,0-1.15,1.34,3.71,3.71,0,0,0-.54,1.53,1.93,1.93,0,0,0,0,.55,2.42,2.42,0,0,0,.19.85,2.57,2.57,0,0,0,.59.86,2.5,2.5,0,0,0,1.23.61,3.82,3.82,0,0,0,2.84-.39l.49-.34a7.06,7.06,0,0,1-1.91-1.21,2.71,2.71,0,0,1-1.1-2.73,2.38,2.38,0,0,1,1.22-1.46,4,4,0,0,1,1-.39,4.62,4.62,0,0,1,1.18-.14,3.82,3.82,0,0,1,2.07.51,2.81,2.81,0,0,1,1.3,1.43,4.63,4.63,0,0,1,0,2.7,1.9,1.9,0,0,0,.67-.46,2.52,2.52,0,0,0,.52-.89,1,1,0,0,1,.63-.56,1.73,1.73,0,0,1,1-.05,1.37,1.37,0,0,1,.82.53.85.85,0,0,1,.15.79,3.39,3.39,0,0,1-1.07,1.7,4.36,4.36,0,0,1-1.38.78,6.2,6.2,0,0,1-2.41.25l-.57.56a4.18,4.18,0,0,1-.63.49,4.45,4.45,0,0,1-2.24.78A6.14,6.14,0,0,1,19.82,121Zm2.3-6.76a1.32,1.32,0,0,0-.49.14.55.55,0,0,0-.3.47,1,1,0,0,0,.21,1.06,3.08,3.08,0,0,0,1.13.83l0-.06a3.16,3.16,0,0,0,.22-1.09,2.36,2.36,0,0,0-.14-.91.56.56,0,0,0-.53-.44Z"/><path class="cls-2" d="M33.27,121a8.83,8.83,0,0,1-2.12-.24,5.86,5.86,0,0,1-3-1.73,4.65,4.65,0,0,1-1.19-3,4.24,4.24,0,0,1,0-1.15,8.06,8.06,0,0,1,1.5-3.37,7.54,7.54,0,0,1,2.05-2.05,6.44,6.44,0,0,1,2.48-1,3.8,3.8,0,0,1,1.9.12,2.68,2.68,0,0,1,1.44,1,2.48,2.48,0,0,1,.53,2.06,4.26,4.26,0,0,1-1.17,2.31,1.41,1.41,0,0,1-.9.39,1.48,1.48,0,0,1-1-.24,1.08,1.08,0,0,1-.57-.73.82.82,0,0,1,.25-.78,2.43,2.43,0,0,0,.65-1.13.86.86,0,0,0-.12-.7.47.47,0,0,0-.51-.19,2.94,2.94,0,0,0-1.36.62,5.78,5.78,0,0,0-1.26,1.37,6.42,6.42,0,0,0-1.23,3.7,2.87,2.87,0,0,0,.09.73,2.77,2.77,0,0,0,.29.72,2,2,0,0,0,.56.61,2.38,2.38,0,0,0,.89.4,4.78,4.78,0,0,0,4.72-1.56,7.12,7.12,0,0,0,1.28-1.78c.27-.57.42-.86.44-.89a1,1,0,0,1,.67-.62,1.59,1.59,0,0,1,1,0,1.38,1.38,0,0,1,.8.6,1.09,1.09,0,0,1,.13.89,2.57,2.57,0,0,0-.17.36q-.14.31-.4.79c-.17.32-.38.67-.63,1.06a6.25,6.25,0,0,1-.93,1.12,7.31,7.31,0,0,1-1.32,1.18,6.36,6.36,0,0,1-1.5.77A7.77,7.77,0,0,1,33.27,121Z"/><path class="cls-2" d="M42.46,120.67a4.53,4.53,0,0,1-1.89-.36,4.09,4.09,0,0,1-2.26-2.21,5,5,0,0,1-.34-2.73,10.65,10.65,0,0,1,.78-2.75,14.6,14.6,0,0,1,1.53-2.77,12.37,12.37,0,0,1,2.06-2.3,6.5,6.5,0,0,1,2.75-1.39,6.08,6.08,0,0,1,4.17.66,3.94,3.94,0,0,1,.89.68q.24.28.54.58a1.13,1.13,0,0,1,.25,1,1.41,1.41,0,0,1-.54.79,1.45,1.45,0,0,1-1,.26,1.37,1.37,0,0,1-1-.61l-.11-.07h0a4.7,4.7,0,0,0-.62-.54,2.87,2.87,0,0,0-3.53.47,8.78,8.78,0,0,0-1.49,1.71,14,14,0,0,0-1.24,2.25,8.41,8.41,0,0,0-.69,2.43,3.42,3.42,0,0,0,0,.58,3.63,3.63,0,0,0,.09.71,2.28,2.28,0,0,0,.26.68,1,1,0,0,0,.53.45.58.58,0,0,0,.31.08,1.15,1.15,0,0,0,.46-.09,4,4,0,0,0,1.25-.88,10.39,10.39,0,0,0,1.82-2.78c.16-.39.33-.75.49-1.1a8.18,8.18,0,0,0,.38-1l.21-.67a4.1,4.1,0,0,1,.26-.64,1.29,1.29,0,0,1,.95-.8l.18,0a.54.54,0,0,0,.23,0,.33.33,0,0,1,.24,0h0s0,0,.1,0a1.44,1.44,0,0,1,.73.62,1.29,1.29,0,0,1,.15,1l-.51,1.39a9.86,9.86,0,0,0-.33,2.49,3.74,3.74,0,0,0,.36,1.8.59.59,0,0,0,.13.21l.11.08.21,0a.62.62,0,0,0,.32-.1,3.48,3.48,0,0,0,1-1,9.84,9.84,0,0,0,1-1.82c.26-.7.46-1.25.6-1.67l.22-.76a1.27,1.27,0,0,1,.63-.81,1.33,1.33,0,0,1,1-.15,1.36,1.36,0,0,1,.84.62,1.41,1.41,0,0,1,.18,1.07,8,8,0,0,1-.25.88q-.26.83-.69,2c-.91,2.15-1.95,3.47-3.12,4a2.86,2.86,0,0,1-1.16.35,3.1,3.1,0,0,1-1.41-.21,3.58,3.58,0,0,1-2.08-1.75.73.73,0,0,1-.15-.29l-.11.14a6.17,6.17,0,0,1-2.55,2A3.57,3.57,0,0,1,42.46,120.67Zm5.84-11.21c0,.06,0,.08.06.08S48.31,109.51,48.3,109.45Z"/><path class="cls-2" d="M51.76,124.42a1.51,1.51,0,0,1-1-.35,1.45,1.45,0,0,1-.58-.89,1,1,0,0,1,.15-1,1.25,1.25,0,0,1,.84-.47q2.94-.32,5.87-.71l1-2.87a4,4,0,0,1-2.87-.15,4.15,4.15,0,0,1-2.28-2.36,6.34,6.34,0,0,1-.35-3,11.89,11.89,0,0,1,.75-3,16.38,16.38,0,0,1,1.5-3A11.93,11.93,0,0,1,57.08,104a5.88,5.88,0,0,1,2.46-1.34,5.35,5.35,0,0,1,2.42,0,5.22,5.22,0,0,1,1.55.66,3.56,3.56,0,0,1,.89.91l.35.55A1.47,1.47,0,0,1,65,106a1.41,1.41,0,0,1-.67.83,1.52,1.52,0,0,1-1.07.15,1.37,1.37,0,0,1-.93-.78.75.75,0,0,0-.16-.21,1.94,1.94,0,0,0-.41-.32,2.25,2.25,0,0,0-.72-.25,2.67,2.67,0,0,0-1.09.07,2.79,2.79,0,0,0-1.39.84,10.89,10.89,0,0,0-1.48,1.84,13.32,13.32,0,0,0-1.19,2.44A10,10,0,0,0,55.3,113a4.57,4.57,0,0,0,0,1.47,1.24,1.24,0,0,0,.74,1,1,1,0,0,0,1-.05,3.63,3.63,0,0,0,1.39-1.21,12.79,12.79,0,0,0,1.4-2.47c.39-.92.71-1.74,1-2.45l.23-.79a1.63,1.63,0,0,1,.71-.88,1.21,1.21,0,0,1,1-.11,1.16,1.16,0,0,1,.8.68,1.72,1.72,0,0,1,.13,1.14q-.09,0-.3.92-1,3.45-2.09,6.77.54-.57,1.06-1.15a7.42,7.42,0,0,0,.94-1.33,12.06,12.06,0,0,0,.78-1.73,15.71,15.71,0,0,0,.63-2.37,1.48,1.48,0,0,1,.58-.92,1.22,1.22,0,0,1,1-.2,1.33,1.33,0,0,1,.84.68,1.59,1.59,0,0,1,.17,1.14,19.41,19.41,0,0,1-.79,3,13.82,13.82,0,0,1-1.15,2.44,14.55,14.55,0,0,1-1.27,1.72,15.53,15.53,0,0,1-1.36,1.38l-.7.68,2.27-.36a1.37,1.37,0,0,1,1,.29,1.72,1.72,0,0,1,.63,1,1.4,1.4,0,0,1-.16,1.1,1.25,1.25,0,0,1-.88.6q-2.72.35-5.44.64a17.63,17.63,0,0,0-1.19,2.44l-.82,2.47-.26.82a1,1,0,0,1-1,.76,2,2,0,0,1-1.49-1,1.46,1.46,0,0,1-.06-1.07l.21-.56a.66.66,0,0,1,0-.28l.45-1.37q.22-.67.46-1.29l.18-.48q-2.11.21-4.23.38Z"/><path class="cls-2" d="M69.33,118a2.36,2.36,0,0,1-.48,0,2.15,2.15,0,0,1-.5-.09,3.65,3.65,0,0,1-2.65-2.05c-1-1.84-1.05-4.75-.1-9q.46-2.22,1-3.84c.33-1.08.52-1.66.57-1.75a1.43,1.43,0,0,1,.69-.91,1.24,1.24,0,0,1,1.07-.08,1.26,1.26,0,0,1,.77.78,1.8,1.8,0,0,1,0,1.23,13.6,13.6,0,0,0-.51,1.58c-.31,1-.61,2.27-.9,3.67-.24,1.18-.39,2.17-.47,3a16.89,16.89,0,0,0-.1,2,5.17,5.17,0,0,0,.13,1.21,2.28,2.28,0,0,0,.24.61.76.76,0,0,0,.63.47,1,1,0,0,0,.77-.35,5.46,5.46,0,0,0,1-1.25,24.5,24.5,0,0,0,2.18-5.41l.82-3q0-.29.1-.52c0-.16.09-.34.15-.54q.23-1.17.49-2.33t.45-2.33a2,2,0,0,1,.6-1.09,1.13,1.13,0,0,1,1-.33,1.27,1.27,0,0,1,.86.65,1.69,1.69,0,0,1,.19,1.22c0,.08-.13.71-.34,1.87s-.51,2.57-.9,4.22l-.49,2.49c-.15.79-.27,1.5-.36,2.16a9.83,9.83,0,0,0-.14,2.18,1.88,1.88,0,0,0,.19.77c0,.11.1.17.26.17s.4-.12.71-.48a8,8,0,0,0,1.07-2,15.37,15.37,0,0,0,.87-2.49c.19-.77.28-1.18.28-1.22a1.8,1.8,0,0,1,.66-1,1,1,0,0,1,1-.16,1.19,1.19,0,0,1,.84.77,2.28,2.28,0,0,1,.13,1.32s-.15.52-.37,1.41a22.57,22.57,0,0,1-1,2.94,18.31,18.31,0,0,1-.83,1.71,9.68,9.68,0,0,1-.84,1.29,3.25,3.25,0,0,1-1.7,1.25,2.51,2.51,0,0,1-1.34,0A3.31,3.31,0,0,1,72.88,115l0-.11-.23.32a7.74,7.74,0,0,1-.83,1.27,5.42,5.42,0,0,1-.89.88A3.53,3.53,0,0,1,69.33,118Z"/><path class="cls-2" d="M83.56,115.9a2,2,0,0,1-1.07,0,3.78,3.78,0,0,1-2.25-1,5.25,5.25,0,0,1-1.14-1.57c-.74-1.58-.86-3.69-.39-6.43a28.14,28.14,0,0,1,.87-3.88c.38-1.27.75-2.38,1.11-3.31a1.64,1.64,0,0,1,.74-1,1,1,0,0,1,1,0,1.43,1.43,0,0,1,.72.89,2.09,2.09,0,0,1,0,1.39c-.44,1.22-.81,2.36-1.1,3.45s-.52,2.1-.68,3a10.45,10.45,0,0,0-.17,2.87,6.48,6.48,0,0,0,.29,1.29,1.56,1.56,0,0,0,.37.48,1.73,1.73,0,0,0,.81.32,1,1,0,0,0,.37,0,2.28,2.28,0,0,0,1.37-1.25,15.2,15.2,0,0,0,.94-2c.18-.49.34-1,.5-1.5s.29-1,.38-1.36l.32-1.31a1.91,1.91,0,0,1,.61-1.13,1,1,0,0,1,1-.27,1.33,1.33,0,0,1,.84.78,2.18,2.18,0,0,1,.17,1.35,3.19,3.19,0,0,1-.09.52c-.07.31-.15.7-.25,1.16s-.25,1-.43,1.58-.38,1.18-.61,1.77a10.92,10.92,0,0,1-2.16,3.81A4.37,4.37,0,0,1,83.56,115.9ZM85.2,94.83a1,1,0,0,1-.87-.11,1.5,1.5,0,0,1-.71-.91,2.18,2.18,0,0,1,.08-1.38l.52-1.28a2.05,2.05,0,0,1,.79-1,.87.87,0,0,1,1,0,1.33,1.33,0,0,1,.73.93,2.27,2.27,0,0,1-.1,1.39l-.47,1.34A1.75,1.75,0,0,1,85.2,94.83Z"/><path class="cls-2" d="M90.94,116.16a1,1,0,0,1-.25,0l-.26,0a1.7,1.7,0,0,1-.88-.85,2,2,0,0,1-.22-1.36l.16-1.16a1.79,1.79,0,0,1,.55-1.2,1.07,1.07,0,0,1,1-.31,1.61,1.61,0,0,1,.88.8,2.38,2.38,0,0,1,.26,1.4L92,114.65Q91.84,116,90.94,116.16Zm1.31-9.87a.92.92,0,0,1-.25,0l-.26,0a1.54,1.54,0,0,1-.88-.76,2.08,2.08,0,0,1-.22-1.39q1.27-10,2.54-20.4a2.52,2.52,0,0,1,.52-1.37,1.15,1.15,0,0,1,1-.51,1.22,1.22,0,0,1,.88.64,2.06,2.06,0,0,1,.26,1.32q-1.27,10.61-2.53,20.84Q93.16,106,92.26,106.29Z"/><path class="cls-3" d="M198.65,33v4.2a1.18,1.18,0,0,0-.05.2c0,.37,0,.74-.09,1.11-.14.87-.32,1.73-.48,2.6s-.31,1.76-.51,2.64a26.42,26.42,0,0,1-1.13,3.84c-.47,1.18-1,2.35-1.49,3.51a18.4,18.4,0,0,1-1,1.93q-.85,1.41-1.77,2.78a30.7,30.7,0,0,1-3.19,4c-.71.75-1.47,1.47-2.24,2.16s-1.5,1.27-2.27,1.87a29.5,29.5,0,0,1-3.88,2.54c-.84.46-1.7.9-2.57,1.3s-1.66.74-2.52,1a24,24,0,0,1-3.51,1c-1,.2-2,.4-3,.55-.83.13-1.66.2-2.5.29-.63.07-1.26.13-1.89.16s-1.21,0-1.82,0c-.82,0-1.64-.07-2.47-.12-.35,0-.7,0-1-.09-.63-.08-1.26-.17-1.88-.28s-1.5-.26-2.24-.43A30.66,30.66,0,0,1,151,68.57c-.81-.31-1.62-.63-2.41-1s-1.46-.71-2.18-1.09-1.39-.76-2-1.2c-1-.65-1.9-1.33-2.82-2s-1.53-1.28-2.25-2a28.15,28.15,0,0,1-2.53-2.69c-.45-.55-.94-1.08-1.35-1.66-.79-1.1-1.55-2.22-2.3-3.34-.28-.41-.5-.86-.74-1.29l0-.05.16.06c.74.33,1.46.71,2.22,1a9.51,9.51,0,0,0,4,.59,11.49,11.49,0,0,0,2-.33A12.49,12.49,0,0,0,144.36,52a11.09,11.09,0,0,1,2.22-1.32c.72-.25,1.46-.46,2.2-.68s1.27-.36,1.9-.56a.63.63,0,0,0,.44-.69.73.73,0,0,0-.72-.56,4.47,4.47,0,0,0-.48.06l-.68.11c.3-.16.61-.26.92-.39.53-.23,1-.48,1.56-.73a.51.51,0,0,0,.33-.49.72.72,0,0,0-1-.65c-.52.18-1,.4-1.53.59l-.89.31a.25.25,0,0,1,.11-.13l2.52-1.59a.61.61,0,0,0,.26-.68.74.74,0,0,0-1.21-.39l-2.08,1.34-.51.31c.23-.26.47-.51.71-.75l1.35-1.35a.53.53,0,0,0,0-.71c-.26-.34-.49-.41-.81-.23a5.27,5.27,0,0,0-.75.5c-.74.6-1.46,1.21-2.19,1.82l-.79.65,0-.11.66-1c.17-.26.29-.54.08-.83s-.55-.55-.91-.28a2.91,2.91,0,0,0-1,1.38,4.83,4.83,0,0,1-.31.72,6.19,6.19,0,0,1-1.51,2,7.74,7.74,0,0,1-1.06.76,5.13,5.13,0,0,1-3.23.62,5.3,5.3,0,0,1-1.54-.44,6,6,0,0,1-2.13-1.63,7,7,0,0,1-1.14-1.93,7.13,7.13,0,0,1-.51-3.49c.07-.63.17-1.26.29-1.88a13.11,13.11,0,0,1,1.59-4.05,17.49,17.49,0,0,1,2.56-3.33c.37-.38.78-.72,1.18-1.07a13,13,0,0,1,2.92-1.89l.32-.16a1.51,1.51,0,0,0-.45,0l-1.62.16a14.65,14.65,0,0,0-2.56.56A14.06,14.06,0,0,0,134.21,31,10.78,10.78,0,0,0,132,32.61a15.93,15.93,0,0,0-1.42,1.58,12.73,12.73,0,0,0-1.84,3.27c-.1.26-.22.52-.33.8a1.19,1.19,0,0,1-.41-.8c0-1.55,0-3.09,0-4.64a2.57,2.57,0,0,1,0-.44c.14-.77.29-1.55.44-2.32.2-1,.39-2.06.63-3.08a27.74,27.74,0,0,1,1.14-3.88c.43-1.1.89-2.18,1.37-3.26.25-.57.55-1.12.85-1.67s.76-1.34,1.18-2a27.88,27.88,0,0,1,2.43-3.33c.66-.76,1.31-1.53,2-2.24s1.47-1.42,2.22-2.11a19,19,0,0,1,1.48-1.22c.79-.59,1.6-1.16,2.42-1.69s1.53-.94,2.32-1.37,1.4-.72,2.11-1c1-.42,1.93-.82,2.92-1.18a23.41,23.41,0,0,1,2.28-.71Q155.42.9,157,.59c.69-.14,1.4-.21,2.11-.29s1.32-.15,2-.2,1,0,1.56,0a.73.73,0,0,0,.18-.05h1.51a.36.36,0,0,0,.11.05l2.4.13c.44,0,.89.06,1.32.13.73.11,1.45.23,2.17.36a28.65,28.65,0,0,1,3.87,1,26.13,26.13,0,0,1,3.65,1.46c1,.51,2,1,3,1.59s1.89,1.2,2.81,1.83c.61.42,1.19.89,1.77,1.36s.88.74,1.29,1.13c.68.64,1.34,1.3,2,2,.16.16.28.34.43.51a.26.26,0,0,1-.2,0,9,9,0,0,0-3.62-.8,17.63,17.63,0,0,0-1.95,0,5.77,5.77,0,0,0-1.25.19c-1,.3-2.08.64-3.11,1a25,25,0,0,0-3.37,1.39,4.49,4.49,0,0,1-.79.29l-2.44.65c-.64.18-1.29.35-1.91.58s-.77.55-.54,1.08a.75.75,0,0,0,.75.53l1.23-.18.65-.11a.31.31,0,0,1-.14.14c-.89.48-1.79.94-2.68,1.43a13.21,13.21,0,0,0-2,1.17.76.76,0,0,0-.23,1,.69.69,0,0,0,1,.32L171,19.13l.65-.26c-1,.74-1.94,1.43-2.91,2.13a.94.94,0,0,0-.52.89,1,1,0,0,0,.5.75.67.67,0,0,0,.75-.1l2.58-1.85.58-.38a2,2,0,0,1-.26.35c-.6.65-1.21,1.3-1.82,1.94a.89.89,0,0,0-.09,1.27.63.63,0,0,0,.84.14c.19-.16.4-.29.58-.46.47-.45.92-.92,1.38-1.38l.55-.56c-.15.3-.33.56-.5.83a1.28,1.28,0,0,0-.29.86.82.82,0,0,0,.41.65.59.59,0,0,0,.73-.06,7.7,7.7,0,0,0,.9-1c.43-.57.76-1.22,1.22-1.76a8.61,8.61,0,0,1,2.51-2,7.47,7.47,0,0,1,3.26-.91,8.24,8.24,0,0,1,1.75.13,7.42,7.42,0,0,1,2.41.9,9.13,9.13,0,0,1,2.62,2.31,10.58,10.58,0,0,1,1.36,2.34,11.16,11.16,0,0,1,.92,3.88,21,21,0,0,1-.07,2.43,9.35,9.35,0,0,1-.48,2.23,11.06,11.06,0,0,1-.92,2.09,10.13,10.13,0,0,1-1.34,1.86A8.4,8.4,0,0,1,186.42,38a7.57,7.57,0,0,1-2.56,1l-.56.11v.06l1.49-.1a10.82,10.82,0,0,0,2.29-.38,15.18,15.18,0,0,0,1.74-.59,8.43,8.43,0,0,0,1.07-.6,14.56,14.56,0,0,0,2.63-2c.57-.54,1.1-1.14,1.62-1.73a13.28,13.28,0,0,0,1.62-2.44,20.19,20.19,0,0,0,1.4-3.37,8.35,8.35,0,0,1,.36-.82h.06c.14.76.27,1.52.41,2.28l.57,3.07Zm-58.72-2.23,0,0h.11a19,19,0,0,1,1.88-.3,12.21,12.21,0,0,1,2.74.14,20.55,20.55,0,0,1,2.71.64,41,41,0,0,1,5.75,2.41c1.14.55,2.26,1.13,3.4,1.67,1.34.64,2.68,1.26,4,1.87.57.26,1.14.53,1.74.74s1.35.43,2,.62c.93.27,1.86.53,2.8.77s1.85.45,2.79.65,1.67.32,2.5.45c.56.09,1.13.15,1.69.21s1.3.14,1.95.16c.94,0,1.88,0,2.83,0a15.05,15.05,0,0,0,1.76-.17c.86-.14,1.72-.31,2.58-.49.44-.09.87-.22,1.31-.33v-.06c-.18,0-.37,0-.55,0-.54,0-1.08,0-1.62,0s-1.19-.07-1.78-.17a23.67,23.67,0,0,1-2.5-.48c-1.11-.3-2.22-.65-3.3-1-1.35-.48-2.69-1-4-1.52L167,35.1l-3.22-1.24c-.89-.34-1.78-.68-2.69-1q-2-.67-4.11-1.28-1.57-.47-3.17-.86c-1-.26-2.1-.5-3.16-.73-.6-.13-1.21-.23-1.81-.34s-1-.2-1.58-.28-1.12-.14-1.67-.21c-.33,0-.65-.09-1-.11a3,3,0,0,0-.7,0,9.79,9.79,0,0,0-3.2,1.19C140.46,30.4,140.2,30.58,139.93,30.75Z"/><path class="cls-3" d="M136.76,85a3.23,3.23,0,0,1,1.12-.08,9.48,9.48,0,0,1,1.1.17,5.41,5.41,0,0,1,2.81,1.59,5.6,5.6,0,0,1,1.58,2.89,6.54,6.54,0,0,1-1.84,6.07,9.71,9.71,0,0,1-2.69,1.84,9.6,9.6,0,0,1-2.69.84,21.84,21.84,0,0,1-2.8.24q-1.27,0-2.53-.1t-2.5-.31q-.15,2.26-.43,4.48t-.67,4.46q-.39,2.07-1,4.13a31.27,31.27,0,0,1-1.4,4A17.31,17.31,0,0,1,124,117a10.28,10.28,0,0,1-1.15,1.61,8.37,8.37,0,0,1-1.5,1.47,4.55,4.55,0,0,1-1.93.87.85.85,0,0,1-.56-.08,1.2,1.2,0,0,1-.43-.36,1,1,0,0,1-.19-.53.94.94,0,0,1,.58-.92l.51-.22a3.59,3.59,0,0,0,.52-.22,3.44,3.44,0,0,0,.51-.32,7.33,7.33,0,0,0,1.85-2.19,18.23,18.23,0,0,0,1.19-2.58,32.16,32.16,0,0,0,1.79-6.23q.59-3.22.92-6.48.17-1.44.28-3a15.06,15.06,0,0,0-3-.1,10.64,10.64,0,0,0-2.92.61A6.06,6.06,0,0,0,119,99a3.43,3.43,0,0,0-1.09,1.14,2.93,2.93,0,0,0-.46,1.48,3.51,3.51,0,0,0,.28,1.54,4.47,4.47,0,0,0,.83,1.2,2,2,0,0,0,1.3.63,1,1,0,0,0,.38,0l.36-.07.34-.13a1,1,0,0,1,.35-.07,1.15,1.15,0,0,1,.58.18.85.85,0,0,1,.37.5,1,1,0,0,1,0,.65,1.14,1.14,0,0,1-.36.46,1.65,1.65,0,0,1-.56.3,5.92,5.92,0,0,1-.61.15,3.6,3.6,0,0,1-1.64-.06,4.91,4.91,0,0,1-1.49-.68,5.37,5.37,0,0,1-1.87-2.66,5.46,5.46,0,0,1-.09-3.24,5.26,5.26,0,0,1,1.74-2.58,7.26,7.26,0,0,1,2.79-1.41,11.69,11.69,0,0,1,3.24-.36q1.64,0,3.25.22l.35,0,.26-.05a.89.89,0,0,1,.58.16q1.12.13,2.22.21a19.55,19.55,0,0,0,2.22,0,11.38,11.38,0,0,0,1.73-.19,5.55,5.55,0,0,0,1.62-.59,6.51,6.51,0,0,0,1.63-1.34,7.1,7.1,0,0,0,.87-1.21,4.27,4.27,0,0,0,.51-1.45,2.73,2.73,0,0,0-.21-1.45,4.43,4.43,0,0,0-.82-1.23,3.88,3.88,0,0,0-.76-.64,8.71,8.71,0,0,1-.82-.6,1.73,1.73,0,0,1-.52-1.12,1.5,1.5,0,0,1,.36-1.15A1.79,1.79,0,0,1,136.76,85Z"/><path class="cls-3" d="M135.28,115.23a9.6,9.6,0,0,1-1.9-.3,8.09,8.09,0,0,1-2.17-.91,6.93,6.93,0,0,1-.8-.58,4.79,4.79,0,0,1-.65-.68,4.84,4.84,0,0,1-.62-1.28A3.2,3.2,0,0,1,129,110a5,5,0,0,1,.72-1.89,6.54,6.54,0,0,1,1.53-1.69,8.26,8.26,0,0,1,2.64-1.41,9.4,9.4,0,0,1,3.18-.46,1.46,1.46,0,0,1,.94.3.91.91,0,0,1,.4.68.81.81,0,0,1-.45.63,1.64,1.64,0,0,1-1,.2,4.7,4.7,0,0,0-2.16.33,5.31,5.31,0,0,0-1.41.84,5.21,5.21,0,0,0-1.15,1.34,3.72,3.72,0,0,0-.54,1.53,1.92,1.92,0,0,0,0,.55,2.42,2.42,0,0,0,.19.85,2.4,2.4,0,0,0,1.82,1.47,3.83,3.83,0,0,0,2.84-.39l.49-.34a7.05,7.05,0,0,1-1.91-1.21,2.71,2.71,0,0,1-1.1-2.73,2.38,2.38,0,0,1,1.22-1.46,4,4,0,0,1,1-.39,4.5,4.5,0,0,1,1.18-.14,3.83,3.83,0,0,1,2.07.51,2.83,2.83,0,0,1,1.3,1.43,4.63,4.63,0,0,1,0,2.7,1.87,1.87,0,0,0,.67-.46,2.5,2.5,0,0,0,.52-.89,1,1,0,0,1,.63-.56,1.74,1.74,0,0,1,1-.05,1.36,1.36,0,0,1,.82.53.85.85,0,0,1,.15.79,3.39,3.39,0,0,1-1.07,1.7,4.37,4.37,0,0,1-1.38.78,6.15,6.15,0,0,1-2.41.25l-.57.56a4.07,4.07,0,0,1-.63.49,4.45,4.45,0,0,1-2.24.78A6.18,6.18,0,0,1,135.28,115.23Zm2.3-6.76a1.27,1.27,0,0,0-.49.14.55.55,0,0,0-.3.47,1,1,0,0,0,.21,1.06,3.09,3.09,0,0,0,1.13.83l0-.06a3.17,3.17,0,0,0,.22-1.09,2.36,2.36,0,0,0-.14-.91.56.56,0,0,0-.53-.44Z"/><path class="cls-3" d="M148.72,115.24a9,9,0,0,1-2.12-.24,5.89,5.89,0,0,1-3-1.73,4.65,4.65,0,0,1-1.19-3,4.24,4.24,0,0,1,0-1.15,8.05,8.05,0,0,1,1.5-3.37,7.54,7.54,0,0,1,2.05-2.05,6.42,6.42,0,0,1,2.48-1,3.74,3.74,0,0,1,1.9.12,2.68,2.68,0,0,1,1.44,1,2.48,2.48,0,0,1,.53,2.06,4.25,4.25,0,0,1-1.17,2.31,1.41,1.41,0,0,1-.9.39,1.49,1.49,0,0,1-1-.24,1.08,1.08,0,0,1-.57-.73.82.82,0,0,1,.25-.78,2.44,2.44,0,0,0,.65-1.13.87.87,0,0,0-.12-.7.47.47,0,0,0-.51-.19,2.92,2.92,0,0,0-1.36.62,5.79,5.79,0,0,0-1.26,1.37,6.42,6.42,0,0,0-1.23,3.7,2.88,2.88,0,0,0,.09.73,2.78,2.78,0,0,0,.29.72,2,2,0,0,0,.56.61,2.36,2.36,0,0,0,.89.4,4.78,4.78,0,0,0,4.72-1.56,7.16,7.16,0,0,0,1.28-1.78c.27-.56.41-.86.44-.89a1.05,1.05,0,0,1,.67-.62,1.58,1.58,0,0,1,1,0,1.37,1.37,0,0,1,.8.6,1.09,1.09,0,0,1,.13.89,2.62,2.62,0,0,0-.17.36c-.09.21-.22.48-.4.79s-.38.67-.63,1.06a6.1,6.1,0,0,1-.93,1.12,7.3,7.3,0,0,1-1.32,1.18,6.4,6.4,0,0,1-1.5.77A8,8,0,0,1,148.72,115.24Z"/><path class="cls-3" d="M157.91,115a4.51,4.51,0,0,1-1.89-.36,4.08,4.08,0,0,1-2.26-2.21,5,5,0,0,1-.34-2.73,10.64,10.64,0,0,1,.78-2.75,14.62,14.62,0,0,1,1.53-2.77,12.24,12.24,0,0,1,2.06-2.3,6.5,6.5,0,0,1,2.75-1.39,6.06,6.06,0,0,1,4.17.66,4,4,0,0,1,.89.68q.24.28.54.58a1.13,1.13,0,0,1,.25,1,1.4,1.4,0,0,1-.54.79,1.47,1.47,0,0,1-1,.26,1.37,1.37,0,0,1-1-.61l-.11-.07h0a4.74,4.74,0,0,0-.62-.54,2.87,2.87,0,0,0-3.53.47,8.86,8.86,0,0,0-1.49,1.71,14.09,14.09,0,0,0-1.24,2.24,8.43,8.43,0,0,0-.69,2.43,3.4,3.4,0,0,0,0,.58,3.63,3.63,0,0,0,.09.71,2.31,2.31,0,0,0,.26.68,1,1,0,0,0,.53.45.61.61,0,0,0,.31.08,1.12,1.12,0,0,0,.46-.09,4,4,0,0,0,1.25-.88,10.32,10.32,0,0,0,1.82-2.78q.25-.58.49-1.1a8.11,8.11,0,0,0,.38-1l.21-.67a4.23,4.23,0,0,1,.26-.64,1.29,1.29,0,0,1,.95-.8l.18,0a.56.56,0,0,0,.23,0,.33.33,0,0,1,.24,0h0s0,0,.1,0a1.44,1.44,0,0,1,.73.62,1.29,1.29,0,0,1,.15,1l-.51,1.39a9.83,9.83,0,0,0-.33,2.49,3.73,3.73,0,0,0,.36,1.8.57.57,0,0,0,.13.21l.11.08.21,0a.6.6,0,0,0,.32-.1,3.48,3.48,0,0,0,1-1,9.79,9.79,0,0,0,1-1.82c.26-.69.46-1.25.6-1.67l.22-.76a1.27,1.27,0,0,1,.63-.81,1.33,1.33,0,0,1,1-.15,1.36,1.36,0,0,1,.84.62,1.41,1.41,0,0,1,.18,1.07,7.92,7.92,0,0,1-.25.88c-.17.55-.4,1.2-.69,2-.91,2.15-1.95,3.47-3.12,4a2.81,2.81,0,0,1-1.16.35,3.12,3.12,0,0,1-1.41-.21,3.57,3.57,0,0,1-2.08-1.75.73.73,0,0,1-.15-.29l-.11.14a6.18,6.18,0,0,1-2.55,2A3.58,3.58,0,0,1,157.91,115Zm5.84-11.21c0,.06,0,.08.06.08S163.76,103.79,163.75,103.74Z"/><path class="cls-3" d="M167.22,118.7a1.5,1.5,0,0,1-1-.35,1.45,1.45,0,0,1-.58-.89,1,1,0,0,1,.15-1,1.25,1.25,0,0,1,.84-.47q2.94-.31,5.87-.71l1-2.87a4,4,0,0,1-2.87-.15,4.14,4.14,0,0,1-2.28-2.36,6.35,6.35,0,0,1-.35-3,11.91,11.91,0,0,1,.75-3,16.36,16.36,0,0,1,1.5-3,11.91,11.91,0,0,1,2.28-2.68A5.89,5.89,0,0,1,175,97a5.37,5.37,0,0,1,2.42,0,5.16,5.16,0,0,1,1.55.66,3.59,3.59,0,0,1,.89.91l.35.55a1.47,1.47,0,0,1,.27,1.26,1.4,1.4,0,0,1-.67.83,1.54,1.54,0,0,1-1.07.15,1.38,1.38,0,0,1-.93-.78.76.76,0,0,0-.16-.21,1.77,1.77,0,0,0-.41-.32,2.24,2.24,0,0,0-.72-.25,2.64,2.64,0,0,0-1.09.07,2.82,2.82,0,0,0-1.39.84,10.69,10.69,0,0,0-1.48,1.84,13.3,13.3,0,0,0-1.19,2.44,9.9,9.9,0,0,0-.59,2.38,4.58,4.58,0,0,0,0,1.47,1.24,1.24,0,0,0,.74,1,1,1,0,0,0,1-.05,3.62,3.62,0,0,0,1.39-1.21,12.8,12.8,0,0,0,1.4-2.47c.39-.92.71-1.74,1-2.45l.23-.79a1.62,1.62,0,0,1,.71-.88,1.21,1.21,0,0,1,1-.11,1.16,1.16,0,0,1,.8.68,1.72,1.72,0,0,1,.13,1.14c-.06,0-.16.32-.3.92q-1,3.45-2.09,6.77c.36-.38.72-.76,1.06-1.15a7.44,7.44,0,0,0,.94-1.33,12.11,12.11,0,0,0,.78-1.73,15.69,15.69,0,0,0,.63-2.37,1.48,1.48,0,0,1,.58-.92,1.23,1.23,0,0,1,1-.2,1.33,1.33,0,0,1,.84.68,1.59,1.59,0,0,1,.17,1.14,19.38,19.38,0,0,1-.79,3,13.89,13.89,0,0,1-1.15,2.44,14.26,14.26,0,0,1-1.27,1.72,15.23,15.23,0,0,1-1.36,1.38l-.7.68,2.27-.36a1.36,1.36,0,0,1,1,.29,1.72,1.72,0,0,1,.63,1,1.4,1.4,0,0,1-.16,1.1,1.24,1.24,0,0,1-.88.6q-2.72.35-5.44.64a17.52,17.52,0,0,0-1.19,2.44l-.82,2.47-.26.81a1,1,0,0,1-1,.76,1.66,1.66,0,0,1-1.55-2.11l.21-.56a.66.66,0,0,1,0-.28l.45-1.37c.14-.44.3-.87.46-1.29l.18-.48q-2.11.21-4.23.38Z"/><path class="cls-3" d="M184.78,112.31a2.18,2.18,0,0,1-.48,0,2.1,2.1,0,0,1-.5-.09,3.65,3.65,0,0,1-2.65-2.05c-1-1.84-1.05-4.75-.1-9,.3-1.48.62-2.77,1-3.84s.52-1.67.57-1.75a1.44,1.44,0,0,1,.69-.91,1.24,1.24,0,0,1,1.07-.08,1.26,1.26,0,0,1,.77.78,1.8,1.8,0,0,1,0,1.23,14.17,14.17,0,0,0-.51,1.58q-.46,1.56-.9,3.67c-.24,1.18-.39,2.17-.47,3a16.88,16.88,0,0,0-.1,2,5.16,5.16,0,0,0,.13,1.21,2.24,2.24,0,0,0,.24.61.75.75,0,0,0,.63.47,1,1,0,0,0,.77-.35,5.56,5.56,0,0,0,1-1.25,24.51,24.51,0,0,0,2.18-5.41l.82-3q0-.29.1-.52c0-.16.09-.33.15-.54.15-.78.32-1.56.49-2.33s.32-1.55.45-2.33a2,2,0,0,1,.6-1.09,1.13,1.13,0,0,1,1-.33,1.27,1.27,0,0,1,.86.65,1.69,1.69,0,0,1,.19,1.22c0,.08-.13.71-.34,1.87s-.51,2.57-.9,4.22l-.49,2.49c-.15.79-.27,1.5-.36,2.16a9.82,9.82,0,0,0-.14,2.18,1.89,1.89,0,0,0,.19.77c0,.11.1.17.26.17s.4-.12.71-.48a7.93,7.93,0,0,0,1.07-2,15.52,15.52,0,0,0,.87-2.49c.19-.77.28-1.18.28-1.22a1.8,1.8,0,0,1,.66-1,1,1,0,0,1,1-.16,1.18,1.18,0,0,1,.84.77,2.28,2.28,0,0,1,.13,1.32s-.15.52-.37,1.41a22.52,22.52,0,0,1-1,2.94,17.86,17.86,0,0,1-.83,1.71,9.73,9.73,0,0,1-.84,1.29,3.27,3.27,0,0,1-1.7,1.25,2.5,2.5,0,0,1-1.34,0,3.32,3.32,0,0,1-2.12-1.73l0-.11-.23.32a7.76,7.76,0,0,1-.83,1.26,5.43,5.43,0,0,1-.89.88A3.54,3.54,0,0,1,184.78,112.31Z"/><path class="cls-3" d="M199,110.18a2.06,2.06,0,0,1-1.07,0,3.76,3.76,0,0,1-2.25-1,5.22,5.22,0,0,1-1.14-1.57c-.74-1.58-.86-3.7-.39-6.43a28.12,28.12,0,0,1,.87-3.89c.38-1.27.75-2.38,1.11-3.31a1.63,1.63,0,0,1,.74-1,1,1,0,0,1,1,0,1.44,1.44,0,0,1,.72.89,2.09,2.09,0,0,1,0,1.39c-.44,1.22-.81,2.36-1.1,3.45s-.52,2.1-.68,3a10.45,10.45,0,0,0-.17,2.87,6.57,6.57,0,0,0,.29,1.29,1.57,1.57,0,0,0,.37.48,1.74,1.74,0,0,0,.81.32.89.89,0,0,0,.37,0,2.28,2.28,0,0,0,1.37-1.25,15.3,15.3,0,0,0,.94-2c.18-.49.34-1,.5-1.5s.29-1,.38-1.36l.32-1.32a1.9,1.9,0,0,1,.61-1.13,1,1,0,0,1,1-.27,1.34,1.34,0,0,1,.84.78,2.18,2.18,0,0,1,.17,1.36,3.23,3.23,0,0,1-.09.53c-.07.31-.15.7-.25,1.16s-.25,1-.43,1.58-.38,1.17-.61,1.77a10.88,10.88,0,0,1-2.16,3.81A4.37,4.37,0,0,1,199,110.18Zm1.64-21.07a1,1,0,0,1-.87-.11,1.49,1.49,0,0,1-.71-.91,2.18,2.18,0,0,1,.08-1.38l.52-1.28a2.05,2.05,0,0,1,.79-1,.87.87,0,0,1,1,0,1.33,1.33,0,0,1,.73.93,2.26,2.26,0,0,1-.1,1.39L201.63,88A1.75,1.75,0,0,1,200.65,89.12Z"/><path class="cls-3" d="M206.4,110.45a1,1,0,0,1-.25,0l-.26,0a1.7,1.7,0,0,1-.88-.85,2,2,0,0,1-.22-1.36l.16-1.16a1.8,1.8,0,0,1,.55-1.2,1.08,1.08,0,0,1,1-.31,1.61,1.61,0,0,1,.88.8,2.37,2.37,0,0,1,.26,1.4l-.16,1.19C207.36,109.82,207,110.32,206.4,110.45Zm1.31-9.87a.93.93,0,0,1-.25,0l-.26,0a1.52,1.52,0,0,1-.88-.76,2.08,2.08,0,0,1-.22-1.39q1.27-10,2.54-20.4a2.51,2.51,0,0,1,.52-1.37,1.15,1.15,0,0,1,1-.51,1.22,1.22,0,0,1,.88.64,2.05,2.05,0,0,1,.26,1.32Q210.06,88.74,208.8,99,208.61,100.32,207.71,100.57Z"/><path class="cls-4" d="M85.41,184.25v4.2a1.18,1.18,0,0,0-.05.2c0,.37,0,.74-.09,1.11-.14.87-.32,1.73-.48,2.6s-.31,1.76-.51,2.64a26.42,26.42,0,0,1-1.13,3.84c-.47,1.18-1,2.35-1.49,3.51a18.4,18.4,0,0,1-1,1.93q-.85,1.41-1.77,2.78a30.7,30.7,0,0,1-3.19,4c-.71.75-1.47,1.47-2.24,2.16s-1.5,1.27-2.27,1.87a29.5,29.5,0,0,1-3.88,2.54c-.84.46-1.7.9-2.57,1.3s-1.66.74-2.52,1a24,24,0,0,1-3.51,1c-1,.2-2,.4-3,.55-.83.13-1.66.2-2.5.29-.63.07-1.26.13-1.89.16s-1.21,0-1.82,0c-.82,0-1.64-.07-2.47-.12-.35,0-.7,0-1-.09-.63-.08-1.26-.17-1.88-.28s-1.5-.26-2.24-.43a30.66,30.66,0,0,1-4.09-1.21c-.81-.31-1.62-.63-2.41-1s-1.46-.71-2.18-1.09-1.39-.76-2-1.2c-1-.65-1.9-1.33-2.82-2s-1.53-1.28-2.25-2a28.15,28.15,0,0,1-2.53-2.69c-.45-.55-.94-1.08-1.35-1.66-.79-1.1-1.55-2.22-2.3-3.34-.28-.41-.5-.86-.74-1.29l0-.05.16.06c.74.33,1.46.71,2.22,1a9.51,9.51,0,0,0,4,.59,11.49,11.49,0,0,0,2-.33,12.49,12.49,0,0,0,3.56-1.59,11.09,11.09,0,0,1,2.22-1.32c.72-.25,1.46-.46,2.2-.68s1.27-.36,1.9-.56a.63.63,0,0,0,.44-.69.73.73,0,0,0-.72-.56,4.47,4.47,0,0,0-.48.06l-.68.11c.3-.16.61-.26.92-.39.53-.23,1-.48,1.56-.73a.51.51,0,0,0,.33-.49.72.72,0,0,0-1-.65c-.52.18-1,.4-1.53.59l-.89.31a.25.25,0,0,1,.11-.13L38,196.49a.61.61,0,0,0,.26-.68.74.74,0,0,0-1.21-.39L35,196.76l-.51.31c.23-.26.47-.51.71-.75L36.57,195a.53.53,0,0,0,0-.71c-.26-.34-.49-.41-.81-.23a5.27,5.27,0,0,0-.75.5c-.74.6-1.46,1.21-2.19,1.82l-.79.65,0-.11.66-1c.17-.26.29-.54.08-.83s-.55-.55-.91-.28a2.91,2.91,0,0,0-1,1.38,4.83,4.83,0,0,1-.31.72,6.19,6.19,0,0,1-1.51,2,7.74,7.74,0,0,1-1.06.76,5.13,5.13,0,0,1-3.23.62,5.3,5.3,0,0,1-1.54-.44,6,6,0,0,1-2.13-1.63A7,7,0,0,1,20,196.18a7.13,7.13,0,0,1-.51-3.49c.07-.63.17-1.26.29-1.88a13.11,13.11,0,0,1,1.59-4.05,17.49,17.49,0,0,1,2.56-3.33c.37-.38.78-.72,1.18-1.07A13,13,0,0,1,28,180.47l.32-.16a1.51,1.51,0,0,0-.45,0l-1.62.16a14.65,14.65,0,0,0-2.56.56A14.06,14.06,0,0,0,21,182.24a10.78,10.78,0,0,0-2.24,1.63,15.93,15.93,0,0,0-1.42,1.58,12.73,12.73,0,0,0-1.84,3.27c-.1.26-.22.52-.33.8a1.19,1.19,0,0,1-.41-.8c0-1.55,0-3.09,0-4.64a2.57,2.57,0,0,1,0-.44c.14-.77.29-1.55.44-2.32.2-1,.39-2.06.63-3.08A27.74,27.74,0,0,1,17,174.36c.43-1.1.89-2.18,1.37-3.26.25-.57.55-1.12.85-1.67s.76-1.34,1.18-2a27.88,27.88,0,0,1,2.43-3.33c.66-.76,1.31-1.53,2-2.24s1.47-1.42,2.22-2.11a19,19,0,0,1,1.48-1.22c.79-.59,1.6-1.16,2.42-1.69s1.53-.94,2.32-1.37,1.4-.72,2.11-1c1-.42,1.93-.82,2.92-1.18a23.41,23.41,0,0,1,2.28-.71q1.58-.4,3.18-.72c.69-.14,1.4-.21,2.11-.29s1.32-.15,2-.2,1,0,1.56,0a.73.73,0,0,0,.18-.05h1.51a.36.36,0,0,0,.11.05l2.4.13c.44,0,.89.06,1.32.13.73.11,1.45.23,2.17.36a28.65,28.65,0,0,1,3.87,1,26.13,26.13,0,0,1,3.65,1.46c1,.51,2,1,3,1.59s1.89,1.2,2.81,1.83c.61.42,1.19.89,1.77,1.36s.88.74,1.29,1.13c.68.64,1.34,1.3,2,2,.16.16.28.34.43.51a.26.26,0,0,1-.2,0,9,9,0,0,0-3.62-.8,17.63,17.63,0,0,0-1.95,0,5.77,5.77,0,0,0-1.25.19c-1,.3-2.08.64-3.11,1a25,25,0,0,0-3.37,1.39,4.49,4.49,0,0,1-.79.29l-2.44.65c-.64.18-1.29.35-1.91.58s-.77.55-.54,1.08a.75.75,0,0,0,.75.53l1.23-.18.65-.11a.31.31,0,0,1-.14.14c-.89.48-1.79.94-2.68,1.43a13.21,13.21,0,0,0-2,1.17.76.76,0,0,0-.23,1,.69.69,0,0,0,1,.32l2.47-1.07.65-.26c-1,.74-1.94,1.43-2.91,2.13a.94.94,0,0,0-.52.89,1,1,0,0,0,.5.75.67.67,0,0,0,.75-.1l2.58-1.85.58-.38a2,2,0,0,1-.26.35c-.6.65-1.21,1.3-1.82,1.94a.89.89,0,0,0-.09,1.27.63.63,0,0,0,.84.14c.19-.16.4-.29.58-.46.47-.45.92-.92,1.38-1.38l.55-.56c-.15.3-.33.56-.5.83a1.28,1.28,0,0,0-.29.86.82.82,0,0,0,.41.65.59.59,0,0,0,.73-.06,7.7,7.7,0,0,0,.9-1c.43-.57.76-1.22,1.22-1.76a8.61,8.61,0,0,1,2.51-2,7.47,7.47,0,0,1,3.26-.91,8.24,8.24,0,0,1,1.75.13,7.42,7.42,0,0,1,2.41.9,9.13,9.13,0,0,1,2.62,2.31A10.58,10.58,0,0,1,77,175.15a11.16,11.16,0,0,1,.92,3.88,21,21,0,0,1-.07,2.43,9.35,9.35,0,0,1-.48,2.23,11.06,11.06,0,0,1-.92,2.09,10.13,10.13,0,0,1-1.34,1.86,8.4,8.4,0,0,1-1.89,1.57,7.57,7.57,0,0,1-2.56,1l-.56.11v.06l1.49-.1a10.82,10.82,0,0,0,2.29-.38,15.18,15.18,0,0,0,1.74-.59,8.43,8.43,0,0,0,1.07-.6,14.56,14.56,0,0,0,2.63-2c.57-.54,1.1-1.14,1.62-1.73a13.28,13.28,0,0,0,1.62-2.44,20.19,20.19,0,0,0,1.4-3.37,8.35,8.35,0,0,1,.36-.82h.06c.14.76.27,1.52.41,2.28l.57,3.07ZM26.69,182l0,0h.11a19,19,0,0,1,1.88-.3,12.21,12.21,0,0,1,2.74.14,20.55,20.55,0,0,1,2.71.64,41,41,0,0,1,5.75,2.41c1.14.55,2.26,1.13,3.4,1.67,1.34.64,2.68,1.26,4,1.87.57.26,1.14.53,1.74.74s1.35.43,2,.62c.93.27,1.86.53,2.8.77s1.85.45,2.79.65,1.67.32,2.5.45c.56.09,1.13.15,1.69.21s1.3.14,1.95.16c.94,0,1.88,0,2.83,0a15.05,15.05,0,0,0,1.76-.17c.86-.14,1.72-.31,2.58-.49.44-.09.87-.22,1.31-.33V191c-.18,0-.37,0-.55,0-.54,0-1.08,0-1.62,0s-1.19-.07-1.78-.17a23.67,23.67,0,0,1-2.5-.48c-1.11-.3-2.22-.65-3.3-1-1.35-.48-2.69-1-4-1.52l-3.72-1.45-3.22-1.24c-.89-.34-1.78-.68-2.69-1q-2-.67-4.11-1.28-1.57-.47-3.17-.86c-1-.26-2.1-.5-3.16-.73-.6-.13-1.21-.23-1.81-.34s-1-.2-1.58-.28-1.12-.14-1.67-.21c-.33,0-.65-.09-1-.11a3,3,0,0,0-.7,0,9.79,9.79,0,0,0-3.2,1.19C27.22,181.66,27,181.84,26.69,182Z"/><path class="cls-4" d="M23.52,236.22a3.23,3.23,0,0,1,1.12-.08,9.48,9.48,0,0,1,1.1.17,5.41,5.41,0,0,1,2.81,1.59,5.6,5.6,0,0,1,1.58,2.89,6.54,6.54,0,0,1-1.84,6.07,9.71,9.71,0,0,1-2.69,1.84,9.6,9.6,0,0,1-2.69.84,21.84,21.84,0,0,1-2.8.24q-1.27,0-2.53-.1t-2.5-.31q-.15,2.26-.43,4.48T14,258.3q-.39,2.07-1,4.13a31.27,31.27,0,0,1-1.4,4,17.31,17.31,0,0,1-.91,1.8,10.28,10.28,0,0,1-1.15,1.61,8.37,8.37,0,0,1-1.5,1.47,4.55,4.55,0,0,1-1.93.87.85.85,0,0,1-.56-.08,1.2,1.2,0,0,1-.43-.36,1,1,0,0,1-.19-.53.94.94,0,0,1,.58-.92l.51-.22a3.59,3.59,0,0,0,.52-.22,3.44,3.44,0,0,0,.51-.32,7.33,7.33,0,0,0,1.85-2.19,18.23,18.23,0,0,0,1.19-2.58,32.16,32.16,0,0,0,1.79-6.23q.59-3.22.92-6.48.17-1.44.28-3a15.06,15.06,0,0,0-3-.1,10.64,10.64,0,0,0-2.92.61,6.06,6.06,0,0,0-1.41.68,3.43,3.43,0,0,0-1.09,1.14,2.93,2.93,0,0,0-.46,1.48,3.51,3.51,0,0,0,.28,1.54,4.47,4.47,0,0,0,.83,1.2,2,2,0,0,0,1.3.63,1,1,0,0,0,.38,0l.36-.07.34-.13a1,1,0,0,1,.35-.07,1.15,1.15,0,0,1,.58.18.85.85,0,0,1,.37.5,1,1,0,0,1,0,.65,1.14,1.14,0,0,1-.36.46,1.65,1.65,0,0,1-.56.3,5.92,5.92,0,0,1-.61.15,3.6,3.6,0,0,1-1.64-.06,4.91,4.91,0,0,1-1.49-.68,5.37,5.37,0,0,1-1.87-2.66,5.46,5.46,0,0,1-.09-3.24,5.26,5.26,0,0,1,1.74-2.58,7.26,7.26,0,0,1,2.79-1.41,11.69,11.69,0,0,1,3.24-.36q1.64,0,3.25.22l.35,0,.26-.05a.89.89,0,0,1,.58.16q1.12.13,2.22.21a19.55,19.55,0,0,0,2.22,0,11.38,11.38,0,0,0,1.73-.19,5.55,5.55,0,0,0,1.62-.59,6.51,6.51,0,0,0,1.63-1.34,7.1,7.1,0,0,0,.87-1.21,4.27,4.27,0,0,0,.51-1.45,2.73,2.73,0,0,0-.21-1.45,4.43,4.43,0,0,0-.82-1.23,3.88,3.88,0,0,0-.76-.64,8.71,8.71,0,0,1-.82-.6,1.73,1.73,0,0,1-.52-1.12,1.5,1.5,0,0,1,.36-1.15A1.79,1.79,0,0,1,23.52,236.22Z"/><path class="cls-4" d="M22,266.49a9.64,9.64,0,0,1-1.9-.3,8,8,0,0,1-2.17-.91,7.1,7.1,0,0,1-.8-.58,3.78,3.78,0,0,1-1.27-2,3.2,3.2,0,0,1-.1-1.46,5,5,0,0,1,.72-1.89,6.55,6.55,0,0,1,1.53-1.69,8.24,8.24,0,0,1,2.64-1.41,9.46,9.46,0,0,1,3.18-.46,1.47,1.47,0,0,1,.94.3.91.91,0,0,1,.4.68.81.81,0,0,1-.45.63,1.64,1.64,0,0,1-1,.2,4.73,4.73,0,0,0-2.16.33,5.37,5.37,0,0,0-1.41.84,5.16,5.16,0,0,0-1.15,1.34,3.71,3.71,0,0,0-.54,1.53,1.91,1.91,0,0,0,0,.55,2.42,2.42,0,0,0,.19.85,2.58,2.58,0,0,0,.59.86,2.54,2.54,0,0,0,1.23.61,3.83,3.83,0,0,0,2.84-.39l.49-.34a7,7,0,0,1-1.91-1.21,2.71,2.71,0,0,1-1.1-2.73A2.37,2.37,0,0,1,22,258.42a3.91,3.91,0,0,1,1-.39,4.74,4.74,0,0,1,1.18-.14,3.84,3.84,0,0,1,2.07.51,2.82,2.82,0,0,1,1.3,1.43,4.63,4.63,0,0,1,0,2.7,1.89,1.89,0,0,0,.67-.46,2.52,2.52,0,0,0,.52-.89,1,1,0,0,1,.63-.56,1.73,1.73,0,0,1,1-.05,1.37,1.37,0,0,1,.82.53.85.85,0,0,1,.15.79,3.4,3.4,0,0,1-1.07,1.7,4.35,4.35,0,0,1-1.38.78,6.13,6.13,0,0,1-2.41.25l-.57.56a4.11,4.11,0,0,1-.63.49,4.46,4.46,0,0,1-2.24.78A6.1,6.1,0,0,1,22,266.49Zm2.3-6.76a1.35,1.35,0,0,0-.49.14.55.55,0,0,0-.3.47,1,1,0,0,0,.21,1.06,3.08,3.08,0,0,0,1.13.83l0-.06a3.18,3.18,0,0,0,.22-1.09,2.36,2.36,0,0,0-.14-.91.56.56,0,0,0-.53-.44Z"/><path class="cls-4" d="M35.48,266.5a8.92,8.92,0,0,1-2.12-.24,5.88,5.88,0,0,1-3-1.73,4.65,4.65,0,0,1-1.19-3,4.25,4.25,0,0,1,0-1.15,6.9,6.9,0,0,1,.31-1.17A7.09,7.09,0,0,1,30.7,257,7.52,7.52,0,0,1,32.75,255a6.39,6.39,0,0,1,2.48-1,3.78,3.78,0,0,1,1.9.12,2.69,2.69,0,0,1,1.44,1,2.48,2.48,0,0,1,.53,2.06,4.25,4.25,0,0,1-1.17,2.31,1.4,1.4,0,0,1-.9.39,1.49,1.49,0,0,1-1-.24,1.08,1.08,0,0,1-.57-.73.82.82,0,0,1,.25-.78,2.42,2.42,0,0,0,.65-1.13.86.86,0,0,0-.12-.7.47.47,0,0,0-.51-.19,2.93,2.93,0,0,0-1.36.62,5.79,5.79,0,0,0-1.26,1.37,6.42,6.42,0,0,0-1.23,3.7,2.86,2.86,0,0,0,.09.73,2.76,2.76,0,0,0,.29.72,2,2,0,0,0,.56.61,2.37,2.37,0,0,0,.89.4,4.78,4.78,0,0,0,4.72-1.56,7.12,7.12,0,0,0,1.28-1.78c.27-.57.42-.86.44-.89a1,1,0,0,1,.67-.62,1.58,1.58,0,0,1,1,0,1.38,1.38,0,0,1,.8.6,1.09,1.09,0,0,1,.13.89,2.61,2.61,0,0,0-.17.36c-.09.21-.22.48-.4.79s-.38.67-.63,1.06a6.13,6.13,0,0,1-.93,1.12,7.34,7.34,0,0,1-1.32,1.18,6.35,6.35,0,0,1-1.5.77A7.86,7.86,0,0,1,35.48,266.5Z"/><path class="cls-4" d="M44.67,266.21a4.53,4.53,0,0,1-1.89-.36,4.08,4.08,0,0,1-2.26-2.21,5,5,0,0,1-.34-2.73,10.63,10.63,0,0,1,.78-2.75,14.64,14.64,0,0,1,1.53-2.77,12.39,12.39,0,0,1,2.06-2.3,6.53,6.53,0,0,1,2.75-1.39,6.08,6.08,0,0,1,4.17.66,4,4,0,0,1,.89.68q.24.28.54.58a1.13,1.13,0,0,1,.25,1,1.4,1.4,0,0,1-.54.79,1.45,1.45,0,0,1-1,.26,1.37,1.37,0,0,1-1-.61l-.11-.07h0a4.66,4.66,0,0,0-.62-.54,2.87,2.87,0,0,0-3.53.47,8.88,8.88,0,0,0-1.49,1.71,14.11,14.11,0,0,0-1.24,2.25,8.44,8.44,0,0,0-.69,2.43,3.45,3.45,0,0,0,0,.58,3.61,3.61,0,0,0,.09.71,2.29,2.29,0,0,0,.26.68,1,1,0,0,0,.53.45.56.56,0,0,0,.31.08,1.14,1.14,0,0,0,.46-.09,4,4,0,0,0,1.25-.88,10.35,10.35,0,0,0,1.82-2.78q.25-.58.49-1.1a8.14,8.14,0,0,0,.38-1l.21-.67a4.12,4.12,0,0,1,.26-.64,1.28,1.28,0,0,1,.95-.8l.18,0a.5.5,0,0,0,.23,0,.33.33,0,0,1,.24,0h0s0,0,.1,0a1.44,1.44,0,0,1,.73.62,1.29,1.29,0,0,1,.15,1L51,258.93a9.86,9.86,0,0,0-.33,2.49,3.74,3.74,0,0,0,.36,1.8.58.58,0,0,0,.13.21l.11.08a.84.84,0,0,0,.21,0,.62.62,0,0,0,.32-.1,3.47,3.47,0,0,0,1-1,9.86,9.86,0,0,0,1-1.82c.26-.69.46-1.25.6-1.67l.22-.76a1.27,1.27,0,0,1,.63-.81,1.33,1.33,0,0,1,1-.15,1.35,1.35,0,0,1,.84.62,1.41,1.41,0,0,1,.18,1.07,7.76,7.76,0,0,1-.25.88c-.17.55-.4,1.21-.69,2-.91,2.15-1.95,3.47-3.12,4a2.86,2.86,0,0,1-1.16.35,3.13,3.13,0,0,1-1.41-.21,3.58,3.58,0,0,1-2.08-1.74.71.71,0,0,1-.15-.29l-.11.14a6.18,6.18,0,0,1-2.55,2A3.63,3.63,0,0,1,44.67,266.21ZM50.51,255c0,.06,0,.08.06.08S50.52,255.05,50.51,255Z"/><path class="cls-4" d="M54,270a1.5,1.5,0,0,1-1-.35,1.45,1.45,0,0,1-.58-.89,1,1,0,0,1,.15-1,1.26,1.26,0,0,1,.84-.47q2.94-.32,5.87-.71l1-2.87a4,4,0,0,1-2.87-.15,4.14,4.14,0,0,1-2.28-2.36,6.34,6.34,0,0,1-.35-3,11.92,11.92,0,0,1,.75-3,16.34,16.34,0,0,1,1.5-3,11.92,11.92,0,0,1,2.28-2.68,5.94,5.94,0,0,1,2.46-1.34,5.35,5.35,0,0,1,2.42,0,5.27,5.27,0,0,1,1.55.66,3.59,3.59,0,0,1,.89.91l.35.55a1.48,1.48,0,0,1,.27,1.26,1.4,1.4,0,0,1-.67.83,1.54,1.54,0,0,1-1.07.15,1.38,1.38,0,0,1-.93-.78.75.75,0,0,0-.16-.21,1.81,1.81,0,0,0-.41-.33,2.23,2.23,0,0,0-.72-.25,2.67,2.67,0,0,0-1.09.07,2.82,2.82,0,0,0-1.39.84,10.85,10.85,0,0,0-1.48,1.84,13.33,13.33,0,0,0-1.19,2.44,9.91,9.91,0,0,0-.59,2.38,4.57,4.57,0,0,0,0,1.47,1.24,1.24,0,0,0,.74,1,1,1,0,0,0,1-.05,3.63,3.63,0,0,0,1.39-1.21,12.78,12.78,0,0,0,1.4-2.47c.39-.92.71-1.74,1-2.45l.23-.79a1.63,1.63,0,0,1,.71-.88,1.21,1.21,0,0,1,1-.11,1.16,1.16,0,0,1,.8.68,1.72,1.72,0,0,1,.13,1.14c-.06,0-.16.32-.3.92q-1,3.45-2.09,6.77.54-.57,1.06-1.15a7.41,7.41,0,0,0,.94-1.33,12.08,12.08,0,0,0,.78-1.73A15.63,15.63,0,0,0,67,256a1.48,1.48,0,0,1,.58-.92,1.23,1.23,0,0,1,1-.2,1.34,1.34,0,0,1,.84.68,1.59,1.59,0,0,1,.17,1.14,19.47,19.47,0,0,1-.79,3,13.84,13.84,0,0,1-1.15,2.44,14.33,14.33,0,0,1-1.27,1.72,15.51,15.51,0,0,1-1.36,1.38l-.7.68,2.27-.36a1.36,1.36,0,0,1,1,.29,1.72,1.72,0,0,1,.63,1,1.4,1.4,0,0,1-.16,1.1,1.25,1.25,0,0,1-.88.6q-2.72.35-5.44.64a17.51,17.51,0,0,0-1.19,2.44l-.82,2.47-.26.81a1,1,0,0,1-1,.76,1.49,1.49,0,0,1-.72-.24,1.56,1.56,0,0,1-.84-1.87l.21-.56a.66.66,0,0,1,0-.28l.45-1.37c.14-.44.3-.87.46-1.29l.18-.48q-2.11.21-4.23.38Z"/><path class="cls-4" d="M71.54,263.57a2.24,2.24,0,0,1-.48,0,2.09,2.09,0,0,1-.5-.09,3.65,3.65,0,0,1-2.65-2.05c-1-1.84-1.05-4.75-.1-9q.46-2.22,1-3.84c.33-1.08.52-1.67.57-1.75A1.43,1.43,0,0,1,70,246a1.24,1.24,0,0,1,1.07-.08,1.26,1.26,0,0,1,.77.78,1.8,1.8,0,0,1,0,1.23,13.94,13.94,0,0,0-.51,1.58q-.46,1.56-.9,3.67c-.24,1.18-.39,2.17-.47,3a16.92,16.92,0,0,0-.1,2,5.16,5.16,0,0,0,.13,1.21,2.24,2.24,0,0,0,.24.61.75.75,0,0,0,.63.47,1,1,0,0,0,.77-.35,5.46,5.46,0,0,0,1-1.25,24.56,24.56,0,0,0,2.18-5.41l.82-3c0-.19.06-.37.1-.52s.09-.33.15-.54q.23-1.17.49-2.33t.45-2.33a2,2,0,0,1,.6-1.09,1.13,1.13,0,0,1,1-.33,1.26,1.26,0,0,1,.86.65,1.69,1.69,0,0,1,.19,1.22c0,.08-.13.71-.34,1.87s-.51,2.57-.9,4.22l-.49,2.49c-.15.79-.27,1.51-.36,2.16a9.82,9.82,0,0,0-.14,2.18,1.88,1.88,0,0,0,.19.77c0,.11.1.16.26.17s.4-.12.71-.48a8,8,0,0,0,1.07-2,15.49,15.49,0,0,0,.87-2.49c.19-.77.28-1.18.28-1.22a1.81,1.81,0,0,1,.66-1,1,1,0,0,1,1-.16,1.18,1.18,0,0,1,.84.77,2.28,2.28,0,0,1,.13,1.32s-.15.52-.37,1.41a22.57,22.57,0,0,1-1,2.94,18,18,0,0,1-.83,1.71,9.83,9.83,0,0,1-.84,1.29,3.25,3.25,0,0,1-1.7,1.25,2.51,2.51,0,0,1-1.34,0,3.31,3.31,0,0,1-2.12-1.73l0-.11-.23.32A7.71,7.71,0,0,1,74,262a5.42,5.42,0,0,1-.89.88A3.49,3.49,0,0,1,71.54,263.57Z"/><path class="cls-4" d="M85.77,261.44a2,2,0,0,1-1.07,0,3.79,3.79,0,0,1-2.25-1,5.21,5.21,0,0,1-1.14-1.57c-.74-1.58-.86-3.7-.39-6.43a28.12,28.12,0,0,1,.87-3.89q.57-1.91,1.11-3.31a1.64,1.64,0,0,1,.74-1,1,1,0,0,1,1,0,1.44,1.44,0,0,1,.72.89,2.09,2.09,0,0,1,0,1.39c-.44,1.21-.81,2.36-1.1,3.45s-.52,2.1-.68,3a10.45,10.45,0,0,0-.17,2.87,6.48,6.48,0,0,0,.29,1.29,1.56,1.56,0,0,0,.37.48,1.73,1.73,0,0,0,.81.32.9.9,0,0,0,.37,0,2.27,2.27,0,0,0,1.37-1.25,15.14,15.14,0,0,0,.94-2c.18-.49.34-1,.5-1.5s.29-1,.38-1.36l.32-1.32a1.9,1.9,0,0,1,.61-1.13,1,1,0,0,1,1-.27,1.33,1.33,0,0,1,.84.78,2.18,2.18,0,0,1,.17,1.35,3.27,3.27,0,0,1-.09.53q-.1.46-.25,1.16t-.43,1.58q-.27.88-.61,1.77a10.91,10.91,0,0,1-2.16,3.81A4.37,4.37,0,0,1,85.77,261.44Zm1.64-21.07a1,1,0,0,1-.87-.11,1.5,1.5,0,0,1-.71-.91,2.18,2.18,0,0,1,.08-1.38l.52-1.28a2.05,2.05,0,0,1,.79-1,.87.87,0,0,1,1,0,1.32,1.32,0,0,1,.73.93,2.26,2.26,0,0,1-.1,1.39l-.47,1.34A1.75,1.75,0,0,1,87.41,240.37Z"/><path class="cls-4" d="M93.16,261.7a1,1,0,0,1-.25,0l-.26,0a1.7,1.7,0,0,1-.88-.85,2,2,0,0,1-.22-1.36l.16-1.16a1.79,1.79,0,0,1,.55-1.2,1.08,1.08,0,0,1,1-.31,1.61,1.61,0,0,1,.88.8,2.37,2.37,0,0,1,.26,1.4l-.16,1.19Q94.05,261.51,93.16,261.7Zm1.31-9.87a1,1,0,0,1-.25,0l-.26,0a1.53,1.53,0,0,1-.88-.76,2.08,2.08,0,0,1-.22-1.39q1.27-10,2.54-20.4a2.52,2.52,0,0,1,.52-1.37,1.15,1.15,0,0,1,1-.51,1.22,1.22,0,0,1,.88.64,2.05,2.05,0,0,1,.26,1.32Q96.82,240,95.56,250.23C95.43,251.13,95.07,251.66,94.47,251.83Z"/></g></g></svg>