<svg xmlns="http://www.w3.org/2000/svg" viewBox="0 0 238.2 238.22"><defs><style>.cls-1{fill:#ffad1b;}</style></defs><title>marca solida amarela</title><g id="Camada_2" data-name="Camada 2"><g id="Marca_-_marca" data-name="Marca - marca"><path class="cls-1" d="M15,176.16l1.55.79a40.63,40.63,0,0,0,13.06,4.44,33.6,33.6,0,0,0,15.19-1.25,43.65,43.65,0,0,0,12.68-6.44,31.68,31.68,0,0,1,11.31-4.94c2.37-.59,4.72-1.27,7.08-1.92a4.84,4.84,0,0,0,.88-.38A2.21,2.21,0,0,0,78,163.84a2.37,2.37,0,0,0-2.49-1.65c-1.11.11-2.22.28-3.45.44,1.63-.65,3.17-1.22,4.68-1.87a30.18,30.18,0,0,0,3.2-1.58c1.29-.75,1.56-1.59,1-2.73a2.37,2.37,0,0,0-3-1.4c-1.88.66-3.72,1.41-5.58,2.12a13.55,13.55,0,0,1-2.36.7l5.64-3.53c.87-.55,1.76-1.08,2.62-1.65,1.71-1.12,1.77-2.86.17-4.13a1.93,1.93,0,0,0-2.36-.18c-1.75,1-3.48,2.12-5.21,3.2-1.25.78-2.48,1.59-3.81,2.28,1.49-1.42,3-2.82,4.45-4.26a29.92,29.92,0,0,0,2.12-2.25,2,2,0,0,0,0-2.76,1.87,1.87,0,0,0-2.71-.59,41.9,41.9,0,0,0-4,3c-2.53,2-5,4.16-7.51,6.24a1.78,1.78,0,0,1-.59.35c.76-1.19,1.53-2.36,2.26-3.56a2.5,2.5,0,0,0-1-3.7,1.56,1.56,0,0,0-1.92,0,14.25,14.25,0,0,0-2.1,2.05c-2.21,2.87-4.3,5.83-6.54,8.67a11.44,11.44,0,0,1-7.29,4.43,28.84,28.84,0,0,1-3.9.32,61.51,61.51,0,0,1-7.41,0c-4.44-.45-8.45-2-10.7-6.2a43.92,43.92,0,0,1-2.8-6.62,27.88,27.88,0,0,1-1-11.54c1-11,6.24-19.91,13.45-27.87A47.1,47.1,0,0,1,45.81,97.94l.24-.13s0-.07.13-.2c-1.35.09-2.63.14-3.91.27a60.68,60.68,0,0,0-11.7,2.24c-13.62,4.16-23,12.93-28.3,26.1l-.93,2.29s-.06.06-.13.14a3.27,3.27,0,0,1-1.2-2.3c0-5.43,0-10.87.2-16.29a49.12,49.12,0,0,1,1.32-7.69C2.61,97.11,3.58,91.82,5,86.63a112.7,112.7,0,0,1,20.41-41A117.18,117.18,0,0,1,94.85,2.46,103.7,103.7,0,0,1,110.06.39c4.5-.23,9-.48,13.53-.37a110.46,110.46,0,0,1,46.52,11.21,123.5,123.5,0,0,1,31.18,21.94c1.64,1.57,3.12,3.29,4.66,5a4.7,4.7,0,0,1,.33.51,7.46,7.46,0,0,1-.74-.25A26.31,26.31,0,0,0,195.89,36c-2.24-.17-4.48-.29-6.72-.26a39.06,39.06,0,0,0-12,2.41c-5,1.71-10.12,3.25-14.83,5.73-3,1.56-6.17,2.09-9.31,3-2.79.78-5.6,1.54-8.38,2.36a8.73,8.73,0,0,0-2,.94A2.3,2.3,0,0,0,141.5,53c.43,1.42,1.43,2.37,2.67,2.25,1.57-.14,3.11-.48,4.67-.73a5.53,5.53,0,0,1,1.46-.1c-.2.12-.4.25-.61.36-4.56,2.44-9.14,4.86-13.68,7.33a9.72,9.72,0,0,0-2.29,1.72,2.76,2.76,0,0,0,1,4.35,2.49,2.49,0,0,0,2.05-.18l8.63-3.73a5.83,5.83,0,0,1,1.48-.47l-4.74,3.38-4.75,3.4a8.34,8.34,0,0,0-.71.55A3,3,0,0,0,137,76a2.41,2.41,0,0,0,2.95-.1c1.28-.85,2.5-1.77,3.75-2.67l5.76-4.12a1.26,1.26,0,0,1,.63-.26c-.55.6-1.09,1.2-1.65,1.8-1.67,1.79-3.36,3.58-5,5.37a3,3,0,0,0-.17,4.33,2.1,2.1,0,0,0,3.1.36,45.76,45.76,0,0,0,6.4-6c.46-.49,1-.92,1.4-1.31-.58.93-1.23,1.95-1.85,3a3.06,3.06,0,0,0-.21,3,2.41,2.41,0,0,0,3.89,1A13.48,13.48,0,0,0,158.24,78c1.19-1.6,2.31-3.25,3.38-4.93a15.72,15.72,0,0,1,3.7-4.12c1.62-1.24,3.22-2.5,4.86-3.72a12.8,12.8,0,0,1,9.42-2.39,42.8,42.8,0,0,1,5.16.66,10.87,10.87,0,0,1,7.35,6,38.27,38.27,0,0,1,3,8.81A76.91,76.91,0,0,1,196.89,89a67.66,67.66,0,0,1,0,11.8,51.6,51.6,0,0,1-3.32,14.67,37.28,37.28,0,0,1-11.4,15.65c-.15.12-.28.27-.52.49.8.06,1.48.13,2.16.16a54,54,0,0,0,18.5-2.3,35.76,35.76,0,0,0,8.66-4.56c10.52-6.9,17.47-16.52,21.57-28.32.5-1.44,1.08-2.86,1.64-4.29a6.86,6.86,0,0,1,.42-.74c.33,1.7.63,3.21.91,4.73q1.22,6.61,2.41,13.22a11.42,11.42,0,0,1,.2,2c0,4.86.08,9.72,0,14.58a40.43,40.43,0,0,1-.79,5.84c-.69,4-1.4,8-2.17,12a111.44,111.44,0,0,1-14,36.38A119.94,119.94,0,0,1,203.6,203.1a115.93,115.93,0,0,1-53,31.14A90.89,90.89,0,0,1,137,236.8c-4.32.48-8.64,1.06-13,1.3-3.79.21-7.6.11-11.4,0a79.84,79.84,0,0,1-8.75-.77c-4.27-.63-8.55-1.32-12.75-2.27A111.58,111.58,0,0,1,49,215.76a120.93,120.93,0,0,1-23-22.64,132.24,132.24,0,0,1-9.29-13.37c-.68-1.12-1.27-2.29-1.91-3.44Zm25-72.61.11.27.52-.11a33.46,33.46,0,0,1,7.73-1.1,48.18,48.18,0,0,1,13,1.56A97.37,97.37,0,0,1,79.52,111c8.64,4.11,17.22,8.33,25.86,12.42A97.75,97.75,0,0,0,116.15,128c5.57,1.86,11.24,3.41,16.92,4.89A134.68,134.68,0,0,0,163,137.62,82.75,82.75,0,0,0,176.6,137a100.51,100.51,0,0,0,13.76-2.79c.3-.09.6-.21,1-.35l-.2-.08a66.06,66.06,0,0,1-14.86-.62,85.43,85.43,0,0,1-17.22-4.48c-9.8-3.7-19.55-7.53-29.34-11.23-6.8-2.57-13.44-5.57-20.43-7.6-7.28-2.12-14.52-4.4-21.86-6.34A195.33,195.33,0,0,0,57,97.91a13.53,13.53,0,0,0-3.35-.09,26.59,26.59,0,0,0-7.8,2.54C43.86,101.35,41.93,102.48,40,103.55Z"/></g></g></svg>