<svg xmlns="http://www.w3.org/2000/svg" viewBox="0 0 524.54 124.41"><defs><style>.cls-1{fill:#544544;}.cls-2{fill:#ff236f;}.cls-3{fill:#ffae00;}.cls-4{fill:#00dacc;}</style></defs><title>marcacores</title><g id="Camada_2" data-name="Camada 2"><g id="Marca-_marca_sem_cores_cópia" data-name="Marca- marca sem cores cópia"><path class="cls-1" d="M83.2,33v4.2a1.18,1.18,0,0,0-.05.2c0,.37,0,.74-.09,1.11-.14.87-.32,1.73-.48,2.6s-.31,1.76-.51,2.64a26.42,26.42,0,0,1-1.13,3.84c-.47,1.18-1,2.35-1.49,3.51a18.4,18.4,0,0,1-1,1.93q-.85,1.41-1.77,2.78a30.7,30.7,0,0,1-3.19,4c-.71.75-1.47,1.47-2.24,2.16s-1.5,1.27-2.27,1.87a29.5,29.5,0,0,1-3.88,2.54c-.84.46-1.7.9-2.57,1.3s-1.66.74-2.52,1a24,24,0,0,1-3.51,1c-1,.2-2,.4-3,.55-.83.13-1.66.2-2.5.29-.63.07-1.26.13-1.89.16s-1.21,0-1.82,0c-.82,0-1.64-.07-2.47-.12-.35,0-.7,0-1-.09-.63-.08-1.26-.17-1.88-.28s-1.5-.26-2.24-.43a30.66,30.66,0,0,1-4.09-1.21c-.81-.31-1.62-.63-2.41-1s-1.46-.71-2.18-1.09-1.39-.76-2-1.2c-1-.65-1.9-1.33-2.82-2s-1.53-1.28-2.25-2a28.15,28.15,0,0,1-2.53-2.69c-.45-.55-.94-1.08-1.35-1.66-.79-1.1-1.55-2.22-2.3-3.34-.28-.41-.5-.86-.74-1.29l0-.05.16.06c.74.33,1.46.71,2.22,1a9.51,9.51,0,0,0,4,.59,11.49,11.49,0,0,0,2-.33A12.49,12.49,0,0,0,28.91,52a11.09,11.09,0,0,1,2.22-1.32c.72-.25,1.46-.46,2.2-.68s1.27-.36,1.9-.56a.63.63,0,0,0,.44-.69.73.73,0,0,0-.72-.56,4.47,4.47,0,0,0-.48.06l-.68.11c.3-.16.61-.26.92-.39.53-.23,1-.48,1.56-.73a.51.51,0,0,0,.33-.49.72.72,0,0,0-1-.65c-.52.18-1,.4-1.53.59l-.89.31a.25.25,0,0,1,.11-.13l2.52-1.59a.61.61,0,0,0,.26-.68.74.74,0,0,0-1.21-.39L32.8,45.5l-.51.31c.23-.26.47-.51.71-.75l1.35-1.35a.53.53,0,0,0,0-.71c-.26-.34-.49-.41-.81-.23a5.27,5.27,0,0,0-.75.5c-.74.6-1.46,1.21-2.19,1.82l-.79.65,0-.11.66-1c.17-.26.29-.54.08-.83s-.55-.55-.91-.28a2.91,2.91,0,0,0-1,1.38,4.83,4.83,0,0,1-.31.72,6.19,6.19,0,0,1-1.51,2,7.74,7.74,0,0,1-1.06.76,5.13,5.13,0,0,1-3.23.62,5.3,5.3,0,0,1-1.54-.44,6,6,0,0,1-2.13-1.63,7,7,0,0,1-1.14-1.93,7.13,7.13,0,0,1-.51-3.49c.07-.63.17-1.26.29-1.88a13.11,13.11,0,0,1,1.59-4.05,17.49,17.49,0,0,1,2.56-3.33c.37-.38.78-.72,1.18-1.07a13,13,0,0,1,2.92-1.89l.32-.16a1.51,1.51,0,0,0-.45,0l-1.62.16a14.65,14.65,0,0,0-2.56.56A14.06,14.06,0,0,0,18.75,31a10.78,10.78,0,0,0-2.24,1.63,15.93,15.93,0,0,0-1.42,1.58,12.73,12.73,0,0,0-1.84,3.27c-.1.26-.22.52-.33.8a1.19,1.19,0,0,1-.41-.8c0-1.55,0-3.09,0-4.64a2.57,2.57,0,0,1,0-.44c.14-.77.29-1.55.44-2.32.2-1,.39-2.06.63-3.08a27.74,27.74,0,0,1,1.14-3.88c.43-1.1.89-2.18,1.37-3.26.25-.57.55-1.12.85-1.67s.76-1.34,1.18-2a27.88,27.88,0,0,1,2.43-3.33c.66-.76,1.31-1.53,2-2.24s1.47-1.42,2.22-2.11a19,19,0,0,1,1.48-1.22c.79-.59,1.6-1.16,2.42-1.69s1.53-.94,2.32-1.37,1.4-.72,2.11-1c1-.42,1.93-.82,2.92-1.18a23.41,23.41,0,0,1,2.28-.71Q40,.9,41.57.59C42.27.45,43,.38,43.68.3s1.32-.15,2-.2,1,0,1.56,0A.73.73,0,0,0,47.4,0h1.51A.36.36,0,0,0,49,.05l2.4.13c.44,0,.89.06,1.32.13.73.11,1.45.23,2.17.36a28.65,28.65,0,0,1,3.87,1,26.13,26.13,0,0,1,3.65,1.46c1,.51,2,1,3,1.59s1.89,1.2,2.81,1.83c.61.42,1.19.89,1.77,1.36s.88.74,1.29,1.13c.68.64,1.34,1.3,2,2,.16.16.28.34.43.51a.26.26,0,0,1-.2,0,9,9,0,0,0-3.62-.8,17.63,17.63,0,0,0-1.95,0,5.77,5.77,0,0,0-1.25.19c-1,.3-2.08.64-3.11,1a25,25,0,0,0-3.37,1.39,4.49,4.49,0,0,1-.79.29L57,14.22c-.64.18-1.29.35-1.91.58s-.77.55-.54,1.08a.75.75,0,0,0,.75.53l1.23-.18.65-.11a.31.31,0,0,1-.14.14c-.89.48-1.79.94-2.68,1.43a13.21,13.21,0,0,0-2,1.17.76.76,0,0,0-.23,1,.69.69,0,0,0,1,.32l2.47-1.07.65-.26c-1,.74-1.94,1.43-2.91,2.13a.94.94,0,0,0-.52.89,1,1,0,0,0,.5.75.67.67,0,0,0,.75-.1l2.58-1.85.58-.38a2,2,0,0,1-.26.35c-.6.65-1.21,1.3-1.82,1.94A.89.89,0,0,0,55,23.87a.63.63,0,0,0,.84.14c.19-.16.4-.29.58-.46.47-.45.92-.92,1.38-1.38l.55-.56c-.15.3-.33.56-.5.83a1.28,1.28,0,0,0-.29.86A.82.82,0,0,0,58,24a.59.59,0,0,0,.73-.06,7.7,7.7,0,0,0,.9-1c.43-.57.76-1.22,1.22-1.76a8.61,8.61,0,0,1,2.51-2,7.47,7.47,0,0,1,3.26-.91,8.24,8.24,0,0,1,1.75.13,7.42,7.42,0,0,1,2.41.9,9.13,9.13,0,0,1,2.62,2.31,10.58,10.58,0,0,1,1.36,2.34,11.16,11.16,0,0,1,.92,3.88,21,21,0,0,1-.07,2.43,9.35,9.35,0,0,1-.48,2.23,11.06,11.06,0,0,1-.92,2.09,10.13,10.13,0,0,1-1.34,1.86A8.4,8.4,0,0,1,71,38a7.57,7.57,0,0,1-2.56,1l-.56.11v.06l1.49-.1a10.82,10.82,0,0,0,2.29-.38,15.18,15.18,0,0,0,1.74-.59,8.43,8.43,0,0,0,1.07-.6,14.56,14.56,0,0,0,2.63-2c.57-.54,1.1-1.14,1.62-1.73a13.28,13.28,0,0,0,1.62-2.44A20.19,20.19,0,0,0,81.71,28a8.35,8.35,0,0,1,.36-.82h.06c.14.76.27,1.52.41,2.28l.57,3.07ZM24.48,30.75l0,0h.11a19,19,0,0,1,1.88-.3,12.21,12.21,0,0,1,2.74.14,20.55,20.55,0,0,1,2.71.64,41,41,0,0,1,5.75,2.41c1.14.55,2.26,1.13,3.4,1.67,1.34.64,2.68,1.26,4,1.87.57.26,1.14.53,1.74.74s1.35.43,2,.62c.93.27,1.86.53,2.8.77s1.85.45,2.79.65,1.67.32,2.5.45c.56.09,1.13.15,1.69.21s1.3.14,1.95.16c.94,0,1.88,0,2.83,0a15.05,15.05,0,0,0,1.76-.17c.86-.14,1.72-.31,2.58-.49.44-.09.87-.22,1.31-.33v-.06c-.18,0-.37,0-.55,0-.54,0-1.08,0-1.62,0s-1.19-.07-1.78-.17a23.67,23.67,0,0,1-2.5-.48c-1.11-.3-2.22-.65-3.3-1-1.35-.48-2.69-1-4-1.52L51.56,35.1l-3.22-1.24c-.89-.34-1.78-.68-2.69-1q-2-.67-4.11-1.28-1.57-.47-3.17-.86c-1-.26-2.1-.5-3.16-.73-.6-.13-1.21-.23-1.81-.34s-1-.2-1.58-.28-1.12-.14-1.67-.21c-.33,0-.65-.09-1-.11a3,3,0,0,0-.7,0,9.79,9.79,0,0,0-3.2,1.19C25,30.4,24.75,30.58,24.48,30.75Z"/><path class="cls-1" d="M21.31,85a3.23,3.23,0,0,1,1.12-.08,9.48,9.48,0,0,1,1.1.17,5.41,5.41,0,0,1,2.81,1.59,5.6,5.6,0,0,1,1.58,2.89,6.54,6.54,0,0,1-1.84,6.07,9.71,9.71,0,0,1-2.69,1.84,9.6,9.6,0,0,1-2.69.84,21.84,21.84,0,0,1-2.8.24q-1.27,0-2.53-.1t-2.5-.31q-.15,2.26-.43,4.48T11.77,107q-.39,2.07-1,4.13a31.27,31.27,0,0,1-1.4,4A17.31,17.31,0,0,1,8.5,117a10.28,10.28,0,0,1-1.15,1.61,8.37,8.37,0,0,1-1.5,1.47,4.55,4.55,0,0,1-1.93.87.85.85,0,0,1-.56-.08,1.2,1.2,0,0,1-.43-.36,1,1,0,0,1-.19-.53.94.94,0,0,1,.58-.92l.51-.22a3.59,3.59,0,0,0,.52-.22,3.44,3.44,0,0,0,.51-.32A7.33,7.33,0,0,0,6.7,116.1a18.23,18.23,0,0,0,1.19-2.58,32.16,32.16,0,0,0,1.79-6.23q.59-3.22.92-6.48.17-1.44.28-3a15.06,15.06,0,0,0-3-.1A10.64,10.64,0,0,0,5,98.29,6.06,6.06,0,0,0,3.56,99a3.43,3.43,0,0,0-1.09,1.14A2.93,2.93,0,0,0,2,101.58a3.51,3.51,0,0,0,.28,1.54,4.47,4.47,0,0,0,.83,1.2,2,2,0,0,0,1.3.63,1,1,0,0,0,.38,0l.36-.07.34-.13a1,1,0,0,1,.35-.07,1.15,1.15,0,0,1,.58.18.85.85,0,0,1,.37.5,1,1,0,0,1,0,.65,1.14,1.14,0,0,1-.36.46,1.65,1.65,0,0,1-.56.3,5.92,5.92,0,0,1-.61.15,3.6,3.6,0,0,1-1.64-.06,4.91,4.91,0,0,1-1.49-.68,5.37,5.37,0,0,1-1.87-2.66,5.46,5.46,0,0,1-.09-3.24,5.26,5.26,0,0,1,1.74-2.58,7.26,7.26,0,0,1,2.79-1.41A11.69,11.69,0,0,1,8,95.91q1.64,0,3.25.22l.35,0,.26-.05a.89.89,0,0,1,.58.16q1.12.13,2.22.21a19.55,19.55,0,0,0,2.22,0,11.38,11.38,0,0,0,1.73-.19,5.55,5.55,0,0,0,1.62-.59,6.51,6.51,0,0,0,1.63-1.34,7.1,7.1,0,0,0,.87-1.21,4.27,4.27,0,0,0,.51-1.45A2.73,2.73,0,0,0,23,90.28a4.43,4.43,0,0,0-.82-1.23,3.88,3.88,0,0,0-.76-.64,8.71,8.71,0,0,1-.82-.6,1.73,1.73,0,0,1-.52-1.12,1.5,1.5,0,0,1,.36-1.15A1.79,1.79,0,0,1,21.31,85Z"/><path class="cls-1" d="M19.82,115.23a9.45,9.45,0,0,1-1.9-.3,8,8,0,0,1-2.17-.91,7,7,0,0,1-.8-.58,4.91,4.91,0,0,1-.65-.68,4.82,4.82,0,0,1-.62-1.28,3.2,3.2,0,0,1-.1-1.46,5,5,0,0,1,.72-1.89,6.52,6.52,0,0,1,1.53-1.69A8.29,8.29,0,0,1,18.49,105a9.39,9.39,0,0,1,3.18-.46,1.46,1.46,0,0,1,.94.3.91.91,0,0,1,.4.68.81.81,0,0,1-.45.63,1.65,1.65,0,0,1-1,.2,4.74,4.74,0,0,0-2.16.33,5.37,5.37,0,0,0-1.41.84,5.18,5.18,0,0,0-1.15,1.34,3.69,3.69,0,0,0-.54,1.53,1.93,1.93,0,0,0,0,.55,2.36,2.36,0,0,0,.19.85,2.57,2.57,0,0,0,.59.86,2.53,2.53,0,0,0,1.23.61,3.84,3.84,0,0,0,2.84-.39l.49-.34a7,7,0,0,1-1.91-1.21,2.71,2.71,0,0,1-1.1-2.73,2.38,2.38,0,0,1,1.22-1.46,3.93,3.93,0,0,1,1-.39,4.7,4.7,0,0,1,1.18-.14,3.82,3.82,0,0,1,2.07.51,2.83,2.83,0,0,1,1.3,1.43,4.62,4.62,0,0,1,0,2.7,1.89,1.89,0,0,0,.67-.46,2.52,2.52,0,0,0,.52-.89,1,1,0,0,1,.63-.56,1.72,1.72,0,0,1,1-.05,1.37,1.37,0,0,1,.82.53.85.85,0,0,1,.15.79,3.4,3.4,0,0,1-1.07,1.7,4.37,4.37,0,0,1-1.38.78,6.16,6.16,0,0,1-2.41.25l-.57.56a4,4,0,0,1-.63.49,4.47,4.47,0,0,1-2.24.78A6,6,0,0,1,19.82,115.23Zm2.3-6.76a1.34,1.34,0,0,0-.49.14.55.55,0,0,0-.3.47,1,1,0,0,0,.21,1.06,3.09,3.09,0,0,0,1.13.83l0-.06a3.15,3.15,0,0,0,.22-1.09,2.36,2.36,0,0,0-.14-.91.56.56,0,0,0-.53-.44Z"/><path class="cls-1" d="M33.27,115.24a8.94,8.94,0,0,1-2.12-.24,5.89,5.89,0,0,1-3-1.73,4.64,4.64,0,0,1-1.19-3,4.27,4.27,0,0,1,0-1.15,8.07,8.07,0,0,1,1.5-3.37,7.55,7.55,0,0,1,2.05-2.05,6.42,6.42,0,0,1,2.48-1,3.78,3.78,0,0,1,1.9.12,2.68,2.68,0,0,1,1.44,1,2.48,2.48,0,0,1,.53,2.06,4.26,4.26,0,0,1-1.17,2.31,1.42,1.42,0,0,1-.9.39,1.5,1.5,0,0,1-1-.24,1.08,1.08,0,0,1-.57-.73.83.83,0,0,1,.25-.78,2.43,2.43,0,0,0,.65-1.13A.87.87,0,0,0,34,105a.47.47,0,0,0-.51-.19,2.93,2.93,0,0,0-1.36.62,5.85,5.85,0,0,0-1.26,1.37,6.27,6.27,0,0,0-.93,1.82,6.21,6.21,0,0,0-.31,1.88,2.91,2.91,0,0,0,.09.73,2.8,2.8,0,0,0,.29.72,2,2,0,0,0,.56.61,2.35,2.35,0,0,0,.89.4,4.79,4.79,0,0,0,4.72-1.56,7.21,7.21,0,0,0,1.28-1.78c.27-.57.42-.86.44-.89a1,1,0,0,1,.67-.62,1.59,1.59,0,0,1,1,0,1.38,1.38,0,0,1,.8.6,1.09,1.09,0,0,1,.13.89,2.46,2.46,0,0,0-.17.36q-.14.31-.4.79t-.63,1.06a6.22,6.22,0,0,1-.93,1.12,7.31,7.31,0,0,1-1.32,1.18,6.32,6.32,0,0,1-1.5.77A7.85,7.85,0,0,1,33.27,115.24Z"/><path class="cls-1" d="M42.46,115a4.52,4.52,0,0,1-1.89-.36,4.09,4.09,0,0,1-2.26-2.21,5,5,0,0,1-.34-2.73,10.63,10.63,0,0,1,.78-2.75,14.64,14.64,0,0,1,1.53-2.77,12.34,12.34,0,0,1,2.06-2.3,6.49,6.49,0,0,1,2.75-1.39,6.05,6.05,0,0,1,4.17.66,3.92,3.92,0,0,1,.89.68q.24.28.54.58a1.12,1.12,0,0,1,.25,1,1.42,1.42,0,0,1-.54.79,1.45,1.45,0,0,1-1,.26,1.38,1.38,0,0,1-1-.61l-.11-.07h0a4.51,4.51,0,0,0-.62-.54,2.87,2.87,0,0,0-3.53.47,8.86,8.86,0,0,0-1.49,1.71,14.1,14.1,0,0,0-1.24,2.25,8.42,8.42,0,0,0-.69,2.43,3.28,3.28,0,0,0,0,.58,3.62,3.62,0,0,0,.09.71A2.29,2.29,0,0,0,41,112a1,1,0,0,0,.53.45.58.58,0,0,0,.31.08,1.15,1.15,0,0,0,.46-.09,4,4,0,0,0,1.25-.88,10.34,10.34,0,0,0,1.82-2.78c.16-.39.33-.75.48-1.1a8,8,0,0,0,.38-1l.21-.67a4.14,4.14,0,0,1,.26-.64,1.29,1.29,0,0,1,.95-.8l.18,0a.54.54,0,0,0,.23,0,.33.33,0,0,1,.24,0h0s0,0,.1,0a1.44,1.44,0,0,1,.73.62,1.29,1.29,0,0,1,.15,1l-.51,1.39a9.78,9.78,0,0,0-.33,2.49,3.74,3.74,0,0,0,.36,1.8.56.56,0,0,0,.13.21l.11.08.21,0a.62.62,0,0,0,.32-.1,3.46,3.46,0,0,0,1-1,9.94,9.94,0,0,0,1-1.82q.39-1,.6-1.67l.22-.76a1.27,1.27,0,0,1,.63-.81,1.33,1.33,0,0,1,1-.15,1.36,1.36,0,0,1,.84.62,1.41,1.41,0,0,1,.18,1.07,7.81,7.81,0,0,1-.25.88q-.26.83-.69,2c-.91,2.15-1.95,3.47-3.12,4a2.84,2.84,0,0,1-1.16.35,3.12,3.12,0,0,1-1.41-.21,3.58,3.58,0,0,1-2.08-1.74.74.74,0,0,1-.15-.29l-.11.14a6.16,6.16,0,0,1-2.55,2A3.69,3.69,0,0,1,42.46,115Zm5.84-11.21c0,.06,0,.08.06.08S48.31,103.79,48.3,103.74Z"/><path class="cls-1" d="M51.76,118.7a1.51,1.51,0,0,1-1-.35,1.45,1.45,0,0,1-.58-.89,1,1,0,0,1,.15-1,1.25,1.25,0,0,1,.84-.47q2.94-.32,5.87-.71.49-1.42,1-2.87a4,4,0,0,1-2.87-.15,4.14,4.14,0,0,1-2.28-2.36,6.32,6.32,0,0,1-.35-3,11.78,11.78,0,0,1,.75-3,16.22,16.22,0,0,1,1.5-3,11.9,11.9,0,0,1,2.28-2.68A5.92,5.92,0,0,1,59.53,97a5.37,5.37,0,0,1,2.42,0,5.19,5.19,0,0,1,1.55.66,3.58,3.58,0,0,1,.89.91l.35.55A1.47,1.47,0,0,1,65,100.3a1.4,1.4,0,0,1-.67.83,1.52,1.52,0,0,1-1.07.15,1.38,1.38,0,0,1-.93-.78.73.73,0,0,0-.16-.21,1.83,1.83,0,0,0-.41-.32,2.21,2.21,0,0,0-.72-.25,2.66,2.66,0,0,0-1.09.07,2.82,2.82,0,0,0-1.39.84,10.87,10.87,0,0,0-1.48,1.84,13.52,13.52,0,0,0-1.19,2.44,9.83,9.83,0,0,0-.59,2.38,4.58,4.58,0,0,0,0,1.47,1.24,1.24,0,0,0,.74,1,1,1,0,0,0,1-.05,3.62,3.62,0,0,0,1.39-1.21,12.8,12.8,0,0,0,1.4-2.47c.39-.92.71-1.74,1-2.45l.23-.79a1.62,1.62,0,0,1,.71-.88,1.21,1.21,0,0,1,1-.11,1.16,1.16,0,0,1,.8.68,1.72,1.72,0,0,1,.13,1.14c-.06,0-.16.32-.3.92q-1,3.45-2.09,6.77c.36-.38.72-.76,1.06-1.15a7.42,7.42,0,0,0,.94-1.33,12.15,12.15,0,0,0,.78-1.73,15.48,15.48,0,0,0,.63-2.37,1.48,1.48,0,0,1,.58-.92,1.22,1.22,0,0,1,1-.2,1.33,1.33,0,0,1,.84.68,1.58,1.58,0,0,1,.17,1.14,19.33,19.33,0,0,1-.79,3,13.8,13.8,0,0,1-1.15,2.44,14.2,14.2,0,0,1-1.27,1.72,15.34,15.34,0,0,1-1.36,1.38l-.7.68,2.27-.36a1.36,1.36,0,0,1,1,.29,1.71,1.71,0,0,1,.63,1,1.4,1.4,0,0,1-.16,1.1,1.25,1.25,0,0,1-.88.6q-2.72.35-5.44.64a17.44,17.44,0,0,0-1.2,2.44l-.82,2.47-.26.82a1,1,0,0,1-1,.76,1.66,1.66,0,0,1-1.55-2.11l.21-.56a.65.65,0,0,1,0-.28l.45-1.37c.15-.44.3-.87.46-1.29l.18-.48q-2.11.21-4.23.38Z"/><path class="cls-1" d="M69.33,112.31a2.27,2.27,0,0,1-.48,0,2.2,2.2,0,0,1-.5-.09,3.65,3.65,0,0,1-2.65-2.05c-1-1.84-1.06-4.75-.1-9q.46-2.22,1-3.84c.33-1.08.52-1.67.57-1.75a1.43,1.43,0,0,1,.69-.91,1.24,1.24,0,0,1,1.07-.08,1.26,1.26,0,0,1,.77.78,1.79,1.79,0,0,1,0,1.23,14,14,0,0,0-.51,1.58q-.46,1.56-.9,3.67c-.24,1.18-.39,2.17-.47,3a17,17,0,0,0-.1,2,5.21,5.21,0,0,0,.13,1.21,2.32,2.32,0,0,0,.24.61.75.75,0,0,0,.63.47,1,1,0,0,0,.77-.35,5.48,5.48,0,0,0,.95-1.25,24.51,24.51,0,0,0,2.18-5.41l.82-3c0-.19.06-.37.1-.52s.09-.34.15-.54q.23-1.17.49-2.33t.45-2.33a2,2,0,0,1,.6-1.09,1.13,1.13,0,0,1,1-.33,1.27,1.27,0,0,1,.86.65,1.69,1.69,0,0,1,.19,1.22c0,.08-.13.71-.34,1.87S76.4,98.32,76,100l-.49,2.49c-.15.79-.27,1.5-.36,2.16A9.82,9.82,0,0,0,75,106.8a1.87,1.87,0,0,0,.19.77c0,.11.1.17.26.17s.4-.12.71-.48a7.88,7.88,0,0,0,1.07-2,15.35,15.35,0,0,0,.87-2.49c.19-.77.28-1.18.28-1.22a1.8,1.8,0,0,1,.66-1,1,1,0,0,1,1-.16,1.18,1.18,0,0,1,.84.77,2.28,2.28,0,0,1,.13,1.32s-.15.52-.37,1.41a22.49,22.49,0,0,1-1,2.94,18.25,18.25,0,0,1-.83,1.71,9.63,9.63,0,0,1-.84,1.29,3.27,3.27,0,0,1-1.7,1.25A2.51,2.51,0,0,1,75,111a3.32,3.32,0,0,1-2.12-1.73l0-.11-.23.32a7.91,7.91,0,0,1-.83,1.26,5.39,5.39,0,0,1-.89.88A3.53,3.53,0,0,1,69.33,112.31Z"/><path class="cls-1" d="M83.56,110.18a2.05,2.05,0,0,1-1.07,0,3.79,3.79,0,0,1-2.25-1,5.24,5.24,0,0,1-1.14-1.57c-.74-1.58-.86-3.7-.39-6.43a28.32,28.32,0,0,1,.87-3.89C80,96,80.34,94.93,80.7,94a1.64,1.64,0,0,1,.74-1,1,1,0,0,1,1,0,1.44,1.44,0,0,1,.72.89,2.1,2.1,0,0,1,0,1.39q-.67,1.82-1.1,3.45t-.68,3a10.47,10.47,0,0,0-.17,2.87,6.47,6.47,0,0,0,.29,1.29,1.56,1.56,0,0,0,.37.48,1.75,1.75,0,0,0,.81.32.92.92,0,0,0,.37,0,2.27,2.27,0,0,0,1.37-1.25,15,15,0,0,0,.94-2q.26-.73.5-1.5c.16-.51.29-1,.38-1.36l.32-1.31a1.91,1.91,0,0,1,.61-1.13,1.05,1.05,0,0,1,1-.27,1.34,1.34,0,0,1,.84.78,2.19,2.19,0,0,1,.17,1.36,3.19,3.19,0,0,1-.09.52c-.07.31-.15.7-.25,1.16s-.25,1-.43,1.58-.38,1.17-.61,1.77a10.93,10.93,0,0,1-2.16,3.81A4.37,4.37,0,0,1,83.56,110.18ZM85.2,89.11a1,1,0,0,1-.87-.11,1.5,1.5,0,0,1-.71-.91,2.19,2.19,0,0,1,.08-1.38l.52-1.28a2,2,0,0,1,.79-1,.87.87,0,0,1,1,0,1.33,1.33,0,0,1,.73.93,2.25,2.25,0,0,1-.1,1.39L86.17,88A1.75,1.75,0,0,1,85.2,89.11Z"/><path class="cls-1" d="M90.94,110.45a.91.91,0,0,1-.25,0l-.26,0a1.7,1.7,0,0,1-.88-.85,2,2,0,0,1-.22-1.36l.16-1.16a1.79,1.79,0,0,1,.55-1.2,1.08,1.08,0,0,1,1-.31,1.61,1.61,0,0,1,.88.8,2.37,2.37,0,0,1,.26,1.4L92,108.93Q91.84,110.25,90.94,110.45Zm1.31-9.87a.92.92,0,0,1-.25,0l-.26,0a1.52,1.52,0,0,1-.88-.76,2.07,2.07,0,0,1-.22-1.39q1.27-10,2.54-20.4a2.52,2.52,0,0,1,.52-1.37,1.15,1.15,0,0,1,1-.51,1.21,1.21,0,0,1,.88.64,2,2,0,0,1,.26,1.32Q94.61,88.73,93.34,99C93.22,99.87,92.85,100.4,92.26,100.57Z"/><path class="cls-2" d="M231.08,33v4.2a1.18,1.18,0,0,0-.05.2c0,.37,0,.74-.09,1.11-.14.87-.32,1.73-.48,2.6s-.31,1.76-.51,2.64a26.42,26.42,0,0,1-1.13,3.84c-.47,1.18-1,2.35-1.49,3.51a18.4,18.4,0,0,1-1,1.93q-.85,1.41-1.77,2.78a30.7,30.7,0,0,1-3.19,4c-.71.75-1.47,1.47-2.24,2.16s-1.5,1.27-2.27,1.87a29.5,29.5,0,0,1-3.88,2.54c-.84.46-1.7.9-2.57,1.3s-1.66.74-2.52,1a24,24,0,0,1-3.51,1c-1,.2-2,.4-3,.55-.83.13-1.66.2-2.5.29-.63.07-1.26.13-1.89.16s-1.21,0-1.82,0c-.82,0-1.64-.07-2.47-.12-.35,0-.7,0-1-.09-.63-.08-1.26-.17-1.88-.28s-1.5-.26-2.24-.43a30.66,30.66,0,0,1-4.09-1.21c-.81-.31-1.62-.63-2.41-1s-1.46-.71-2.18-1.09-1.39-.76-2-1.2c-1-.65-1.9-1.33-2.82-2s-1.53-1.28-2.25-2a28.15,28.15,0,0,1-2.53-2.69c-.45-.55-.94-1.08-1.35-1.66-.79-1.1-1.55-2.22-2.3-3.34-.28-.41-.5-.86-.74-1.29l0-.05.16.06c.74.33,1.46.71,2.22,1a9.51,9.51,0,0,0,4,.59,11.49,11.49,0,0,0,2-.33A12.49,12.49,0,0,0,176.79,52,11.09,11.09,0,0,1,179,50.65c.72-.25,1.46-.46,2.2-.68s1.27-.36,1.9-.56a.63.63,0,0,0,.44-.69.73.73,0,0,0-.72-.56,4.47,4.47,0,0,0-.48.06l-.68.11c.3-.16.61-.26.92-.39.53-.23,1-.48,1.56-.73a.51.51,0,0,0,.33-.49.72.72,0,0,0-1-.65c-.52.18-1,.4-1.53.59l-.89.31a.25.25,0,0,1,.11-.13l2.52-1.59a.61.61,0,0,0,.26-.68.74.74,0,0,0-1.21-.39l-2.08,1.34-.51.31c.23-.26.47-.51.71-.75l1.35-1.35a.53.53,0,0,0,0-.71c-.26-.34-.49-.41-.81-.23a5.27,5.27,0,0,0-.75.5c-.74.6-1.46,1.21-2.19,1.82l-.79.65,0-.11.66-1c.17-.26.29-.54.08-.83s-.55-.55-.91-.28a2.91,2.91,0,0,0-1,1.38,4.83,4.83,0,0,1-.31.72,6.19,6.19,0,0,1-1.51,2,7.74,7.74,0,0,1-1.06.76,5.13,5.13,0,0,1-3.23.62,5.3,5.3,0,0,1-1.54-.44,6,6,0,0,1-2.13-1.63,7,7,0,0,1-1.14-1.93,7.13,7.13,0,0,1-.51-3.49c.07-.63.17-1.26.29-1.88a13.11,13.11,0,0,1,1.59-4.05,17.49,17.49,0,0,1,2.56-3.33c.37-.38.78-.72,1.18-1.07a13,13,0,0,1,2.92-1.89l.32-.16a1.51,1.51,0,0,0-.45,0l-1.62.16a14.65,14.65,0,0,0-2.56.56A14.06,14.06,0,0,0,166.64,31a10.78,10.78,0,0,0-2.24,1.63A15.93,15.93,0,0,0,163,34.19a12.73,12.73,0,0,0-1.84,3.27c-.1.26-.22.52-.33.8a1.19,1.19,0,0,1-.41-.8c0-1.55,0-3.09,0-4.64a2.57,2.57,0,0,1,0-.44c.14-.77.29-1.55.44-2.32.2-1,.39-2.06.63-3.08a27.74,27.74,0,0,1,1.14-3.88c.43-1.1.89-2.18,1.37-3.26.25-.57.55-1.12.85-1.67s.76-1.34,1.18-2a27.88,27.88,0,0,1,2.43-3.33c.66-.76,1.31-1.53,2-2.24S172,9.2,172.75,8.51a19,19,0,0,1,1.48-1.22c.79-.59,1.6-1.16,2.42-1.69s1.53-.94,2.32-1.37,1.4-.72,2.11-1C182,2.77,183,2.38,184,2a23.41,23.41,0,0,1,2.28-.71q1.58-.4,3.18-.72c.69-.14,1.4-.21,2.11-.29s1.32-.15,2-.2,1,0,1.56,0a.73.73,0,0,0,.18-.05h1.51a.36.36,0,0,0,.11.05l2.4.13c.44,0,.89.06,1.32.13.73.11,1.45.23,2.17.36a28.65,28.65,0,0,1,3.87,1,26.13,26.13,0,0,1,3.65,1.46c1,.51,2,1,3,1.59s1.89,1.2,2.81,1.83c.61.42,1.19.89,1.77,1.36s.88.74,1.29,1.13c.68.64,1.34,1.3,2,2,.16.16.28.34.43.51a.26.26,0,0,1-.2,0,9,9,0,0,0-3.62-.8,17.63,17.63,0,0,0-1.95,0,5.77,5.77,0,0,0-1.25.19c-1,.3-2.08.64-3.11,1a25,25,0,0,0-3.37,1.39,4.49,4.49,0,0,1-.79.29l-2.44.65c-.64.18-1.29.35-1.91.58s-.77.55-.54,1.08a.75.75,0,0,0,.75.53l1.23-.18.65-.11a.31.31,0,0,1-.14.14c-.89.48-1.79.94-2.68,1.43a13.21,13.21,0,0,0-2,1.17.76.76,0,0,0-.23,1,.69.69,0,0,0,1,.32l2.47-1.07.65-.26c-1,.74-1.94,1.43-2.91,2.13a.94.94,0,0,0-.52.89,1,1,0,0,0,.5.75.67.67,0,0,0,.75-.1l2.58-1.85.58-.38a2,2,0,0,1-.26.35c-.6.65-1.21,1.3-1.82,1.94a.89.89,0,0,0-.09,1.27.63.63,0,0,0,.84.14c.19-.16.4-.29.58-.46.47-.45.92-.92,1.38-1.38l.55-.56c-.15.3-.33.56-.5.83a1.28,1.28,0,0,0-.29.86.82.82,0,0,0,.41.65.59.59,0,0,0,.73-.06,7.7,7.7,0,0,0,.9-1c.43-.57.76-1.22,1.22-1.76a8.61,8.61,0,0,1,2.51-2,7.47,7.47,0,0,1,3.26-.91,8.24,8.24,0,0,1,1.75.13,7.42,7.42,0,0,1,2.41.9,9.13,9.13,0,0,1,2.62,2.31,10.58,10.58,0,0,1,1.36,2.34,11.16,11.16,0,0,1,.92,3.88,21,21,0,0,1-.07,2.43,9.35,9.35,0,0,1-.48,2.23,11.06,11.06,0,0,1-.92,2.09,10.13,10.13,0,0,1-1.34,1.86A8.4,8.4,0,0,1,218.85,38a7.57,7.57,0,0,1-2.56,1l-.56.11v.06l1.49-.1a10.82,10.82,0,0,0,2.29-.38,15.18,15.18,0,0,0,1.74-.59,8.43,8.43,0,0,0,1.07-.6,14.56,14.56,0,0,0,2.63-2c.57-.54,1.1-1.14,1.62-1.73a13.28,13.28,0,0,0,1.62-2.44,20.19,20.19,0,0,0,1.4-3.37,8.35,8.35,0,0,1,.36-.82H230c.14.76.27,1.52.41,2.28l.57,3.07Zm-58.72-2.23,0,0h.11a19,19,0,0,1,1.88-.3,12.21,12.21,0,0,1,2.74.14,20.55,20.55,0,0,1,2.71.64,41,41,0,0,1,5.75,2.41c1.14.55,2.26,1.13,3.4,1.67,1.34.64,2.68,1.26,4,1.87.57.26,1.14.53,1.74.74s1.35.43,2,.62c.93.27,1.86.53,2.8.77s1.85.45,2.79.65,1.67.32,2.5.45c.56.09,1.13.15,1.69.21s1.3.14,1.95.16c.94,0,1.88,0,2.83,0a15.05,15.05,0,0,0,1.76-.17c.86-.14,1.72-.31,2.58-.49.44-.09.87-.22,1.31-.33v-.06c-.18,0-.37,0-.55,0-.54,0-1.08,0-1.62,0s-1.19-.07-1.78-.17a23.67,23.67,0,0,1-2.5-.48c-1.11-.3-2.22-.65-3.3-1-1.35-.48-2.69-1-4-1.52l-3.72-1.45-3.22-1.24c-.89-.34-1.78-.68-2.69-1q-2-.67-4.11-1.28-1.57-.47-3.17-.86c-1-.26-2.1-.5-3.16-.73-.6-.13-1.21-.23-1.81-.34s-1-.2-1.58-.28-1.12-.14-1.67-.21c-.33,0-.65-.09-1-.11a3,3,0,0,0-.7,0,9.79,9.79,0,0,0-3.2,1.19C172.89,30.4,172.63,30.58,172.36,30.75Z"/><path class="cls-2" d="M169.19,85a3.23,3.23,0,0,1,1.12-.08,9.48,9.48,0,0,1,1.1.17,5.41,5.41,0,0,1,2.81,1.59,5.6,5.6,0,0,1,1.58,2.89A6.54,6.54,0,0,1,174,95.6a9.71,9.71,0,0,1-2.69,1.84,9.6,9.6,0,0,1-2.69.84,21.84,21.84,0,0,1-2.8.24q-1.27,0-2.53-.1t-2.5-.31q-.15,2.26-.43,4.48t-.67,4.46q-.39,2.07-1,4.13a31.27,31.27,0,0,1-1.4,4,17.31,17.31,0,0,1-.91,1.8,10.28,10.28,0,0,1-1.15,1.61,8.37,8.37,0,0,1-1.5,1.47,4.55,4.55,0,0,1-1.93.87.85.85,0,0,1-.56-.08,1.2,1.2,0,0,1-.43-.36,1,1,0,0,1-.19-.53.94.94,0,0,1,.58-.92l.51-.22a3.59,3.59,0,0,0,.52-.22,3.44,3.44,0,0,0,.51-.32,7.33,7.33,0,0,0,1.85-2.19,18.23,18.23,0,0,0,1.19-2.58,32.16,32.16,0,0,0,1.79-6.23q.59-3.22.92-6.48.17-1.44.28-3a15.06,15.06,0,0,0-3-.1,10.64,10.64,0,0,0-2.92.61,6.06,6.06,0,0,0-1.41.68,3.43,3.43,0,0,0-1.09,1.14,2.93,2.93,0,0,0-.46,1.48,3.51,3.51,0,0,0,.28,1.54,4.47,4.47,0,0,0,.83,1.2,2,2,0,0,0,1.3.63,1,1,0,0,0,.38,0l.36-.07.34-.13a1,1,0,0,1,.35-.07,1.15,1.15,0,0,1,.58.18.85.85,0,0,1,.37.5,1,1,0,0,1,0,.65,1.14,1.14,0,0,1-.36.46,1.65,1.65,0,0,1-.56.3,5.92,5.92,0,0,1-.61.15,3.6,3.6,0,0,1-1.64-.06,4.91,4.91,0,0,1-1.49-.68,5.37,5.37,0,0,1-1.87-2.66,5.46,5.46,0,0,1-.09-3.24,5.26,5.26,0,0,1,1.74-2.58,7.26,7.26,0,0,1,2.79-1.41,11.69,11.69,0,0,1,3.24-.36q1.64,0,3.25.22l.35,0,.26-.05a.89.89,0,0,1,.58.16q1.12.13,2.22.21a19.55,19.55,0,0,0,2.22,0,11.38,11.38,0,0,0,1.73-.19,5.55,5.55,0,0,0,1.62-.59,6.51,6.51,0,0,0,1.63-1.34,7.1,7.1,0,0,0,.87-1.21,4.27,4.27,0,0,0,.51-1.45,2.73,2.73,0,0,0-.21-1.45,4.43,4.43,0,0,0-.82-1.23,3.88,3.88,0,0,0-.76-.64,8.71,8.71,0,0,1-.82-.6,1.73,1.73,0,0,1-.52-1.12,1.5,1.5,0,0,1,.36-1.15A1.79,1.79,0,0,1,169.19,85Z"/><path class="cls-2" d="M167.71,115.23a9.45,9.45,0,0,1-1.9-.3,8,8,0,0,1-2.17-.91,6.83,6.83,0,0,1-.8-.58,3.77,3.77,0,0,1-1.27-2,3.15,3.15,0,0,1-.1-1.46,5,5,0,0,1,.72-1.89,6.52,6.52,0,0,1,1.53-1.69,8.31,8.31,0,0,1,2.64-1.41,9.39,9.39,0,0,1,3.18-.46,1.46,1.46,0,0,1,.94.3.91.91,0,0,1,.4.68.81.81,0,0,1-.45.63,1.65,1.65,0,0,1-1,.2,4.74,4.74,0,0,0-2.16.33,5.38,5.38,0,0,0-1.41.84,5.18,5.18,0,0,0-1.15,1.34,3.74,3.74,0,0,0-.54,1.53,1.92,1.92,0,0,0,0,.55,2.38,2.38,0,0,0,.19.85,2.58,2.58,0,0,0,.59.86,2.52,2.52,0,0,0,1.23.61,3.83,3.83,0,0,0,2.84-.39l.49-.34a7.05,7.05,0,0,1-1.91-1.21,2.7,2.7,0,0,1-1.1-2.73,2.38,2.38,0,0,1,1.22-1.46,3.92,3.92,0,0,1,1-.39,4.68,4.68,0,0,1,1.18-.14,3.82,3.82,0,0,1,2.07.51,2.82,2.82,0,0,1,1.3,1.43,4.63,4.63,0,0,1,0,2.7,1.9,1.9,0,0,0,.67-.46,2.48,2.48,0,0,0,.52-.89,1,1,0,0,1,.63-.56,1.72,1.72,0,0,1,1-.05,1.37,1.37,0,0,1,.82.53.85.85,0,0,1,.15.79,3.39,3.39,0,0,1-1.07,1.7,4.35,4.35,0,0,1-1.38.78,6.14,6.14,0,0,1-2.41.25l-.57.56a4,4,0,0,1-.63.49,4.47,4.47,0,0,1-2.24.78A6.05,6.05,0,0,1,167.71,115.23Zm2.3-6.76a1.34,1.34,0,0,0-.49.14.55.55,0,0,0-.3.47,1,1,0,0,0,.21,1.06,3.08,3.08,0,0,0,1.13.83l0-.06a3.13,3.13,0,0,0,.22-1.09,2.4,2.4,0,0,0-.14-.91.56.56,0,0,0-.53-.44Z"/><path class="cls-2" d="M181.15,115.24A8.93,8.93,0,0,1,179,115a5.89,5.89,0,0,1-3-1.73,4.66,4.66,0,0,1-1.19-3,4.31,4.31,0,0,1,0-1.15,7,7,0,0,1,.31-1.17,7,7,0,0,1,1.18-2.2,7.57,7.57,0,0,1,2.05-2.05,6.4,6.4,0,0,1,2.48-1,3.78,3.78,0,0,1,1.9.12,2.67,2.67,0,0,1,1.44,1,2.48,2.48,0,0,1,.53,2.06,4.25,4.25,0,0,1-1.17,2.31,1.41,1.41,0,0,1-.9.39,1.5,1.5,0,0,1-1-.24,1.07,1.07,0,0,1-.57-.73.83.83,0,0,1,.25-.78,2.43,2.43,0,0,0,.65-1.13.86.86,0,0,0-.12-.7.47.47,0,0,0-.51-.19,2.92,2.92,0,0,0-1.36.62,5.87,5.87,0,0,0-1.26,1.37,6.32,6.32,0,0,0-.93,1.82,6.21,6.21,0,0,0-.31,1.88,2.89,2.89,0,0,0,.38,1.45,2,2,0,0,0,.56.61,2.36,2.36,0,0,0,.89.4,4.79,4.79,0,0,0,4.72-1.56,7.12,7.12,0,0,0,1.28-1.79c.27-.57.41-.86.44-.89a1,1,0,0,1,.67-.62,1.59,1.59,0,0,1,1,0,1.38,1.38,0,0,1,.8.6,1.09,1.09,0,0,1,.13.89,2.72,2.72,0,0,0-.17.36c-.09.21-.22.47-.4.79s-.39.67-.63,1.06a6.2,6.2,0,0,1-.93,1.12A7.29,7.29,0,0,1,185,114.1a6.37,6.37,0,0,1-1.5.77A7.86,7.86,0,0,1,181.15,115.24Z"/><path class="cls-2" d="M190.34,115a4.52,4.52,0,0,1-1.89-.36,4.08,4.08,0,0,1-2.26-2.21,5,5,0,0,1-.34-2.73,10.69,10.69,0,0,1,.78-2.75,14.67,14.67,0,0,1,1.53-2.77,12.34,12.34,0,0,1,2.06-2.3,6.49,6.49,0,0,1,2.75-1.39,6.05,6.05,0,0,1,4.17.66,3.93,3.93,0,0,1,.89.68q.24.28.54.58a1.13,1.13,0,0,1,.25,1,1.41,1.41,0,0,1-.54.79,1.44,1.44,0,0,1-1,.26,1.38,1.38,0,0,1-1-.61l-.11-.07h0a4.74,4.74,0,0,0-.62-.54,2.87,2.87,0,0,0-3.53.47,8.86,8.86,0,0,0-1.49,1.71,13.91,13.91,0,0,0-1.24,2.25,8.42,8.42,0,0,0-.69,2.43,3.37,3.37,0,0,0,0,.58,3.69,3.69,0,0,0,.09.71,2.29,2.29,0,0,0,.26.68,1,1,0,0,0,.53.45.58.58,0,0,0,.31.08,1.15,1.15,0,0,0,.46-.09,4,4,0,0,0,1.25-.88,10.36,10.36,0,0,0,1.82-2.78c.17-.39.33-.75.48-1.1a8.23,8.23,0,0,0,.38-1l.21-.67a4.09,4.09,0,0,1,.26-.64,1.28,1.28,0,0,1,.95-.8l.18,0a.55.55,0,0,0,.23,0,.33.33,0,0,1,.24,0h0s0,0,.1,0a1.43,1.43,0,0,1,.73.62,1.29,1.29,0,0,1,.15,1l-.51,1.39a9.78,9.78,0,0,0-.33,2.49,3.74,3.74,0,0,0,.36,1.8.6.6,0,0,0,.13.21l.11.08.21,0a.63.63,0,0,0,.32-.1,3.48,3.48,0,0,0,1-1,9.91,9.91,0,0,0,1-1.82q.39-1,.6-1.67l.22-.76a1.27,1.27,0,0,1,.63-.81,1.33,1.33,0,0,1,1-.15,1.36,1.36,0,0,1,.84.62,1.41,1.41,0,0,1,.18,1.07,7.81,7.81,0,0,1-.25.88c-.17.55-.4,1.21-.69,2-.91,2.15-1.95,3.47-3.12,4a2.84,2.84,0,0,1-1.16.35,3.11,3.11,0,0,1-1.41-.21,3.57,3.57,0,0,1-2.08-1.74.72.72,0,0,1-.15-.29l-.11.14a6.17,6.17,0,0,1-2.55,2A3.65,3.65,0,0,1,190.34,115Zm5.84-11.21c0,.06,0,.08.06.08S196.19,103.79,196.18,103.74Z"/><path class="cls-2" d="M199.65,118.7a1.51,1.51,0,0,1-1-.35,1.43,1.43,0,0,1-.58-.89,1,1,0,0,1,.15-1,1.25,1.25,0,0,1,.84-.47q2.94-.32,5.87-.71l1-2.87a4,4,0,0,1-2.87-.15,4.13,4.13,0,0,1-2.28-2.36,6.33,6.33,0,0,1-.35-3,11.93,11.93,0,0,1,.75-3,16.19,16.19,0,0,1,1.5-3A11.92,11.92,0,0,1,205,98.29,5.91,5.91,0,0,1,207.42,97a5.37,5.37,0,0,1,2.42,0,5.18,5.18,0,0,1,1.55.66,3.56,3.56,0,0,1,.89.91l.35.55a1.48,1.48,0,0,1,.27,1.26,1.4,1.4,0,0,1-.67.83,1.52,1.52,0,0,1-1.07.15,1.38,1.38,0,0,1-.93-.78.77.77,0,0,0-.16-.21,1.82,1.82,0,0,0-.41-.32,2.21,2.21,0,0,0-.72-.25,2.66,2.66,0,0,0-1.09.07,2.82,2.82,0,0,0-1.39.84,10.8,10.8,0,0,0-1.48,1.84,13.58,13.58,0,0,0-1.19,2.44,10,10,0,0,0-.59,2.38,4.63,4.63,0,0,0,0,1.47,1.24,1.24,0,0,0,.74,1,1,1,0,0,0,1-.05,3.6,3.6,0,0,0,1.39-1.21,12.78,12.78,0,0,0,1.4-2.47c.39-.92.71-1.74,1-2.45l.23-.79a1.63,1.63,0,0,1,.71-.88,1.21,1.21,0,0,1,1-.11,1.16,1.16,0,0,1,.8.68,1.73,1.73,0,0,1,.13,1.14c-.06,0-.16.32-.3.92q-1,3.45-2.09,6.77.54-.57,1.06-1.15a7.4,7.4,0,0,0,.94-1.33,11.9,11.9,0,0,0,.78-1.73,15.89,15.89,0,0,0,.63-2.37,1.49,1.49,0,0,1,.58-.92,1.22,1.22,0,0,1,1-.2,1.34,1.34,0,0,1,.84.68,1.59,1.59,0,0,1,.17,1.14,19.33,19.33,0,0,1-.79,3,13.87,13.87,0,0,1-1.15,2.44,14.42,14.42,0,0,1-1.27,1.72,15.64,15.64,0,0,1-1.37,1.38l-.7.68,2.27-.36a1.36,1.36,0,0,1,1,.29,1.71,1.71,0,0,1,.63,1,1.41,1.41,0,0,1-.16,1.1,1.25,1.25,0,0,1-.88.6q-2.72.35-5.44.64a17.5,17.5,0,0,0-1.2,2.44l-.82,2.47-.26.82a1,1,0,0,1-1,.76,2,2,0,0,1-1.49-1,1.44,1.44,0,0,1-.06-1.07l.21-.56a.67.67,0,0,1,0-.28l.45-1.37q.22-.66.46-1.29l.18-.48q-2.11.21-4.23.38Z"/><path class="cls-2" d="M217.21,112.31a2.27,2.27,0,0,1-.48,0,2.16,2.16,0,0,1-.5-.09,3.65,3.65,0,0,1-2.65-2.05c-1-1.84-1.05-4.75-.1-9,.3-1.48.62-2.76,1-3.84s.52-1.67.57-1.75a1.44,1.44,0,0,1,.69-.91,1.24,1.24,0,0,1,1.07-.08,1.27,1.27,0,0,1,.77.78,1.8,1.8,0,0,1,0,1.23,13.8,13.8,0,0,0-.51,1.58q-.46,1.56-.9,3.67c-.24,1.18-.39,2.17-.47,3a16.82,16.82,0,0,0-.1,2,5.21,5.21,0,0,0,.13,1.21,2.19,2.19,0,0,0,.24.61.76.76,0,0,0,.63.47,1,1,0,0,0,.77-.35,5.5,5.5,0,0,0,.95-1.25,24.49,24.49,0,0,0,2.18-5.41l.82-3c0-.19.07-.37.1-.52s.09-.34.15-.54q.23-1.17.49-2.33t.45-2.33a2,2,0,0,1,.6-1.09,1.13,1.13,0,0,1,1-.33,1.27,1.27,0,0,1,.86.65,1.68,1.68,0,0,1,.19,1.22c0,.08-.13.71-.34,1.87s-.51,2.57-.9,4.22l-.49,2.49c-.16.79-.27,1.51-.36,2.16a9.92,9.92,0,0,0-.14,2.18,1.9,1.9,0,0,0,.19.77c0,.11.1.17.26.17s.4-.12.71-.48a7.93,7.93,0,0,0,1.07-2,15.7,15.7,0,0,0,.87-2.49c.19-.77.28-1.18.28-1.22a1.81,1.81,0,0,1,.66-1,1,1,0,0,1,1-.16,1.18,1.18,0,0,1,.84.77,2.27,2.27,0,0,1,.13,1.32s-.15.52-.37,1.41a22.34,22.34,0,0,1-1,2.94,17.77,17.77,0,0,1-.83,1.71,9.63,9.63,0,0,1-.84,1.29,3.26,3.26,0,0,1-1.7,1.25,2.51,2.51,0,0,1-1.34,0,3.32,3.32,0,0,1-2.12-1.73l0-.11-.23.32a7.91,7.91,0,0,1-.83,1.26,5.39,5.39,0,0,1-.89.88A3.54,3.54,0,0,1,217.21,112.31Z"/><path class="cls-2" d="M231.44,110.18a2.05,2.05,0,0,1-1.07,0,3.78,3.78,0,0,1-2.25-1,5.22,5.22,0,0,1-1.14-1.57c-.74-1.58-.86-3.7-.39-6.43a28,28,0,0,1,.87-3.89Q228,95.4,228.59,94a1.63,1.63,0,0,1,.74-1,1,1,0,0,1,1,0,1.44,1.44,0,0,1,.72.89,2.09,2.09,0,0,1,0,1.39q-.67,1.82-1.1,3.45t-.68,3a10.47,10.47,0,0,0-.17,2.87,6.47,6.47,0,0,0,.29,1.29,1.59,1.59,0,0,0,.37.48,1.75,1.75,0,0,0,.81.32.92.92,0,0,0,.37,0,2.27,2.27,0,0,0,1.37-1.25,15.25,15.25,0,0,0,.94-2q.26-.73.5-1.5c.16-.51.29-1,.38-1.36l.32-1.31a1.89,1.89,0,0,1,.61-1.13,1,1,0,0,1,1-.27,1.34,1.34,0,0,1,.84.78,2.17,2.17,0,0,1,.17,1.36,3.19,3.19,0,0,1-.09.52c-.06.31-.15.7-.25,1.16s-.25,1-.43,1.58-.38,1.17-.61,1.77a10.91,10.91,0,0,1-2.16,3.81A4.39,4.39,0,0,1,231.44,110.18Zm1.64-21.07a1,1,0,0,1-.87-.11,1.5,1.5,0,0,1-.71-.91,2.19,2.19,0,0,1,.08-1.38l.52-1.28a2,2,0,0,1,.79-1,.87.87,0,0,1,1,0,1.34,1.34,0,0,1,.73.93,2.25,2.25,0,0,1-.1,1.39L234.06,88A1.75,1.75,0,0,1,233.09,89.11Z"/><path class="cls-2" d="M238.83,110.45a.91.91,0,0,1-.25,0l-.26,0a1.7,1.7,0,0,1-.88-.85,2,2,0,0,1-.22-1.36l.16-1.16a1.79,1.79,0,0,1,.55-1.2,1.08,1.08,0,0,1,1-.31,1.61,1.61,0,0,1,.88.8,2.38,2.38,0,0,1,.26,1.4l-.16,1.19Q239.72,110.25,238.83,110.45Zm1.31-9.87a.94.94,0,0,1-.25,0l-.26,0a1.53,1.53,0,0,1-.88-.76,2.07,2.07,0,0,1-.22-1.39q1.27-10,2.54-20.4a2.53,2.53,0,0,1,.52-1.37,1.15,1.15,0,0,1,1-.51,1.22,1.22,0,0,1,.88.64,2.06,2.06,0,0,1,.26,1.32Q242.49,88.73,241.23,99,241,100.32,240.14,100.57Z"/><path class="cls-3" d="M377.54,33v4.2a1.18,1.18,0,0,0-.05.2c0,.37,0,.74-.09,1.11-.14.87-.32,1.73-.48,2.6s-.31,1.76-.51,2.64a26.42,26.42,0,0,1-1.13,3.84c-.47,1.18-1,2.35-1.49,3.51a18.4,18.4,0,0,1-1,1.93q-.85,1.41-1.77,2.78a30.7,30.7,0,0,1-3.19,4c-.71.75-1.47,1.47-2.24,2.16s-1.5,1.27-2.27,1.87a29.5,29.5,0,0,1-3.88,2.54c-.84.46-1.7.9-2.57,1.3s-1.66.74-2.52,1a24,24,0,0,1-3.51,1c-1,.2-2,.4-3,.55-.83.13-1.66.2-2.5.29-.63.07-1.26.13-1.89.16s-1.21,0-1.82,0c-.82,0-1.64-.07-2.47-.12-.35,0-.7,0-1-.09-.63-.08-1.26-.17-1.88-.28s-1.5-.26-2.24-.43a30.66,30.66,0,0,1-4.09-1.21c-.81-.31-1.62-.63-2.41-1s-1.46-.71-2.18-1.09-1.39-.76-2-1.2c-1-.65-1.9-1.33-2.82-2s-1.53-1.28-2.25-2a28.15,28.15,0,0,1-2.53-2.69c-.45-.55-.94-1.08-1.35-1.66-.79-1.1-1.55-2.22-2.3-3.34-.28-.41-.5-.86-.74-1.29l0-.05.16.06c.74.33,1.46.71,2.22,1a9.51,9.51,0,0,0,4,.59,11.49,11.49,0,0,0,2-.33A12.49,12.49,0,0,0,323.25,52a11.09,11.09,0,0,1,2.22-1.32c.72-.25,1.46-.46,2.2-.68s1.27-.36,1.9-.56a.63.63,0,0,0,.44-.69.73.73,0,0,0-.72-.56,4.47,4.47,0,0,0-.48.06l-.68.11c.3-.16.61-.26.92-.39.53-.23,1-.48,1.56-.73a.51.51,0,0,0,.33-.49.72.72,0,0,0-1-.65c-.52.18-1,.4-1.53.59l-.89.31a.25.25,0,0,1,.11-.13l2.52-1.59a.61.61,0,0,0,.26-.68.74.74,0,0,0-1.21-.39l-2.08,1.34-.51.31c.23-.26.47-.51.71-.75l1.35-1.35a.53.53,0,0,0,0-.71c-.26-.34-.49-.41-.81-.23a5.27,5.27,0,0,0-.75.5c-.74.6-1.46,1.21-2.19,1.82l-.79.65,0-.11.66-1c.17-.26.29-.54.08-.83s-.55-.55-.91-.28a2.91,2.91,0,0,0-1,1.38,4.83,4.83,0,0,1-.31.72,6.19,6.19,0,0,1-1.51,2,7.74,7.74,0,0,1-1.06.76,5.13,5.13,0,0,1-3.23.62,5.3,5.3,0,0,1-1.54-.44,6,6,0,0,1-2.13-1.63,7,7,0,0,1-1.14-1.93,7.13,7.13,0,0,1-.51-3.49c.07-.63.17-1.26.29-1.88a13.11,13.11,0,0,1,1.59-4.05,17.49,17.49,0,0,1,2.56-3.33c.37-.38.78-.72,1.18-1.07a13,13,0,0,1,2.92-1.89l.32-.16a1.51,1.51,0,0,0-.45,0l-1.62.16a14.65,14.65,0,0,0-2.56.56A14.06,14.06,0,0,0,313.09,31a10.78,10.78,0,0,0-2.24,1.63,15.93,15.93,0,0,0-1.42,1.58,12.73,12.73,0,0,0-1.84,3.27c-.1.26-.22.52-.33.8a1.19,1.19,0,0,1-.41-.8c0-1.55,0-3.09,0-4.64a2.57,2.57,0,0,1,0-.44c.14-.77.29-1.55.44-2.32.2-1,.39-2.06.63-3.08a27.74,27.74,0,0,1,1.14-3.88c.43-1.1.89-2.18,1.37-3.26.25-.57.55-1.12.85-1.67s.76-1.34,1.18-2A27.88,27.88,0,0,1,315,12.86c.66-.76,1.31-1.53,2-2.24s1.47-1.42,2.22-2.11a19,19,0,0,1,1.48-1.22c.79-.59,1.6-1.16,2.42-1.69s1.53-.94,2.32-1.37,1.4-.72,2.11-1c1-.42,1.93-.82,2.92-1.18a23.41,23.41,0,0,1,2.28-.71q1.58-.4,3.18-.72c.69-.14,1.4-.21,2.11-.29s1.32-.15,2-.2,1,0,1.56,0a.73.73,0,0,0,.18-.05h1.51a.36.36,0,0,0,.11.05l2.4.13c.44,0,.89.06,1.32.13.73.11,1.45.23,2.17.36a28.65,28.65,0,0,1,3.87,1,26.13,26.13,0,0,1,3.65,1.46c1,.51,2,1,3,1.59s1.89,1.2,2.81,1.83c.61.42,1.19.89,1.77,1.36s.88.74,1.29,1.13c.68.64,1.34,1.3,2,2,.16.16.28.34.43.51a.26.26,0,0,1-.2,0,9,9,0,0,0-3.62-.8,17.63,17.63,0,0,0-1.95,0,5.77,5.77,0,0,0-1.25.19c-1,.3-2.08.64-3.11,1a25,25,0,0,0-3.37,1.39,4.49,4.49,0,0,1-.79.29l-2.44.65c-.64.18-1.29.35-1.91.58s-.77.55-.54,1.08a.75.75,0,0,0,.75.53l1.23-.18.65-.11a.31.31,0,0,1-.14.14c-.89.48-1.79.94-2.68,1.43a13.21,13.21,0,0,0-2,1.17.76.76,0,0,0-.23,1,.69.69,0,0,0,1,.32l2.47-1.07.65-.26c-1,.74-1.94,1.43-2.91,2.13a.94.94,0,0,0-.52.89,1,1,0,0,0,.5.75.67.67,0,0,0,.75-.1l2.58-1.85.58-.38a2,2,0,0,1-.26.35c-.6.65-1.21,1.3-1.82,1.94a.89.89,0,0,0-.09,1.27.63.63,0,0,0,.84.14c.19-.16.4-.29.58-.46.47-.45.92-.92,1.38-1.38l.55-.56c-.15.3-.33.56-.5.83a1.28,1.28,0,0,0-.29.86.82.82,0,0,0,.41.65.59.59,0,0,0,.73-.06,7.7,7.7,0,0,0,.9-1c.43-.57.76-1.22,1.22-1.76a8.61,8.61,0,0,1,2.51-2,7.47,7.47,0,0,1,3.26-.91,8.24,8.24,0,0,1,1.75.13,7.42,7.42,0,0,1,2.41.9,9.13,9.13,0,0,1,2.62,2.31,10.58,10.58,0,0,1,1.36,2.34,11.16,11.16,0,0,1,.92,3.88,21,21,0,0,1-.07,2.43,9.35,9.35,0,0,1-.48,2.23,11.06,11.06,0,0,1-.92,2.09,10.13,10.13,0,0,1-1.34,1.86A8.4,8.4,0,0,1,365.31,38a7.57,7.57,0,0,1-2.56,1l-.56.11v.06l1.49-.1a10.82,10.82,0,0,0,2.29-.38,15.18,15.18,0,0,0,1.74-.59,8.43,8.43,0,0,0,1.07-.6,14.56,14.56,0,0,0,2.63-2c.57-.54,1.1-1.14,1.62-1.73a13.28,13.28,0,0,0,1.62-2.44A20.19,20.19,0,0,0,376,28a8.35,8.35,0,0,1,.36-.82h.06c.14.76.27,1.52.41,2.28l.57,3.07Zm-58.72-2.23,0,0h.11a19,19,0,0,1,1.88-.3,12.21,12.21,0,0,1,2.74.14,20.55,20.55,0,0,1,2.71.64A41,41,0,0,1,332,33.68c1.14.55,2.26,1.13,3.4,1.67,1.34.64,2.68,1.26,4,1.87.57.26,1.14.53,1.74.74s1.35.43,2,.62c.93.27,1.86.53,2.8.77s1.85.45,2.79.65,1.67.32,2.5.45c.56.09,1.13.15,1.69.21s1.3.14,1.95.16c.94,0,1.88,0,2.83,0a15.05,15.05,0,0,0,1.76-.17c.86-.14,1.72-.31,2.58-.49.44-.09.87-.22,1.31-.33v-.06c-.18,0-.37,0-.55,0-.54,0-1.08,0-1.62,0s-1.19-.07-1.78-.17a23.67,23.67,0,0,1-2.5-.48c-1.11-.3-2.22-.65-3.3-1-1.35-.48-2.69-1-4-1.52L345.9,35.1l-3.22-1.24c-.89-.34-1.78-.68-2.69-1q-2-.67-4.11-1.28-1.57-.47-3.17-.86c-1-.26-2.1-.5-3.16-.73-.6-.13-1.21-.23-1.81-.34s-1-.2-1.58-.28-1.12-.14-1.67-.21c-.33,0-.65-.09-1-.11a3,3,0,0,0-.7,0,9.79,9.79,0,0,0-3.2,1.19C319.35,30.4,319.09,30.58,318.82,30.75Z"/><path class="cls-3" d="M315.65,85a3.23,3.23,0,0,1,1.12-.08,9.48,9.48,0,0,1,1.1.17,5.41,5.41,0,0,1,2.81,1.59,5.6,5.6,0,0,1,1.58,2.89,6.54,6.54,0,0,1-1.84,6.07,9.71,9.71,0,0,1-2.69,1.84,9.6,9.6,0,0,1-2.69.84,21.84,21.84,0,0,1-2.8.24q-1.27,0-2.53-.1t-2.5-.31q-.15,2.26-.43,4.48t-.67,4.46q-.39,2.07-1,4.13a31.27,31.27,0,0,1-1.4,4,17.31,17.31,0,0,1-.91,1.8,10.28,10.28,0,0,1-1.15,1.61,8.37,8.37,0,0,1-1.5,1.47,4.55,4.55,0,0,1-1.93.87.85.85,0,0,1-.56-.08,1.2,1.2,0,0,1-.43-.36,1,1,0,0,1-.19-.53.94.94,0,0,1,.58-.92l.51-.22a3.59,3.59,0,0,0,.52-.22,3.44,3.44,0,0,0,.51-.32A7.33,7.33,0,0,0,301,116.1a18.23,18.23,0,0,0,1.19-2.58,32.16,32.16,0,0,0,1.79-6.23q.59-3.22.92-6.48.17-1.44.28-3a15.06,15.06,0,0,0-3-.1,10.64,10.64,0,0,0-2.92.61,6.06,6.06,0,0,0-1.41.68,3.43,3.43,0,0,0-1.09,1.14,2.93,2.93,0,0,0-.46,1.48,3.51,3.51,0,0,0,.28,1.54,4.47,4.47,0,0,0,.83,1.2,2,2,0,0,0,1.3.63,1,1,0,0,0,.38,0l.36-.07.34-.13a1,1,0,0,1,.35-.07,1.15,1.15,0,0,1,.58.18.85.85,0,0,1,.37.5,1,1,0,0,1,0,.65,1.14,1.14,0,0,1-.36.46,1.65,1.65,0,0,1-.56.3,5.92,5.92,0,0,1-.61.15,3.6,3.6,0,0,1-1.64-.06,4.91,4.91,0,0,1-1.49-.68,5.37,5.37,0,0,1-1.87-2.66,5.46,5.46,0,0,1-.09-3.24,5.26,5.26,0,0,1,1.74-2.58,7.26,7.26,0,0,1,2.79-1.41,11.69,11.69,0,0,1,3.24-.36q1.64,0,3.25.22l.35,0,.26-.05a.89.89,0,0,1,.58.16q1.12.13,2.22.21a19.55,19.55,0,0,0,2.22,0,11.38,11.38,0,0,0,1.73-.19,5.55,5.55,0,0,0,1.62-.59,6.51,6.51,0,0,0,1.63-1.34,7.1,7.1,0,0,0,.87-1.21,4.27,4.27,0,0,0,.51-1.45,2.73,2.73,0,0,0-.21-1.45,4.43,4.43,0,0,0-.82-1.23,3.88,3.88,0,0,0-.76-.64,8.71,8.71,0,0,1-.82-.6,1.73,1.73,0,0,1-.52-1.12,1.5,1.5,0,0,1,.36-1.15A1.79,1.79,0,0,1,315.65,85Z"/><path class="cls-3" d="M314.16,115.23a9.43,9.43,0,0,1-1.9-.3,8,8,0,0,1-2.17-.91,6.86,6.86,0,0,1-.8-.58,3.77,3.77,0,0,1-1.27-2,3.2,3.2,0,0,1-.1-1.46,5.06,5.06,0,0,1,.72-1.89,6.53,6.53,0,0,1,1.53-1.69,8.29,8.29,0,0,1,2.64-1.41,9.4,9.4,0,0,1,3.18-.46,1.46,1.46,0,0,1,.94.3.91.91,0,0,1,.4.68.81.81,0,0,1-.45.63,1.65,1.65,0,0,1-1,.2,4.75,4.75,0,0,0-2.16.33,5.36,5.36,0,0,0-1.41.84,5.16,5.16,0,0,0-1.15,1.34,3.7,3.7,0,0,0-.54,1.53,1.84,1.84,0,0,0,0,.55,2.41,2.41,0,0,0,.19.85,2.59,2.59,0,0,0,.59.86,2.52,2.52,0,0,0,1.23.61,3.83,3.83,0,0,0,2.84-.39l.49-.34a7,7,0,0,1-1.91-1.21,2.71,2.71,0,0,1-1.1-2.73,2.37,2.37,0,0,1,1.22-1.46,3.93,3.93,0,0,1,1-.39,4.68,4.68,0,0,1,1.18-.14,3.82,3.82,0,0,1,2.07.51,2.82,2.82,0,0,1,1.3,1.43,4.61,4.61,0,0,1,0,2.7,1.89,1.89,0,0,0,.67-.46,2.51,2.51,0,0,0,.52-.89,1,1,0,0,1,.63-.56,1.72,1.72,0,0,1,1-.05,1.37,1.37,0,0,1,.82.53.85.85,0,0,1,.15.79,3.38,3.38,0,0,1-1.07,1.7,4.35,4.35,0,0,1-1.38.78,6.16,6.16,0,0,1-2.41.25l-.57.56a4,4,0,0,1-.63.49,4.46,4.46,0,0,1-2.24.78A6,6,0,0,1,314.16,115.23Zm2.3-6.76a1.34,1.34,0,0,0-.49.14.55.55,0,0,0-.3.47,1,1,0,0,0,.21,1.06A3.08,3.08,0,0,0,317,111l0-.06a3.15,3.15,0,0,0,.22-1.09,2.35,2.35,0,0,0-.14-.91.56.56,0,0,0-.53-.44Z"/><path class="cls-3" d="M327.61,115.24a8.93,8.93,0,0,1-2.12-.24,5.89,5.89,0,0,1-3-1.73,4.66,4.66,0,0,1-1.19-3,4.31,4.31,0,0,1,0-1.15,6.9,6.9,0,0,1,.31-1.17,7.06,7.06,0,0,1,1.18-2.2,7.53,7.53,0,0,1,2.05-2.05,6.41,6.41,0,0,1,2.48-1,3.78,3.78,0,0,1,1.9.12,2.68,2.68,0,0,1,1.44,1,2.49,2.49,0,0,1,.53,2.06,4.26,4.26,0,0,1-1.17,2.31,1.42,1.42,0,0,1-.9.39,1.5,1.5,0,0,1-1-.24,1.08,1.08,0,0,1-.57-.73.82.82,0,0,1,.25-.78,2.44,2.44,0,0,0,.65-1.13.87.87,0,0,0-.12-.7.47.47,0,0,0-.51-.19,2.93,2.93,0,0,0-1.36.62,5.81,5.81,0,0,0-1.26,1.37,6.43,6.43,0,0,0-1.23,3.7,2.85,2.85,0,0,0,.09.73,2.79,2.79,0,0,0,.29.72,2,2,0,0,0,.56.61,2.37,2.37,0,0,0,.89.4,4.78,4.78,0,0,0,4.72-1.56,7.21,7.21,0,0,0,1.28-1.78c.27-.57.42-.86.44-.89a1,1,0,0,1,.67-.62,1.59,1.59,0,0,1,1,0,1.37,1.37,0,0,1,.8.6,1.09,1.09,0,0,1,.13.89,2.58,2.58,0,0,0-.17.36c-.09.21-.22.47-.4.79s-.38.67-.63,1.06a6.24,6.24,0,0,1-.93,1.12,7.31,7.31,0,0,1-1.32,1.18,6.35,6.35,0,0,1-1.5.77A7.86,7.86,0,0,1,327.61,115.24Z"/><path class="cls-3" d="M336.8,115a4.52,4.52,0,0,1-1.89-.36,4.08,4.08,0,0,1-2.26-2.21,5,5,0,0,1-.34-2.73,10.61,10.61,0,0,1,.78-2.75,14.56,14.56,0,0,1,1.53-2.77,12.27,12.27,0,0,1,2.06-2.3,6.49,6.49,0,0,1,2.75-1.39,6.05,6.05,0,0,1,4.17.66,3.89,3.89,0,0,1,.89.68c.16.19.34.38.54.58a1.13,1.13,0,0,1,.25,1,1.42,1.42,0,0,1-.54.79,1.44,1.44,0,0,1-1,.26,1.38,1.38,0,0,1-1-.61l-.11-.07h0a4.67,4.67,0,0,0-.62-.54,2.87,2.87,0,0,0-3.53.47,8.84,8.84,0,0,0-1.49,1.71,13.91,13.91,0,0,0-1.24,2.25,8.46,8.46,0,0,0-.69,2.43,3.32,3.32,0,0,0,0,.58,3.73,3.73,0,0,0,.09.71,2.33,2.33,0,0,0,.26.68,1,1,0,0,0,.53.45.58.58,0,0,0,.31.08,1.16,1.16,0,0,0,.46-.09,4,4,0,0,0,1.25-.88,10.33,10.33,0,0,0,1.82-2.78c.16-.39.33-.75.48-1.1a8.23,8.23,0,0,0,.38-1l.21-.67a4.14,4.14,0,0,1,.26-.64,1.29,1.29,0,0,1,.95-.8l.18,0a.54.54,0,0,0,.23,0,.33.33,0,0,1,.24,0h0s0,0,.1,0a1.43,1.43,0,0,1,.73.62,1.28,1.28,0,0,1,.15,1l-.51,1.39a9.87,9.87,0,0,0-.33,2.49,3.71,3.71,0,0,0,.36,1.8.56.56,0,0,0,.13.21l.11.08.21,0a.63.63,0,0,0,.32-.1,3.44,3.44,0,0,0,1-1,9.91,9.91,0,0,0,1-1.82q.4-1,.6-1.67l.22-.76a1.26,1.26,0,0,1,.63-.81,1.33,1.33,0,0,1,1-.15,1.35,1.35,0,0,1,.84.62,1.41,1.41,0,0,1,.18,1.07,7.81,7.81,0,0,1-.25.88q-.26.83-.69,2c-.91,2.15-1.95,3.47-3.12,4a2.84,2.84,0,0,1-1.16.35,3.13,3.13,0,0,1-1.41-.21,3.58,3.58,0,0,1-2.08-1.74.7.7,0,0,1-.15-.29l-.11.14a6.18,6.18,0,0,1-2.55,2A3.68,3.68,0,0,1,336.8,115Zm5.84-11.21c0,.06,0,.08.06.08S342.65,103.79,342.64,103.74Z"/><path class="cls-3" d="M346.1,118.7a1.51,1.51,0,0,1-1-.35,1.45,1.45,0,0,1-.58-.89,1,1,0,0,1,.15-1,1.25,1.25,0,0,1,.84-.47q2.94-.32,5.87-.71l1-2.87a4,4,0,0,1-2.87-.15,4.14,4.14,0,0,1-2.28-2.36,6.32,6.32,0,0,1-.35-3,11.86,11.86,0,0,1,.75-3,16.34,16.34,0,0,1,1.5-3,11.91,11.91,0,0,1,2.28-2.68A5.92,5.92,0,0,1,353.87,97a5.37,5.37,0,0,1,2.42,0,5.19,5.19,0,0,1,1.55.66,3.58,3.58,0,0,1,.89.91l.35.55a1.48,1.48,0,0,1,.27,1.26,1.41,1.41,0,0,1-.67.83,1.52,1.52,0,0,1-1.07.15,1.37,1.37,0,0,1-.93-.78.76.76,0,0,0-.16-.21,1.81,1.81,0,0,0-.41-.32,2.21,2.21,0,0,0-.72-.25,2.66,2.66,0,0,0-1.09.07,2.81,2.81,0,0,0-1.39.84,10.94,10.94,0,0,0-1.48,1.84,13.36,13.36,0,0,0-1.19,2.44,9.88,9.88,0,0,0-.59,2.38,4.57,4.57,0,0,0,0,1.47,1.24,1.24,0,0,0,.74,1,1,1,0,0,0,1-.05,3.63,3.63,0,0,0,1.39-1.21,12.88,12.88,0,0,0,1.4-2.47c.39-.92.71-1.74,1-2.45l.23-.79a1.63,1.63,0,0,1,.71-.88,1.21,1.21,0,0,1,1-.11,1.15,1.15,0,0,1,.8.68,1.72,1.72,0,0,1,.13,1.14c-.06,0-.16.32-.3.92q-1,3.45-2.09,6.77c.36-.38.71-.76,1.06-1.15a7.4,7.4,0,0,0,.94-1.33,12,12,0,0,0,.78-1.73,15.71,15.71,0,0,0,.63-2.37,1.48,1.48,0,0,1,.58-.92,1.22,1.22,0,0,1,1-.2,1.34,1.34,0,0,1,.84.68,1.59,1.59,0,0,1,.17,1.14,19.27,19.27,0,0,1-.79,3,13.87,13.87,0,0,1-1.15,2.44,14.1,14.1,0,0,1-1.27,1.72,15.6,15.6,0,0,1-1.36,1.38l-.7.68,2.27-.36a1.36,1.36,0,0,1,1,.29,1.72,1.72,0,0,1,.63,1,1.39,1.39,0,0,1-.16,1.1,1.24,1.24,0,0,1-.88.6q-2.72.35-5.44.64a17.61,17.61,0,0,0-1.2,2.44l-.82,2.47-.26.82a1,1,0,0,1-1,.76,1.66,1.66,0,0,1-1.55-2.11l.21-.56a.67.67,0,0,1,0-.28l.45-1.37c.15-.44.3-.87.46-1.29l.18-.48q-2.11.21-4.23.38Z"/><path class="cls-3" d="M363.67,112.31a2.27,2.27,0,0,1-.48,0,2.16,2.16,0,0,1-.5-.09,3.65,3.65,0,0,1-2.65-2.05c-1-1.84-1.05-4.75-.1-9q.46-2.22,1-3.84c.33-1.08.52-1.67.57-1.75a1.44,1.44,0,0,1,.69-.91,1.24,1.24,0,0,1,1.07-.08,1.27,1.27,0,0,1,.77.78,1.8,1.8,0,0,1,0,1.23,13.43,13.43,0,0,0-.51,1.58q-.46,1.56-.9,3.67c-.24,1.18-.39,2.17-.47,3a16.61,16.61,0,0,0-.1,2,5.21,5.21,0,0,0,.13,1.21,2.28,2.28,0,0,0,.24.61.75.75,0,0,0,.63.47,1,1,0,0,0,.77-.35,5.53,5.53,0,0,0,.95-1.25,24.58,24.58,0,0,0,2.18-5.41l.82-3c0-.19.06-.37.1-.52s.09-.34.15-.54q.23-1.17.49-2.33c.17-.77.32-1.55.45-2.33a2,2,0,0,1,.6-1.09,1.13,1.13,0,0,1,1-.33,1.28,1.28,0,0,1,.86.65,1.69,1.69,0,0,1,.19,1.22c0,.08-.13.71-.34,1.87s-.51,2.57-.9,4.22l-.49,2.49c-.15.79-.27,1.5-.36,2.16a9.89,9.89,0,0,0-.14,2.18,1.87,1.87,0,0,0,.19.77c0,.11.1.17.26.17s.4-.12.71-.48a7.88,7.88,0,0,0,1.07-2,15.59,15.59,0,0,0,.87-2.49c.19-.77.28-1.18.28-1.22a1.8,1.8,0,0,1,.66-1,1,1,0,0,1,1-.16,1.18,1.18,0,0,1,.84.77,2.27,2.27,0,0,1,.13,1.32s-.15.52-.37,1.41a22.49,22.49,0,0,1-1,2.94,17.77,17.77,0,0,1-.83,1.71,9.77,9.77,0,0,1-.84,1.29,3.27,3.27,0,0,1-1.7,1.25,2.51,2.51,0,0,1-1.34,0,3.32,3.32,0,0,1-2.12-1.73l0-.11-.23.32a7.71,7.71,0,0,1-.83,1.26,5.39,5.39,0,0,1-.89.88A3.53,3.53,0,0,1,363.67,112.31Z"/><path class="cls-3" d="M377.9,110.18a2.05,2.05,0,0,1-1.07,0,3.78,3.78,0,0,1-2.25-1,5.2,5.2,0,0,1-1.14-1.57c-.74-1.58-.86-3.7-.39-6.43a28.4,28.4,0,0,1,.87-3.89c.38-1.27.75-2.38,1.11-3.31a1.63,1.63,0,0,1,.74-1,1,1,0,0,1,1,0,1.44,1.44,0,0,1,.72.89,2.1,2.1,0,0,1,0,1.39q-.67,1.82-1.1,3.45t-.68,3a10.47,10.47,0,0,0-.17,2.87,6.62,6.62,0,0,0,.29,1.29,1.58,1.58,0,0,0,.37.48,1.75,1.75,0,0,0,.81.32.92.92,0,0,0,.37,0,2.27,2.27,0,0,0,1.37-1.25,15.18,15.18,0,0,0,.94-2q.26-.73.5-1.5t.38-1.36c.12-.48.22-.92.32-1.31a1.9,1.9,0,0,1,.61-1.13,1.05,1.05,0,0,1,1-.27,1.33,1.33,0,0,1,.84.78,2.19,2.19,0,0,1,.17,1.36,3.08,3.08,0,0,1-.09.52l-.25,1.16c-.1.47-.25,1-.43,1.58s-.38,1.17-.61,1.77a10.87,10.87,0,0,1-2.16,3.81A4.38,4.38,0,0,1,377.9,110.18Zm1.64-21.07a1,1,0,0,1-.87-.11,1.5,1.5,0,0,1-.71-.91,2.19,2.19,0,0,1,.08-1.38l.52-1.28a2,2,0,0,1,.79-1,.87.87,0,0,1,1,0,1.33,1.33,0,0,1,.73.93,2.27,2.27,0,0,1-.1,1.39L380.51,88A1.75,1.75,0,0,1,379.54,89.11Z"/><path class="cls-3" d="M385.28,110.45a.9.9,0,0,1-.25,0l-.26,0a1.7,1.7,0,0,1-.88-.85,2,2,0,0,1-.22-1.36l.16-1.16a1.78,1.78,0,0,1,.55-1.2,1.08,1.08,0,0,1,1-.31,1.61,1.61,0,0,1,.88.8,2.36,2.36,0,0,1,.26,1.4l-.16,1.19C386.24,109.81,385.88,110.32,385.28,110.45Zm1.31-9.87a.91.91,0,0,1-.25,0l-.26,0a1.53,1.53,0,0,1-.88-.76,2.07,2.07,0,0,1-.22-1.39q1.27-10,2.54-20.4a2.53,2.53,0,0,1,.52-1.37,1.15,1.15,0,0,1,1-.51,1.22,1.22,0,0,1,.88.64,2,2,0,0,1,.26,1.32Q388.95,88.73,387.68,99,387.5,100.32,386.6,100.57Z"/><path class="cls-4" d="M511.85,33v4.2a1.18,1.18,0,0,0-.05.2c0,.37,0,.74-.09,1.11-.14.87-.32,1.73-.48,2.6s-.31,1.76-.51,2.64a26.42,26.42,0,0,1-1.13,3.84c-.47,1.18-1,2.35-1.49,3.51a18.4,18.4,0,0,1-1,1.93q-.85,1.41-1.77,2.78a30.7,30.7,0,0,1-3.19,4c-.71.75-1.47,1.47-2.24,2.16s-1.5,1.27-2.27,1.87a29.5,29.5,0,0,1-3.88,2.54c-.84.46-1.7.9-2.57,1.3s-1.66.74-2.52,1a24,24,0,0,1-3.51,1c-1,.2-2,.4-3,.55-.83.13-1.66.2-2.5.29-.63.07-1.26.13-1.89.16s-1.21,0-1.82,0c-.82,0-1.64-.07-2.47-.12-.35,0-.7,0-1-.09-.63-.08-1.26-.17-1.88-.28s-1.5-.26-2.24-.43a30.66,30.66,0,0,1-4.09-1.21c-.81-.31-1.62-.63-2.41-1s-1.46-.71-2.18-1.09-1.39-.76-2-1.2c-1-.65-1.9-1.33-2.82-2s-1.53-1.28-2.25-2A28.15,28.15,0,0,1,450,58.59c-.45-.55-.94-1.08-1.35-1.66-.79-1.1-1.55-2.22-2.3-3.34-.28-.41-.5-.86-.74-1.29l0-.05.16.06c.74.33,1.46.71,2.22,1a9.51,9.51,0,0,0,4,.59,11.49,11.49,0,0,0,2-.33A12.49,12.49,0,0,0,457.56,52a11.09,11.09,0,0,1,2.22-1.32c.72-.25,1.46-.46,2.2-.68s1.27-.36,1.9-.56a.63.63,0,0,0,.44-.69.73.73,0,0,0-.72-.56,4.47,4.47,0,0,0-.48.06l-.68.11c.3-.16.61-.26.92-.39.53-.23,1-.48,1.56-.73a.51.51,0,0,0,.33-.49.72.72,0,0,0-1-.65c-.52.18-1,.4-1.53.59l-.89.31a.25.25,0,0,1,.11-.13l2.52-1.59a.61.61,0,0,0,.26-.68.74.74,0,0,0-1.21-.39l-2.08,1.34-.51.31c.23-.26.47-.51.71-.75L463,43.71a.53.53,0,0,0,0-.71c-.26-.34-.49-.41-.81-.23a5.27,5.27,0,0,0-.75.5c-.74.6-1.46,1.21-2.19,1.82l-.79.65,0-.11.66-1c.17-.26.29-.54.08-.83s-.55-.55-.91-.28a2.91,2.91,0,0,0-1,1.38,4.83,4.83,0,0,1-.31.72,6.19,6.19,0,0,1-1.51,2,7.74,7.74,0,0,1-1.06.76,5.13,5.13,0,0,1-3.23.62,5.3,5.3,0,0,1-1.54-.44,6,6,0,0,1-2.13-1.63,7,7,0,0,1-1.14-1.93,7.13,7.13,0,0,1-.51-3.49c.07-.63.17-1.26.29-1.88a13.11,13.11,0,0,1,1.59-4.05,17.49,17.49,0,0,1,2.56-3.33c.37-.38.78-.72,1.18-1.07a13,13,0,0,1,2.92-1.89l.32-.16a1.51,1.51,0,0,0-.45,0l-1.62.16a14.65,14.65,0,0,0-2.56.56A14.06,14.06,0,0,0,447.4,31a10.78,10.78,0,0,0-2.24,1.63,15.93,15.93,0,0,0-1.42,1.58,12.73,12.73,0,0,0-1.84,3.27c-.1.26-.22.52-.33.8a1.19,1.19,0,0,1-.41-.8c0-1.55,0-3.09,0-4.64a2.57,2.57,0,0,1,0-.44c.14-.77.29-1.55.44-2.32.2-1,.39-2.06.63-3.08a27.74,27.74,0,0,1,1.14-3.88c.43-1.1.89-2.18,1.37-3.26.25-.57.55-1.12.85-1.67s.76-1.34,1.18-2a27.88,27.88,0,0,1,2.43-3.33c.66-.76,1.31-1.53,2-2.24s1.47-1.42,2.22-2.11A19,19,0,0,1,455,7.29c.79-.59,1.6-1.16,2.42-1.69s1.53-.94,2.32-1.37,1.4-.72,2.11-1c1-.42,1.93-.82,2.92-1.18A23.41,23.41,0,0,1,467,1.31q1.58-.4,3.18-.72c.69-.14,1.4-.21,2.11-.29s1.32-.15,2-.2,1,0,1.56,0A.73.73,0,0,0,476,0h1.51a.36.36,0,0,0,.11.05l2.4.13c.44,0,.89.06,1.32.13.73.11,1.45.23,2.17.36a28.65,28.65,0,0,1,3.87,1,26.13,26.13,0,0,1,3.65,1.46c1,.51,2,1,3,1.59s1.89,1.2,2.81,1.83c.61.42,1.19.89,1.77,1.36s.88.74,1.29,1.13c.68.64,1.34,1.3,2,2,.16.16.28.34.43.51a.26.26,0,0,1-.2,0,9,9,0,0,0-3.62-.8,17.63,17.63,0,0,0-1.95,0,5.77,5.77,0,0,0-1.25.19c-1,.3-2.08.64-3.11,1a25,25,0,0,0-3.37,1.39,4.49,4.49,0,0,1-.79.29l-2.44.65c-.64.18-1.29.35-1.91.58s-.77.55-.54,1.08a.75.75,0,0,0,.75.53l1.23-.18.65-.11a.31.31,0,0,1-.14.14c-.89.48-1.79.94-2.68,1.43a13.21,13.21,0,0,0-2,1.17.76.76,0,0,0-.23,1,.69.69,0,0,0,1,.32l2.47-1.07.65-.26c-1,.74-1.94,1.43-2.91,2.13a.94.94,0,0,0-.52.89,1,1,0,0,0,.5.75.67.67,0,0,0,.75-.1l2.58-1.85.58-.38a2,2,0,0,1-.26.35c-.6.65-1.21,1.3-1.82,1.94a.89.89,0,0,0-.09,1.27.63.63,0,0,0,.84.14c.19-.16.4-.29.58-.46.47-.45.92-.92,1.38-1.38l.55-.56c-.15.3-.33.56-.5.83a1.28,1.28,0,0,0-.29.86.82.82,0,0,0,.41.65.59.59,0,0,0,.73-.06,7.7,7.7,0,0,0,.9-1c.43-.57.76-1.22,1.22-1.76a8.61,8.61,0,0,1,2.51-2,7.47,7.47,0,0,1,3.26-.91,8.24,8.24,0,0,1,1.75.13,7.42,7.42,0,0,1,2.41.9A9.13,9.13,0,0,1,502,21.55a10.58,10.58,0,0,1,1.36,2.34,11.16,11.16,0,0,1,.92,3.88,21,21,0,0,1-.07,2.43,9.35,9.35,0,0,1-.48,2.23,11.06,11.06,0,0,1-.92,2.09,10.13,10.13,0,0,1-1.34,1.86A8.4,8.4,0,0,1,499.62,38a7.57,7.57,0,0,1-2.56,1l-.56.11v.06L498,39a10.82,10.82,0,0,0,2.29-.38,15.18,15.18,0,0,0,1.74-.59,8.43,8.43,0,0,0,1.07-.6,14.56,14.56,0,0,0,2.63-2c.57-.54,1.1-1.14,1.62-1.73A13.28,13.28,0,0,0,509,31.34a20.19,20.19,0,0,0,1.4-3.37,8.35,8.35,0,0,1,.36-.82h.06c.14.76.27,1.52.41,2.28l.57,3.07Zm-58.72-2.23,0,0h.11a19,19,0,0,1,1.88-.3,12.21,12.21,0,0,1,2.74.14,20.55,20.55,0,0,1,2.71.64,41,41,0,0,1,5.75,2.41c1.14.55,2.26,1.13,3.4,1.67,1.34.64,2.68,1.26,4,1.87.57.26,1.14.53,1.74.74s1.35.43,2,.62c.93.27,1.86.53,2.8.77s1.85.45,2.79.65,1.67.32,2.5.45c.56.09,1.13.15,1.69.21s1.3.14,1.95.16c.94,0,1.88,0,2.83,0a15.05,15.05,0,0,0,1.76-.17c.86-.14,1.72-.31,2.58-.49.44-.09.87-.22,1.31-.33v-.06c-.18,0-.37,0-.55,0-.54,0-1.08,0-1.62,0s-1.19-.07-1.78-.17a23.67,23.67,0,0,1-2.5-.48c-1.11-.3-2.22-.65-3.3-1-1.35-.48-2.69-1-4-1.52l-3.72-1.45L477,33.86c-.89-.34-1.78-.68-2.69-1q-2-.67-4.11-1.28-1.57-.47-3.17-.86c-1-.26-2.1-.5-3.16-.73-.6-.13-1.21-.23-1.81-.34s-1-.2-1.58-.28-1.12-.14-1.67-.21c-.33,0-.65-.09-1-.11a3,3,0,0,0-.7,0,9.79,9.79,0,0,0-3.2,1.19C453.66,30.4,453.4,30.58,453.13,30.75Z"/><path class="cls-4" d="M450,85a3.23,3.23,0,0,1,1.12-.08,9.48,9.48,0,0,1,1.1.17A5.41,5.41,0,0,1,455,86.64a5.6,5.6,0,0,1,1.58,2.89,6.54,6.54,0,0,1-1.84,6.07A9.71,9.71,0,0,1,452,97.44a9.6,9.6,0,0,1-2.69.84,21.84,21.84,0,0,1-2.8.24q-1.27,0-2.53-.1t-2.5-.31q-.15,2.26-.43,4.48t-.67,4.46q-.39,2.07-1,4.13a31.27,31.27,0,0,1-1.4,4,17.31,17.31,0,0,1-.91,1.8A10.28,10.28,0,0,1,436,118.6a8.37,8.37,0,0,1-1.5,1.47,4.55,4.55,0,0,1-1.93.87.85.85,0,0,1-.56-.08,1.2,1.2,0,0,1-.43-.36,1,1,0,0,1-.19-.53A.94.94,0,0,1,432,119l.51-.22a3.59,3.59,0,0,0,.52-.22,3.44,3.44,0,0,0,.51-.32,7.33,7.33,0,0,0,1.85-2.19,18.23,18.23,0,0,0,1.19-2.58,32.16,32.16,0,0,0,1.79-6.23q.59-3.22.92-6.48.17-1.44.28-3a15.06,15.06,0,0,0-3-.1,10.64,10.64,0,0,0-2.92.61,6.06,6.06,0,0,0-1.41.68,3.43,3.43,0,0,0-1.09,1.14,2.93,2.93,0,0,0-.46,1.48,3.51,3.51,0,0,0,.28,1.54,4.47,4.47,0,0,0,.83,1.2,2,2,0,0,0,1.3.63,1,1,0,0,0,.38,0l.36-.07.34-.13a1,1,0,0,1,.35-.07,1.15,1.15,0,0,1,.58.18.85.85,0,0,1,.37.5,1,1,0,0,1,0,.65,1.14,1.14,0,0,1-.36.46,1.65,1.65,0,0,1-.56.3,5.92,5.92,0,0,1-.61.15,3.6,3.6,0,0,1-1.64-.06,4.91,4.91,0,0,1-1.49-.68,5.37,5.37,0,0,1-1.87-2.66,5.46,5.46,0,0,1-.09-3.24,5.26,5.26,0,0,1,1.74-2.58,7.26,7.26,0,0,1,2.79-1.41,11.69,11.69,0,0,1,3.24-.36q1.64,0,3.25.22l.35,0,.26-.05a.89.89,0,0,1,.58.16q1.12.13,2.22.21a19.55,19.55,0,0,0,2.22,0,11.38,11.38,0,0,0,1.73-.19,5.55,5.55,0,0,0,1.62-.59,6.51,6.51,0,0,0,1.63-1.34,7.1,7.1,0,0,0,.87-1.21,4.27,4.27,0,0,0,.51-1.45,2.73,2.73,0,0,0-.21-1.45,4.43,4.43,0,0,0-.82-1.23,3.88,3.88,0,0,0-.76-.64,8.71,8.71,0,0,1-.82-.6,1.73,1.73,0,0,1-.52-1.12,1.5,1.5,0,0,1,.36-1.15A1.79,1.79,0,0,1,450,85Z"/><path class="cls-4" d="M448.47,115.23a9.44,9.44,0,0,1-1.9-.3,8,8,0,0,1-2.17-.91,7,7,0,0,1-.8-.58,3.78,3.78,0,0,1-1.27-2,3.24,3.24,0,0,1-.1-1.46,5.05,5.05,0,0,1,.72-1.89,6.5,6.5,0,0,1,1.53-1.69,8.3,8.3,0,0,1,2.64-1.41,9.38,9.38,0,0,1,3.18-.46,1.46,1.46,0,0,1,.94.3.91.91,0,0,1,.4.68.81.81,0,0,1-.45.63,1.64,1.64,0,0,1-1,.2,4.75,4.75,0,0,0-2.16.33,5.38,5.38,0,0,0-1.4.84,5.18,5.18,0,0,0-1.15,1.34,3.71,3.71,0,0,0-.54,1.53,1.91,1.91,0,0,0,0,.55,2.41,2.41,0,0,0,.19.85,2.58,2.58,0,0,0,.59.86,2.53,2.53,0,0,0,1.23.61,3.84,3.84,0,0,0,2.84-.39l.49-.34a7.07,7.07,0,0,1-1.91-1.21,2.71,2.71,0,0,1-1.1-2.73,2.38,2.38,0,0,1,1.22-1.46,3.93,3.93,0,0,1,1-.39,4.67,4.67,0,0,1,1.18-.14,3.82,3.82,0,0,1,2.07.51,2.81,2.81,0,0,1,1.3,1.43,4.63,4.63,0,0,1,0,2.7,1.91,1.91,0,0,0,.67-.46,2.5,2.5,0,0,0,.52-.89,1,1,0,0,1,.63-.56,1.71,1.71,0,0,1,1-.05,1.38,1.38,0,0,1,.82.53.85.85,0,0,1,.15.79,3.39,3.39,0,0,1-1.07,1.7,4.36,4.36,0,0,1-1.38.78,6.16,6.16,0,0,1-2.41.25l-.57.56a4,4,0,0,1-.63.49,4.46,4.46,0,0,1-2.24.78A6.06,6.06,0,0,1,448.47,115.23Zm2.3-6.76a1.34,1.34,0,0,0-.49.14.55.55,0,0,0-.3.47,1,1,0,0,0,.21,1.06,3.07,3.07,0,0,0,1.13.83l0-.06a3.11,3.11,0,0,0,.22-1.09,2.36,2.36,0,0,0-.14-.91.55.55,0,0,0-.53-.44Z"/><path class="cls-4" d="M461.92,115.24a8.9,8.9,0,0,1-2.12-.24,5.87,5.87,0,0,1-3-1.73,4.64,4.64,0,0,1-1.19-3,4.37,4.37,0,0,1,0-1.15A7,7,0,0,1,456,108a7,7,0,0,1,1.18-2.2,7.57,7.57,0,0,1,2.05-2.05,6.39,6.39,0,0,1,2.48-1,3.78,3.78,0,0,1,1.9.12,2.68,2.68,0,0,1,1.44,1,2.48,2.48,0,0,1,.53,2.06,4.24,4.24,0,0,1-1.17,2.31,1.41,1.41,0,0,1-.9.39,1.49,1.49,0,0,1-1-.24,1.08,1.08,0,0,1-.57-.73.82.82,0,0,1,.25-.78,2.45,2.45,0,0,0,.65-1.13.87.87,0,0,0-.12-.7.47.47,0,0,0-.51-.19,2.94,2.94,0,0,0-1.36.62,5.87,5.87,0,0,0-1.26,1.37,6.42,6.42,0,0,0-1.23,3.7,2.85,2.85,0,0,0,.09.73,2.79,2.79,0,0,0,.29.72,2,2,0,0,0,.56.61,2.37,2.37,0,0,0,.89.4,4.78,4.78,0,0,0,4.72-1.56,7.2,7.2,0,0,0,1.28-1.78c.27-.57.42-.86.44-.89a1,1,0,0,1,.67-.62,1.59,1.59,0,0,1,1,0,1.38,1.38,0,0,1,.8.6,1.09,1.09,0,0,1,.13.89,2.62,2.62,0,0,0-.17.36c-.09.21-.23.47-.4.79s-.39.67-.63,1.06a6.28,6.28,0,0,1-.93,1.12,7.33,7.33,0,0,1-1.32,1.18,6.43,6.43,0,0,1-1.5.77A7.85,7.85,0,0,1,461.92,115.24Z"/><path class="cls-4" d="M471.11,115a4.5,4.5,0,0,1-1.89-.36,4.08,4.08,0,0,1-2.26-2.21,5,5,0,0,1-.34-2.73,10.78,10.78,0,0,1,.78-2.75,14.7,14.7,0,0,1,1.53-2.77,12.31,12.31,0,0,1,2.06-2.3,6.51,6.51,0,0,1,2.74-1.39,6.06,6.06,0,0,1,4.17.66,3.91,3.91,0,0,1,.89.68c.16.19.34.38.54.58a1.14,1.14,0,0,1,.25,1,1.4,1.4,0,0,1-.54.79,1.44,1.44,0,0,1-1,.26,1.38,1.38,0,0,1-1-.61l-.11-.07h0a4.69,4.69,0,0,0-.62-.54,2.87,2.87,0,0,0-3.53.47,8.79,8.79,0,0,0-1.49,1.71,13.85,13.85,0,0,0-1.25,2.25,8.48,8.48,0,0,0-.69,2.43,3.61,3.61,0,0,0,0,.58,3.79,3.79,0,0,0,.09.71,2.23,2.23,0,0,0,.26.68,1,1,0,0,0,.53.45.58.58,0,0,0,.31.08,1.16,1.16,0,0,0,.46-.09,4,4,0,0,0,1.25-.88,10.32,10.32,0,0,0,1.82-2.78c.16-.39.33-.75.49-1.1a8.53,8.53,0,0,0,.38-1l.21-.67a4.27,4.27,0,0,1,.26-.64,1.29,1.29,0,0,1,.95-.8l.18,0a.55.55,0,0,0,.23,0,.33.33,0,0,1,.24,0h0s0,0,.1,0a1.45,1.45,0,0,1,.73.62,1.29,1.29,0,0,1,.15,1l-.51,1.39a9.85,9.85,0,0,0-.33,2.49,3.72,3.72,0,0,0,.36,1.8.58.58,0,0,0,.13.21l.11.08.21,0a.63.63,0,0,0,.32-.1,3.47,3.47,0,0,0,1-1,9.85,9.85,0,0,0,1-1.82q.39-1,.6-1.67l.22-.76a1.26,1.26,0,0,1,.63-.81,1.33,1.33,0,0,1,1-.15,1.35,1.35,0,0,1,.84.62,1.42,1.42,0,0,1,.18,1.07,7.66,7.66,0,0,1-.25.88c-.17.55-.4,1.21-.69,2-.91,2.15-1.95,3.47-3.12,4a2.83,2.83,0,0,1-1.16.35,3.12,3.12,0,0,1-1.41-.21,3.58,3.58,0,0,1-2.08-1.74.7.7,0,0,1-.15-.29l-.11.14a6.17,6.17,0,0,1-2.55,2A3.66,3.66,0,0,1,471.11,115Zm5.84-11.21c0,.06,0,.08.06.08S477,103.79,476.95,103.74Z"/><path class="cls-4" d="M480.41,118.7a1.51,1.51,0,0,1-1-.35,1.44,1.44,0,0,1-.58-.89,1,1,0,0,1,.15-1,1.25,1.25,0,0,1,.84-.47q2.94-.32,5.87-.71.49-1.42,1-2.87a4,4,0,0,1-2.87-.15,4.14,4.14,0,0,1-2.28-2.36,6.35,6.35,0,0,1-.35-3,11.89,11.89,0,0,1,.75-3,16.39,16.39,0,0,1,1.5-3,11.93,11.93,0,0,1,2.28-2.68A5.91,5.91,0,0,1,488.18,97a5.37,5.37,0,0,1,2.42,0,5.15,5.15,0,0,1,1.55.66,3.6,3.6,0,0,1,.89.91l.35.55a1.47,1.47,0,0,1,.27,1.26,1.41,1.41,0,0,1-.67.83,1.53,1.53,0,0,1-1.07.15,1.37,1.37,0,0,1-.93-.78.74.74,0,0,0-.16-.21,1.79,1.79,0,0,0-.41-.32,2.19,2.19,0,0,0-.72-.25,2.66,2.66,0,0,0-1.09.07,2.81,2.81,0,0,0-1.39.84,10.82,10.82,0,0,0-1.48,1.84,13.26,13.26,0,0,0-1.19,2.44,9.91,9.91,0,0,0-.59,2.38,4.59,4.59,0,0,0,0,1.47,1.24,1.24,0,0,0,.74,1,1,1,0,0,0,1-.05,3.61,3.61,0,0,0,1.39-1.21,12.73,12.73,0,0,0,1.4-2.47c.39-.92.71-1.74,1-2.45l.23-.79a1.63,1.63,0,0,1,.71-.88,1.22,1.22,0,0,1,1-.11,1.16,1.16,0,0,1,.8.68,1.73,1.73,0,0,1,.13,1.14q-.09,0-.3.92-1,3.45-2.09,6.77.54-.57,1.06-1.15a7.55,7.55,0,0,0,.94-1.33,12.07,12.07,0,0,0,.78-1.73,15.45,15.45,0,0,0,.63-2.37,1.48,1.48,0,0,1,.58-.92,1.22,1.22,0,0,1,1-.2,1.34,1.34,0,0,1,.84.68,1.6,1.6,0,0,1,.17,1.14,19.55,19.55,0,0,1-.79,3,13.88,13.88,0,0,1-1.15,2.44,14.26,14.26,0,0,1-1.27,1.72,15.8,15.8,0,0,1-1.36,1.38l-.71.68,2.27-.36a1.36,1.36,0,0,1,1,.29,1.72,1.72,0,0,1,.63,1,1.4,1.4,0,0,1-.16,1.1,1.25,1.25,0,0,1-.88.6q-2.72.35-5.44.64a17.71,17.71,0,0,0-1.19,2.44l-.82,2.47-.26.82a1,1,0,0,1-1,.76,1.66,1.66,0,0,1-1.55-2.11l.21-.56a.64.64,0,0,1,0-.28l.45-1.37q.22-.66.46-1.29l.18-.48q-2.11.21-4.23.38Z"/><path class="cls-4" d="M498,112.31a2.25,2.25,0,0,1-.48,0,2.21,2.21,0,0,1-.5-.09,3.65,3.65,0,0,1-2.65-2.05c-1-1.84-1.05-4.75-.1-9,.3-1.48.62-2.76,1-3.84s.52-1.67.57-1.75a1.43,1.43,0,0,1,.69-.91,1.24,1.24,0,0,1,1.07-.08,1.27,1.27,0,0,1,.77.78,1.8,1.8,0,0,1,0,1.23,13.89,13.89,0,0,0-.51,1.58q-.46,1.56-.9,3.67c-.24,1.18-.4,2.17-.47,3a16.88,16.88,0,0,0-.1,2,5.22,5.22,0,0,0,.13,1.21,2.31,2.31,0,0,0,.24.61.75.75,0,0,0,.63.47,1,1,0,0,0,.77-.35,5.48,5.48,0,0,0,.95-1.25,24.58,24.58,0,0,0,2.18-5.41l.82-3c0-.19.06-.37.1-.52s.09-.34.15-.54q.23-1.17.49-2.33t.45-2.33a2,2,0,0,1,.6-1.09,1.12,1.12,0,0,1,1-.33,1.27,1.27,0,0,1,.86.65,1.67,1.67,0,0,1,.19,1.22c0,.08-.13.71-.34,1.87s-.51,2.57-.9,4.22l-.49,2.49c-.15.79-.27,1.51-.36,2.16a9.86,9.86,0,0,0-.14,2.18,1.88,1.88,0,0,0,.19.77c0,.11.1.17.26.17s.4-.12.71-.48a8,8,0,0,0,1.07-2,15.51,15.51,0,0,0,.87-2.49c.19-.77.28-1.18.28-1.22a1.81,1.81,0,0,1,.66-1,1,1,0,0,1,1-.16,1.18,1.18,0,0,1,.84.77,2.27,2.27,0,0,1,.13,1.32s-.15.52-.37,1.41a22.85,22.85,0,0,1-1,2.94,17.94,17.94,0,0,1-.83,1.71,10,10,0,0,1-.84,1.29A3.27,3.27,0,0,1,505,111a2.51,2.51,0,0,1-1.34,0,3.32,3.32,0,0,1-2.12-1.73l0-.11-.23.32a7.64,7.64,0,0,1-.83,1.26,5.35,5.35,0,0,1-.89.88A3.54,3.54,0,0,1,498,112.31Z"/><path class="cls-4" d="M512.21,110.18a2.05,2.05,0,0,1-1.07,0,3.78,3.78,0,0,1-2.25-1,5.19,5.19,0,0,1-1.14-1.57c-.74-1.58-.86-3.7-.39-6.43a28.11,28.11,0,0,1,.87-3.89q.57-1.91,1.11-3.31a1.64,1.64,0,0,1,.74-1,1,1,0,0,1,1,0,1.44,1.44,0,0,1,.72.89,2.09,2.09,0,0,1,0,1.39c-.44,1.21-.81,2.36-1.1,3.45s-.52,2.1-.68,3a10.41,10.41,0,0,0-.17,2.87,6.66,6.66,0,0,0,.29,1.29,1.61,1.61,0,0,0,.37.48,1.75,1.75,0,0,0,.81.32.92.92,0,0,0,.37,0,2.27,2.27,0,0,0,1.37-1.25,14.87,14.87,0,0,0,.94-2q.26-.73.5-1.5c.16-.51.28-1,.38-1.36s.22-.92.32-1.31a1.91,1.91,0,0,1,.61-1.13,1,1,0,0,1,1-.27,1.33,1.33,0,0,1,.84.78,2.18,2.18,0,0,1,.17,1.36,3.71,3.71,0,0,1-.09.52c-.06.31-.15.7-.25,1.16s-.25,1-.43,1.58-.38,1.18-.61,1.77a10.88,10.88,0,0,1-2.16,3.81A4.38,4.38,0,0,1,512.21,110.18Zm1.64-21.07A1,1,0,0,1,513,89a1.51,1.51,0,0,1-.71-.91,2.19,2.19,0,0,1,.08-1.38l.52-1.28a2.06,2.06,0,0,1,.79-1,.87.87,0,0,1,1,0,1.33,1.33,0,0,1,.73.93,2.27,2.27,0,0,1-.1,1.39L514.83,88A1.75,1.75,0,0,1,513.85,89.11Z"/><path class="cls-4" d="M519.59,110.45a.93.93,0,0,1-.25,0l-.26,0a1.7,1.7,0,0,1-.88-.85,2,2,0,0,1-.22-1.36l.16-1.16a1.8,1.8,0,0,1,.55-1.2,1.08,1.08,0,0,1,1-.31,1.61,1.61,0,0,1,.88.8,2.39,2.39,0,0,1,.26,1.4l-.16,1.19C520.55,109.81,520.19,110.32,519.59,110.45Zm1.31-9.87a.94.94,0,0,1-.25,0l-.26,0a1.53,1.53,0,0,1-.88-.76,2.06,2.06,0,0,1-.22-1.39q1.27-10,2.54-20.4a2.51,2.51,0,0,1,.52-1.37,1.15,1.15,0,0,1,1-.51,1.22,1.22,0,0,1,.88.64,2,2,0,0,1,.26,1.32Q523.26,88.73,522,99C521.87,99.87,521.5,100.4,520.91,100.57Z"/></g></g></svg>