<svg xmlns="http://www.w3.org/2000/svg" xmlns:xlink="http://www.w3.org/1999/xlink" viewBox="0 0 132.98 822.53"><defs><style>.cls-1{fill:#006;}.cls-2{fill:none;stroke:#d9d9d9;stroke-miterlimit:10;}.cls-3{font-size:8px;fill:#5e4337;font-family:Karla-Regular, Karla;letter-spacing:0em;}.cls-4{letter-spacing:-0.08em;}.cls-5{letter-spacing:0em;}.cls-6{fill:#bf0000;}.cls-7{fill:#ff236f;}.cls-8{fill:#ffae00;}.cls-9{fill:url(#Gradiente_sem_nome_9);}.cls-10{fill:#1a7f12;}.cls-11{letter-spacing:-0.08em;}</style><linearGradient id="Gradiente_sem_nome_9" x1="49.72" y1="300.63" x2="86.48" y2="300.63" gradientUnits="userSpaceOnUse"><stop offset="0.01" stop-color="#fff"/><stop offset="1"/></linearGradient></defs><title>oqnaopode</title><g id="Camada_2" data-name="Camada 2"><g id="Marca-_o_que_não_fazer" data-name="Marca- o que não fazer"><path class="cls-1" d="M89.16,444.73v2.62a.74.74,0,0,0,0,.12c0,.23,0,.46-.06.69-.09.54-.2,1.08-.3,1.62s-.19,1.1-.32,1.64a16.48,16.48,0,0,1-.71,2.4c-.29.74-.6,1.47-.93,2.19a11.48,11.48,0,0,1-.65,1.2q-.53.88-1.11,1.73a19.16,19.16,0,0,1-2,2.46c-.44.47-.91.92-1.4,1.35s-.94.79-1.42,1.17a18.41,18.41,0,0,1-2.42,1.58c-.52.29-1.06.56-1.6.81s-1,.46-1.57.65a15,15,0,0,1-2.19.65c-.62.12-1.24.25-1.87.35s-1,.13-1.56.18-.78.08-1.18.1-.76,0-1.14,0l-1.54-.08c-.22,0-.44,0-.65-.05l-1.18-.18c-.47-.08-.94-.16-1.4-.27a19.13,19.13,0,0,1-2.55-.75c-.51-.19-1-.39-1.51-.61s-.91-.44-1.36-.68-.87-.47-1.27-.75c-.6-.41-1.19-.83-1.76-1.27s-1-.8-1.41-1.23a17.56,17.56,0,0,1-1.58-1.68c-.28-.34-.58-.67-.84-1-.49-.69-1-1.38-1.44-2.09-.17-.26-.31-.54-.46-.81l0,0,.1,0c.46.21.91.44,1.39.61a5.94,5.94,0,0,0,2.49.37,7.17,7.17,0,0,0,1.27-.2,7.79,7.79,0,0,0,2.22-1,6.92,6.92,0,0,1,1.39-.83c.45-.16.91-.29,1.37-.43s.79-.22,1.18-.35a.39.39,0,0,0,.27-.43.45.45,0,0,0-.45-.35l-.3,0-.42.07c.19-.1.38-.16.57-.25l1-.46a.32.32,0,0,0,.21-.31.45.45,0,0,0-.61-.41c-.32.11-.64.25-1,.37l-.55.19a.16.16,0,0,1,.07-.08l1.57-1a.38.38,0,0,0,.16-.42.46.46,0,0,0-.75-.24l-1.3.83-.32.19c.14-.17.29-.32.45-.47l.84-.84a.33.33,0,0,0,0-.44c-.16-.21-.31-.26-.51-.15a3.29,3.29,0,0,0-.47.32l-1.36,1.13-.5.4,0-.07.41-.64c.1-.16.18-.34.05-.52s-.34-.34-.57-.17a1.81,1.81,0,0,0-.65.86,3,3,0,0,1-.19.45,3.86,3.86,0,0,1-.95,1.23,4.83,4.83,0,0,1-.66.47,3.2,3.2,0,0,1-2,.39,3.31,3.31,0,0,1-1-.27,3.73,3.73,0,0,1-1.33-1,4.34,4.34,0,0,1-.71-1.21A4.45,4.45,0,0,1,48,450c0-.39.1-.79.18-1.17a8.18,8.18,0,0,1,1-2.53,10.91,10.91,0,0,1,1.6-2.08c.23-.24.49-.45.74-.67a8.1,8.1,0,0,1,1.82-1.18l.2-.1a.94.94,0,0,0-.28,0l-1,.1a9.14,9.14,0,0,0-1.6.35,8.77,8.77,0,0,0-1.72.74,6.73,6.73,0,0,0-1.4,1,9.94,9.94,0,0,0-.89,1,7.94,7.94,0,0,0-1.15,2l-.21.5a.74.74,0,0,1-.26-.5c0-1,0-1.93,0-2.9a1.6,1.6,0,0,1,0-.28c.09-.48.18-1,.28-1.45.13-.64.25-1.28.39-1.92a17.31,17.31,0,0,1,.71-2.42c.27-.68.56-1.36.85-2,.16-.36.34-.7.53-1s.48-.84.73-1.24a17.4,17.4,0,0,1,1.52-2.08c.41-.48.82-1,1.25-1.4s.92-.89,1.39-1.32a11.82,11.82,0,0,1,.92-.76c.49-.37,1-.72,1.51-1.06s1-.59,1.45-.86.87-.45,1.32-.64c.6-.26,1.21-.51,1.82-.73A14.61,14.61,0,0,1,61.2,425q1-.25,2-.45c.43-.09.88-.13,1.31-.18s.82-.09,1.24-.12.65,0,1,0l.11,0h.94l.07,0,1.5.08c.28,0,.55,0,.83.08l1.36.23a17.88,17.88,0,0,1,2.42.62,16.3,16.3,0,0,1,2.28.91c.63.32,1.26.63,1.86,1s1.18.75,1.75,1.14c.38.26.74.56,1.11.85s.55.46.81.7c.42.4.84.81,1.25,1.22.1.1.18.21.27.32a.16.16,0,0,1-.12,0,5.62,5.62,0,0,0-2.26-.5,11,11,0,0,0-1.22,0,3.6,3.6,0,0,0-.78.12c-.65.19-1.3.4-1.94.61a15.63,15.63,0,0,0-2.1.87,2.8,2.8,0,0,1-.49.18l-1.52.4c-.4.11-.8.22-1.19.36s-.48.34-.34.67a.47.47,0,0,0,.47.33l.77-.11.41-.07a.19.19,0,0,1-.08.09l-1.67.89a8.24,8.24,0,0,0-1.27.73.47.47,0,0,0-.14.63.43.43,0,0,0,.61.2l1.54-.67.41-.16c-.6.46-1.21.89-1.82,1.33a.58.58,0,0,0-.32.56.6.6,0,0,0,.31.47.42.42,0,0,0,.47-.06l1.61-1.15.36-.24a1.24,1.24,0,0,1-.16.22l-1.13,1.21a.56.56,0,0,0-.05.79.4.4,0,0,0,.53.09c.12-.1.25-.18.36-.29l.86-.86.34-.35c-.09.19-.21.35-.31.52a.8.8,0,0,0-.18.54.51.51,0,0,0,.25.41.37.37,0,0,0,.45,0,4.81,4.81,0,0,0,.56-.61c.27-.36.48-.76.76-1.1a5.37,5.37,0,0,1,1.57-1.28,4.66,4.66,0,0,1,2-.57,5.14,5.14,0,0,1,1.09.08,4.63,4.63,0,0,1,1.5.56A5.7,5.7,0,0,1,83,437.59a6.6,6.6,0,0,1,.85,1.46,7,7,0,0,1,.58,2.42,13.08,13.08,0,0,1,0,1.52,5.83,5.83,0,0,1-.3,1.39,6.9,6.9,0,0,1-.57,1.31,6.32,6.32,0,0,1-.83,1.16,5.24,5.24,0,0,1-1.18,1,4.72,4.72,0,0,1-1.6.63l-.35.07v0l.93-.06a6.75,6.75,0,0,0,1.43-.24A9.47,9.47,0,0,0,83,447.9a5.26,5.26,0,0,0,.66-.38,9.08,9.08,0,0,0,1.64-1.22c.36-.34.69-.71,1-1.08a8.28,8.28,0,0,0,1-1.52,12.6,12.6,0,0,0,.87-2.1,5.21,5.21,0,0,1,.22-.51h0l.26,1.42.35,1.92Zm-36.64-1.39v0h.07a11.85,11.85,0,0,1,1.17-.18,7.62,7.62,0,0,1,1.71.09,12.82,12.82,0,0,1,1.69.4,25.57,25.57,0,0,1,3.59,1.5c.71.34,1.41.71,2.12,1s1.67.78,2.51,1.17c.36.16.71.33,1.08.46s.84.27,1.27.39c.58.17,1.16.33,1.74.48s1.16.28,1.74.41,1,.2,1.56.28c.35.06.7.09,1.06.13s.81.09,1.22.1c.59,0,1.18,0,1.76,0a9.39,9.39,0,0,0,1.1-.1c.54-.08,1.07-.19,1.61-.3.27-.06.54-.14.82-.21v0c-.11,0-.23,0-.34,0-.34,0-.68,0-1,0s-.75,0-1.11-.1a14.77,14.77,0,0,1-1.56-.3c-.7-.19-1.38-.4-2.06-.64-.84-.3-1.68-.63-2.51-.95l-2.32-.9-2-.77c-.56-.21-1.11-.42-1.68-.61q-1.28-.42-2.56-.8-1-.29-2-.54c-.65-.16-1.31-.31-2-.45-.37-.08-.75-.14-1.13-.21l-1-.17-1-.13-.61-.07a1.9,1.9,0,0,0-.44,0,6.11,6.11,0,0,0-2,.74C52.85,443.11,52.69,443.23,52.52,443.33Z"/><rect class="cls-2" x="1.16" y="407.14" width="131" height="114.76"/><text class="cls-3" transform="translate(7.66 502.59)">Cor diferente da paleta de cores <tspan class="cls-4"><tspan x="0" y="9.6">T</tspan><tspan class="cls-5" x="3.34" y="9.6">ocaqui!</tspan></tspan></text><path class="cls-6" d="M12.66,404.14a11,11,0,1,0,11,11A11,11,0,0,0,12.66,404.14Zm0,1.47a9.53,9.53,0,0,1,7.75,15.08l-13.3-13.3A9.49,9.49,0,0,1,12.66,405.61Zm0,19.06a9.53,9.53,0,0,1-7-16l13.46,13.46A9.48,9.48,0,0,1,12.66,424.68Z"/><path class="cls-7" d="M120.48,47.58V50.2a.74.74,0,0,0,0,.12c0,.23,0,.46-.06.69-.09.54-.2,1.08-.3,1.62s-.19,1.1-.32,1.64a16.48,16.48,0,0,1-.71,2.4c-.29.74-.6,1.47-.93,2.19a11.48,11.48,0,0,1-.65,1.2q-.53.88-1.11,1.73a19.16,19.16,0,0,1-2,2.46c-.44.47-.91.92-1.4,1.35s-.94.79-1.42,1.17a18.41,18.41,0,0,1-2.42,1.58c-.52.29-1.06.56-1.6.81s-1,.46-1.57.65a15,15,0,0,1-2.19.65c-.62.12-1.24.25-1.87.35s-1,.13-1.56.18-.78.08-1.18.1-.76,0-1.14,0L96.52,71c-.22,0-.44,0-.65-.05l-1.18-.18c-.47-.08-.94-.16-1.4-.27a19.13,19.13,0,0,1-2.55-.75c-.51-.19-1-.39-1.51-.61s-.91-.44-1.36-.68S87,68,86.6,67.74c-.6-.41-1.19-.83-1.76-1.27s-1-.8-1.41-1.23a17.56,17.56,0,0,1-1.58-1.68c-.28-.34-.58-.67-.84-1-.49-.69-1-1.38-1.44-2.09-.17-.26-.31-.54-.46-.81l0,0,.1,0c.46.21.91.44,1.39.61a5.94,5.94,0,0,0,2.49.37,7.17,7.17,0,0,0,1.27-.2,7.79,7.79,0,0,0,2.22-1A6.92,6.92,0,0,1,88,58.6c.45-.16.91-.29,1.37-.43s.79-.22,1.18-.35a.39.39,0,0,0,.27-.43.45.45,0,0,0-.45-.35l-.3,0-.42.07c.19-.1.38-.16.57-.25l1-.46a.32.32,0,0,0,.21-.31.45.45,0,0,0-.61-.41c-.32.11-.64.25-1,.37l-.55.19a.16.16,0,0,1,.07-.08l1.57-1a.38.38,0,0,0,.16-.42.46.46,0,0,0-.75-.24l-1.3.83-.32.19c.14-.17.29-.32.45-.47l.84-.84a.33.33,0,0,0,0-.44c-.16-.21-.31-.26-.51-.15a3.29,3.29,0,0,0-.47.32l-1.36,1.13-.5.4,0-.07.41-.64c.1-.16.18-.34.05-.52s-.34-.34-.57-.17a1.81,1.81,0,0,0-.65.86,3,3,0,0,1-.19.45,3.86,3.86,0,0,1-.95,1.23,4.83,4.83,0,0,1-.66.47,3.2,3.2,0,0,1-2,.39,3.31,3.31,0,0,1-1-.27,3.73,3.73,0,0,1-1.33-1A4.34,4.34,0,0,1,79.66,55a4.45,4.45,0,0,1-.32-2.18c0-.39.1-.79.18-1.17a8.18,8.18,0,0,1,1-2.53,10.91,10.91,0,0,1,1.6-2.08c.23-.24.49-.45.74-.67a8.1,8.1,0,0,1,1.82-1.18l.2-.1a.94.94,0,0,0-.28,0l-1,.1a9.14,9.14,0,0,0-1.6.35,8.77,8.77,0,0,0-1.72.74,6.73,6.73,0,0,0-1.4,1,9.94,9.94,0,0,0-.89,1,7.94,7.94,0,0,0-1.15,2l-.21.5a.74.74,0,0,1-.26-.5c0-1,0-1.93,0-2.9a1.6,1.6,0,0,1,0-.28c.09-.48.18-1,.28-1.45.13-.64.25-1.28.39-1.92a17.31,17.31,0,0,1,.71-2.42c.27-.68.56-1.36.85-2,.16-.36.34-.7.53-1s.48-.84.73-1.24A17.4,17.4,0,0,1,81.44,35c.41-.48.82-1,1.25-1.4s.92-.89,1.39-1.32a11.82,11.82,0,0,1,.92-.76c.49-.37,1-.72,1.51-1.06s1-.59,1.45-.86.87-.45,1.32-.64c.6-.26,1.21-.51,1.82-.73a14.61,14.61,0,0,1,1.42-.44q1-.25,2-.45c.43-.09.88-.13,1.31-.18s.82-.09,1.24-.12.65,0,1,0l.11,0h.94l.07,0,1.5.08c.28,0,.55,0,.83.08l1.36.23a17.88,17.88,0,0,1,2.42.62,16.3,16.3,0,0,1,2.28.91c.63.32,1.26.63,1.86,1s1.18.75,1.75,1.14c.38.26.74.56,1.11.85s.55.46.81.7c.42.4.84.81,1.25,1.22.1.1.18.21.27.32a.16.16,0,0,1-.12,0,5.62,5.62,0,0,0-2.26-.5,11,11,0,0,0-1.22,0,3.6,3.6,0,0,0-.78.12c-.65.19-1.3.4-1.94.61a15.63,15.63,0,0,0-2.1.87,2.8,2.8,0,0,1-.49.18l-1.52.4c-.4.11-.8.22-1.19.36s-.48.34-.34.67a.47.47,0,0,0,.47.33l.77-.11.41-.07a.19.19,0,0,1-.08.09l-1.67.89a8.24,8.24,0,0,0-1.27.73.47.47,0,0,0-.14.63.43.43,0,0,0,.61.2l1.54-.67.41-.16c-.6.46-1.21.89-1.82,1.33a.58.58,0,0,0-.32.56.6.6,0,0,0,.31.47.42.42,0,0,0,.47-.06l1.61-1.15.36-.24a1.24,1.24,0,0,1-.16.22l-1.13,1.21a.56.56,0,0,0-.05.79.4.4,0,0,0,.53.09c.12-.1.25-.18.36-.29l.86-.86.34-.35c-.09.19-.21.35-.31.52a.8.8,0,0,0-.18.54.51.51,0,0,0,.25.41.37.37,0,0,0,.45,0,4.81,4.81,0,0,0,.56-.61c.27-.36.48-.76.76-1.1a5.37,5.37,0,0,1,1.57-1.28,4.66,4.66,0,0,1,2-.57,5.14,5.14,0,0,1,1.09.08,4.63,4.63,0,0,1,1.5.56,5.7,5.7,0,0,1,1.63,1.44,6.6,6.6,0,0,1,.85,1.46,7,7,0,0,1,.58,2.42,13.08,13.08,0,0,1,0,1.52,5.83,5.83,0,0,1-.3,1.39,6.9,6.9,0,0,1-.57,1.31A6.32,6.32,0,0,1,114,49.7a5.24,5.24,0,0,1-1.18,1,4.72,4.72,0,0,1-1.6.63l-.35.07v0l.93-.06a6.75,6.75,0,0,0,1.43-.24,9.47,9.47,0,0,0,1.09-.37,5.26,5.26,0,0,0,.66-.38,9.08,9.08,0,0,0,1.64-1.22c.36-.34.69-.71,1-1.08a8.28,8.28,0,0,0,1-1.52,12.6,12.6,0,0,0,.87-2.1,5.21,5.21,0,0,1,.22-.51h0l.26,1.42.35,1.92ZM83.84,46.19v0h.07A11.85,11.85,0,0,1,85.09,46a7.62,7.62,0,0,1,1.71.09,12.82,12.82,0,0,1,1.69.4A25.57,25.57,0,0,1,92.08,48c.71.34,1.41.71,2.12,1s1.67.78,2.51,1.17c.36.16.71.33,1.08.46s.84.27,1.27.39c.58.17,1.16.33,1.74.48s1.16.28,1.74.41,1,.2,1.56.28c.35.06.7.09,1.06.13s.81.09,1.22.1c.59,0,1.18,0,1.76,0a9.39,9.39,0,0,0,1.1-.1c.54-.08,1.07-.19,1.61-.3.27-.06.54-.14.82-.21v0c-.11,0-.23,0-.34,0-.34,0-.68,0-1,0s-.75,0-1.11-.1a14.77,14.77,0,0,1-1.56-.3c-.7-.19-1.38-.4-2.06-.64-.84-.3-1.68-.63-2.51-.95l-2.32-.9-2-.77c-.56-.21-1.11-.42-1.68-.61q-1.28-.42-2.56-.8-1-.29-2-.54c-.65-.16-1.31-.31-2-.45-.37-.08-.75-.14-1.13-.21l-1-.17-1-.13-.61-.07a1.9,1.9,0,0,0-.44,0,6.11,6.11,0,0,0-2,.74C84.17,46,84,46.08,83.84,46.19Z"/><path class="cls-7" d="M28.86,41a2,2,0,0,1,.7,0,5.92,5.92,0,0,1,.68.1,3.37,3.37,0,0,1,1.75,1,3.49,3.49,0,0,1,1,1.8,4.08,4.08,0,0,1-1.15,3.79,6.06,6.06,0,0,1-1.68,1.15,6,6,0,0,1-1.68.52,13.63,13.63,0,0,1-1.75.15q-.79,0-1.58-.06t-1.56-.19q-.09,1.41-.27,2.79t-.42,2.78q-.25,1.29-.6,2.58a19.51,19.51,0,0,1-.87,2.5A10.8,10.8,0,0,1,20.87,61a6.41,6.41,0,0,1-.72,1,5.22,5.22,0,0,1-.94.92,2.84,2.84,0,0,1-1.2.54.53.53,0,0,1-.35-.05.75.75,0,0,1-.27-.23.64.64,0,0,1-.12-.33.59.59,0,0,1,.36-.57l.32-.14a2.24,2.24,0,0,0,.33-.14,2.14,2.14,0,0,0,.32-.2,4.58,4.58,0,0,0,1.15-1.37,11.38,11.38,0,0,0,.74-1.61,20.06,20.06,0,0,0,1.12-3.89q.37-2,.58-4,.11-.9.17-1.9a9.4,9.4,0,0,0-1.86-.06,6.64,6.64,0,0,0-1.82.38,3.78,3.78,0,0,0-.88.43,2.14,2.14,0,0,0-.68.71,1.83,1.83,0,0,0-.28.92,2.19,2.19,0,0,0,.17,1,2.79,2.79,0,0,0,.52.75,1.22,1.22,0,0,0,.81.39.61.61,0,0,0,.24,0l.23,0,.21-.08a.59.59,0,0,1,.22,0,.72.72,0,0,1,.36.11.53.53,0,0,1,.23.31.63.63,0,0,1,0,.41.71.71,0,0,1-.22.29,1,1,0,0,1-.35.18l-.38.09a2.24,2.24,0,0,1-1,0,3.07,3.07,0,0,1-.93-.42,3.35,3.35,0,0,1-1.16-1.66,3.41,3.41,0,0,1-.06-2,3.28,3.28,0,0,1,1.08-1.61,4.53,4.53,0,0,1,1.74-.88,7.3,7.3,0,0,1,2-.23q1,0,2,.14l.22,0L23,48a.56.56,0,0,1,.36.1l1.39.13a12.2,12.2,0,0,0,1.39,0,7.1,7.1,0,0,0,1.08-.12,3.46,3.46,0,0,0,1-.37,4.06,4.06,0,0,0,1-.84,4.43,4.43,0,0,0,.54-.76,2.67,2.67,0,0,0,.32-.91,1.7,1.7,0,0,0-.13-.91,2.76,2.76,0,0,0-.51-.77,2.42,2.42,0,0,0-.47-.4,5.43,5.43,0,0,1-.51-.37,1.08,1.08,0,0,1-.33-.7.94.94,0,0,1,.23-.72A1.12,1.12,0,0,1,28.86,41Z"/><path class="cls-7" d="M27.93,59.9a5.84,5.84,0,0,1-1.19-.19,5,5,0,0,1-1.35-.57,4.2,4.2,0,0,1-.5-.36,2.93,2.93,0,0,1-.41-.42,2.9,2.9,0,0,1-.39-.8,2,2,0,0,1-.06-.91,3.1,3.1,0,0,1,.45-1.18,4.07,4.07,0,0,1,1-1.05,5.12,5.12,0,0,1,1.65-.88,5.88,5.88,0,0,1,2-.28.91.91,0,0,1,.59.18.57.57,0,0,1,.25.43.5.5,0,0,1-.28.4,1,1,0,0,1-.61.13,3,3,0,0,0-1.35.21,3.44,3.44,0,0,0-.88.52,3.27,3.27,0,0,0-.72.83,2.29,2.29,0,0,0-.34,1,1.07,1.07,0,0,0,0,.34,1.56,1.56,0,0,0,.12.53,1.61,1.61,0,0,0,.37.54,1.58,1.58,0,0,0,.76.38,2.39,2.39,0,0,0,1.77-.24l.3-.21a4.42,4.42,0,0,1-1.19-.76,1.7,1.7,0,0,1-.69-1.7,1.49,1.49,0,0,1,.76-.91,2.47,2.47,0,0,1,.63-.24,2.9,2.9,0,0,1,.74-.08,2.38,2.38,0,0,1,1.29.32,1.74,1.74,0,0,1,.81.89,2.9,2.9,0,0,1,0,1.68,1.16,1.16,0,0,0,.42-.28,1.56,1.56,0,0,0,.32-.56.59.59,0,0,1,.39-.35,1.08,1.08,0,0,1,.65,0,.85.85,0,0,1,.51.33.52.52,0,0,1,.1.49,2.07,2.07,0,0,1-.67,1.06,2.73,2.73,0,0,1-.86.48,3.88,3.88,0,0,1-1.5.16l-.35.35a2.43,2.43,0,0,1-.39.3,2.8,2.8,0,0,1-1.4.49A3.82,3.82,0,0,1,27.93,59.9Zm1.44-4.22a.8.8,0,0,0-.3.09.34.34,0,0,0-.19.29.64.64,0,0,0,.13.66,1.89,1.89,0,0,0,.71.51v0a1.88,1.88,0,0,0,.14-.68,1.44,1.44,0,0,0-.08-.57.35.35,0,0,0-.33-.27Z"/><path class="cls-7" d="M36.32,59.9A5.55,5.55,0,0,1,35,59.75a3.69,3.69,0,0,1-1.88-1.08,2.9,2.9,0,0,1-.74-1.85,2.58,2.58,0,0,1,0-.72,4.21,4.21,0,0,1,.2-.73A4.46,4.46,0,0,1,33.34,54a4.62,4.62,0,0,1,1.28-1.28,4,4,0,0,1,1.55-.63,2.37,2.37,0,0,1,1.18.08,1.67,1.67,0,0,1,.9.6,1.54,1.54,0,0,1,.33,1.28,2.64,2.64,0,0,1-.73,1.44.88.88,0,0,1-.56.24.92.92,0,0,1-.62-.15.67.67,0,0,1-.35-.46.51.51,0,0,1,.16-.49,1.51,1.51,0,0,0,.41-.71.55.55,0,0,0-.08-.44.29.29,0,0,0-.32-.12,1.84,1.84,0,0,0-.85.39,3.6,3.6,0,0,0-.78.85,3.92,3.92,0,0,0-.58,1.13,3.82,3.82,0,0,0-.19,1.17,1.83,1.83,0,0,0,.24.91,1.32,1.32,0,0,0,.35.38,1.51,1.51,0,0,0,.56.25,3,3,0,0,0,2.94-1,4.64,4.64,0,0,0,.8-1.11c.17-.35.26-.54.27-.56a.65.65,0,0,1,.42-.38,1,1,0,0,1,.65,0,.86.86,0,0,1,.5.38.67.67,0,0,1,.08.55l-.11.22c-.06.13-.14.29-.25.49s-.24.42-.4.66a3.74,3.74,0,0,1-.58.7,4.57,4.57,0,0,1-.82.74,4,4,0,0,1-.93.48A4.89,4.89,0,0,1,36.32,59.9Z"/><path class="cls-7" d="M42.06,59.72a2.82,2.82,0,0,1-1.18-.23,2.57,2.57,0,0,1-1.41-1.38,3.14,3.14,0,0,1-.21-1.7,6.76,6.76,0,0,1,.49-1.72,9.2,9.2,0,0,1,1-1.73A7.91,7.91,0,0,1,42,51.53a4.07,4.07,0,0,1,1.71-.87,3.78,3.78,0,0,1,2.6.41,2.5,2.5,0,0,1,.55.42c.1.12.21.24.34.36a.72.72,0,0,1,.15.63A.87.87,0,0,1,47,53a.91.91,0,0,1-.6.16.86.86,0,0,1-.63-.38l-.07,0h0a2.87,2.87,0,0,0-.39-.33,1.79,1.79,0,0,0-2.21.29,5.62,5.62,0,0,0-.93,1.07,8.93,8.93,0,0,0-.78,1.4,5.28,5.28,0,0,0-.43,1.51,2.23,2.23,0,0,0,0,.36,1.94,1.94,0,0,0,.05.44,1.64,1.64,0,0,0,.16.43.64.64,0,0,0,.33.28.37.37,0,0,0,.2,0,.75.75,0,0,0,.29-.06,2.48,2.48,0,0,0,.78-.55,6.44,6.44,0,0,0,1.14-1.73l.3-.69a6,6,0,0,0,.23-.6c0-.15.08-.29.13-.42a2.73,2.73,0,0,1,.16-.4.8.8,0,0,1,.59-.5l.11,0a.35.35,0,0,0,.15,0,.21.21,0,0,1,.15,0h0s0,0,.06,0a.89.89,0,0,1,.46.39.81.81,0,0,1,.1.62l-.31.87a6.15,6.15,0,0,0-.2,1.55A2.32,2.32,0,0,0,46,57.86a.42.42,0,0,0,.08.13l.07,0,.13,0a.39.39,0,0,0,.2-.06,2.19,2.19,0,0,0,.61-.62,6,6,0,0,0,.62-1.14c.17-.43.29-.78.37-1l.14-.47a.8.8,0,0,1,.39-.5.83.83,0,0,1,.65-.1.85.85,0,0,1,.52.39.88.88,0,0,1,.11.67s-.05.2-.16.55-.25.75-.43,1.22a4.51,4.51,0,0,1-1.95,2.5,1.79,1.79,0,0,1-.72.22,2,2,0,0,1-.88-.13,2.22,2.22,0,0,1-1.3-1.09.49.49,0,0,1-.09-.18l-.07.09a3.86,3.86,0,0,1-1.59,1.23A2.24,2.24,0,0,1,42.06,59.72Zm3.64-7s0,.05,0,0S45.71,52.76,45.7,52.73Z"/><path class="cls-7" d="M47.86,62.06a.94.94,0,0,1-.61-.22.9.9,0,0,1-.36-.56.64.64,0,0,1,.09-.6.77.77,0,0,1,.52-.3q1.83-.2,3.66-.44l.61-1.79A2.52,2.52,0,0,1,50,58.07a2.6,2.6,0,0,1-1.43-1.47,4,4,0,0,1-.22-1.87,7.29,7.29,0,0,1,.47-1.85A10,10,0,0,1,49.76,51a7.51,7.51,0,0,1,1.42-1.67,3.66,3.66,0,0,1,1.53-.83,3.37,3.37,0,0,1,1.51,0,3.26,3.26,0,0,1,1,.41,2.25,2.25,0,0,1,.56.57l.22.34a.91.91,0,0,1,.17.79.87.87,0,0,1-.42.52,1,1,0,0,1-.67.09.86.86,0,0,1-.58-.49.45.45,0,0,0-.1-.13,1,1,0,0,0-.25-.2,1.36,1.36,0,0,0-.45-.15,1.68,1.68,0,0,0-.68,0,1.75,1.75,0,0,0-.87.52,6.46,6.46,0,0,0-.92,1.15,8.32,8.32,0,0,0-.74,1.52,6.28,6.28,0,0,0-.37,1.48,2.77,2.77,0,0,0,0,.92.77.77,0,0,0,.46.62.65.65,0,0,0,.65,0,2.29,2.29,0,0,0,.87-.76A7.82,7.82,0,0,0,53,54.14c.25-.57.44-1.08.59-1.53l.14-.49a1,1,0,0,1,.44-.55.76.76,0,0,1,.64-.07.72.72,0,0,1,.5.42,1.08,1.08,0,0,1,.08.71s-.1.2-.19.58q-.65,2.15-1.3,4.22l.66-.72a4.53,4.53,0,0,0,.59-.83,7.65,7.65,0,0,0,.49-1.08A9.77,9.77,0,0,0,56,53.33a.91.91,0,0,1,.37-.57.76.76,0,0,1,.65-.12.83.83,0,0,1,.52.42,1,1,0,0,1,.11.71,11.47,11.47,0,0,1-.49,1.87,8.64,8.64,0,0,1-.72,1.52,8.46,8.46,0,0,1-.79,1.07,9.69,9.69,0,0,1-.85.86l-.44.42,1.42-.22a.85.85,0,0,1,.63.18,1.07,1.07,0,0,1,.39.63.88.88,0,0,1-.1.69.79.79,0,0,1-.55.37q-1.7.22-3.39.4A10.74,10.74,0,0,0,52,63.1l-.51,1.54-.16.51a.6.6,0,0,1-.64.47,1,1,0,0,1-1-1.31l.13-.35a.38.38,0,0,1,0-.18l.28-.85c.09-.28.18-.54.29-.8l.11-.3-2.64.23Z"/><path class="cls-7" d="M58.82,58.08a1.35,1.35,0,0,1-.3,0,1.4,1.4,0,0,1-.31-.05,2.28,2.28,0,0,1-1.65-1.28c-.64-1.15-.66-3-.06-5.59.19-.92.39-1.72.59-2.4s.32-1,.35-1.09a.89.89,0,0,1,.43-.57.77.77,0,0,1,.67-.05.79.79,0,0,1,.48.49,1.1,1.1,0,0,1,0,.77,9.15,9.15,0,0,0-.32,1c-.19.65-.38,1.41-.56,2.29s-.25,1.35-.3,1.86a9.5,9.5,0,0,0-.06,1.24,3,3,0,0,0,.08.75,1.5,1.5,0,0,0,.15.38.47.47,0,0,0,.4.29.64.64,0,0,0,.48-.22,3.31,3.31,0,0,0,.59-.78,15.3,15.3,0,0,0,1.36-3.38l.51-1.88c0-.12,0-.23.06-.33s.05-.21.09-.34c.1-.49.2-1,.31-1.45s.2-1,.28-1.46a1.22,1.22,0,0,1,.38-.68.7.7,0,0,1,.63-.21.79.79,0,0,1,.54.41,1,1,0,0,1,.12.76c0,.05-.08.44-.21,1.17s-.31,1.6-.56,2.63c-.11.54-.21,1.06-.31,1.55s-.17.94-.22,1.35a6,6,0,0,0-.09,1.36,1.16,1.16,0,0,0,.12.48c0,.07.06.1.16.11s.25-.07.44-.3a5,5,0,0,0,.67-1.28,9.3,9.3,0,0,0,.54-1.55c.12-.48.18-.74.17-.76a1.13,1.13,0,0,1,.41-.65.64.64,0,0,1,.64-.1.73.73,0,0,1,.53.48,1.45,1.45,0,0,1,.08.82s-.09.32-.23.88a14.24,14.24,0,0,1-.6,1.83,10.71,10.71,0,0,1-.52,1.07,6.06,6.06,0,0,1-.52.8,2,2,0,0,1-1.06.78,1.56,1.56,0,0,1-.84,0A2.07,2.07,0,0,1,61,56.16v-.07l-.14.2a4.64,4.64,0,0,1-.52.79,3.45,3.45,0,0,1-.56.55A2.21,2.21,0,0,1,58.82,58.08Z"/><path class="cls-7" d="M67.7,56.75a1.27,1.27,0,0,1-.67,0,2.37,2.37,0,0,1-1.4-.6,3.32,3.32,0,0,1-.71-1,6.81,6.81,0,0,1-.24-4,18.06,18.06,0,0,1,.54-2.42c.24-.79.47-1.48.69-2.07a1,1,0,0,1,.46-.63A.61.61,0,0,1,67,46a.91.91,0,0,1,.45.56,1.29,1.29,0,0,1,0,.87q-.42,1.14-.69,2.15t-.43,1.9a6.39,6.39,0,0,0-.11,1.79,4,4,0,0,0,.18.8,1,1,0,0,0,.23.3,1.07,1.07,0,0,0,.51.2.56.56,0,0,0,.23,0,1.41,1.41,0,0,0,.85-.78,8.82,8.82,0,0,0,.59-1.22c.11-.31.22-.62.31-.94s.17-.6.24-.85l.2-.82a1.18,1.18,0,0,1,.38-.7.66.66,0,0,1,.63-.17.83.83,0,0,1,.52.48,1.35,1.35,0,0,1,.11.85,1.89,1.89,0,0,1-.05.33l-.16.73c-.07.29-.15.62-.27,1s-.24.73-.38,1.1A6.77,6.77,0,0,1,69,56,2.73,2.73,0,0,1,67.7,56.75Zm1-13.15a.64.64,0,0,1-.54-.07.93.93,0,0,1-.44-.57,1.34,1.34,0,0,1,0-.86l.32-.8a1.28,1.28,0,0,1,.5-.65.54.54,0,0,1,.62,0,.83.83,0,0,1,.46.58,1.43,1.43,0,0,1-.06.87l-.29.84A1.09,1.09,0,0,1,68.73,43.6Z"/><path class="cls-7" d="M72.31,56.91h-.16l-.16,0a1.06,1.06,0,0,1-.55-.53,1.28,1.28,0,0,1-.13-.85l.1-.73a1.09,1.09,0,0,1,.34-.75.67.67,0,0,1,.62-.19,1,1,0,0,1,.55.5,1.47,1.47,0,0,1,.17.88L73,56C72.91,56.52,72.69,56.83,72.31,56.91Zm.82-6.16-.16,0h-.16a1,1,0,0,1-.55-.47,1.31,1.31,0,0,1-.14-.87q.79-6.25,1.58-12.73a1.57,1.57,0,0,1,.33-.85.72.72,0,0,1,.64-.32.76.76,0,0,1,.55.4,1.27,1.27,0,0,1,.16.83q-.79,6.62-1.58,13C73.73,50.31,73.5,50.65,73.13,50.75Z"/><rect class="cls-2" x="1.48" y="3" width="131" height="114.44"/><text class="cls-3" transform="translate(7.48 98.45)">Nome ao lado esquerdo do <tspan x="0" y="9.6">símbolo</tspan></text><path class="cls-6" d="M12.48,0a11,11,0,1,0,11,11A11,11,0,0,0,12.48,0Zm0,1.47a9.53,9.53,0,0,1,7.75,15.08L6.93,3.25A9.49,9.49,0,0,1,12.48,1.47Zm0,19.06a9.53,9.53,0,0,1-7-16L18.93,18A9.48,9.48,0,0,1,12.48,20.53Z"/><rect class="cls-2" x="0.5" y="538.96" width="131" height="116.54"/><path class="cls-7" d="M90.5,563.11v2.18a.5.5,0,0,0,0,.1,5.66,5.66,0,0,1-.06.57c-.1.45-.22.9-.33,1.35s-.21.92-.35,1.37a11.31,11.31,0,0,1-.78,2c-.32.61-.66,1.22-1,1.83a9.15,9.15,0,0,1-.72,1q-.59.73-1.23,1.44a17.85,17.85,0,0,1-2.2,2.05c-.49.39-1,.76-1.55,1.12s-1,.66-1.57,1A22,22,0,0,1,78,580.43c-.58.24-1.17.47-1.77.68s-1.15.38-1.74.54a20.85,20.85,0,0,1-2.43.54c-.69.1-1.38.21-2.07.29s-1.15.11-1.72.15-.87.07-1.3.08-.84,0-1.26,0l-1.7-.06-.72,0-1.3-.15c-.52-.07-1-.14-1.55-.22a26.68,26.68,0,0,1-2.82-.63c-.56-.16-1.12-.33-1.67-.51s-1-.37-1.5-.57-1-.4-1.41-.63c-.66-.34-1.32-.69-1.95-1.06s-1.06-.67-1.56-1a17.48,17.48,0,0,1-1.75-1.4c-.31-.29-.65-.56-.93-.86-.55-.57-1.07-1.15-1.59-1.74-.19-.21-.34-.45-.51-.67l0,0,.11,0c.51.17,1,.37,1.54.51a8.57,8.57,0,0,0,2.75.31,10.37,10.37,0,0,0,1.41-.17A10.23,10.23,0,0,0,53,573a8.49,8.49,0,0,1,1.54-.69c.5-.13,1-.24,1.52-.36l1.31-.29c.22-.05.34-.23.3-.36a.5.5,0,0,0-.5-.29l-.33,0-.47.06c.21-.08.42-.14.63-.21l1.08-.38c.14-.05.25-.15.23-.26a.51.51,0,0,0-.68-.34c-.36.09-.7.21-1.06.31l-.61.16a.15.15,0,0,1,.08-.07l1.74-.83a.29.29,0,0,0,.18-.35.58.58,0,0,0-.83-.2l-1.44.7-.35.16c.16-.14.33-.27.49-.39l.93-.7a.23.23,0,0,0,0-.37.46.46,0,0,0-.56-.12,3.88,3.88,0,0,0-.52.26l-1.51.94-.55.34,0-.06.46-.54c.12-.14.2-.28.06-.43s-.38-.29-.63-.14a1.64,1.64,0,0,0-.71.72,2.24,2.24,0,0,1-.21.37,3.53,3.53,0,0,1-1,1,5.61,5.61,0,0,1-.73.39,4.55,4.55,0,0,1-2.23.32,4.62,4.62,0,0,1-1.06-.23,4.21,4.21,0,0,1-1.47-.85,3.57,3.57,0,0,1-.79-1,2.89,2.89,0,0,1-.35-1.81,9.55,9.55,0,0,1,.2-1,6,6,0,0,1,1.1-2.11A10,10,0,0,1,48,562.69c.25-.2.54-.37.82-.55a9.7,9.7,0,0,1,2-1l.22-.08a1.38,1.38,0,0,0-.31,0l-1.12.09a13,13,0,0,0-1.77.29,11.6,11.6,0,0,0-1.91.62,7.74,7.74,0,0,0-1.55.85,9.7,9.7,0,0,0-1,.82,6.43,6.43,0,0,0-1.27,1.7l-.23.42c-.16-.13-.29-.25-.29-.42,0-.8,0-1.61,0-2.41a1,1,0,0,1,0-.23c.1-.4.2-.81.31-1.21s.27-1.07.43-1.6a11.88,11.88,0,0,1,.79-2c.3-.57.62-1.13.94-1.69a9.82,9.82,0,0,1,.59-.87c.26-.35.53-.7.81-1a15.55,15.55,0,0,1,1.68-1.73c.45-.4.91-.79,1.39-1.17s1-.74,1.54-1.1c.33-.22.66-.44,1-.64.55-.3,1.1-.6,1.67-.88s1.06-.49,1.6-.71,1-.37,1.46-.54c.66-.22,1.34-.42,2-.61.51-.14,1-.27,1.57-.37q1.09-.21,2.2-.37c.48-.07,1-.11,1.46-.15l1.37-.1c.36,0,.72,0,1.08,0l.12,0h1l.08,0,1.66.07c.31,0,.61,0,.91.07l1.5.19a25.24,25.24,0,0,1,2.68.52,21.87,21.87,0,0,1,2.52.76c.7.26,1.39.53,2.06.82s1.31.62,1.94,1c.42.22.82.46,1.22.71s.61.38.89.59c.47.33.92.68,1.38,1,.11.08.2.18.29.27a.23.23,0,0,1-.14,0,8,8,0,0,0-2.5-.42c-.45,0-.9,0-1.35,0a5.21,5.21,0,0,0-.86.1c-.72.16-1.44.33-2.15.51a20.84,20.84,0,0,0-2.33.72,3.8,3.8,0,0,1-.54.15l-1.68.34c-.44.09-.89.18-1.32.3s-.53.28-.37.56a.53.53,0,0,0,.52.27l.85-.09.45-.06a.19.19,0,0,1-.09.08l-1.85.74a10.21,10.21,0,0,0-1.41.61c-.23.14-.3.34-.16.53a.55.55,0,0,0,.67.17l1.71-.56.45-.13c-.66.38-1.34.74-2,1.11-.21.11-.39.24-.36.46a.52.52,0,0,0,.35.39.58.58,0,0,0,.52-.05l1.78-1,.4-.2a1.12,1.12,0,0,1-.18.18l-1.26,1c-.24.19-.31.43-.06.66a.54.54,0,0,0,.58.07c.13-.09.28-.15.4-.24l1-.72.38-.29a5.45,5.45,0,0,1-.34.43c-.11.14-.23.27-.2.45a.43.43,0,0,0,.28.34.52.52,0,0,0,.5,0,4.74,4.74,0,0,0,.62-.51c.3-.3.53-.63.85-.92a5.93,5.93,0,0,1,1.73-1.06,6.51,6.51,0,0,1,2.25-.47,7.53,7.53,0,0,1,1.21.07,6.25,6.25,0,0,1,1.67.47,6.1,6.1,0,0,1,1.81,1.2,5.4,5.4,0,0,1,.94,1.22,4.66,4.66,0,0,1,.64,2,8.22,8.22,0,0,1-.05,1.26,3.85,3.85,0,0,1-.33,1.16,5.16,5.16,0,0,1-.64,1.09,5.61,5.61,0,0,1-.92,1,5.75,5.75,0,0,1-1.31.82,6.33,6.33,0,0,1-1.77.53l-.39.05v0l1-.05a9.76,9.76,0,0,0,1.58-.2c.41-.08.81-.19,1.2-.31a6.55,6.55,0,0,0,.74-.31,10.4,10.4,0,0,0,1.82-1c.39-.28.76-.59,1.12-.9a7.13,7.13,0,0,0,1.12-1.27,9.27,9.27,0,0,0,1-1.75,3.9,3.9,0,0,1,.25-.42h0l.28,1.18.39,1.6ZM49.92,562v0H50c.43-.05.86-.13,1.3-.15a11.18,11.18,0,0,1,1.9.07,18.21,18.21,0,0,1,1.87.33,34,34,0,0,1,4,1.25l2.35.87,2.78,1c.39.14.79.27,1.2.38s.93.22,1.4.32c.64.14,1.29.28,1.93.4s1.28.24,1.93.34,1.15.17,1.73.23c.39,0,.78.08,1.17.11s.9.07,1.35.08c.65,0,1.3,0,2,0,.41,0,.82,0,1.22-.09.6-.07,1.19-.16,1.78-.25.3,0,.6-.11.9-.17v0l-.38,0-1.12,0c-.41,0-.83,0-1.23-.09-.58-.07-1.16-.13-1.72-.25-.77-.15-1.53-.34-2.28-.54-.94-.25-1.86-.52-2.78-.79l-2.57-.75-2.22-.65c-.62-.18-1.23-.35-1.86-.51q-1.41-.35-2.84-.67-1.09-.24-2.19-.45c-.72-.14-1.45-.26-2.18-.38l-1.25-.18L55,561.25l-1.16-.11-.68-.06a2.79,2.79,0,0,0-.48,0,8.27,8.27,0,0,0-2.21.62C50.29,561.77,50.11,561.86,49.92,562Z"/><path class="cls-7" d="M47.73,590.14a3,3,0,0,1,.77,0q.41,0,.76.09a4.17,4.17,0,0,1,1.94.83,2.81,2.81,0,0,1,1.09,1.5,2.58,2.58,0,0,1-.11,1.73A3.4,3.4,0,0,1,51,595.67a7.12,7.12,0,0,1-1.86,1,8.29,8.29,0,0,1-1.86.44q-.95.11-1.94.13t-1.75-.05q-.87-.05-1.73-.16-.1,1.18-.3,2.33t-.47,2.32a22.36,22.36,0,0,1-.66,2.15,13.79,13.79,0,0,1-1,2.08,8.41,8.41,0,0,1-.63.94,5.68,5.68,0,0,1-.8.84,5.37,5.37,0,0,1-1,.77,3.71,3.71,0,0,1-1.33.45.76.76,0,0,1-.39,0,.81.81,0,0,1-.3-.19.46.46,0,0,1-.13-.28A.38.38,0,0,1,35,608a.61.61,0,0,1,.29-.18l.35-.11.36-.11a2.59,2.59,0,0,0,.35-.17,4.34,4.34,0,0,0,1.28-1.14,8.62,8.62,0,0,0,.82-1.34,13.73,13.73,0,0,0,1.24-3.24,34.26,34.26,0,0,0,.64-3.37q.12-.75.19-1.58a13.81,13.81,0,0,0-2.06-.05,9.49,9.49,0,0,0-2,.32,4.89,4.89,0,0,0-1,.36,2.14,2.14,0,0,0-.75.59,1.27,1.27,0,0,0-.31.77,1.44,1.44,0,0,0,.19.8,2.44,2.44,0,0,0,.57.62,1.56,1.56,0,0,0,.9.33.9.9,0,0,0,.26,0l.25,0,.23-.07a.85.85,0,0,1,.24,0,1,1,0,0,1,.4.09.48.48,0,0,1,.26.26.41.41,0,0,1,0,.34.65.65,0,0,1-.25.24,1.3,1.3,0,0,1-.39.15l-.42.08a3.28,3.28,0,0,1-1.14,0,4,4,0,0,1-1-.35,3,3,0,0,1-1.29-1.39,2.17,2.17,0,0,1-.06-1.69,2.84,2.84,0,0,1,1.2-1.34,5.78,5.78,0,0,1,1.93-.73,10.63,10.63,0,0,1,2.24-.19q1.13,0,2.25.11l.24,0,.18,0a.77.77,0,0,1,.4.09l1.53.11q.76,0,1.54,0a10.36,10.36,0,0,0,1.2-.1,4.71,4.71,0,0,0,1.12-.3,4.47,4.47,0,0,0,1.13-.7,3.93,3.93,0,0,0,.6-.63,1.9,1.9,0,0,0,.35-.76,1.11,1.11,0,0,0-.14-.76,2.38,2.38,0,0,0-.57-.64,2.64,2.64,0,0,0-.52-.34,6.25,6.25,0,0,1-.57-.31.83.83,0,0,1-.36-.58.66.66,0,0,1,.25-.6A1.31,1.31,0,0,1,47.73,590.14Z"/><path class="cls-7" d="M46.7,605.88a8.42,8.42,0,0,1-1.31-.15,6.62,6.62,0,0,1-1.5-.47,5.11,5.11,0,0,1-.55-.3,3.24,3.24,0,0,1-.45-.35,2.47,2.47,0,0,1-.43-.67,1.28,1.28,0,0,1-.07-.76,2.28,2.28,0,0,1,.5-1,4,4,0,0,1,1.06-.88,6.49,6.49,0,0,1,1.83-.73,8.47,8.47,0,0,1,2.2-.24,1.23,1.23,0,0,1,.65.15.47.47,0,0,1,.28.36c0,.13-.12.24-.31.33a1.47,1.47,0,0,1-.68.11,4.26,4.26,0,0,0-1.49.17,4.14,4.14,0,0,0-1,.44,3,3,0,0,0-.8.69,1.67,1.67,0,0,0-.37.8.77.77,0,0,0,0,.28,1,1,0,0,0,.13.44,1.41,1.41,0,0,0,.41.45,2,2,0,0,0,.85.32,3.43,3.43,0,0,0,2-.2l.34-.18a5.25,5.25,0,0,1-1.32-.63c-.67-.46-.92-.92-.76-1.42a1.39,1.39,0,0,1,.84-.76,3.24,3.24,0,0,1,.7-.2,4.28,4.28,0,0,1,.82-.07,3.36,3.36,0,0,1,1.43.27,1.72,1.72,0,0,1,.9.74,1.85,1.85,0,0,1,0,1.4,1.41,1.41,0,0,0,.47-.24,1.31,1.31,0,0,0,.36-.46.63.63,0,0,1,.44-.29,1.58,1.58,0,0,1,.72,0,1,1,0,0,1,.57.28.35.35,0,0,1,.11.41,1.81,1.81,0,0,1-.74.88,3.45,3.45,0,0,1-1,.4,5.58,5.58,0,0,1-1.66.13l-.39.29a2.87,2.87,0,0,1-.44.25,3.79,3.79,0,0,1-1.55.41A5.57,5.57,0,0,1,46.7,605.88Zm1.59-3.51a1.16,1.16,0,0,0-.34.07.3.3,0,0,0-.21.24.45.45,0,0,0,.14.55,2.2,2.2,0,0,0,.78.43v0a1.27,1.27,0,0,0,.16-.57.93.93,0,0,0-.09-.47.37.37,0,0,0-.37-.23Z"/><path class="cls-7" d="M56,605.88a8.05,8.05,0,0,1-1.47-.12,4.49,4.49,0,0,1-2.08-.9,2.15,2.15,0,0,1-.82-1.54,1.64,1.64,0,0,1,0-.6,3.07,3.07,0,0,1,.22-.61,3.56,3.56,0,0,1,.82-1.14,4.82,4.82,0,0,1,1.42-1.07,5.31,5.31,0,0,1,1.71-.52,3.44,3.44,0,0,1,1.31.06,2,2,0,0,1,1,.5,1.08,1.08,0,0,1,.36,1.07,2.08,2.08,0,0,1-.81,1.2,1.15,1.15,0,0,1-.62.2,1.3,1.3,0,0,1-.69-.12.63.63,0,0,1-.39-.38.36.36,0,0,1,.17-.41,1.21,1.21,0,0,0,.45-.59.36.36,0,0,0-.08-.37.38.38,0,0,0-.35-.1,2.38,2.38,0,0,0-.94.32,3.56,3.56,0,0,0-.87.71,3.14,3.14,0,0,0-.64.95,2.61,2.61,0,0,0-.21,1,1.34,1.34,0,0,0,.06.38,1.15,1.15,0,0,0,.2.38,1.27,1.27,0,0,0,.39.32,1.9,1.9,0,0,0,.61.21A4.2,4.2,0,0,0,58.93,603c.18-.29.29-.45.3-.46a.68.68,0,0,1,.46-.32,1.45,1.45,0,0,1,.72,0,1,1,0,0,1,.55.31.45.45,0,0,1,.09.46,1.27,1.27,0,0,0-.12.19c-.06.11-.16.25-.27.41s-.27.35-.44.55a3.66,3.66,0,0,1-.65.58,4.74,4.74,0,0,1-.91.61,5.14,5.14,0,0,1-1,.4A7.1,7.1,0,0,1,56,605.88Z"/><path class="cls-7" d="M62.35,605.73a4,4,0,0,1-1.31-.19,2.59,2.59,0,0,1-1.56-1.15,2,2,0,0,1-.24-1.42,4.49,4.49,0,0,1,.54-1.43,7.42,7.42,0,0,1,1.06-1.44,7.55,7.55,0,0,1,1.42-1.2,5.19,5.19,0,0,1,1.9-.72,5.4,5.4,0,0,1,2.88.34,2.7,2.7,0,0,1,.61.35l.37.3a.49.49,0,0,1,.17.52.76.76,0,0,1-.37.41,1.24,1.24,0,0,1-.67.14,1,1,0,0,1-.7-.32l-.07,0h0a3.17,3.17,0,0,0-.43-.28,2.85,2.85,0,0,0-1.46-.17,2.46,2.46,0,0,0-1,.42,5.22,5.22,0,0,0-1,.89,7.22,7.22,0,0,0-.86,1.17,3.64,3.64,0,0,0-.47,1.26,1.44,1.44,0,0,0,0,.3,1.56,1.56,0,0,0,.06.37,1,1,0,0,0,.18.35.7.7,0,0,0,.37.23.5.5,0,0,0,.22,0,1,1,0,0,0,.32,0,2.91,2.91,0,0,0,.86-.46,5.61,5.61,0,0,0,1.26-1.45c.11-.2.23-.39.34-.57a3.35,3.35,0,0,0,.26-.5l.14-.35a1.87,1.87,0,0,1,.18-.33.85.85,0,0,1,.66-.42l.12,0h.16a.27.27,0,0,1,.17,0h0s0,0,.07,0a1,1,0,0,1,.5.32.53.53,0,0,1,.11.51l-.35.72a4,4,0,0,0-.23,1.29,1.55,1.55,0,0,0,.25.93.34.34,0,0,0,.09.11l.07,0,.15,0a.5.5,0,0,0,.22-.05,2.26,2.26,0,0,0,.67-.51,5,5,0,0,0,.69-.95c.18-.36.32-.65.41-.87l.15-.4a.72.72,0,0,1,.44-.42,1.19,1.19,0,0,1,.72-.08,1,1,0,0,1,.58.32.58.58,0,0,1,.12.55,3,3,0,0,1-.17.46q-.18.43-.48,1a4.19,4.19,0,0,1-2.15,2.08,2.45,2.45,0,0,1-.8.18,2.79,2.79,0,0,1-1-.11,2.43,2.43,0,0,1-1.44-.91.33.33,0,0,1-.1-.15l-.08.07a4.35,4.35,0,0,1-1.76,1A3.24,3.24,0,0,1,62.35,605.73Zm4-5.83s0,0,0,0S66.39,599.93,66.38,599.9Z"/><path class="cls-7" d="M68.78,607.68a1.28,1.28,0,0,1-.67-.18.76.76,0,0,1-.4-.46.43.43,0,0,1,.1-.5,1,1,0,0,1,.58-.25q2-.16,4.06-.37l.68-1.49a3.65,3.65,0,0,1-2-.08,2.6,2.6,0,0,1-1.58-1.23,2.52,2.52,0,0,1-.24-1.56,5,5,0,0,1,.52-1.54,7.89,7.89,0,0,1,1-1.55,7.17,7.17,0,0,1,1.58-1.4,4.64,4.64,0,0,1,1.7-.7,4.89,4.89,0,0,1,1.67,0,4.28,4.28,0,0,1,1.07.34,2.21,2.21,0,0,1,.61.47l.24.28a.63.63,0,0,1,.18.66.83.83,0,0,1-.47.43,1.37,1.37,0,0,1-.74.08.93.93,0,0,1-.65-.41.45.45,0,0,0-.11-.11,1.3,1.3,0,0,0-.28-.17,1.83,1.83,0,0,0-.5-.13,2.41,2.41,0,0,0-.75,0,2.12,2.12,0,0,0-1,.44,6.32,6.32,0,0,0-1,1,6.47,6.47,0,0,0-.82,1.27,4,4,0,0,0-.41,1.24,1.86,1.86,0,0,0,0,.76.7.7,0,0,0,.51.52.92.92,0,0,0,.73,0,2.43,2.43,0,0,0,1-.63,6.33,6.33,0,0,0,1-1.29q.4-.72.66-1.27l.16-.41a1,1,0,0,1,.49-.46,1.09,1.09,0,0,1,.71-.06.77.77,0,0,1,.55.35.69.69,0,0,1,.09.59s-.11.17-.21.48q-.72,1.79-1.44,3.52l.73-.6a4.18,4.18,0,0,0,.65-.69,6.08,6.08,0,0,0,.54-.9,6.77,6.77,0,0,0,.44-1.23.8.8,0,0,1,.4-.48,1.07,1.07,0,0,1,.72-.1.92.92,0,0,1,.58.35.64.64,0,0,1,.12.59,8,8,0,0,1-.54,1.56,6.79,6.79,0,0,1-.8,1.27,7.68,7.68,0,0,1-.88.89,9.46,9.46,0,0,1-.94.72l-.49.35,1.57-.19a1.19,1.19,0,0,1,.7.15.9.9,0,0,1,.44.53.58.58,0,0,1-.11.57.91.91,0,0,1-.61.31q-1.88.18-3.76.33a8.12,8.12,0,0,0-.83,1.27l-.57,1.29-.18.42a.67.67,0,0,1-.71.4,1.25,1.25,0,0,1-.5-.12.93.93,0,0,1-.54-.41.59.59,0,0,1,0-.56l.15-.29a.28.28,0,0,1,0-.15l.31-.71c.1-.23.2-.45.32-.67l.13-.25-2.92.2Z"/><path class="cls-7" d="M80.92,604.36h-.33a1.91,1.91,0,0,1-.34,0,2.53,2.53,0,0,1-1.83-1.07c-.71-1-.73-2.47-.07-4.66a18,18,0,0,1,.66-2,8.49,8.49,0,0,1,.39-.91.81.81,0,0,1,.48-.47,1.11,1.11,0,0,1,.74,0,.79.79,0,0,1,.53.41.71.71,0,0,1,0,.64,5.83,5.83,0,0,0-.35.82,18.34,18.34,0,0,0-.62,1.91,12.63,12.63,0,0,0-.33,1.55,6.29,6.29,0,0,0-.07,1,2.12,2.12,0,0,0,.09.63,1.06,1.06,0,0,0,.17.32.52.52,0,0,0,.44.24.83.83,0,0,0,.53-.18,3.23,3.23,0,0,0,.66-.65,11.22,11.22,0,0,0,1.51-2.81l.57-1.57c0-.1,0-.19.07-.27s.06-.17.1-.28c.11-.41.22-.81.34-1.21s.23-.81.31-1.21A1,1,0,0,1,85,594a1,1,0,0,1,.7-.17.89.89,0,0,1,.59.34.71.71,0,0,1,.13.63l-.23,1q-.22.91-.62,2.19l-.34,1.29c-.11.41-.19.78-.25,1.12a3.73,3.73,0,0,0-.1,1.14.76.76,0,0,0,.13.4c0,.06.07.09.18.09s.27-.06.49-.25a3.94,3.94,0,0,0,.74-1.06,6.83,6.83,0,0,0,.6-1.3,5.88,5.88,0,0,0,.19-.63.94.94,0,0,1,.45-.54.91.91,0,0,1,.71-.08.77.77,0,0,1,.58.4.93.93,0,0,1,.09.68s-.1.27-.25.73a10.24,10.24,0,0,1-.67,1.53,8.37,8.37,0,0,1-.57.89,5,5,0,0,1-.58.67,2.35,2.35,0,0,1-1.17.65,2.49,2.49,0,0,1-2.39-.91v-.06l-.16.16a3.93,3.93,0,0,1-.58.66A3.35,3.35,0,0,1,82,604,2.88,2.88,0,0,1,80.92,604.36Z"/><path class="cls-7" d="M90.75,603.26a1.88,1.88,0,0,1-.74,0,3.1,3.1,0,0,1-1.55-.5,2.88,2.88,0,0,1-.79-.81,4.34,4.34,0,0,1-.27-3.34,11.49,11.49,0,0,1,.6-2c.26-.66.52-1.24.77-1.72a.92.92,0,0,1,.51-.52.87.87,0,0,1,.72,0,.83.83,0,0,1,.5.46.84.84,0,0,1,0,.72,16.65,16.65,0,0,0-.76,1.79,15.63,15.63,0,0,0-.47,1.59,4.17,4.17,0,0,0-.12,1.49,2.67,2.67,0,0,0,.2.67.92.92,0,0,0,.26.25,1.46,1.46,0,0,0,.56.17.88.88,0,0,0,.25,0,1.51,1.51,0,0,0,.95-.65,7.16,7.16,0,0,0,.65-1c.12-.25.24-.51.35-.78s.2-.5.27-.71.16-.48.22-.68a1,1,0,0,1,.42-.59.89.89,0,0,1,.7-.14.92.92,0,0,1,.7,1.11,1.09,1.09,0,0,1-.06.27l-.17.6a8.59,8.59,0,0,1-.3.82c-.13.3-.26.61-.42.92a5.53,5.53,0,0,1-1.49,2A3.3,3.3,0,0,1,90.75,603.26Zm1.13-11a.91.91,0,0,1-.6-.06.83.83,0,0,1-.44-1.19l.36-.67a1.19,1.19,0,0,1,.55-.54.9.9,0,0,1,1.19.47.91.91,0,0,1-.07.72l-.32.7A1.08,1.08,0,0,1,91.88,592.3Z"/><path class="cls-7" d="M95.85,603.39h-.17l-.18,0a1.1,1.1,0,0,1-.61-.44.84.84,0,0,1-.15-.71l.11-.6a.85.85,0,0,1,.38-.62.91.91,0,0,1,.69-.16,1.06,1.06,0,0,1,.61.42,1,1,0,0,1,.18.73l-.11.62A.87.87,0,0,1,95.85,603.39Zm.91-5.13-.17,0h-.18a1,1,0,0,1-.61-.4.85.85,0,0,1-.15-.72q.88-5.21,1.76-10.61a1.14,1.14,0,0,1,.36-.71.91.91,0,0,1,.71-.26.87.87,0,0,1,.61.33.85.85,0,0,1,.18.69q-.88,5.52-1.75,10.84A.94.94,0,0,1,96.76,598.26Z"/><text class="cls-3" transform="translate(7.5 645.41)">Nome ou símbolo distorcidos.</text><path class="cls-6" d="M11.5,537a11,11,0,1,0,11,11A11,11,0,0,0,11.5,537Zm0,1.47a9.53,9.53,0,0,1,7.75,15.08L6,540.21A9.49,9.49,0,0,1,11.5,538.43Zm0,19.06a9.53,9.53,0,0,1-7-16L18,555A9.48,9.48,0,0,1,11.5,557.49Z"/><rect class="cls-2" x="1.48" y="138.25" width="131" height="116.54"/><path class="cls-7" d="M86.48,162.4v2.18a.61.61,0,0,0,0,.1c0,.19,0,.39,0,.57-.08.45-.16.9-.25,1.35s-.16.92-.26,1.37a13.74,13.74,0,0,1-.59,2c-.24.61-.5,1.22-.77,1.83a9.57,9.57,0,0,1-.54,1q-.44.73-.92,1.44a16,16,0,0,1-1.66,2.05c-.37.39-.76.76-1.16,1.12s-.78.66-1.18,1a15.34,15.34,0,0,1-2,1.32c-.44.24-.88.47-1.33.68s-.87.38-1.31.54a12.46,12.46,0,0,1-1.83.54c-.52.1-1,.21-1.56.29s-.86.11-1.3.15-.65.07-1,.08-.63,0-.95,0l-1.28-.06-.54,0-1-.15c-.39-.07-.78-.14-1.17-.22a15.94,15.94,0,0,1-2.13-.63c-.42-.16-.84-.33-1.26-.51s-.76-.37-1.13-.57-.72-.4-1.06-.63c-.5-.34-1-.69-1.46-1.06s-.79-.67-1.17-1a14.64,14.64,0,0,1-1.32-1.4c-.23-.29-.49-.56-.7-.86-.41-.57-.81-1.15-1.2-1.74-.14-.21-.26-.45-.39-.67l0,0,.08,0c.38.17.76.37,1.16.51a5,5,0,0,0,2.07.31,6,6,0,0,0,1.06-.17,6.49,6.49,0,0,0,1.85-.83,5.77,5.77,0,0,1,1.16-.69c.38-.13.76-.24,1.14-.36l1-.29a.33.33,0,0,0,.23-.36.38.38,0,0,0-.37-.29l-.25,0-.35.06c.16-.08.32-.14.48-.21l.81-.38a.26.26,0,0,0,.17-.26.38.38,0,0,0-.51-.34c-.27.09-.53.21-.8.31l-.46.16a.13.13,0,0,1,.06-.07l1.31-.83a.32.32,0,0,0,.14-.35.39.39,0,0,0-.63-.2l-1.08.7-.26.16c.12-.14.24-.27.37-.39l.7-.7a.28.28,0,0,0,0-.37c-.14-.18-.26-.22-.42-.12a2.74,2.74,0,0,0-.39.26l-1.14.94-.41.34,0-.06.34-.54c.09-.14.15-.28,0-.43s-.29-.29-.47-.14a1.51,1.51,0,0,0-.54.72A2.51,2.51,0,0,1,58,169a3.22,3.22,0,0,1-.79,1,4,4,0,0,1-.55.39,2.67,2.67,0,0,1-1.68.32,2.75,2.75,0,0,1-.8-.23,3.11,3.11,0,0,1-1.11-.85,3.62,3.62,0,0,1-.59-1,3.71,3.71,0,0,1-.26-1.81c0-.33.09-.66.15-1a6.82,6.82,0,0,1,.83-2.11A9.1,9.1,0,0,1,54.51,162c.19-.2.41-.37.61-.55a6.75,6.75,0,0,1,1.52-1l.17-.08a.78.78,0,0,0-.23,0l-.84.09a7.62,7.62,0,0,0-1.33.29,7.31,7.31,0,0,0-1.44.62,5.61,5.61,0,0,0-1.16.85,8.28,8.28,0,0,0-.74.82,6.62,6.62,0,0,0-1,1.7l-.17.42a.62.62,0,0,1-.22-.42c0-.8,0-1.61,0-2.41a1.34,1.34,0,0,1,0-.23c.07-.4.15-.81.23-1.21s.2-1.07.33-1.6a14.42,14.42,0,0,1,.59-2c.22-.57.46-1.13.71-1.69.13-.3.28-.58.44-.87s.4-.7.61-1a14.5,14.5,0,0,1,1.26-1.73c.34-.4.68-.79,1-1.17s.76-.74,1.16-1.1a9.85,9.85,0,0,1,.77-.64c.41-.3.83-.6,1.26-.88s.8-.49,1.21-.71.73-.37,1.1-.54,1-.42,1.52-.61a12.17,12.17,0,0,1,1.18-.37q.82-.21,1.65-.37c.36-.07.73-.11,1.1-.15l1-.1c.27,0,.54,0,.81,0l.09,0h.78l.06,0,1.25.07c.23,0,.46,0,.69.07l1.13.19a14.9,14.9,0,0,1,2,.52,13.59,13.59,0,0,1,1.9.76c.52.26,1,.53,1.55.82s1,.62,1.46,1c.32.22.62.46.92.71s.46.38.67.59.7.68,1,1c.08.08.15.18.22.27a.14.14,0,0,1-.1,0,4.68,4.68,0,0,0-1.88-.42,9.17,9.17,0,0,0-1,0,3,3,0,0,0-.65.1c-.54.16-1.08.33-1.62.51a13,13,0,0,0-1.75.72,2.33,2.33,0,0,1-.41.15l-1.27.34c-.33.09-.67.18-1,.3s-.4.28-.28.56a.39.39,0,0,0,.39.27l.64-.09.34-.06a.16.16,0,0,1-.07.08l-1.39.74a6.87,6.87,0,0,0-1.06.61.39.39,0,0,0-.12.53.36.36,0,0,0,.51.17l1.28-.56.34-.13c-.5.38-1,.74-1.51,1.11a.49.49,0,0,0-.27.46.5.5,0,0,0,.26.39.35.35,0,0,0,.39-.05l1.34-1,.3-.2a1,1,0,0,1-.13.18l-.94,1a.46.46,0,0,0,0,.66.33.33,0,0,0,.44.07c.1-.09.21-.15.3-.24l.72-.72.28-.29c-.08.16-.17.29-.26.43a.67.67,0,0,0-.15.45.43.43,0,0,0,.21.34.31.31,0,0,0,.38,0,4,4,0,0,0,.47-.51c.22-.3.4-.63.64-.92a4.48,4.48,0,0,1,1.31-1.06,3.88,3.88,0,0,1,1.7-.47,4.29,4.29,0,0,1,.91.07,3.86,3.86,0,0,1,1.25.47,4.75,4.75,0,0,1,1.36,1.2,5.5,5.5,0,0,1,.71,1.22,5.8,5.8,0,0,1,.48,2,10.9,10.9,0,0,1,0,1.26,4.86,4.86,0,0,1-.25,1.16,5.75,5.75,0,0,1-.48,1.09,5.27,5.27,0,0,1-.69,1,4.37,4.37,0,0,1-1,.82,3.94,3.94,0,0,1-1.33.53l-.29.05v0l.77-.05a5.63,5.63,0,0,0,1.19-.2,7.9,7.9,0,0,0,.91-.31,4.38,4.38,0,0,0,.55-.31,7.57,7.57,0,0,0,1.37-1c.3-.28.57-.59.84-.9a6.9,6.9,0,0,0,.84-1.27,10.5,10.5,0,0,0,.73-1.75,4.34,4.34,0,0,1,.19-.42h0l.21,1.18.3,1.6Zm-30.54-1.16v0H56a9.88,9.88,0,0,1,1-.15,6.35,6.35,0,0,1,1.43.07,10.69,10.69,0,0,1,1.41.33,21.31,21.31,0,0,1,3,1.25l1.77.87,2.1,1c.3.14.6.27.9.38s.7.22,1.05.32,1,.28,1.45.4,1,.24,1.45.34.87.17,1.3.23.59.08.88.11.67.07,1,.08c.49,0,1,0,1.47,0a7.83,7.83,0,0,0,.92-.09c.45-.07.89-.16,1.34-.25.23,0,.45-.11.68-.17v0l-.29,0-.84,0c-.31,0-.62,0-.93-.09a12.31,12.31,0,0,1-1.3-.25c-.58-.15-1.15-.34-1.72-.54s-1.4-.52-2.1-.79L70,163.5l-1.67-.65c-.46-.18-.93-.35-1.4-.51q-1.06-.35-2.14-.67-.82-.24-1.65-.45c-.54-.14-1.09-.26-1.64-.38l-.94-.18-.82-.14-.87-.11-.51-.06a1.58,1.58,0,0,0-.36,0,5.09,5.09,0,0,0-1.66.62C56.22,161.06,56.08,161.15,55.94,161.24Z"/><path class="cls-8" d="M54.29,189.43a1.68,1.68,0,0,1,.58,0,4.93,4.93,0,0,1,.57.09,2.81,2.81,0,0,1,1.46.83,2.91,2.91,0,0,1,.82,1.5,3.4,3.4,0,0,1-1,3.16,5,5,0,0,1-1.4,1,5,5,0,0,1-1.4.44,11.36,11.36,0,0,1-1.46.13q-.66,0-1.31-.05t-1.3-.16q-.08,1.18-.22,2.33t-.35,2.32q-.21,1.07-.5,2.15a16.26,16.26,0,0,1-.73,2.08,9,9,0,0,1-.47.94,5.34,5.34,0,0,1-.6.84,4.35,4.35,0,0,1-.78.77,2.36,2.36,0,0,1-1,.45.44.44,0,0,1-.29,0,.62.62,0,0,1-.22-.19.53.53,0,0,1-.1-.28.49.49,0,0,1,.3-.48l.26-.11.27-.11a1.79,1.79,0,0,0,.26-.17,3.81,3.81,0,0,0,1-1.14,9.48,9.48,0,0,0,.62-1.34,16.72,16.72,0,0,0,.93-3.24q.3-1.67.48-3.37.09-.75.14-1.58a7.83,7.83,0,0,0-1.55-.05,5.53,5.53,0,0,0-1.52.32,3.15,3.15,0,0,0-.74.36,1.78,1.78,0,0,0-.57.59,1.52,1.52,0,0,0-.24.77,1.83,1.83,0,0,0,.14.8,2.32,2.32,0,0,0,.43.62,1,1,0,0,0,.68.33.51.51,0,0,0,.2,0l.19,0,.17-.07a.5.5,0,0,1,.18,0,.6.6,0,0,1,.3.09.44.44,0,0,1,.19.26.53.53,0,0,1,0,.34.59.59,0,0,1-.19.24.86.86,0,0,1-.29.15l-.32.08a1.87,1.87,0,0,1-.85,0,2.56,2.56,0,0,1-.77-.35,2.79,2.79,0,0,1-1-1.39,2.84,2.84,0,0,1,0-1.69,2.73,2.73,0,0,1,.9-1.34,3.78,3.78,0,0,1,1.45-.73,6.08,6.08,0,0,1,1.69-.19q.85,0,1.69.11l.18,0,.14,0a.46.46,0,0,1,.3.09l1.15.11a10.16,10.16,0,0,0,1.16,0,5.92,5.92,0,0,0,.9-.1,2.88,2.88,0,0,0,.84-.3,3.38,3.38,0,0,0,.85-.7,3.69,3.69,0,0,0,.45-.63,2.22,2.22,0,0,0,.27-.76,1.42,1.42,0,0,0-.11-.76,2.3,2.3,0,0,0-.43-.64,2,2,0,0,0-.39-.34,4.53,4.53,0,0,1-.43-.31.9.9,0,0,1-.27-.58.78.78,0,0,1,.19-.6A.93.93,0,0,1,54.29,189.43Z"/><path class="cls-8" d="M53.52,205.17a5,5,0,0,1-1-.16,4.17,4.17,0,0,1-1.13-.47,3.49,3.49,0,0,1-.41-.3,2,2,0,0,1-.66-1,1.64,1.64,0,0,1,0-.76,2.65,2.65,0,0,1,.38-1,3.39,3.39,0,0,1,.8-.88,4.27,4.27,0,0,1,1.37-.73,4.9,4.9,0,0,1,1.66-.24.77.77,0,0,1,.49.15.48.48,0,0,1,.21.36.42.42,0,0,1-.23.33.84.84,0,0,1-.51.11,2.43,2.43,0,0,0-1.12.17,2.78,2.78,0,0,0-.73.44,2.72,2.72,0,0,0-.6.69,2,2,0,0,0-.28.8,1,1,0,0,0,0,.28,1.26,1.26,0,0,0,1,1.21,2,2,0,0,0,1.48-.2l.25-.18a3.74,3.74,0,0,1-1-.63,1.41,1.41,0,0,1-.57-1.42,1.23,1.23,0,0,1,.64-.76,2,2,0,0,1,.53-.2,2.46,2.46,0,0,1,.61-.07,2,2,0,0,1,1.08.27,1.45,1.45,0,0,1,.68.74,2.42,2.42,0,0,1,0,1.4,1,1,0,0,0,.35-.24,1.31,1.31,0,0,0,.27-.46.49.49,0,0,1,.33-.29.9.9,0,0,1,.54,0,.72.72,0,0,1,.42.28.45.45,0,0,1,.08.41,1.76,1.76,0,0,1-.56.88,2.27,2.27,0,0,1-.72.4,3.21,3.21,0,0,1-1.25.13l-.3.29a2.16,2.16,0,0,1-.33.25,2.31,2.31,0,0,1-1.16.41A3.24,3.24,0,0,1,53.52,205.17Zm1.2-3.51a.73.73,0,0,0-.25.07.29.29,0,0,0-.16.24.54.54,0,0,0,.11.55A1.6,1.6,0,0,0,55,203v0a1.64,1.64,0,0,0,.12-.57,1.19,1.19,0,0,0-.07-.47.29.29,0,0,0-.28-.23Z"/><path class="cls-8" d="M60.51,205.17a4.62,4.62,0,0,1-1.1-.12,3.06,3.06,0,0,1-1.57-.9,2.42,2.42,0,0,1-.62-1.54,2,2,0,0,1,0-.6,3.82,3.82,0,0,1,.16-.61,3.64,3.64,0,0,1,.62-1.14,4,4,0,0,1,1.07-1.07,3.34,3.34,0,0,1,1.29-.52,2,2,0,0,1,1,.06,1.39,1.39,0,0,1,.75.5,1.31,1.31,0,0,1,.27,1.07,2.21,2.21,0,0,1-.61,1.2.73.73,0,0,1-.47.2.78.78,0,0,1-.52-.12.56.56,0,0,1-.29-.38.43.43,0,0,1,.13-.4,1.27,1.27,0,0,0,.34-.59.45.45,0,0,0-.06-.37.24.24,0,0,0-.27-.1,1.53,1.53,0,0,0-.7.32,3,3,0,0,0-.65.71,3.18,3.18,0,0,0-.48.95,3.23,3.23,0,0,0-.16,1,1.57,1.57,0,0,0,0,.38,1.53,1.53,0,0,0,.15.38,1.07,1.07,0,0,0,.29.32,1.22,1.22,0,0,0,.46.21,2.49,2.49,0,0,0,2.45-.81,3.81,3.81,0,0,0,.67-.93l.23-.46a.54.54,0,0,1,.35-.32.83.83,0,0,1,.54,0,.71.71,0,0,1,.42.31.57.57,0,0,1,.06.46,1.54,1.54,0,0,0-.09.19c0,.11-.12.25-.21.41s-.2.35-.33.55a3,3,0,0,1-.48.58,4,4,0,0,1-.69.61,3.34,3.34,0,0,1-.78.4A4,4,0,0,1,60.51,205.17Z"/><path class="cls-8" d="M65.29,205a2.31,2.31,0,0,1-1-.19,2.12,2.12,0,0,1-1.17-1.15,2.56,2.56,0,0,1-.18-1.42,5.46,5.46,0,0,1,.41-1.43,7.8,7.8,0,0,1,.8-1.44,6.36,6.36,0,0,1,1.07-1.2,3.38,3.38,0,0,1,1.43-.72,3.15,3.15,0,0,1,2.17.34,1.9,1.9,0,0,1,.46.35l.28.3a.58.58,0,0,1,.13.52.72.72,0,0,1-.28.41.75.75,0,0,1-.51.14.71.71,0,0,1-.52-.32l-.06,0h0a2.37,2.37,0,0,0-.32-.28,1.49,1.49,0,0,0-1.84.25,4.7,4.7,0,0,0-.77.89,7.52,7.52,0,0,0-.65,1.17,4.39,4.39,0,0,0-.36,1.26,2.09,2.09,0,0,0,0,.3,2,2,0,0,0,0,.37,1.41,1.41,0,0,0,.14.35.53.53,0,0,0,.28.23.29.29,0,0,0,.16,0,.6.6,0,0,0,.24,0,2.07,2.07,0,0,0,.65-.46,5.37,5.37,0,0,0,.95-1.44l.25-.57a5.1,5.1,0,0,0,.2-.5l.11-.35a2.41,2.41,0,0,1,.13-.33.68.68,0,0,1,.49-.42l.09,0h.12a.17.17,0,0,1,.13,0h0s0,0,.05,0a.76.76,0,0,1,.38.32.65.65,0,0,1,.08.51l-.26.72a5.14,5.14,0,0,0-.17,1.29,1.92,1.92,0,0,0,.19.93.33.33,0,0,0,.07.11l.06,0,.11,0a.32.32,0,0,0,.17-.05,1.83,1.83,0,0,0,.51-.51,4.93,4.93,0,0,0,.52-.95c.14-.36.24-.65.31-.87l.12-.4a.67.67,0,0,1,.33-.42.69.69,0,0,1,.54-.08.72.72,0,0,1,.44.32.73.73,0,0,1,.09.55s0,.17-.13.46-.21.63-.36,1a3.74,3.74,0,0,1-1.62,2.08,1.47,1.47,0,0,1-.6.18,1.63,1.63,0,0,1-.73-.11,1.86,1.86,0,0,1-1.08-.91.42.42,0,0,1-.08-.15l-.06.07a3.18,3.18,0,0,1-1.33,1A1.86,1.86,0,0,1,65.29,205Zm3-5.83s0,0,0,0S68.33,199.22,68.33,199.19Z"/><path class="cls-8" d="M70.13,207a.85.85,0,0,1-.81-.64.54.54,0,0,1,.08-.5.64.64,0,0,1,.44-.25q1.53-.16,3.05-.37l.51-1.49a2.1,2.1,0,0,1-1.49-.08,2.16,2.16,0,0,1-1.19-1.23,3.17,3.17,0,0,1-.18-1.56,5.88,5.88,0,0,1,.39-1.54,8.75,8.75,0,0,1,.78-1.55,6.16,6.16,0,0,1,1.19-1.4,3.06,3.06,0,0,1,1.28-.7,2.8,2.8,0,0,1,1.26,0,2.56,2.56,0,0,1,.81.34,1.91,1.91,0,0,1,.46.47l.18.28a.77.77,0,0,1,.14.66.75.75,0,0,1-.35.43.8.8,0,0,1-.56.08.71.71,0,0,1-.49-.41.52.52,0,0,0-.08-.11.89.89,0,0,0-.21-.17,1.11,1.11,0,0,0-.38-.13,1.36,1.36,0,0,0-.57,0,1.45,1.45,0,0,0-.72.44,5.35,5.35,0,0,0-.77,1,6.63,6.63,0,0,0-.62,1.27A5.27,5.27,0,0,0,72,201a2.18,2.18,0,0,0,0,.76.65.65,0,0,0,.38.52.54.54,0,0,0,.55,0,1.87,1.87,0,0,0,.72-.63,6.42,6.42,0,0,0,.73-1.29c.2-.48.37-.9.5-1.27l.12-.41a.84.84,0,0,1,.37-.46.64.64,0,0,1,.54-.06.6.6,0,0,1,.41.35.87.87,0,0,1,.07.59,1.19,1.19,0,0,0-.16.48q-.54,1.79-1.09,3.52l.55-.6a3.94,3.94,0,0,0,.49-.69,6.11,6.11,0,0,0,.41-.9,8.23,8.23,0,0,0,.33-1.23.76.76,0,0,1,.3-.48.64.64,0,0,1,.54-.1.7.7,0,0,1,.44.35.82.82,0,0,1,.09.59,10.53,10.53,0,0,1-.41,1.56,7.35,7.35,0,0,1-.6,1.27,7.63,7.63,0,0,1-.66.89,8.17,8.17,0,0,1-.71.72l-.37.35,1.18-.19a.7.7,0,0,1,.53.15.9.9,0,0,1,.33.53.72.72,0,0,1-.08.57.65.65,0,0,1-.46.31q-1.41.18-2.83.33a9,9,0,0,0-.62,1.27l-.43,1.29-.13.42a.51.51,0,0,1-.54.4,1,1,0,0,1-.77-.54.73.73,0,0,1,0-.56l.11-.29a.36.36,0,0,1,0-.15c.08-.24.16-.48.23-.71s.16-.45.24-.67l.1-.25-2.2.2Z"/><path class="cls-8" d="M79.27,203.65H79a1,1,0,0,1-.26,0,1.9,1.9,0,0,1-1.38-1.07c-.53-1-.55-2.47-.05-4.66.16-.77.32-1.44.5-2s.27-.87.3-.91a.75.75,0,0,1,.36-.47.64.64,0,0,1,.56,0,.65.65,0,0,1,.4.41.93.93,0,0,1,0,.64,7.52,7.52,0,0,0-.27.82c-.16.54-.32,1.18-.47,1.91s-.2,1.13-.25,1.55a9.65,9.65,0,0,0-.05,1,2.64,2.64,0,0,0,.07.63,1.2,1.2,0,0,0,.13.32.39.39,0,0,0,.33.24.53.53,0,0,0,.4-.18,2.86,2.86,0,0,0,.49-.65A12.7,12.7,0,0,0,81,198.38l.43-1.57c0-.1,0-.19.05-.27l.08-.28c.08-.41.17-.81.26-1.21s.17-.81.23-1.21a1,1,0,0,1,.31-.57.58.58,0,0,1,.52-.17.68.68,0,0,1,.45.34.89.89,0,0,1,.1.63l-.18,1c-.1.6-.27,1.34-.47,2.19-.09.45-.17.88-.25,1.29s-.15.78-.19,1.12a5,5,0,0,0-.07,1.14,1,1,0,0,0,.1.4c0,.06.05.09.13.09s.21-.06.37-.25a4.12,4.12,0,0,0,.56-1.06,7.86,7.86,0,0,0,.45-1.3c.1-.4.15-.61.14-.63a1,1,0,0,1,.34-.54.53.53,0,0,1,.53-.08.61.61,0,0,1,.44.4,1.16,1.16,0,0,1,.07.68s-.08.27-.19.73a11.44,11.44,0,0,1-.5,1.53,9.08,9.08,0,0,1-.43.89,5,5,0,0,1-.44.67,1.7,1.7,0,0,1-.88.65,1.29,1.29,0,0,1-.7,0,1.72,1.72,0,0,1-1.1-.9V202l-.12.16a4.13,4.13,0,0,1-.43.66,2.85,2.85,0,0,1-.46.46A1.82,1.82,0,0,1,79.27,203.65Z"/><path class="cls-8" d="M86.67,202.55a1,1,0,0,1-.55,0,2,2,0,0,1-1.17-.5,2.76,2.76,0,0,1-.59-.81,5.61,5.61,0,0,1-.2-3.34,14.77,14.77,0,0,1,.45-2c.2-.66.39-1.24.58-1.72a.86.86,0,0,1,.39-.52.51.51,0,0,1,.54,0,.75.75,0,0,1,.38.46,1.06,1.06,0,0,1,0,.72q-.35.95-.57,1.79t-.36,1.59a5.44,5.44,0,0,0-.09,1.49,3.15,3.15,0,0,0,.15.67.78.78,0,0,0,.19.25.92.92,0,0,0,.42.17.49.49,0,0,0,.19,0,1.18,1.18,0,0,0,.71-.65,8.63,8.63,0,0,0,.49-1c.09-.25.18-.51.26-.78s.15-.5.2-.71l.17-.68a1,1,0,0,1,.32-.59.54.54,0,0,1,.53-.14.7.7,0,0,1,.44.4,1.13,1.13,0,0,1,.09.7,1.65,1.65,0,0,1,0,.27l-.13.6q-.08.36-.22.82c-.09.3-.2.61-.32.92a5.65,5.65,0,0,1-1.12,2A2.27,2.27,0,0,1,86.67,202.55Zm.85-11a.54.54,0,0,1-.45-.06.79.79,0,0,1-.37-.47,1.1,1.1,0,0,1,0-.72l.27-.67a1,1,0,0,1,.41-.54.45.45,0,0,1,.52,0,.68.68,0,0,1,.38.48,1.16,1.16,0,0,1-.05.72L88,191A.91.91,0,0,1,87.52,191.59Z"/><path class="cls-8" d="M90.5,202.68h-.13l-.13,0a.89.89,0,0,1-.46-.44,1.05,1.05,0,0,1-.11-.71l.08-.61a1,1,0,0,1,.29-.62.56.56,0,0,1,.52-.16.83.83,0,0,1,.46.42,1.25,1.25,0,0,1,.14.73l-.08.62C91,202.35,90.82,202.61,90.5,202.68Zm.68-5.13-.13,0h-.14a.79.79,0,0,1-.46-.4,1.06,1.06,0,0,1-.11-.72q.66-5.21,1.32-10.61a1.34,1.34,0,0,1,.27-.71.59.59,0,0,1,.53-.27.63.63,0,0,1,.46.33,1.07,1.07,0,0,1,.13.69q-.66,5.52-1.32,10.84C91.69,197.18,91.5,197.46,91.19,197.55Z"/><text class="cls-3" transform="translate(7.48 234.7)">Cor do nome ou do símbolo <tspan x="0" y="9.6">diferentes.</tspan></text><path class="cls-6" d="M12.48,136.25a11,11,0,1,0,11,11A11,11,0,0,0,12.48,136.25Zm0,1.47a9.53,9.53,0,0,1,7.75,15.08L6.93,139.5A9.49,9.49,0,0,1,12.48,137.72Zm0,19.06a9.53,9.53,0,0,1-7-16l13.46,13.46A9.48,9.48,0,0,1,12.48,156.78Z"/><rect class="cls-2" x="1.48" y="274.25" width="131" height="115.54"/><path class="cls-9" d="M86.48,299.4v2.18a.61.61,0,0,0,0,.1c0,.19,0,.39,0,.57-.08.45-.16.9-.25,1.35s-.16.92-.26,1.37a13.74,13.74,0,0,1-.59,2c-.24.61-.5,1.22-.77,1.83a9.57,9.57,0,0,1-.54,1q-.44.73-.92,1.44a16,16,0,0,1-1.66,2.05c-.37.39-.76.76-1.16,1.12s-.78.66-1.18,1a15.34,15.34,0,0,1-2,1.32c-.44.24-.88.47-1.33.68s-.87.38-1.31.54a12.46,12.46,0,0,1-1.83.54c-.52.1-1,.21-1.56.29s-.86.11-1.3.15-.65.07-1,.08-.63,0-.95,0l-1.28-.06-.54,0-1-.15c-.39-.07-.78-.14-1.17-.22a15.94,15.94,0,0,1-2.13-.63c-.42-.16-.84-.33-1.26-.51s-.76-.37-1.13-.57-.72-.4-1.06-.63c-.5-.34-1-.69-1.46-1.06s-.79-.67-1.17-1a14.64,14.64,0,0,1-1.32-1.4c-.23-.29-.49-.56-.7-.86-.41-.57-.81-1.15-1.2-1.74-.14-.21-.26-.45-.39-.67l0,0,.08,0c.38.17.76.37,1.16.51a5,5,0,0,0,2.07.31,6,6,0,0,0,1.06-.17,6.49,6.49,0,0,0,1.85-.83,5.77,5.77,0,0,1,1.16-.69c.38-.13.76-.24,1.14-.36l1-.29a.33.33,0,0,0,.23-.36.38.38,0,0,0-.37-.29l-.25,0-.35.06c.16-.08.32-.14.48-.21l.81-.38a.26.26,0,0,0,.17-.26.38.38,0,0,0-.51-.34c-.27.09-.53.21-.8.31l-.46.16a.13.13,0,0,1,.06-.07l1.31-.83a.32.32,0,0,0,.14-.35.39.39,0,0,0-.63-.2l-1.08.7-.26.16c.12-.14.24-.27.37-.39l.7-.7a.28.28,0,0,0,0-.37c-.14-.18-.26-.22-.42-.12a2.74,2.74,0,0,0-.39.26l-1.14.94-.41.34,0-.06.34-.54c.09-.14.15-.28,0-.43s-.29-.29-.47-.14a1.51,1.51,0,0,0-.54.72A2.51,2.51,0,0,1,58,306a3.22,3.22,0,0,1-.79,1,4,4,0,0,1-.55.39,2.67,2.67,0,0,1-1.68.32,2.75,2.75,0,0,1-.8-.23,3.11,3.11,0,0,1-1.11-.85,3.62,3.62,0,0,1-.59-1,3.71,3.71,0,0,1-.26-1.81c0-.33.09-.66.15-1a6.82,6.82,0,0,1,.83-2.11A9.1,9.1,0,0,1,54.51,299c.19-.2.41-.37.61-.55a6.75,6.75,0,0,1,1.52-1l.17-.08a.78.78,0,0,0-.23,0l-.84.09a7.62,7.62,0,0,0-1.33.29,7.31,7.31,0,0,0-1.44.62,5.61,5.61,0,0,0-1.16.85,8.28,8.28,0,0,0-.74.82,6.62,6.62,0,0,0-1,1.7l-.17.42a.62.62,0,0,1-.22-.42c0-.8,0-1.61,0-2.41a1.34,1.34,0,0,1,0-.23c.07-.4.15-.81.23-1.21s.2-1.07.33-1.6a14.42,14.42,0,0,1,.59-2c.22-.57.46-1.13.71-1.69.13-.3.28-.58.44-.87s.4-.7.61-1a14.5,14.5,0,0,1,1.26-1.73c.34-.4.68-.79,1-1.17s.76-.74,1.16-1.1a9.85,9.85,0,0,1,.77-.64c.41-.3.83-.6,1.26-.88s.8-.49,1.21-.71.73-.37,1.1-.54,1-.42,1.52-.61a12.17,12.17,0,0,1,1.18-.37q.82-.21,1.65-.37c.36-.07.73-.11,1.1-.15l1-.1c.27,0,.54,0,.81,0l.09,0h.78l.06,0,1.25.07c.23,0,.46,0,.69.07l1.13.19a14.9,14.9,0,0,1,2,.52,13.59,13.59,0,0,1,1.9.76c.52.26,1,.53,1.55.82s1,.62,1.46,1c.32.22.62.46.92.71s.46.38.67.59.7.68,1,1c.08.08.15.18.22.27a.14.14,0,0,1-.1,0,4.68,4.68,0,0,0-1.88-.42,9.17,9.17,0,0,0-1,0,3,3,0,0,0-.65.1c-.54.16-1.08.33-1.62.51a13,13,0,0,0-1.75.72,2.33,2.33,0,0,1-.41.15l-1.27.34c-.33.09-.67.18-1,.3s-.4.28-.28.56a.39.39,0,0,0,.39.27l.64-.09.34-.06a.16.16,0,0,1-.07.08l-1.39.74a6.87,6.87,0,0,0-1.06.61.39.39,0,0,0-.12.53.36.36,0,0,0,.51.17l1.28-.56.34-.13c-.5.38-1,.74-1.51,1.11a.49.49,0,0,0-.27.46.5.5,0,0,0,.26.39.35.35,0,0,0,.39-.05l1.34-1,.3-.2a1,1,0,0,1-.13.18l-.94,1a.46.46,0,0,0,0,.66.33.33,0,0,0,.44.07c.1-.09.21-.15.3-.24l.72-.72.28-.29c-.08.16-.17.29-.26.43a.67.67,0,0,0-.15.45.43.43,0,0,0,.21.34.31.31,0,0,0,.38,0,4,4,0,0,0,.47-.51c.22-.3.4-.63.64-.92a4.48,4.48,0,0,1,1.31-1.06,3.88,3.88,0,0,1,1.7-.47,4.29,4.29,0,0,1,.91.07,3.86,3.86,0,0,1,1.25.47,4.75,4.75,0,0,1,1.36,1.2,5.5,5.5,0,0,1,.71,1.22,5.8,5.8,0,0,1,.48,2,10.9,10.9,0,0,1,0,1.26,4.86,4.86,0,0,1-.25,1.16,5.75,5.75,0,0,1-.48,1.09,5.27,5.27,0,0,1-.69,1,4.37,4.37,0,0,1-1,.82,3.94,3.94,0,0,1-1.33.53l-.29.05v0l.77-.05a5.63,5.63,0,0,0,1.19-.2,7.9,7.9,0,0,0,.91-.31,4.38,4.38,0,0,0,.55-.31,7.57,7.57,0,0,0,1.37-1c.3-.28.57-.59.84-.9a6.9,6.9,0,0,0,.84-1.27,10.5,10.5,0,0,0,.73-1.75,4.34,4.34,0,0,1,.19-.42h0l.21,1.18.3,1.6Zm-30.54-1.16v0H56a9.88,9.88,0,0,1,1-.15,6.35,6.35,0,0,1,1.43.07,10.69,10.69,0,0,1,1.41.33,21.31,21.31,0,0,1,3,1.25l1.77.87,2.1,1c.3.14.6.27.9.38s.7.22,1.05.32,1,.28,1.45.4,1,.24,1.45.34.87.17,1.3.23.59.08.88.11.67.07,1,.08c.49,0,1,0,1.47,0a7.83,7.83,0,0,0,.92-.09c.45-.07.89-.16,1.34-.25.23,0,.45-.11.68-.17v0l-.29,0-.84,0c-.31,0-.62,0-.93-.09a12.31,12.31,0,0,1-1.3-.25c-.58-.15-1.15-.34-1.72-.54s-1.4-.52-2.1-.79L70,300.5l-1.67-.65c-.46-.18-.93-.35-1.4-.51q-1.06-.35-2.14-.67-.82-.24-1.65-.45c-.54-.14-1.09-.26-1.64-.38l-.94-.18-.82-.14-.87-.11-.51-.06a1.58,1.58,0,0,0-.36,0,5.09,5.09,0,0,0-1.66.62C56.22,298.06,56.08,298.15,55.94,298.24Z"/><path class="cls-7" d="M54.29,326.43a1.68,1.68,0,0,1,.58,0,4.93,4.93,0,0,1,.57.09,2.81,2.81,0,0,1,1.46.83,2.91,2.91,0,0,1,.82,1.5,3.4,3.4,0,0,1-1,3.16,5,5,0,0,1-1.4,1,5,5,0,0,1-1.4.44,11.36,11.36,0,0,1-1.46.13q-.66,0-1.31-.05t-1.3-.16q-.08,1.18-.22,2.33t-.35,2.32q-.21,1.07-.5,2.15a16.26,16.26,0,0,1-.73,2.08,9,9,0,0,1-.47.94,5.34,5.34,0,0,1-.6.84,4.35,4.35,0,0,1-.78.77,2.36,2.36,0,0,1-1,.45.44.44,0,0,1-.29,0,.62.62,0,0,1-.22-.19.53.53,0,0,1-.1-.28.49.49,0,0,1,.3-.48l.26-.11.27-.11a1.79,1.79,0,0,0,.26-.17,3.81,3.81,0,0,0,1-1.14,9.48,9.48,0,0,0,.62-1.34,16.72,16.72,0,0,0,.93-3.24q.3-1.67.48-3.37.09-.75.14-1.58a7.83,7.83,0,0,0-1.55-.05,5.53,5.53,0,0,0-1.52.32,3.15,3.15,0,0,0-.74.36,1.78,1.78,0,0,0-.57.59,1.52,1.52,0,0,0-.24.77,1.83,1.83,0,0,0,.14.8,2.32,2.32,0,0,0,.43.62,1,1,0,0,0,.68.33.51.51,0,0,0,.2,0l.19,0,.17-.07a.5.5,0,0,1,.18,0,.6.6,0,0,1,.3.09.44.44,0,0,1,.19.26.53.53,0,0,1,0,.34.59.59,0,0,1-.19.24.86.86,0,0,1-.29.15l-.32.08a1.87,1.87,0,0,1-.85,0,2.56,2.56,0,0,1-.77-.35,2.79,2.79,0,0,1-1-1.39,2.84,2.84,0,0,1,0-1.69,2.73,2.73,0,0,1,.9-1.34,3.78,3.78,0,0,1,1.45-.73,6.08,6.08,0,0,1,1.69-.19q.85,0,1.69.11l.18,0,.14,0a.46.46,0,0,1,.3.09l1.15.11a10.16,10.16,0,0,0,1.16,0,5.92,5.92,0,0,0,.9-.1,2.88,2.88,0,0,0,.84-.3,3.38,3.38,0,0,0,.85-.7,3.69,3.69,0,0,0,.45-.63,2.22,2.22,0,0,0,.27-.76,1.42,1.42,0,0,0-.11-.76,2.3,2.3,0,0,0-.43-.64,2,2,0,0,0-.39-.34,4.53,4.53,0,0,1-.43-.31.9.9,0,0,1-.27-.58.78.78,0,0,1,.19-.6A.93.93,0,0,1,54.29,326.43Z"/><path class="cls-7" d="M53.52,342.17a5,5,0,0,1-1-.16,4.18,4.18,0,0,1-1.13-.47,3.5,3.5,0,0,1-.41-.3,2.54,2.54,0,0,1-.34-.35,2.49,2.49,0,0,1-.32-.67,1.65,1.65,0,0,1,0-.76,2.68,2.68,0,0,1,.38-1,3.38,3.38,0,0,1,.8-.88,4.31,4.31,0,0,1,1.37-.73,4.86,4.86,0,0,1,1.66-.24.77.77,0,0,1,.49.15.48.48,0,0,1,.21.36.42.42,0,0,1-.23.33.86.86,0,0,1-.51.11,2.45,2.45,0,0,0-1.12.17,2.84,2.84,0,0,0-.73.44,2.63,2.63,0,0,0-.6.69,2,2,0,0,0-.28.8,1,1,0,0,0,0,.28,1.23,1.23,0,0,0,.1.44,1.35,1.35,0,0,0,.31.45,1.32,1.32,0,0,0,.64.32,2,2,0,0,0,1.48-.2l.25-.18a3.65,3.65,0,0,1-1-.63,1.41,1.41,0,0,1-.57-1.42,1.23,1.23,0,0,1,.63-.76,2.12,2.12,0,0,1,.53-.2,2.39,2.39,0,0,1,.61-.07,2,2,0,0,1,1.08.27,1.47,1.47,0,0,1,.68.74,2.39,2.39,0,0,1,0,1.4,1,1,0,0,0,.35-.24,1.33,1.33,0,0,0,.27-.46.5.5,0,0,1,.33-.29.88.88,0,0,1,.54,0,.72.72,0,0,1,.43.28.45.45,0,0,1,.08.41,1.74,1.74,0,0,1-.56.88,2.29,2.29,0,0,1-.72.4,3.22,3.22,0,0,1-1.25.13l-.3.29a2.28,2.28,0,0,1-.33.25,2.33,2.33,0,0,1-1.16.41A3.21,3.21,0,0,1,53.52,342.17Zm1.2-3.51a.67.67,0,0,0-.25.07.29.29,0,0,0-.16.24.53.53,0,0,0,.11.55A1.62,1.62,0,0,0,55,340v0a1.62,1.62,0,0,0,.12-.57,1.22,1.22,0,0,0-.07-.47.29.29,0,0,0-.28-.23Z"/><path class="cls-7" d="M60.51,342.17a4.65,4.65,0,0,1-1.1-.12,3.06,3.06,0,0,1-1.57-.9,2.41,2.41,0,0,1-.62-1.54,2.17,2.17,0,0,1,0-.6,3.57,3.57,0,0,1,.16-.61,3.7,3.7,0,0,1,.61-1.14,3.93,3.93,0,0,1,1.07-1.07,3.31,3.31,0,0,1,1.29-.52,2,2,0,0,1,1,.06,1.38,1.38,0,0,1,.75.5,1.28,1.28,0,0,1,.27,1.07,2.22,2.22,0,0,1-.61,1.2.73.73,0,0,1-.47.2.77.77,0,0,1-.52-.12.56.56,0,0,1-.29-.38.43.43,0,0,1,.13-.4,1.25,1.25,0,0,0,.34-.59.45.45,0,0,0-.06-.37.24.24,0,0,0-.26-.1,1.52,1.52,0,0,0-.71.32,3,3,0,0,0-.65.71,3.27,3.27,0,0,0-.48.95,3.23,3.23,0,0,0-.16,1,1.62,1.62,0,0,0,0,.38,1.4,1.4,0,0,0,.15.38,1.06,1.06,0,0,0,.29.32,1.22,1.22,0,0,0,.46.21,2.49,2.49,0,0,0,2.45-.81,3.73,3.73,0,0,0,.67-.93c.14-.29.22-.45.23-.46a.54.54,0,0,1,.35-.32.82.82,0,0,1,.54,0,.71.71,0,0,1,.42.31.57.57,0,0,1,.07.46,1.29,1.29,0,0,0-.09.19c0,.11-.12.25-.21.41s-.2.35-.33.55a3.15,3.15,0,0,1-.49.58,3.87,3.87,0,0,1-.69.61,3.23,3.23,0,0,1-.78.4A4.07,4.07,0,0,1,60.51,342.17Z"/><path class="cls-7" d="M65.29,342a2.33,2.33,0,0,1-1-.19,2.12,2.12,0,0,1-1.17-1.15,2.57,2.57,0,0,1-.18-1.42,5.48,5.48,0,0,1,.41-1.43,7.56,7.56,0,0,1,.8-1.44,6.52,6.52,0,0,1,1.07-1.2,3.37,3.37,0,0,1,1.43-.72,3.16,3.16,0,0,1,2.17.34,2,2,0,0,1,.46.35l.28.3a.58.58,0,0,1,.13.52.72.72,0,0,1-.28.41.77.77,0,0,1-.5.14.71.71,0,0,1-.52-.32l-.06,0h0a2.18,2.18,0,0,0-.32-.28,1.67,1.67,0,0,0-1.1-.17,1.66,1.66,0,0,0-.74.42,4.59,4.59,0,0,0-.77.89,7.48,7.48,0,0,0-.65,1.17,4.39,4.39,0,0,0-.36,1.26,1.93,1.93,0,0,0,0,.3,2,2,0,0,0,0,.37,1.25,1.25,0,0,0,.14.35.52.52,0,0,0,.27.23.3.3,0,0,0,.16,0,.59.59,0,0,0,.24,0,2,2,0,0,0,.65-.46,5.43,5.43,0,0,0,.95-1.45l.25-.57a4.16,4.16,0,0,0,.2-.5l.11-.35a2.21,2.21,0,0,1,.14-.33.67.67,0,0,1,.49-.42l.09,0h.12a.18.18,0,0,1,.13,0h0s0,0,.05,0a.75.75,0,0,1,.38.32.68.68,0,0,1,.08.51l-.26.72a5.12,5.12,0,0,0-.17,1.29,2,2,0,0,0,.19.93.3.3,0,0,0,.07.11l.06,0,.11,0a.34.34,0,0,0,.17-.05,1.82,1.82,0,0,0,.51-.51,5.23,5.23,0,0,0,.52-.95c.14-.36.24-.65.31-.87l.11-.4a.66.66,0,0,1,.33-.42.7.7,0,0,1,.54-.08.71.71,0,0,1,.44.32.75.75,0,0,1,.09.56s0,.17-.13.46-.21.63-.36,1a3.76,3.76,0,0,1-1.62,2.08,1.48,1.48,0,0,1-.6.18,1.61,1.61,0,0,1-.73-.11,1.87,1.87,0,0,1-1.08-.91.34.34,0,0,1-.08-.15l-.06.07a3.21,3.21,0,0,1-1.32,1A1.91,1.91,0,0,1,65.29,342Zm3-5.83s0,0,0,0S68.34,336.22,68.33,336.19Z"/><path class="cls-7" d="M70.13,344a.78.78,0,0,1-.5-.18.75.75,0,0,1-.3-.46.54.54,0,0,1,.08-.5.65.65,0,0,1,.44-.25q1.53-.16,3.05-.37l.51-1.49a2.09,2.09,0,0,1-1.49-.08,2.16,2.16,0,0,1-1.19-1.23,3.29,3.29,0,0,1-.18-1.56,6.27,6.27,0,0,1,.39-1.54,8.48,8.48,0,0,1,.78-1.55,6.24,6.24,0,0,1,1.19-1.4,3.06,3.06,0,0,1,1.28-.7,2.78,2.78,0,0,1,1.26,0,2.71,2.71,0,0,1,.81.34,1.86,1.86,0,0,1,.46.47l.18.28a.77.77,0,0,1,.14.66.72.72,0,0,1-.35.43.8.8,0,0,1-.56.08.72.72,0,0,1-.49-.41.41.41,0,0,0-.08-.11.87.87,0,0,0-.21-.17,1.14,1.14,0,0,0-.38-.13,1.37,1.37,0,0,0-.57,0,1.44,1.44,0,0,0-.72.44,5.64,5.64,0,0,0-.77,1,7.08,7.08,0,0,0-.62,1.27A5.17,5.17,0,0,0,72,338a2.39,2.39,0,0,0,0,.76.64.64,0,0,0,.39.52.54.54,0,0,0,.55,0,1.87,1.87,0,0,0,.72-.63,6.44,6.44,0,0,0,.73-1.29c.2-.48.36-.9.49-1.27l.12-.41a.85.85,0,0,1,.37-.46.63.63,0,0,1,.54-.06.6.6,0,0,1,.41.35.9.9,0,0,1,.07.59s-.08.17-.16.48q-.54,1.79-1.09,3.52l.55-.6a3.82,3.82,0,0,0,.49-.69,6,6,0,0,0,.41-.9,8.37,8.37,0,0,0,.33-1.23.77.77,0,0,1,.3-.48.64.64,0,0,1,.54-.1.7.7,0,0,1,.44.35.83.83,0,0,1,.09.59,9.92,9.92,0,0,1-.41,1.56,7,7,0,0,1-.6,1.27,7.64,7.64,0,0,1-.66.89,8,8,0,0,1-.71.72l-.37.35,1.18-.19a.71.71,0,0,1,.53.15.88.88,0,0,1,.33.53.73.73,0,0,1-.08.57.65.65,0,0,1-.46.31q-1.41.18-2.83.33a9.13,9.13,0,0,0-.62,1.27l-.43,1.29-.13.42a.5.5,0,0,1-.54.4.86.86,0,0,1-.81-1.09l.11-.29a.38.38,0,0,1,0-.15l.23-.71c.07-.23.16-.45.24-.67l.1-.25-2.2.2Z"/><path class="cls-7" d="M79.27,340.65H79a1.09,1.09,0,0,1-.26,0,1.9,1.9,0,0,1-1.38-1.07c-.53-1-.55-2.47-.05-4.66q.24-1.15.49-2c.17-.56.27-.87.3-.91a.74.74,0,0,1,.36-.47.64.64,0,0,1,.56,0,.65.65,0,0,1,.4.41.94.94,0,0,1,0,.64,7,7,0,0,0-.26.82q-.24.81-.47,1.91c-.12.61-.21,1.13-.25,1.55a8.63,8.63,0,0,0-.05,1,2.85,2.85,0,0,0,.07.63,1.14,1.14,0,0,0,.13.32.39.39,0,0,0,.33.24.53.53,0,0,0,.4-.18,2.87,2.87,0,0,0,.49-.65A12.77,12.77,0,0,0,81,335.38l.43-1.57c0-.1,0-.19.05-.27s0-.17.08-.28c.08-.41.16-.81.26-1.21s.17-.81.23-1.21a1,1,0,0,1,.31-.57.59.59,0,0,1,.53-.17.65.65,0,0,1,.45.34.87.87,0,0,1,.1.63s-.07.37-.18,1-.26,1.34-.47,2.19l-.26,1.29q-.12.61-.18,1.12a5,5,0,0,0-.07,1.14,1,1,0,0,0,.1.4c0,.06.05.09.13.09s.21-.06.37-.25a4.11,4.11,0,0,0,.56-1.06,8.06,8.06,0,0,0,.45-1.3q.15-.6.14-.63a.93.93,0,0,1,.34-.54.54.54,0,0,1,.53-.08.61.61,0,0,1,.44.4,1.18,1.18,0,0,1,.07.68s-.08.27-.19.73a12,12,0,0,1-.5,1.53,9.61,9.61,0,0,1-.43.89,4.76,4.76,0,0,1-.44.67,1.69,1.69,0,0,1-.88.65,1.29,1.29,0,0,1-.7,0,1.73,1.73,0,0,1-1.1-.9V339l-.12.16a4,4,0,0,1-.43.66,2.74,2.74,0,0,1-.46.46A1.85,1.85,0,0,1,79.27,340.65Z"/><path class="cls-7" d="M86.67,339.55a1.06,1.06,0,0,1-.55,0,2,2,0,0,1-1.17-.5,2.7,2.7,0,0,1-.59-.81,5.65,5.65,0,0,1-.2-3.34,14.72,14.72,0,0,1,.45-2q.3-1,.58-1.72a.85.85,0,0,1,.39-.52.51.51,0,0,1,.54,0,.76.76,0,0,1,.38.46,1.1,1.1,0,0,1,0,.72c-.23.63-.42,1.23-.57,1.79s-.27,1.09-.35,1.59a5.47,5.47,0,0,0-.09,1.49,3.35,3.35,0,0,0,.15.67.79.79,0,0,0,.19.25.9.9,0,0,0,.42.17.47.47,0,0,0,.19,0,1.18,1.18,0,0,0,.71-.65,7.84,7.84,0,0,0,.49-1c.09-.25.18-.51.26-.78s.15-.5.2-.7l.17-.68a1,1,0,0,1,.32-.59.55.55,0,0,1,.53-.14.7.7,0,0,1,.44.4,1.15,1.15,0,0,1,.09.7,2.13,2.13,0,0,1,0,.27c0,.16-.08.36-.13.6s-.13.52-.22.82-.2.61-.32.92a5.66,5.66,0,0,1-1.12,2A2.29,2.29,0,0,1,86.67,339.55Zm.85-11a.53.53,0,0,1-.45-.06.79.79,0,0,1-.37-.47,1.13,1.13,0,0,1,0-.72l.27-.67a1.07,1.07,0,0,1,.41-.54.45.45,0,0,1,.52,0,.69.69,0,0,1,.38.48,1.19,1.19,0,0,1-.05.72L88,328A.91.91,0,0,1,87.52,328.59Z"/><path class="cls-7" d="M90.5,339.68h-.13l-.14,0a.89.89,0,0,1-.46-.44,1.06,1.06,0,0,1-.11-.71l.08-.6a.93.93,0,0,1,.29-.62.56.56,0,0,1,.52-.16.84.84,0,0,1,.46.42,1.22,1.22,0,0,1,.14.73l-.08.62Q91,339.58,90.5,339.68Zm.68-5.13-.13,0h-.13a.8.8,0,0,1-.46-.4,1.09,1.09,0,0,1-.11-.72q.66-5.21,1.32-10.61a1.31,1.31,0,0,1,.27-.71.6.6,0,0,1,.53-.26.64.64,0,0,1,.46.33,1.05,1.05,0,0,1,.13.69q-.66,5.52-1.32,10.84C91.69,334.18,91.5,334.46,91.19,334.55Z"/><text class="cls-3" transform="translate(6.98 369.7)">Uso do gradiente no símbolo ou <tspan x="0" y="9.6">no nome.</tspan></text><path class="cls-6" d="M12.48,274.25a11,11,0,1,0,11,11A11,11,0,0,0,12.48,274.25Zm0,1.47a9.53,9.53,0,0,1,7.75,15.08L6.93,277.5A9.49,9.49,0,0,1,12.48,275.72Zm0,19.06a9.53,9.53,0,0,1-7-16l13.46,13.46A9.48,9.48,0,0,1,12.48,294.78Z"/><rect class="cls-10" x="0.16" y="671.03" width="131" height="80"/><path class="cls-7" d="M87.66,709.61v2.62a.74.74,0,0,0,0,.12c0,.23,0,.46-.06.69-.09.54-.2,1.08-.3,1.62s-.19,1.1-.32,1.64a16.48,16.48,0,0,1-.71,2.4c-.29.74-.6,1.47-.93,2.19a11.48,11.48,0,0,1-.65,1.2q-.53.88-1.11,1.73a19.16,19.16,0,0,1-2,2.46c-.44.47-.91.92-1.4,1.35s-.94.79-1.42,1.17a18.41,18.41,0,0,1-2.42,1.58c-.52.29-1.06.56-1.6.81s-1,.46-1.57.65a15,15,0,0,1-2.19.65c-.62.12-1.24.25-1.87.35s-1,.13-1.56.18-.78.08-1.18.1-.76,0-1.14,0l-1.54-.08c-.22,0-.44,0-.65-.05l-1.18-.18c-.47-.08-.94-.16-1.4-.27a19.13,19.13,0,0,1-2.55-.75c-.51-.19-1-.39-1.51-.61s-.91-.44-1.36-.68-.87-.47-1.27-.75c-.6-.41-1.19-.83-1.76-1.27s-1-.8-1.41-1.23A17.56,17.56,0,0,1,49,725.59c-.28-.34-.58-.67-.84-1-.49-.69-1-1.38-1.44-2.09-.17-.26-.31-.54-.46-.81l0,0,.1,0c.46.21.91.44,1.39.61a5.94,5.94,0,0,0,2.49.37,7.17,7.17,0,0,0,1.27-.2,7.79,7.79,0,0,0,2.22-1,6.92,6.92,0,0,1,1.39-.83c.45-.16.91-.29,1.37-.43s.79-.22,1.18-.35a.39.39,0,0,0,.27-.43.45.45,0,0,0-.45-.35l-.3,0-.42.07c.19-.1.38-.16.57-.25l1-.46a.32.32,0,0,0,.21-.31.45.45,0,0,0-.61-.41c-.32.11-.64.25-1,.37l-.55.19a.16.16,0,0,1,.07-.08l1.57-1a.38.38,0,0,0,.16-.42.46.46,0,0,0-.75-.24l-1.3.83-.32.19c.14-.17.29-.32.45-.47l.84-.84a.33.33,0,0,0,0-.44c-.16-.21-.31-.26-.51-.15a3.29,3.29,0,0,0-.47.32l-1.36,1.13-.5.4,0-.07.41-.64c.1-.16.18-.34.05-.52s-.34-.34-.57-.17a1.81,1.81,0,0,0-.65.86,3,3,0,0,1-.19.45,3.86,3.86,0,0,1-.95,1.23,4.83,4.83,0,0,1-.66.47,3.2,3.2,0,0,1-2,.39,3.31,3.31,0,0,1-1-.27,3.73,3.73,0,0,1-1.33-1,4.34,4.34,0,0,1-.71-1.21,4.45,4.45,0,0,1-.32-2.18c0-.39.1-.79.18-1.17a8.18,8.18,0,0,1,1-2.53,10.91,10.91,0,0,1,1.6-2.08c.23-.24.49-.45.74-.67a8.1,8.1,0,0,1,1.82-1.18l.2-.1a.94.94,0,0,0-.28,0l-1,.1a9.14,9.14,0,0,0-1.6.35,8.77,8.77,0,0,0-1.72.74,6.73,6.73,0,0,0-1.4,1,9.94,9.94,0,0,0-.89,1,7.94,7.94,0,0,0-1.15,2l-.21.5a.74.74,0,0,1-.26-.5c0-1,0-1.93,0-2.9a1.6,1.6,0,0,1,0-.28c.09-.48.18-1,.28-1.45.13-.64.25-1.28.39-1.92a17.31,17.31,0,0,1,.71-2.42c.27-.68.56-1.36.85-2,.16-.36.34-.7.53-1s.48-.84.73-1.24a17.4,17.4,0,0,1,1.52-2.08c.41-.48.82-1,1.25-1.4s.92-.89,1.39-1.32a11.82,11.82,0,0,1,.92-.76c.49-.37,1-.72,1.51-1.06s1-.59,1.45-.86.87-.45,1.32-.64c.6-.26,1.21-.51,1.82-.73a14.61,14.61,0,0,1,1.42-.44q1-.25,2-.45c.43-.09.88-.13,1.31-.18s.82-.09,1.24-.12.65,0,1,0l.11,0h.94l.07,0,1.5.08c.28,0,.55,0,.83.08l1.36.23a17.88,17.88,0,0,1,2.42.62,16.3,16.3,0,0,1,2.28.91c.63.32,1.26.63,1.86,1s1.18.75,1.75,1.14c.38.26.74.56,1.11.85s.55.46.81.7c.42.4.84.81,1.25,1.22.1.1.18.21.27.32a.16.16,0,0,1-.12,0,5.62,5.62,0,0,0-2.26-.5,11,11,0,0,0-1.22,0,3.6,3.6,0,0,0-.78.12c-.65.19-1.3.4-1.94.61a15.63,15.63,0,0,0-2.1.87,2.8,2.8,0,0,1-.49.18l-1.52.4c-.4.11-.8.22-1.19.36s-.48.34-.34.67a.47.47,0,0,0,.47.33l.77-.11.41-.07a.19.19,0,0,1-.08.09l-1.67.89a8.24,8.24,0,0,0-1.27.73.47.47,0,0,0-.14.63.43.43,0,0,0,.61.2L70.4,701l.41-.16c-.6.46-1.21.89-1.82,1.33a.58.58,0,0,0-.32.56.6.6,0,0,0,.31.47.42.42,0,0,0,.47-.06l1.61-1.15.36-.24a1.24,1.24,0,0,1-.16.22l-1.13,1.21a.56.56,0,0,0-.05.79.4.4,0,0,0,.53.09c.12-.1.25-.18.36-.29l.86-.86.34-.35c-.09.19-.21.35-.31.52a.8.8,0,0,0-.18.54.51.51,0,0,0,.25.41.37.37,0,0,0,.45,0,4.81,4.81,0,0,0,.56-.61c.27-.36.48-.76.76-1.1A5.37,5.37,0,0,1,75.27,701a4.66,4.66,0,0,1,2-.57,5.14,5.14,0,0,1,1.09.08,4.63,4.63,0,0,1,1.5.56,5.7,5.7,0,0,1,1.63,1.44,6.6,6.6,0,0,1,.85,1.46,7,7,0,0,1,.58,2.42,13.08,13.08,0,0,1,0,1.52,5.83,5.83,0,0,1-.3,1.39,6.9,6.9,0,0,1-.57,1.31,6.32,6.32,0,0,1-.83,1.16,5.24,5.24,0,0,1-1.18,1,4.72,4.72,0,0,1-1.6.63l-.35.07v0l.93-.06a6.75,6.75,0,0,0,1.43-.24,9.47,9.47,0,0,0,1.09-.37,5.26,5.26,0,0,0,.66-.38,9.08,9.08,0,0,0,1.64-1.22c.36-.34.69-.71,1-1.08a8.28,8.28,0,0,0,1-1.52,12.6,12.6,0,0,0,.87-2.1,5.21,5.21,0,0,1,.22-.51h0l.26,1.42.35,1.92ZM51,708.21v0h.07a11.85,11.85,0,0,1,1.17-.18,7.62,7.62,0,0,1,1.71.09,12.82,12.82,0,0,1,1.69.4,25.57,25.57,0,0,1,3.59,1.5c.71.34,1.41.71,2.12,1s1.67.78,2.51,1.17c.36.16.71.33,1.08.46s.84.27,1.27.39c.58.17,1.16.33,1.74.48s1.16.28,1.74.41,1,.2,1.56.28c.35.06.7.09,1.06.13s.81.09,1.22.1c.59,0,1.18,0,1.76,0a9.39,9.39,0,0,0,1.1-.1c.54-.08,1.07-.19,1.61-.3.27-.06.54-.14.82-.21v0c-.11,0-.23,0-.34,0-.34,0-.68,0-1,0s-.75,0-1.11-.1a14.77,14.77,0,0,1-1.56-.3c-.7-.19-1.38-.4-2.06-.64-.84-.3-1.68-.63-2.51-.95l-2.32-.9-2-.77c-.56-.21-1.11-.42-1.68-.61q-1.28-.42-2.56-.8-1-.29-2-.54c-.65-.16-1.31-.31-2-.45-.37-.08-.75-.14-1.13-.21l-1-.17-1-.13-.61-.07a1.9,1.9,0,0,0-.44,0,6.11,6.11,0,0,0-2,.74C51.35,708,51.19,708.11,51,708.21Z"/><rect class="cls-2" x="0.66" y="671.03" width="131" height="139.54"/><text class="cls-3" transform="translate(4.16 766.47)">Uso do símbolo ou do nome com <tspan x="0" y="9.6">cor em um background diferente </tspan><tspan x="0" y="19.2" xml:space="preserve">do cinza ou branco  </tspan><tspan class="cls-11" x="72.34" y="19.2">T</tspan><tspan x="75.69" y="19.2">ocaqui!</tspan></text><path class="cls-6" d="M11.16,671a11,11,0,1,0,11,11A11,11,0,0,0,11.16,671Zm0,1.47a9.53,9.53,0,0,1,7.75,15.08l-13.3-13.3A9.49,9.49,0,0,1,11.16,672.49Zm0,19.06a9.53,9.53,0,0,1-7-16L17.61,689A9.48,9.48,0,0,1,11.16,691.56Z"/></g></g></svg>